  0
SECTION
  2
HEADER
  9
$ACADVER
  1
AC1009
  9
$EXTMIN
 10
0.0
 20
0.0
 30
0.0
  9
$EXTMAX
 10
1000.0
 20
1000.0
 30
0.0
  9
$FILLMODE
 70
 0
  9
$SPLFRAME
 70
 1
  0
ENDSEC
  0
SECTION
  2
TABLES
  0
TABLE
  2
LAYER
 70
1
  0
LAYER
  2
0
 70
     0
 62
     7
  6
CONTINUOUS
  0
ENDTAB
  0
ENDSEC
  0
SECTION
  2
ENTITIES
  0
LINE
  8
0
 62
     0
 10
0.0937066
 20
105.344
 30
0.0
 11
295.844
 21
105.344
 31
0.0
  0
LINE
  8
0
 62
     0
 10
295.844
 20
105.344
 30
0.0
 11
295.844
 21
0.0937066
 31
0.0
  0
LINE
  8
0
 62
     0
 10
295.844
 20
0.0937066
 30
0.0
 11
0.0937066
 21
0.0937066
 31
0.0
  0
LINE
  8
0
 62
     0
 10
0.0937066
 20
0.0937066
 30
0.0
 11
0.0937066
 21
105.344
 31
0.0
  0
LINE
  8
0
 62
     0
 10
147.968
 20
103.843
 30
0.0
 11
148.278
 21
103.795
 31
0.0
  0
LINE
  8
0
 62
     0
 10
148.278
 20
103.795
 30
0.0
 11
148.556
 21
103.653
 31
0.0
  0
LINE
  8
0
 62
     0
 10
148.556
 20
103.653
 30
0.0
 11
148.777
 21
103.431
 31
0.0
  0
LINE
  8
0
 62
     0
 10
148.777
 20
103.431
 30
0.0
 11
148.919
 21
103.153
 31
0.0
  0
LINE
  8
0
 62
     0
 10
148.919
 20
103.153
 30
0.0
 11
148.969
 21
102.844
 31
0.0
  0
LINE
  8
0
 62
     0
 10
148.969
 20
102.844
 30
0.0
 11
148.919
 21
102.536
 31
0.0
  0
LINE
  8
0
 62
     0
 10
148.919
 20
102.536
 30
0.0
 11
148.777
 21
102.256
 31
0.0
  0
LINE
  8
0
 62
     0
 10
148.777
 20
102.256
 30
0.0
 11
148.556
 21
102.035
 31
0.0
  0
LINE
  8
0
 62
     0
 10
148.556
 20
102.035
 30
0.0
 11
148.278
 21
101.894
 31
0.0
  0
LINE
  8
0
 62
     0
 10
148.278
 20
101.894
 30
0.0
 11
147.968
 21
101.844
 31
0.0
  0
LINE
  8
0
 62
     0
 10
147.968
 20
101.844
 30
0.0
 11
147.66
 21
101.894
 31
0.0
  0
LINE
  8
0
 62
     0
 10
147.66
 20
101.894
 30
0.0
 11
147.381
 21
102.035
 31
0.0
  0
LINE
  8
0
 62
     0
 10
147.381
 20
102.035
 30
0.0
 11
147.159
 21
102.256
 31
0.0
  0
LINE
  8
0
 62
     0
 10
147.159
 20
102.256
 30
0.0
 11
147.017
 21
102.536
 31
0.0
  0
LINE
  8
0
 62
     0
 10
147.017
 20
102.536
 30
0.0
 11
146.969
 21
102.844
 31
0.0
  0
LINE
  8
0
 62
     0
 10
146.969
 20
102.844
 30
0.0
 11
147.017
 21
103.153
 31
0.0
  0
LINE
  8
0
 62
     0
 10
147.017
 20
103.153
 30
0.0
 11
147.159
 21
103.431
 31
0.0
  0
LINE
  8
0
 62
     0
 10
147.159
 20
103.431
 30
0.0
 11
147.381
 21
103.653
 31
0.0
  0
LINE
  8
0
 62
     0
 10
147.381
 20
103.653
 30
0.0
 11
147.66
 21
103.795
 31
0.0
  0
LINE
  8
0
 62
     0
 10
147.66
 20
103.795
 30
0.0
 11
147.968
 21
103.843
 31
0.0
  0
LINE
  8
0
 62
     0
 10
293.344
 20
103.843
 30
0.0
 11
293.653
 21
103.795
 31
0.0
  0
LINE
  8
0
 62
     0
 10
293.653
 20
103.795
 30
0.0
 11
293.931
 21
103.653
 31
0.0
  0
LINE
  8
0
 62
     0
 10
293.931
 20
103.653
 30
0.0
 11
294.153
 21
103.431
 31
0.0
  0
LINE
  8
0
 62
     0
 10
294.153
 20
103.431
 30
0.0
 11
294.295
 21
103.153
 31
0.0
  0
LINE
  8
0
 62
     0
 10
294.295
 20
103.153
 30
0.0
 11
294.343
 21
102.844
 31
0.0
  0
LINE
  8
0
 62
     0
 10
294.343
 20
102.844
 30
0.0
 11
294.295
 21
102.536
 31
0.0
  0
LINE
  8
0
 62
     0
 10
294.295
 20
102.536
 30
0.0
 11
294.153
 21
102.256
 31
0.0
  0
LINE
  8
0
 62
     0
 10
294.153
 20
102.256
 30
0.0
 11
293.931
 21
102.035
 31
0.0
  0
LINE
  8
0
 62
     0
 10
293.931
 20
102.035
 30
0.0
 11
293.653
 21
101.894
 31
0.0
  0
LINE
  8
0
 62
     0
 10
293.653
 20
101.894
 30
0.0
 11
293.344
 21
101.844
 31
0.0
  0
LINE
  8
0
 62
     0
 10
293.344
 20
101.844
 30
0.0
 11
293.034
 21
101.894
 31
0.0
  0
LINE
  8
0
 62
     0
 10
293.034
 20
101.894
 30
0.0
 11
292.756
 21
102.035
 31
0.0
  0
LINE
  8
0
 62
     0
 10
292.756
 20
102.035
 30
0.0
 11
292.534
 21
102.256
 31
0.0
  0
LINE
  8
0
 62
     0
 10
292.534
 20
102.256
 30
0.0
 11
292.392
 21
102.536
 31
0.0
  0
LINE
  8
0
 62
     0
 10
292.392
 20
102.536
 30
0.0
 11
292.344
 21
102.844
 31
0.0
  0
LINE
  8
0
 62
     0
 10
292.344
 20
102.844
 30
0.0
 11
292.392
 21
103.153
 31
0.0
  0
LINE
  8
0
 62
     0
 10
292.392
 20
103.153
 30
0.0
 11
292.534
 21
103.431
 31
0.0
  0
LINE
  8
0
 62
     0
 10
292.534
 20
103.431
 30
0.0
 11
292.756
 21
103.653
 31
0.0
  0
LINE
  8
0
 62
     0
 10
292.756
 20
103.653
 30
0.0
 11
293.034
 21
103.795
 31
0.0
  0
LINE
  8
0
 62
     0
 10
293.034
 20
103.795
 30
0.0
 11
293.344
 21
103.843
 31
0.0
  0
LINE
  8
0
 62
     0
 10
293.344
 20
3.59392
 30
0.0
 11
293.653
 21
3.5457
 31
0.0
  0
LINE
  8
0
 62
     0
 10
293.653
 20
3.5457
 30
0.0
 11
293.931
 21
3.40376
 31
0.0
  0
LINE
  8
0
 62
     0
 10
293.931
 20
3.40376
 30
0.0
 11
294.153
 21
3.18189
 31
0.0
  0
LINE
  8
0
 62
     0
 10
294.153
 20
3.18189
 30
0.0
 11
294.295
 21
2.90353
 31
0.0
  0
LINE
  8
0
 62
     0
 10
294.295
 20
2.90353
 30
0.0
 11
294.343
 21
2.59347
 31
0.0
  0
LINE
  8
0
 62
     0
 10
294.343
 20
2.59347
 30
0.0
 11
294.295
 21
2.28479
 31
0.0
  0
LINE
  8
0
 62
     0
 10
294.295
 20
2.28479
 30
0.0
 11
294.153
 21
2.00642
 31
0.0
  0
LINE
  8
0
 62
     0
 10
294.153
 20
2.00642
 30
0.0
 11
293.931
 21
1.78456
 31
0.0
  0
LINE
  8
0
 62
     0
 10
293.931
 20
1.78456
 30
0.0
 11
293.653
 21
1.64262
 31
0.0
  0
LINE
  8
0
 62
     0
 10
293.653
 20
1.64262
 30
0.0
 11
293.344
 21
1.59439
 31
0.0
  0
LINE
  8
0
 62
     0
 10
293.344
 20
1.59439
 30
0.0
 11
293.034
 21
1.64262
 31
0.0
  0
LINE
  8
0
 62
     0
 10
293.034
 20
1.64262
 30
0.0
 11
292.756
 21
1.78456
 31
0.0
  0
LINE
  8
0
 62
     0
 10
292.756
 20
1.78456
 30
0.0
 11
292.534
 21
2.00642
 31
0.0
  0
LINE
  8
0
 62
     0
 10
292.534
 20
2.00642
 30
0.0
 11
292.392
 21
2.28479
 31
0.0
  0
LINE
  8
0
 62
     0
 10
292.392
 20
2.28479
 30
0.0
 11
292.344
 21
2.59347
 31
0.0
  0
LINE
  8
0
 62
     0
 10
292.344
 20
2.59347
 30
0.0
 11
292.392
 21
2.90353
 31
0.0
  0
LINE
  8
0
 62
     0
 10
292.392
 20
2.90353
 30
0.0
 11
292.534
 21
3.18189
 31
0.0
  0
LINE
  8
0
 62
     0
 10
292.534
 20
3.18189
 30
0.0
 11
292.756
 21
3.40376
 31
0.0
  0
LINE
  8
0
 62
     0
 10
292.756
 20
3.40376
 30
0.0
 11
293.034
 21
3.5457
 31
0.0
  0
LINE
  8
0
 62
     0
 10
293.034
 20
3.5457
 30
0.0
 11
293.344
 21
3.59392
 31
0.0
  0
LINE
  8
0
 62
     0
 10
147.968
 20
3.59392
 30
0.0
 11
148.278
 21
3.5457
 31
0.0
  0
LINE
  8
0
 62
     0
 10
148.278
 20
3.5457
 30
0.0
 11
148.556
 21
3.40376
 31
0.0
  0
LINE
  8
0
 62
     0
 10
148.556
 20
3.40376
 30
0.0
 11
148.777
 21
3.18189
 31
0.0
  0
LINE
  8
0
 62
     0
 10
148.777
 20
3.18189
 30
0.0
 11
148.919
 21
2.90353
 31
0.0
  0
LINE
  8
0
 62
     0
 10
148.919
 20
2.90353
 30
0.0
 11
148.969
 21
2.59347
 31
0.0
  0
LINE
  8
0
 62
     0
 10
148.969
 20
2.59347
 30
0.0
 11
148.919
 21
2.28479
 31
0.0
  0
LINE
  8
0
 62
     0
 10
148.919
 20
2.28479
 30
0.0
 11
148.777
 21
2.00642
 31
0.0
  0
LINE
  8
0
 62
     0
 10
148.777
 20
2.00642
 30
0.0
 11
148.556
 21
1.78456
 31
0.0
  0
LINE
  8
0
 62
     0
 10
148.556
 20
1.78456
 30
0.0
 11
148.278
 21
1.64262
 31
0.0
  0
LINE
  8
0
 62
     0
 10
148.278
 20
1.64262
 30
0.0
 11
147.968
 21
1.59439
 31
0.0
  0
LINE
  8
0
 62
     0
 10
147.968
 20
1.59439
 30
0.0
 11
147.66
 21
1.64262
 31
0.0
  0
LINE
  8
0
 62
     0
 10
147.66
 20
1.64262
 30
0.0
 11
147.381
 21
1.78456
 31
0.0
  0
LINE
  8
0
 62
     0
 10
147.381
 20
1.78456
 30
0.0
 11
147.159
 21
2.00642
 31
0.0
  0
LINE
  8
0
 62
     0
 10
147.159
 20
2.00642
 30
0.0
 11
147.017
 21
2.28479
 31
0.0
  0
LINE
  8
0
 62
     0
 10
147.017
 20
2.28479
 30
0.0
 11
146.969
 21
2.59347
 31
0.0
  0
LINE
  8
0
 62
     0
 10
146.969
 20
2.59347
 30
0.0
 11
147.017
 21
2.90353
 31
0.0
  0
LINE
  8
0
 62
     0
 10
147.017
 20
2.90353
 30
0.0
 11
147.159
 21
3.18189
 31
0.0
  0
LINE
  8
0
 62
     0
 10
147.159
 20
3.18189
 30
0.0
 11
147.381
 21
3.40376
 31
0.0
  0
LINE
  8
0
 62
     0
 10
147.381
 20
3.40376
 30
0.0
 11
147.66
 21
3.5457
 31
0.0
  0
LINE
  8
0
 62
     0
 10
147.66
 20
3.5457
 30
0.0
 11
147.968
 21
3.59392
 31
0.0
  0
LINE
  8
0
 62
     0
 10
2.59347
 20
3.59392
 30
0.0
 11
2.90215
 21
3.5457
 31
0.0
  0
LINE
  8
0
 62
     0
 10
2.90215
 20
3.5457
 30
0.0
 11
3.18189
 21
3.40376
 31
0.0
  0
LINE
  8
0
 62
     0
 10
3.18189
 20
3.40376
 30
0.0
 11
3.40238
 21
3.18189
 31
0.0
  0
LINE
  8
0
 62
     0
 10
3.40238
 20
3.18189
 30
0.0
 11
3.54432
 21
2.90353
 31
0.0
  0
LINE
  8
0
 62
     0
 10
3.54432
 20
2.90353
 30
0.0
 11
3.59392
 21
2.59347
 31
0.0
  0
LINE
  8
0
 62
     0
 10
3.59392
 20
2.59347
 30
0.0
 11
3.54432
 21
2.28479
 31
0.0
  0
LINE
  8
0
 62
     0
 10
3.54432
 20
2.28479
 30
0.0
 11
3.40238
 21
2.00642
 31
0.0
  0
LINE
  8
0
 62
     0
 10
3.40238
 20
2.00642
 30
0.0
 11
3.18189
 21
1.78456
 31
0.0
  0
LINE
  8
0
 62
     0
 10
3.18189
 20
1.78456
 30
0.0
 11
2.90215
 21
1.64262
 31
0.0
  0
LINE
  8
0
 62
     0
 10
2.90215
 20
1.64262
 30
0.0
 11
2.59347
 21
1.59439
 31
0.0
  0
LINE
  8
0
 62
     0
 10
2.59347
 20
1.59439
 30
0.0
 11
2.28479
 21
1.64262
 31
0.0
  0
LINE
  8
0
 62
     0
 10
2.28479
 20
1.64262
 30
0.0
 11
2.00642
 21
1.78456
 31
0.0
  0
LINE
  8
0
 62
     0
 10
2.00642
 20
1.78456
 30
0.0
 11
1.78456
 21
2.00642
 31
0.0
  0
LINE
  8
0
 62
     0
 10
1.78456
 20
2.00642
 30
0.0
 11
1.64262
 21
2.28479
 31
0.0
  0
LINE
  8
0
 62
     0
 10
1.64262
 20
2.28479
 30
0.0
 11
1.59439
 21
2.59347
 31
0.0
  0
LINE
  8
0
 62
     0
 10
1.59439
 20
2.59347
 30
0.0
 11
1.64262
 21
2.90353
 31
0.0
  0
LINE
  8
0
 62
     0
 10
1.64262
 20
2.90353
 30
0.0
 11
1.78456
 21
3.18189
 31
0.0
  0
LINE
  8
0
 62
     0
 10
1.78456
 20
3.18189
 30
0.0
 11
2.00642
 21
3.40376
 31
0.0
  0
LINE
  8
0
 62
     0
 10
2.00642
 20
3.40376
 30
0.0
 11
2.28479
 21
3.5457
 31
0.0
  0
LINE
  8
0
 62
     0
 10
2.28479
 20
3.5457
 30
0.0
 11
2.59347
 21
3.59392
 31
0.0
  0
LINE
  8
0
 62
     0
 10
2.59347
 20
103.843
 30
0.0
 11
2.90215
 21
103.795
 31
0.0
  0
LINE
  8
0
 62
     0
 10
2.90215
 20
103.795
 30
0.0
 11
3.18189
 21
103.653
 31
0.0
  0
LINE
  8
0
 62
     0
 10
3.18189
 20
103.653
 30
0.0
 11
3.40238
 21
103.431
 31
0.0
  0
LINE
  8
0
 62
     0
 10
3.40238
 20
103.431
 30
0.0
 11
3.54432
 21
103.153
 31
0.0
  0
LINE
  8
0
 62
     0
 10
3.54432
 20
103.153
 30
0.0
 11
3.59392
 21
102.844
 31
0.0
  0
LINE
  8
0
 62
     0
 10
3.59392
 20
102.844
 30
0.0
 11
3.54432
 21
102.536
 31
0.0
  0
LINE
  8
0
 62
     0
 10
3.54432
 20
102.536
 30
0.0
 11
3.40238
 21
102.256
 31
0.0
  0
LINE
  8
0
 62
     0
 10
3.40238
 20
102.256
 30
0.0
 11
3.18189
 21
102.035
 31
0.0
  0
LINE
  8
0
 62
     0
 10
3.18189
 20
102.035
 30
0.0
 11
2.90215
 21
101.894
 31
0.0
  0
LINE
  8
0
 62
     0
 10
2.90215
 20
101.894
 30
0.0
 11
2.59347
 21
101.844
 31
0.0
  0
LINE
  8
0
 62
     0
 10
2.59347
 20
101.844
 30
0.0
 11
2.28479
 21
101.894
 31
0.0
  0
LINE
  8
0
 62
     0
 10
2.28479
 20
101.894
 30
0.0
 11
2.00642
 21
102.035
 31
0.0
  0
LINE
  8
0
 62
     0
 10
2.00642
 20
102.035
 30
0.0
 11
1.78456
 21
102.256
 31
0.0
  0
LINE
  8
0
 62
     0
 10
1.78456
 20
102.256
 30
0.0
 11
1.64262
 21
102.536
 31
0.0
  0
LINE
  8
0
 62
     0
 10
1.64262
 20
102.536
 30
0.0
 11
1.59439
 21
102.844
 31
0.0
  0
LINE
  8
0
 62
     0
 10
1.59439
 20
102.844
 30
0.0
 11
1.64262
 21
103.153
 31
0.0
  0
LINE
  8
0
 62
     0
 10
1.64262
 20
103.153
 30
0.0
 11
1.78456
 21
103.431
 31
0.0
  0
LINE
  8
0
 62
     0
 10
1.78456
 20
103.431
 30
0.0
 11
2.00642
 21
103.653
 31
0.0
  0
LINE
  8
0
 62
     0
 10
2.00642
 20
103.653
 30
0.0
 11
2.28479
 21
103.795
 31
0.0
  0
LINE
  8
0
 62
     0
 10
2.28479
 20
103.795
 30
0.0
 11
2.59347
 21
103.843
 31
0.0
  0
LINE
  8
0
 62
     0
 10
21.6187
 20
84.8198
 30
0.0
 11
21.6187
 21
83.8193
 31
0.0
  0
LINE
  8
0
 62
     0
 10
21.6187
 20
83.8193
 30
0.0
 11
7.61919
 21
83.8193
 31
0.0
  0
LINE
  8
0
 62
     0
 10
7.61919
 20
83.8193
 30
0.0
 11
7.61919
 21
84.8198
 31
0.0
  0
LINE
  8
0
 62
     0
 10
7.61919
 20
84.8198
 30
0.0
 11
6.81852
 21
84.8198
 31
0.0
  0
LINE
  8
0
 62
     0
 10
6.81852
 20
84.8198
 30
0.0
 11
6.81852
 21
87.9189
 31
0.0
  0
LINE
  8
0
 62
     0
 10
6.81852
 20
87.9189
 30
0.0
 11
7.61919
 21
87.9189
 31
0.0
  0
LINE
  8
0
 62
     0
 10
7.61919
 20
87.9189
 30
0.0
 11
7.61919
 21
93.7189
 31
0.0
  0
LINE
  8
0
 62
     0
 10
7.61919
 20
93.7189
 30
0.0
 11
6.81852
 21
93.7189
 31
0.0
  0
LINE
  8
0
 62
     0
 10
6.81852
 20
93.7189
 30
0.0
 11
6.81852
 21
96.8195
 31
0.0
  0
LINE
  8
0
 62
     0
 10
6.81852
 20
96.8195
 30
0.0
 11
7.61919
 21
96.8195
 31
0.0
  0
LINE
  8
0
 62
     0
 10
7.61919
 20
96.8195
 30
0.0
 11
7.61919
 21
97.8186
 31
0.0
  0
LINE
  8
0
 62
     0
 10
7.61919
 20
97.8186
 30
0.0
 11
21.6187
 21
97.8186
 31
0.0
  0
LINE
  8
0
 62
     0
 10
21.6187
 20
97.8186
 30
0.0
 11
21.6187
 21
96.8195
 31
0.0
  0
LINE
  8
0
 62
     0
 10
21.6187
 20
96.8195
 30
0.0
 11
22.4193
 21
96.8195
 31
0.0
  0
LINE
  8
0
 62
     0
 10
22.4193
 20
96.8195
 30
0.0
 11
22.4193
 21
93.7189
 31
0.0
  0
LINE
  8
0
 62
     0
 10
22.4193
 20
93.7189
 30
0.0
 11
21.6187
 21
93.7189
 31
0.0
  0
LINE
  8
0
 62
     0
 10
21.6187
 20
93.7189
 30
0.0
 11
21.6187
 21
87.9189
 31
0.0
  0
LINE
  8
0
 62
     0
 10
21.6187
 20
87.9189
 30
0.0
 11
22.4193
 21
87.9189
 31
0.0
  0
LINE
  8
0
 62
     0
 10
22.4193
 20
87.9189
 30
0.0
 11
22.4193
 21
84.8198
 31
0.0
  0
LINE
  8
0
 62
     0
 10
22.4193
 20
84.8198
 30
0.0
 11
21.6187
 21
84.8198
 31
0.0
  0
LINE
  8
0
 62
     0
 10
21.6187
 20
65.7698
 30
0.0
 11
21.6187
 21
64.7693
 31
0.0
  0
LINE
  8
0
 62
     0
 10
21.6187
 20
64.7693
 30
0.0
 11
7.61919
 21
64.7693
 31
0.0
  0
LINE
  8
0
 62
     0
 10
7.61919
 20
64.7693
 30
0.0
 11
7.61919
 21
65.7698
 31
0.0
  0
LINE
  8
0
 62
     0
 10
7.61919
 20
65.7698
 30
0.0
 11
6.81852
 21
65.7698
 31
0.0
  0
LINE
  8
0
 62
     0
 10
6.81852
 20
65.7698
 30
0.0
 11
6.81852
 21
68.8689
 31
0.0
  0
LINE
  8
0
 62
     0
 10
6.81852
 20
68.8689
 30
0.0
 11
7.61919
 21
68.8689
 31
0.0
  0
LINE
  8
0
 62
     0
 10
7.61919
 20
68.8689
 30
0.0
 11
7.61919
 21
74.6689
 31
0.0
  0
LINE
  8
0
 62
     0
 10
7.61919
 20
74.6689
 30
0.0
 11
6.81852
 21
74.6689
 31
0.0
  0
LINE
  8
0
 62
     0
 10
6.81852
 20
74.6689
 30
0.0
 11
6.81852
 21
77.7695
 31
0.0
  0
LINE
  8
0
 62
     0
 10
6.81852
 20
77.7695
 30
0.0
 11
7.61919
 21
77.7695
 31
0.0
  0
LINE
  8
0
 62
     0
 10
7.61919
 20
77.7695
 30
0.0
 11
7.61919
 21
78.7686
 31
0.0
  0
LINE
  8
0
 62
     0
 10
7.61919
 20
78.7686
 30
0.0
 11
21.6187
 21
78.7686
 31
0.0
  0
LINE
  8
0
 62
     0
 10
21.6187
 20
78.7686
 30
0.0
 11
21.6187
 21
77.7695
 31
0.0
  0
LINE
  8
0
 62
     0
 10
21.6187
 20
77.7695
 30
0.0
 11
22.4193
 21
77.7695
 31
0.0
  0
LINE
  8
0
 62
     0
 10
22.4193
 20
77.7695
 30
0.0
 11
22.4193
 21
74.6689
 31
0.0
  0
LINE
  8
0
 62
     0
 10
22.4193
 20
74.6689
 30
0.0
 11
21.6187
 21
74.6689
 31
0.0
  0
LINE
  8
0
 62
     0
 10
21.6187
 20
74.6689
 30
0.0
 11
21.6187
 21
68.8689
 31
0.0
  0
LINE
  8
0
 62
     0
 10
21.6187
 20
68.8689
 30
0.0
 11
22.4193
 21
68.8689
 31
0.0
  0
LINE
  8
0
 62
     0
 10
22.4193
 20
68.8689
 30
0.0
 11
22.4193
 21
65.7698
 31
0.0
  0
LINE
  8
0
 62
     0
 10
22.4193
 20
65.7698
 30
0.0
 11
21.6187
 21
65.7698
 31
0.0
  0
LINE
  8
0
 62
     0
 10
21.6187
 20
46.7198
 30
0.0
 11
21.6187
 21
45.7193
 31
0.0
  0
LINE
  8
0
 62
     0
 10
21.6187
 20
45.7193
 30
0.0
 11
7.61919
 21
45.7193
 31
0.0
  0
LINE
  8
0
 62
     0
 10
7.61919
 20
45.7193
 30
0.0
 11
7.61919
 21
46.7198
 31
0.0
  0
LINE
  8
0
 62
     0
 10
7.61919
 20
46.7198
 30
0.0
 11
6.81852
 21
46.7198
 31
0.0
  0
LINE
  8
0
 62
     0
 10
6.81852
 20
46.7198
 30
0.0
 11
6.81852
 21
49.8189
 31
0.0
  0
LINE
  8
0
 62
     0
 10
6.81852
 20
49.8189
 30
0.0
 11
7.61919
 21
49.8189
 31
0.0
  0
LINE
  8
0
 62
     0
 10
7.61919
 20
49.8189
 30
0.0
 11
7.61919
 21
55.6189
 31
0.0
  0
LINE
  8
0
 62
     0
 10
7.61919
 20
55.6189
 30
0.0
 11
6.81852
 21
55.6189
 31
0.0
  0
LINE
  8
0
 62
     0
 10
6.81852
 20
55.6189
 30
0.0
 11
6.81852
 21
58.7195
 31
0.0
  0
LINE
  8
0
 62
     0
 10
6.81852
 20
58.7195
 30
0.0
 11
7.61919
 21
58.7195
 31
0.0
  0
LINE
  8
0
 62
     0
 10
7.61919
 20
58.7195
 30
0.0
 11
7.61919
 21
59.7186
 31
0.0
  0
LINE
  8
0
 62
     0
 10
7.61919
 20
59.7186
 30
0.0
 11
21.6187
 21
59.7186
 31
0.0
  0
LINE
  8
0
 62
     0
 10
21.6187
 20
59.7186
 30
0.0
 11
21.6187
 21
58.7195
 31
0.0
  0
LINE
  8
0
 62
     0
 10
21.6187
 20
58.7195
 30
0.0
 11
22.4193
 21
58.7195
 31
0.0
  0
LINE
  8
0
 62
     0
 10
22.4193
 20
58.7195
 30
0.0
 11
22.4193
 21
55.6189
 31
0.0
  0
LINE
  8
0
 62
     0
 10
22.4193
 20
55.6189
 30
0.0
 11
21.6187
 21
55.6189
 31
0.0
  0
LINE
  8
0
 62
     0
 10
21.6187
 20
55.6189
 30
0.0
 11
21.6187
 21
49.8189
 31
0.0
  0
LINE
  8
0
 62
     0
 10
21.6187
 20
49.8189
 30
0.0
 11
22.4193
 21
49.8189
 31
0.0
  0
LINE
  8
0
 62
     0
 10
22.4193
 20
49.8189
 30
0.0
 11
22.4193
 21
46.7198
 31
0.0
  0
LINE
  8
0
 62
     0
 10
22.4193
 20
46.7198
 30
0.0
 11
21.6187
 21
46.7198
 31
0.0
  0
LINE
  8
0
 62
     0
 10
21.6187
 20
27.6696
 30
0.0
 11
21.6187
 21
26.6692
 31
0.0
  0
LINE
  8
0
 62
     0
 10
21.6187
 20
26.6692
 30
0.0
 11
7.61919
 21
26.6692
 31
0.0
  0
LINE
  8
0
 62
     0
 10
7.61919
 20
26.6692
 30
0.0
 11
7.61919
 21
27.6696
 31
0.0
  0
LINE
  8
0
 62
     0
 10
7.61919
 20
27.6696
 30
0.0
 11
6.81852
 21
27.6696
 31
0.0
  0
LINE
  8
0
 62
     0
 10
6.81852
 20
27.6696
 30
0.0
 11
6.81852
 21
30.7689
 31
0.0
  0
LINE
  8
0
 62
     0
 10
6.81852
 20
30.7689
 30
0.0
 11
7.61919
 21
30.7689
 31
0.0
  0
LINE
  8
0
 62
     0
 10
7.61919
 20
30.7689
 30
0.0
 11
7.61919
 21
36.5689
 31
0.0
  0
LINE
  8
0
 62
     0
 10
7.61919
 20
36.5689
 30
0.0
 11
6.81852
 21
36.5689
 31
0.0
  0
LINE
  8
0
 62
     0
 10
6.81852
 20
36.5689
 30
0.0
 11
6.81852
 21
39.6695
 31
0.0
  0
LINE
  8
0
 62
     0
 10
6.81852
 20
39.6695
 30
0.0
 11
7.61919
 21
39.6695
 31
0.0
  0
LINE
  8
0
 62
     0
 10
7.61919
 20
39.6695
 30
0.0
 11
7.61919
 21
40.6686
 31
0.0
  0
LINE
  8
0
 62
     0
 10
7.61919
 20
40.6686
 30
0.0
 11
21.6187
 21
40.6686
 31
0.0
  0
LINE
  8
0
 62
     0
 10
21.6187
 20
40.6686
 30
0.0
 11
21.6187
 21
39.6695
 31
0.0
  0
LINE
  8
0
 62
     0
 10
21.6187
 20
39.6695
 30
0.0
 11
22.4193
 21
39.6695
 31
0.0
  0
LINE
  8
0
 62
     0
 10
22.4193
 20
39.6695
 30
0.0
 11
22.4193
 21
36.5689
 31
0.0
  0
LINE
  8
0
 62
     0
 10
22.4193
 20
36.5689
 30
0.0
 11
21.6187
 21
36.5689
 31
0.0
  0
LINE
  8
0
 62
     0
 10
21.6187
 20
36.5689
 30
0.0
 11
21.6187
 21
30.7689
 31
0.0
  0
LINE
  8
0
 62
     0
 10
21.6187
 20
30.7689
 30
0.0
 11
22.4193
 21
30.7689
 31
0.0
  0
LINE
  8
0
 62
     0
 10
22.4193
 20
30.7689
 30
0.0
 11
22.4193
 21
27.6696
 31
0.0
  0
LINE
  8
0
 62
     0
 10
22.4193
 20
27.6696
 30
0.0
 11
21.6187
 21
27.6696
 31
0.0
  0
LINE
  8
0
 62
     0
 10
21.6187
 20
8.61963
 30
0.0
 11
21.6187
 21
7.61919
 31
0.0
  0
LINE
  8
0
 62
     0
 10
21.6187
 20
7.61919
 30
0.0
 11
7.61919
 21
7.61919
 31
0.0
  0
LINE
  8
0
 62
     0
 10
7.61919
 20
7.61919
 30
0.0
 11
7.61919
 21
8.61963
 31
0.0
  0
LINE
  8
0
 62
     0
 10
7.61919
 20
8.61963
 30
0.0
 11
6.81852
 21
8.61963
 31
0.0
  0
LINE
  8
0
 62
     0
 10
6.81852
 20
8.61963
 30
0.0
 11
6.81852
 21
11.7189
 31
0.0
  0
LINE
  8
0
 62
     0
 10
6.81852
 20
11.7189
 30
0.0
 11
7.61919
 21
11.7189
 31
0.0
  0
LINE
  8
0
 62
     0
 10
7.61919
 20
11.7189
 30
0.0
 11
7.61919
 21
17.519
 31
0.0
  0
LINE
  8
0
 62
     0
 10
7.61919
 20
17.519
 30
0.0
 11
6.81852
 21
17.519
 31
0.0
  0
LINE
  8
0
 62
     0
 10
6.81852
 20
17.519
 30
0.0
 11
6.81852
 21
20.6196
 31
0.0
  0
LINE
  8
0
 62
     0
 10
6.81852
 20
20.6196
 30
0.0
 11
7.61919
 21
20.6196
 31
0.0
  0
LINE
  8
0
 62
     0
 10
7.61919
 20
20.6196
 30
0.0
 11
7.61919
 21
21.6187
 31
0.0
  0
LINE
  8
0
 62
     0
 10
7.61919
 20
21.6187
 30
0.0
 11
21.6187
 21
21.6187
 31
0.0
  0
LINE
  8
0
 62
     0
 10
21.6187
 20
21.6187
 30
0.0
 11
21.6187
 21
20.6196
 31
0.0
  0
LINE
  8
0
 62
     0
 10
21.6187
 20
20.6196
 30
0.0
 11
22.4193
 21
20.6196
 31
0.0
  0
LINE
  8
0
 62
     0
 10
22.4193
 20
20.6196
 30
0.0
 11
22.4193
 21
17.519
 31
0.0
  0
LINE
  8
0
 62
     0
 10
22.4193
 20
17.519
 30
0.0
 11
21.6187
 21
17.519
 31
0.0
  0
LINE
  8
0
 62
     0
 10
21.6187
 20
17.519
 30
0.0
 11
21.6187
 21
11.7189
 31
0.0
  0
LINE
  8
0
 62
     0
 10
21.6187
 20
11.7189
 30
0.0
 11
22.4193
 21
11.7189
 31
0.0
  0
LINE
  8
0
 62
     0
 10
22.4193
 20
11.7189
 30
0.0
 11
22.4193
 21
8.61963
 31
0.0
  0
LINE
  8
0
 62
     0
 10
22.4193
 20
8.61963
 30
0.0
 11
21.6187
 21
8.61963
 31
0.0
  0
LINE
  8
0
 62
     0
 10
40.6686
 20
84.8198
 30
0.0
 11
40.6686
 21
83.8193
 31
0.0
  0
LINE
  8
0
 62
     0
 10
40.6686
 20
83.8193
 30
0.0
 11
26.6692
 21
83.8193
 31
0.0
  0
LINE
  8
0
 62
     0
 10
26.6692
 20
83.8193
 30
0.0
 11
26.6692
 21
84.8198
 31
0.0
  0
LINE
  8
0
 62
     0
 10
26.6692
 20
84.8198
 30
0.0
 11
25.8685
 21
84.8198
 31
0.0
  0
LINE
  8
0
 62
     0
 10
25.8685
 20
84.8198
 30
0.0
 11
25.8685
 21
87.9189
 31
0.0
  0
LINE
  8
0
 62
     0
 10
25.8685
 20
87.9189
 30
0.0
 11
26.6692
 21
87.9189
 31
0.0
  0
LINE
  8
0
 62
     0
 10
26.6692
 20
87.9189
 30
0.0
 11
26.6692
 21
93.7189
 31
0.0
  0
LINE
  8
0
 62
     0
 10
26.6692
 20
93.7189
 30
0.0
 11
25.8685
 21
93.7189
 31
0.0
  0
LINE
  8
0
 62
     0
 10
25.8685
 20
93.7189
 30
0.0
 11
25.8685
 21
96.8195
 31
0.0
  0
LINE
  8
0
 62
     0
 10
25.8685
 20
96.8195
 30
0.0
 11
26.6692
 21
96.8195
 31
0.0
  0
LINE
  8
0
 62
     0
 10
26.6692
 20
96.8195
 30
0.0
 11
26.6692
 21
97.8186
 31
0.0
  0
LINE
  8
0
 62
     0
 10
26.6692
 20
97.8186
 30
0.0
 11
40.6686
 21
97.8186
 31
0.0
  0
LINE
  8
0
 62
     0
 10
40.6686
 20
97.8186
 30
0.0
 11
40.6686
 21
96.8195
 31
0.0
  0
LINE
  8
0
 62
     0
 10
40.6686
 20
96.8195
 30
0.0
 11
41.4694
 21
96.8195
 31
0.0
  0
LINE
  8
0
 62
     0
 10
41.4694
 20
96.8195
 30
0.0
 11
41.4694
 21
93.7189
 31
0.0
  0
LINE
  8
0
 62
     0
 10
41.4694
 20
93.7189
 30
0.0
 11
40.6686
 21
93.7189
 31
0.0
  0
LINE
  8
0
 62
     0
 10
40.6686
 20
93.7189
 30
0.0
 11
40.6686
 21
87.9189
 31
0.0
  0
LINE
  8
0
 62
     0
 10
40.6686
 20
87.9189
 30
0.0
 11
41.4694
 21
87.9189
 31
0.0
  0
LINE
  8
0
 62
     0
 10
41.4694
 20
87.9189
 30
0.0
 11
41.4694
 21
84.8198
 31
0.0
  0
LINE
  8
0
 62
     0
 10
41.4694
 20
84.8198
 30
0.0
 11
40.6686
 21
84.8198
 31
0.0
  0
LINE
  8
0
 62
     0
 10
40.6686
 20
65.7698
 30
0.0
 11
40.6686
 21
64.7693
 31
0.0
  0
LINE
  8
0
 62
     0
 10
40.6686
 20
64.7693
 30
0.0
 11
26.6692
 21
64.7693
 31
0.0
  0
LINE
  8
0
 62
     0
 10
26.6692
 20
64.7693
 30
0.0
 11
26.6692
 21
65.7698
 31
0.0
  0
LINE
  8
0
 62
     0
 10
26.6692
 20
65.7698
 30
0.0
 11
25.8685
 21
65.7698
 31
0.0
  0
LINE
  8
0
 62
     0
 10
25.8685
 20
65.7698
 30
0.0
 11
25.8685
 21
68.8689
 31
0.0
  0
LINE
  8
0
 62
     0
 10
25.8685
 20
68.8689
 30
0.0
 11
26.6692
 21
68.8689
 31
0.0
  0
LINE
  8
0
 62
     0
 10
26.6692
 20
68.8689
 30
0.0
 11
26.6692
 21
74.6689
 31
0.0
  0
LINE
  8
0
 62
     0
 10
26.6692
 20
74.6689
 30
0.0
 11
25.8685
 21
74.6689
 31
0.0
  0
LINE
  8
0
 62
     0
 10
25.8685
 20
74.6689
 30
0.0
 11
25.8685
 21
77.7695
 31
0.0
  0
LINE
  8
0
 62
     0
 10
25.8685
 20
77.7695
 30
0.0
 11
26.6692
 21
77.7695
 31
0.0
  0
LINE
  8
0
 62
     0
 10
26.6692
 20
77.7695
 30
0.0
 11
26.6692
 21
78.7686
 31
0.0
  0
LINE
  8
0
 62
     0
 10
26.6692
 20
78.7686
 30
0.0
 11
40.6686
 21
78.7686
 31
0.0
  0
LINE
  8
0
 62
     0
 10
40.6686
 20
78.7686
 30
0.0
 11
40.6686
 21
77.7695
 31
0.0
  0
LINE
  8
0
 62
     0
 10
40.6686
 20
77.7695
 30
0.0
 11
41.4694
 21
77.7695
 31
0.0
  0
LINE
  8
0
 62
     0
 10
41.4694
 20
77.7695
 30
0.0
 11
41.4694
 21
74.6689
 31
0.0
  0
LINE
  8
0
 62
     0
 10
41.4694
 20
74.6689
 30
0.0
 11
40.6686
 21
74.6689
 31
0.0
  0
LINE
  8
0
 62
     0
 10
40.6686
 20
74.6689
 30
0.0
 11
40.6686
 21
68.8689
 31
0.0
  0
LINE
  8
0
 62
     0
 10
40.6686
 20
68.8689
 30
0.0
 11
41.4694
 21
68.8689
 31
0.0
  0
LINE
  8
0
 62
     0
 10
41.4694
 20
68.8689
 30
0.0
 11
41.4694
 21
65.7698
 31
0.0
  0
LINE
  8
0
 62
     0
 10
41.4694
 20
65.7698
 30
0.0
 11
40.6686
 21
65.7698
 31
0.0
  0
LINE
  8
0
 62
     0
 10
40.6686
 20
46.7198
 30
0.0
 11
40.6686
 21
45.7193
 31
0.0
  0
LINE
  8
0
 62
     0
 10
40.6686
 20
45.7193
 30
0.0
 11
26.6692
 21
45.7193
 31
0.0
  0
LINE
  8
0
 62
     0
 10
26.6692
 20
45.7193
 30
0.0
 11
26.6692
 21
46.7198
 31
0.0
  0
LINE
  8
0
 62
     0
 10
26.6692
 20
46.7198
 30
0.0
 11
25.8685
 21
46.7198
 31
0.0
  0
LINE
  8
0
 62
     0
 10
25.8685
 20
46.7198
 30
0.0
 11
25.8685
 21
49.8189
 31
0.0
  0
LINE
  8
0
 62
     0
 10
25.8685
 20
49.8189
 30
0.0
 11
26.6692
 21
49.8189
 31
0.0
  0
LINE
  8
0
 62
     0
 10
26.6692
 20
49.8189
 30
0.0
 11
26.6692
 21
55.6189
 31
0.0
  0
LINE
  8
0
 62
     0
 10
26.6692
 20
55.6189
 30
0.0
 11
25.8685
 21
55.6189
 31
0.0
  0
LINE
  8
0
 62
     0
 10
25.8685
 20
55.6189
 30
0.0
 11
25.8685
 21
58.7195
 31
0.0
  0
LINE
  8
0
 62
     0
 10
25.8685
 20
58.7195
 30
0.0
 11
26.6692
 21
58.7195
 31
0.0
  0
LINE
  8
0
 62
     0
 10
26.6692
 20
58.7195
 30
0.0
 11
26.6692
 21
59.7186
 31
0.0
  0
LINE
  8
0
 62
     0
 10
26.6692
 20
59.7186
 30
0.0
 11
40.6686
 21
59.7186
 31
0.0
  0
LINE
  8
0
 62
     0
 10
40.6686
 20
59.7186
 30
0.0
 11
40.6686
 21
58.7195
 31
0.0
  0
LINE
  8
0
 62
     0
 10
40.6686
 20
58.7195
 30
0.0
 11
41.4694
 21
58.7195
 31
0.0
  0
LINE
  8
0
 62
     0
 10
41.4694
 20
58.7195
 30
0.0
 11
41.4694
 21
55.6189
 31
0.0
  0
LINE
  8
0
 62
     0
 10
41.4694
 20
55.6189
 30
0.0
 11
40.6686
 21
55.6189
 31
0.0
  0
LINE
  8
0
 62
     0
 10
40.6686
 20
55.6189
 30
0.0
 11
40.6686
 21
49.8189
 31
0.0
  0
LINE
  8
0
 62
     0
 10
40.6686
 20
49.8189
 30
0.0
 11
41.4694
 21
49.8189
 31
0.0
  0
LINE
  8
0
 62
     0
 10
41.4694
 20
49.8189
 30
0.0
 11
41.4694
 21
46.7198
 31
0.0
  0
LINE
  8
0
 62
     0
 10
41.4694
 20
46.7198
 30
0.0
 11
40.6686
 21
46.7198
 31
0.0
  0
LINE
  8
0
 62
     0
 10
40.6686
 20
27.6696
 30
0.0
 11
40.6686
 21
26.6692
 31
0.0
  0
LINE
  8
0
 62
     0
 10
40.6686
 20
26.6692
 30
0.0
 11
26.6692
 21
26.6692
 31
0.0
  0
LINE
  8
0
 62
     0
 10
26.6692
 20
26.6692
 30
0.0
 11
26.6692
 21
27.6696
 31
0.0
  0
LINE
  8
0
 62
     0
 10
26.6692
 20
27.6696
 30
0.0
 11
25.8685
 21
27.6696
 31
0.0
  0
LINE
  8
0
 62
     0
 10
25.8685
 20
27.6696
 30
0.0
 11
25.8685
 21
30.7689
 31
0.0
  0
LINE
  8
0
 62
     0
 10
25.8685
 20
30.7689
 30
0.0
 11
26.6692
 21
30.7689
 31
0.0
  0
LINE
  8
0
 62
     0
 10
26.6692
 20
30.7689
 30
0.0
 11
26.6692
 21
36.5689
 31
0.0
  0
LINE
  8
0
 62
     0
 10
26.6692
 20
36.5689
 30
0.0
 11
25.8685
 21
36.5689
 31
0.0
  0
LINE
  8
0
 62
     0
 10
25.8685
 20
36.5689
 30
0.0
 11
25.8685
 21
39.6695
 31
0.0
  0
LINE
  8
0
 62
     0
 10
25.8685
 20
39.6695
 30
0.0
 11
26.6692
 21
39.6695
 31
0.0
  0
LINE
  8
0
 62
     0
 10
26.6692
 20
39.6695
 30
0.0
 11
26.6692
 21
40.6686
 31
0.0
  0
LINE
  8
0
 62
     0
 10
26.6692
 20
40.6686
 30
0.0
 11
40.6686
 21
40.6686
 31
0.0
  0
LINE
  8
0
 62
     0
 10
40.6686
 20
40.6686
 30
0.0
 11
40.6686
 21
39.6695
 31
0.0
  0
LINE
  8
0
 62
     0
 10
40.6686
 20
39.6695
 30
0.0
 11
41.4694
 21
39.6695
 31
0.0
  0
LINE
  8
0
 62
     0
 10
41.4694
 20
39.6695
 30
0.0
 11
41.4694
 21
36.5689
 31
0.0
  0
LINE
  8
0
 62
     0
 10
41.4694
 20
36.5689
 30
0.0
 11
40.6686
 21
36.5689
 31
0.0
  0
LINE
  8
0
 62
     0
 10
40.6686
 20
36.5689
 30
0.0
 11
40.6686
 21
30.7689
 31
0.0
  0
LINE
  8
0
 62
     0
 10
40.6686
 20
30.7689
 30
0.0
 11
41.4694
 21
30.7689
 31
0.0
  0
LINE
  8
0
 62
     0
 10
41.4694
 20
30.7689
 30
0.0
 11
41.4694
 21
27.6696
 31
0.0
  0
LINE
  8
0
 62
     0
 10
41.4694
 20
27.6696
 30
0.0
 11
40.6686
 21
27.6696
 31
0.0
  0
LINE
  8
0
 62
     0
 10
45.4311
 20
8.61963
 30
0.0
 11
45.4311
 21
7.61919
 31
0.0
  0
LINE
  8
0
 62
     0
 10
45.4311
 20
7.61919
 30
0.0
 11
31.4303
 21
7.61919
 31
0.0
  0
LINE
  8
0
 62
     0
 10
31.4303
 20
7.61919
 30
0.0
 11
31.4303
 21
8.61963
 31
0.0
  0
LINE
  8
0
 62
     0
 10
31.4303
 20
8.61963
 30
0.0
 11
30.6324
 21
8.61963
 31
0.0
  0
LINE
  8
0
 62
     0
 10
30.6324
 20
8.61963
 30
0.0
 11
30.6324
 21
11.7189
 31
0.0
  0
LINE
  8
0
 62
     0
 10
30.6324
 20
11.7189
 30
0.0
 11
31.4303
 21
11.7189
 31
0.0
  0
LINE
  8
0
 62
     0
 10
31.4303
 20
11.7189
 30
0.0
 11
31.4303
 21
17.519
 31
0.0
  0
LINE
  8
0
 62
     0
 10
31.4303
 20
17.519
 30
0.0
 11
30.6324
 21
17.519
 31
0.0
  0
LINE
  8
0
 62
     0
 10
30.6324
 20
17.519
 30
0.0
 11
30.6324
 21
20.6196
 31
0.0
  0
LINE
  8
0
 62
     0
 10
30.6324
 20
20.6196
 30
0.0
 11
31.4303
 21
20.6196
 31
0.0
  0
LINE
  8
0
 62
     0
 10
31.4303
 20
20.6196
 30
0.0
 11
31.4303
 21
21.6187
 31
0.0
  0
LINE
  8
0
 62
     0
 10
31.4303
 20
21.6187
 30
0.0
 11
45.4311
 21
21.6187
 31
0.0
  0
LINE
  8
0
 62
     0
 10
45.4311
 20
21.6187
 30
0.0
 11
45.4311
 21
20.6196
 31
0.0
  0
LINE
  8
0
 62
     0
 10
45.4311
 20
20.6196
 30
0.0
 11
46.2305
 21
20.6196
 31
0.0
  0
LINE
  8
0
 62
     0
 10
46.2305
 20
20.6196
 30
0.0
 11
46.2305
 21
17.519
 31
0.0
  0
LINE
  8
0
 62
     0
 10
46.2305
 20
17.519
 30
0.0
 11
45.4311
 21
17.519
 31
0.0
  0
LINE
  8
0
 62
     0
 10
45.4311
 20
17.519
 30
0.0
 11
45.4311
 21
11.7189
 31
0.0
  0
LINE
  8
0
 62
     0
 10
45.4311
 20
11.7189
 30
0.0
 11
46.2305
 21
11.7189
 31
0.0
  0
LINE
  8
0
 62
     0
 10
46.2305
 20
11.7189
 30
0.0
 11
46.2305
 21
8.61963
 31
0.0
  0
LINE
  8
0
 62
     0
 10
46.2305
 20
8.61963
 30
0.0
 11
45.4311
 21
8.61963
 31
0.0
  0
LINE
  8
0
 62
     0
 10
59.7186
 20
84.8198
 30
0.0
 11
59.7186
 21
83.8193
 31
0.0
  0
LINE
  8
0
 62
     0
 10
59.7186
 20
83.8193
 30
0.0
 11
45.7193
 21
83.8193
 31
0.0
  0
LINE
  8
0
 62
     0
 10
45.7193
 20
83.8193
 30
0.0
 11
45.7193
 21
84.8198
 31
0.0
  0
LINE
  8
0
 62
     0
 10
45.7193
 20
84.8198
 30
0.0
 11
44.9185
 21
84.8198
 31
0.0
  0
LINE
  8
0
 62
     0
 10
44.9185
 20
84.8198
 30
0.0
 11
44.9185
 21
87.9189
 31
0.0
  0
LINE
  8
0
 62
     0
 10
44.9185
 20
87.9189
 30
0.0
 11
45.7193
 21
87.9189
 31
0.0
  0
LINE
  8
0
 62
     0
 10
45.7193
 20
87.9189
 30
0.0
 11
45.7193
 21
93.7189
 31
0.0
  0
LINE
  8
0
 62
     0
 10
45.7193
 20
93.7189
 30
0.0
 11
44.9185
 21
93.7189
 31
0.0
  0
LINE
  8
0
 62
     0
 10
44.9185
 20
93.7189
 30
0.0
 11
44.9185
 21
96.8195
 31
0.0
  0
LINE
  8
0
 62
     0
 10
44.9185
 20
96.8195
 30
0.0
 11
45.7193
 21
96.8195
 31
0.0
  0
LINE
  8
0
 62
     0
 10
45.7193
 20
96.8195
 30
0.0
 11
45.7193
 21
97.8186
 31
0.0
  0
LINE
  8
0
 62
     0
 10
45.7193
 20
97.8186
 30
0.0
 11
59.7186
 21
97.8186
 31
0.0
  0
LINE
  8
0
 62
     0
 10
59.7186
 20
97.8186
 30
0.0
 11
59.7186
 21
96.8195
 31
0.0
  0
LINE
  8
0
 62
     0
 10
59.7186
 20
96.8195
 30
0.0
 11
60.5194
 21
96.8195
 31
0.0
  0
LINE
  8
0
 62
     0
 10
60.5194
 20
96.8195
 30
0.0
 11
60.5194
 21
93.7189
 31
0.0
  0
LINE
  8
0
 62
     0
 10
60.5194
 20
93.7189
 30
0.0
 11
59.7186
 21
93.7189
 31
0.0
  0
LINE
  8
0
 62
     0
 10
59.7186
 20
93.7189
 30
0.0
 11
59.7186
 21
87.9189
 31
0.0
  0
LINE
  8
0
 62
     0
 10
59.7186
 20
87.9189
 30
0.0
 11
60.5194
 21
87.9189
 31
0.0
  0
LINE
  8
0
 62
     0
 10
60.5194
 20
87.9189
 30
0.0
 11
60.5194
 21
84.8198
 31
0.0
  0
LINE
  8
0
 62
     0
 10
60.5194
 20
84.8198
 30
0.0
 11
59.7186
 21
84.8198
 31
0.0
  0
LINE
  8
0
 62
     0
 10
59.7186
 20
65.7698
 30
0.0
 11
59.7186
 21
64.7693
 31
0.0
  0
LINE
  8
0
 62
     0
 10
59.7186
 20
64.7693
 30
0.0
 11
45.7193
 21
64.7693
 31
0.0
  0
LINE
  8
0
 62
     0
 10
45.7193
 20
64.7693
 30
0.0
 11
45.7193
 21
65.7698
 31
0.0
  0
LINE
  8
0
 62
     0
 10
45.7193
 20
65.7698
 30
0.0
 11
44.9185
 21
65.7698
 31
0.0
  0
LINE
  8
0
 62
     0
 10
44.9185
 20
65.7698
 30
0.0
 11
44.9185
 21
68.8689
 31
0.0
  0
LINE
  8
0
 62
     0
 10
44.9185
 20
68.8689
 30
0.0
 11
45.7193
 21
68.8689
 31
0.0
  0
LINE
  8
0
 62
     0
 10
45.7193
 20
68.8689
 30
0.0
 11
45.7193
 21
74.6689
 31
0.0
  0
LINE
  8
0
 62
     0
 10
45.7193
 20
74.6689
 30
0.0
 11
44.9185
 21
74.6689
 31
0.0
  0
LINE
  8
0
 62
     0
 10
44.9185
 20
74.6689
 30
0.0
 11
44.9185
 21
77.7695
 31
0.0
  0
LINE
  8
0
 62
     0
 10
44.9185
 20
77.7695
 30
0.0
 11
45.7193
 21
77.7695
 31
0.0
  0
LINE
  8
0
 62
     0
 10
45.7193
 20
77.7695
 30
0.0
 11
45.7193
 21
78.7686
 31
0.0
  0
LINE
  8
0
 62
     0
 10
45.7193
 20
78.7686
 30
0.0
 11
59.7186
 21
78.7686
 31
0.0
  0
LINE
  8
0
 62
     0
 10
59.7186
 20
78.7686
 30
0.0
 11
59.7186
 21
77.7695
 31
0.0
  0
LINE
  8
0
 62
     0
 10
59.7186
 20
77.7695
 30
0.0
 11
60.5194
 21
77.7695
 31
0.0
  0
LINE
  8
0
 62
     0
 10
60.5194
 20
77.7695
 30
0.0
 11
60.5194
 21
74.6689
 31
0.0
  0
LINE
  8
0
 62
     0
 10
60.5194
 20
74.6689
 30
0.0
 11
59.7186
 21
74.6689
 31
0.0
  0
LINE
  8
0
 62
     0
 10
59.7186
 20
74.6689
 30
0.0
 11
59.7186
 21
68.8689
 31
0.0
  0
LINE
  8
0
 62
     0
 10
59.7186
 20
68.8689
 30
0.0
 11
60.5194
 21
68.8689
 31
0.0
  0
LINE
  8
0
 62
     0
 10
60.5194
 20
68.8689
 30
0.0
 11
60.5194
 21
65.7698
 31
0.0
  0
LINE
  8
0
 62
     0
 10
60.5194
 20
65.7698
 30
0.0
 11
59.7186
 21
65.7698
 31
0.0
  0
LINE
  8
0
 62
     0
 10
59.7186
 20
46.7198
 30
0.0
 11
59.7186
 21
45.7193
 31
0.0
  0
LINE
  8
0
 62
     0
 10
59.7186
 20
45.7193
 30
0.0
 11
45.7193
 21
45.7193
 31
0.0
  0
LINE
  8
0
 62
     0
 10
45.7193
 20
45.7193
 30
0.0
 11
45.7193
 21
46.7198
 31
0.0
  0
LINE
  8
0
 62
     0
 10
45.7193
 20
46.7198
 30
0.0
 11
44.9185
 21
46.7198
 31
0.0
  0
LINE
  8
0
 62
     0
 10
44.9185
 20
46.7198
 30
0.0
 11
44.9185
 21
49.8189
 31
0.0
  0
LINE
  8
0
 62
     0
 10
44.9185
 20
49.8189
 30
0.0
 11
45.7193
 21
49.8189
 31
0.0
  0
LINE
  8
0
 62
     0
 10
45.7193
 20
49.8189
 30
0.0
 11
45.7193
 21
55.6189
 31
0.0
  0
LINE
  8
0
 62
     0
 10
45.7193
 20
55.6189
 30
0.0
 11
44.9185
 21
55.6189
 31
0.0
  0
LINE
  8
0
 62
     0
 10
44.9185
 20
55.6189
 30
0.0
 11
44.9185
 21
58.7195
 31
0.0
  0
LINE
  8
0
 62
     0
 10
44.9185
 20
58.7195
 30
0.0
 11
45.7193
 21
58.7195
 31
0.0
  0
LINE
  8
0
 62
     0
 10
45.7193
 20
58.7195
 30
0.0
 11
45.7193
 21
59.7186
 31
0.0
  0
LINE
  8
0
 62
     0
 10
45.7193
 20
59.7186
 30
0.0
 11
59.7186
 21
59.7186
 31
0.0
  0
LINE
  8
0
 62
     0
 10
59.7186
 20
59.7186
 30
0.0
 11
59.7186
 21
58.7195
 31
0.0
  0
LINE
  8
0
 62
     0
 10
59.7186
 20
58.7195
 30
0.0
 11
60.5194
 21
58.7195
 31
0.0
  0
LINE
  8
0
 62
     0
 10
60.5194
 20
58.7195
 30
0.0
 11
60.5194
 21
55.6189
 31
0.0
  0
LINE
  8
0
 62
     0
 10
60.5194
 20
55.6189
 30
0.0
 11
59.7186
 21
55.6189
 31
0.0
  0
LINE
  8
0
 62
     0
 10
59.7186
 20
55.6189
 30
0.0
 11
59.7186
 21
49.8189
 31
0.0
  0
LINE
  8
0
 62
     0
 10
59.7186
 20
49.8189
 30
0.0
 11
60.5194
 21
49.8189
 31
0.0
  0
LINE
  8
0
 62
     0
 10
60.5194
 20
49.8189
 30
0.0
 11
60.5194
 21
46.7198
 31
0.0
  0
LINE
  8
0
 62
     0
 10
60.5194
 20
46.7198
 30
0.0
 11
59.7186
 21
46.7198
 31
0.0
  0
LINE
  8
0
 62
     0
 10
59.7186
 20
27.6696
 30
0.0
 11
59.7186
 21
26.6692
 31
0.0
  0
LINE
  8
0
 62
     0
 10
59.7186
 20
26.6692
 30
0.0
 11
45.7193
 21
26.6692
 31
0.0
  0
LINE
  8
0
 62
     0
 10
45.7193
 20
26.6692
 30
0.0
 11
45.7193
 21
27.6696
 31
0.0
  0
LINE
  8
0
 62
     0
 10
45.7193
 20
27.6696
 30
0.0
 11
44.9185
 21
27.6696
 31
0.0
  0
LINE
  8
0
 62
     0
 10
44.9185
 20
27.6696
 30
0.0
 11
44.9185
 21
30.7689
 31
0.0
  0
LINE
  8
0
 62
     0
 10
44.9185
 20
30.7689
 30
0.0
 11
45.7193
 21
30.7689
 31
0.0
  0
LINE
  8
0
 62
     0
 10
45.7193
 20
30.7689
 30
0.0
 11
45.7193
 21
36.5689
 31
0.0
  0
LINE
  8
0
 62
     0
 10
45.7193
 20
36.5689
 30
0.0
 11
44.9185
 21
36.5689
 31
0.0
  0
LINE
  8
0
 62
     0
 10
44.9185
 20
36.5689
 30
0.0
 11
44.9185
 21
39.6695
 31
0.0
  0
LINE
  8
0
 62
     0
 10
44.9185
 20
39.6695
 30
0.0
 11
45.7193
 21
39.6695
 31
0.0
  0
LINE
  8
0
 62
     0
 10
45.7193
 20
39.6695
 30
0.0
 11
45.7193
 21
40.6686
 31
0.0
  0
LINE
  8
0
 62
     0
 10
45.7193
 20
40.6686
 30
0.0
 11
59.7186
 21
40.6686
 31
0.0
  0
LINE
  8
0
 62
     0
 10
59.7186
 20
40.6686
 30
0.0
 11
59.7186
 21
39.6695
 31
0.0
  0
LINE
  8
0
 62
     0
 10
59.7186
 20
39.6695
 30
0.0
 11
60.5194
 21
39.6695
 31
0.0
  0
LINE
  8
0
 62
     0
 10
60.5194
 20
39.6695
 30
0.0
 11
60.5194
 21
36.5689
 31
0.0
  0
LINE
  8
0
 62
     0
 10
60.5194
 20
36.5689
 30
0.0
 11
59.7186
 21
36.5689
 31
0.0
  0
LINE
  8
0
 62
     0
 10
59.7186
 20
36.5689
 30
0.0
 11
59.7186
 21
30.7689
 31
0.0
  0
LINE
  8
0
 62
     0
 10
59.7186
 20
30.7689
 30
0.0
 11
60.5194
 21
30.7689
 31
0.0
  0
LINE
  8
0
 62
     0
 10
60.5194
 20
30.7689
 30
0.0
 11
60.5194
 21
27.6696
 31
0.0
  0
LINE
  8
0
 62
     0
 10
60.5194
 20
27.6696
 30
0.0
 11
59.7186
 21
27.6696
 31
0.0
  0
LINE
  8
0
 62
     0
 10
74.0061
 20
8.61963
 30
0.0
 11
74.0061
 21
7.61919
 31
0.0
  0
LINE
  8
0
 62
     0
 10
74.0061
 20
7.61919
 30
0.0
 11
60.0054
 21
7.61919
 31
0.0
  0
LINE
  8
0
 62
     0
 10
60.0054
 20
7.61919
 30
0.0
 11
60.0054
 21
8.61963
 31
0.0
  0
LINE
  8
0
 62
     0
 10
60.0054
 20
8.61963
 30
0.0
 11
59.206
 21
8.61963
 31
0.0
  0
LINE
  8
0
 62
     0
 10
59.206
 20
8.61963
 30
0.0
 11
59.206
 21
11.7189
 31
0.0
  0
LINE
  8
0
 62
     0
 10
59.206
 20
11.7189
 30
0.0
 11
60.0054
 21
11.7189
 31
0.0
  0
LINE
  8
0
 62
     0
 10
60.0054
 20
11.7189
 30
0.0
 11
60.0054
 21
17.519
 31
0.0
  0
LINE
  8
0
 62
     0
 10
60.0054
 20
17.519
 30
0.0
 11
59.206
 21
17.519
 31
0.0
  0
LINE
  8
0
 62
     0
 10
59.206
 20
17.519
 30
0.0
 11
59.206
 21
20.6196
 31
0.0
  0
LINE
  8
0
 62
     0
 10
59.206
 20
20.6196
 30
0.0
 11
60.0054
 21
20.6196
 31
0.0
  0
LINE
  8
0
 62
     0
 10
60.0054
 20
20.6196
 30
0.0
 11
60.0054
 21
21.6187
 31
0.0
  0
LINE
  8
0
 62
     0
 10
60.0054
 20
21.6187
 30
0.0
 11
74.0061
 21
21.6187
 31
0.0
  0
LINE
  8
0
 62
     0
 10
74.0061
 20
21.6187
 30
0.0
 11
74.0061
 21
20.6196
 31
0.0
  0
LINE
  8
0
 62
     0
 10
74.0061
 20
20.6196
 30
0.0
 11
74.8055
 21
20.6196
 31
0.0
  0
LINE
  8
0
 62
     0
 10
74.8055
 20
20.6196
 30
0.0
 11
74.8055
 21
17.519
 31
0.0
  0
LINE
  8
0
 62
     0
 10
74.8055
 20
17.519
 30
0.0
 11
74.0061
 21
17.519
 31
0.0
  0
LINE
  8
0
 62
     0
 10
74.0061
 20
17.519
 30
0.0
 11
74.0061
 21
11.7189
 31
0.0
  0
LINE
  8
0
 62
     0
 10
74.0061
 20
11.7189
 30
0.0
 11
74.8055
 21
11.7189
 31
0.0
  0
LINE
  8
0
 62
     0
 10
74.8055
 20
11.7189
 30
0.0
 11
74.8055
 21
8.61963
 31
0.0
  0
LINE
  8
0
 62
     0
 10
74.8055
 20
8.61963
 30
0.0
 11
74.0061
 21
8.61963
 31
0.0
  0
LINE
  8
0
 62
     0
 10
78.7686
 20
84.8198
 30
0.0
 11
78.7686
 21
83.8193
 31
0.0
  0
LINE
  8
0
 62
     0
 10
78.7686
 20
83.8193
 30
0.0
 11
64.7693
 21
83.8193
 31
0.0
  0
LINE
  8
0
 62
     0
 10
64.7693
 20
83.8193
 30
0.0
 11
64.7693
 21
84.8198
 31
0.0
  0
LINE
  8
0
 62
     0
 10
64.7693
 20
84.8198
 30
0.0
 11
63.9685
 21
84.8198
 31
0.0
  0
LINE
  8
0
 62
     0
 10
63.9685
 20
84.8198
 30
0.0
 11
63.9685
 21
87.9189
 31
0.0
  0
LINE
  8
0
 62
     0
 10
63.9685
 20
87.9189
 30
0.0
 11
64.7693
 21
87.9189
 31
0.0
  0
LINE
  8
0
 62
     0
 10
64.7693
 20
87.9189
 30
0.0
 11
64.7693
 21
93.7189
 31
0.0
  0
LINE
  8
0
 62
     0
 10
64.7693
 20
93.7189
 30
0.0
 11
63.9685
 21
93.7189
 31
0.0
  0
LINE
  8
0
 62
     0
 10
63.9685
 20
93.7189
 30
0.0
 11
63.9685
 21
96.8195
 31
0.0
  0
LINE
  8
0
 62
     0
 10
63.9685
 20
96.8195
 30
0.0
 11
64.7693
 21
96.8195
 31
0.0
  0
LINE
  8
0
 62
     0
 10
64.7693
 20
96.8195
 30
0.0
 11
64.7693
 21
97.8186
 31
0.0
  0
LINE
  8
0
 62
     0
 10
64.7693
 20
97.8186
 30
0.0
 11
78.7686
 21
97.8186
 31
0.0
  0
LINE
  8
0
 62
     0
 10
78.7686
 20
97.8186
 30
0.0
 11
78.7686
 21
96.8195
 31
0.0
  0
LINE
  8
0
 62
     0
 10
78.7686
 20
96.8195
 30
0.0
 11
79.5694
 21
96.8195
 31
0.0
  0
LINE
  8
0
 62
     0
 10
79.5694
 20
96.8195
 30
0.0
 11
79.5694
 21
93.7189
 31
0.0
  0
LINE
  8
0
 62
     0
 10
79.5694
 20
93.7189
 30
0.0
 11
78.7686
 21
93.7189
 31
0.0
  0
LINE
  8
0
 62
     0
 10
78.7686
 20
93.7189
 30
0.0
 11
78.7686
 21
87.9189
 31
0.0
  0
LINE
  8
0
 62
     0
 10
78.7686
 20
87.9189
 30
0.0
 11
79.5694
 21
87.9189
 31
0.0
  0
LINE
  8
0
 62
     0
 10
79.5694
 20
87.9189
 30
0.0
 11
79.5694
 21
84.8198
 31
0.0
  0
LINE
  8
0
 62
     0
 10
79.5694
 20
84.8198
 30
0.0
 11
78.7686
 21
84.8198
 31
0.0
  0
LINE
  8
0
 62
     0
 10
78.7686
 20
65.7698
 30
0.0
 11
78.7686
 21
64.7693
 31
0.0
  0
LINE
  8
0
 62
     0
 10
78.7686
 20
64.7693
 30
0.0
 11
64.7693
 21
64.7693
 31
0.0
  0
LINE
  8
0
 62
     0
 10
64.7693
 20
64.7693
 30
0.0
 11
64.7693
 21
65.7698
 31
0.0
  0
LINE
  8
0
 62
     0
 10
64.7693
 20
65.7698
 30
0.0
 11
63.9685
 21
65.7698
 31
0.0
  0
LINE
  8
0
 62
     0
 10
63.9685
 20
65.7698
 30
0.0
 11
63.9685
 21
68.8689
 31
0.0
  0
LINE
  8
0
 62
     0
 10
63.9685
 20
68.8689
 30
0.0
 11
64.7693
 21
68.8689
 31
0.0
  0
LINE
  8
0
 62
     0
 10
64.7693
 20
68.8689
 30
0.0
 11
64.7693
 21
74.6689
 31
0.0
  0
LINE
  8
0
 62
     0
 10
64.7693
 20
74.6689
 30
0.0
 11
63.9685
 21
74.6689
 31
0.0
  0
LINE
  8
0
 62
     0
 10
63.9685
 20
74.6689
 30
0.0
 11
63.9685
 21
77.7695
 31
0.0
  0
LINE
  8
0
 62
     0
 10
63.9685
 20
77.7695
 30
0.0
 11
64.7693
 21
77.7695
 31
0.0
  0
LINE
  8
0
 62
     0
 10
64.7693
 20
77.7695
 30
0.0
 11
64.7693
 21
78.7686
 31
0.0
  0
LINE
  8
0
 62
     0
 10
64.7693
 20
78.7686
 30
0.0
 11
78.7686
 21
78.7686
 31
0.0
  0
LINE
  8
0
 62
     0
 10
78.7686
 20
78.7686
 30
0.0
 11
78.7686
 21
77.7695
 31
0.0
  0
LINE
  8
0
 62
     0
 10
78.7686
 20
77.7695
 30
0.0
 11
79.5694
 21
77.7695
 31
0.0
  0
LINE
  8
0
 62
     0
 10
79.5694
 20
77.7695
 30
0.0
 11
79.5694
 21
74.6689
 31
0.0
  0
LINE
  8
0
 62
     0
 10
79.5694
 20
74.6689
 30
0.0
 11
78.7686
 21
74.6689
 31
0.0
  0
LINE
  8
0
 62
     0
 10
78.7686
 20
74.6689
 30
0.0
 11
78.7686
 21
68.8689
 31
0.0
  0
LINE
  8
0
 62
     0
 10
78.7686
 20
68.8689
 30
0.0
 11
79.5694
 21
68.8689
 31
0.0
  0
LINE
  8
0
 62
     0
 10
79.5694
 20
68.8689
 30
0.0
 11
79.5694
 21
65.7698
 31
0.0
  0
LINE
  8
0
 62
     0
 10
79.5694
 20
65.7698
 30
0.0
 11
78.7686
 21
65.7698
 31
0.0
  0
LINE
  8
0
 62
     0
 10
78.7686
 20
46.7198
 30
0.0
 11
78.7686
 21
45.7193
 31
0.0
  0
LINE
  8
0
 62
     0
 10
78.7686
 20
45.7193
 30
0.0
 11
64.7693
 21
45.7193
 31
0.0
  0
LINE
  8
0
 62
     0
 10
64.7693
 20
45.7193
 30
0.0
 11
64.7693
 21
46.7198
 31
0.0
  0
LINE
  8
0
 62
     0
 10
64.7693
 20
46.7198
 30
0.0
 11
63.9685
 21
46.7198
 31
0.0
  0
LINE
  8
0
 62
     0
 10
63.9685
 20
46.7198
 30
0.0
 11
63.9685
 21
49.8189
 31
0.0
  0
LINE
  8
0
 62
     0
 10
63.9685
 20
49.8189
 30
0.0
 11
64.7693
 21
49.8189
 31
0.0
  0
LINE
  8
0
 62
     0
 10
64.7693
 20
49.8189
 30
0.0
 11
64.7693
 21
55.6189
 31
0.0
  0
LINE
  8
0
 62
     0
 10
64.7693
 20
55.6189
 30
0.0
 11
63.9685
 21
55.6189
 31
0.0
  0
LINE
  8
0
 62
     0
 10
63.9685
 20
55.6189
 30
0.0
 11
63.9685
 21
58.7195
 31
0.0
  0
LINE
  8
0
 62
     0
 10
63.9685
 20
58.7195
 30
0.0
 11
64.7693
 21
58.7195
 31
0.0
  0
LINE
  8
0
 62
     0
 10
64.7693
 20
58.7195
 30
0.0
 11
64.7693
 21
59.7186
 31
0.0
  0
LINE
  8
0
 62
     0
 10
64.7693
 20
59.7186
 30
0.0
 11
78.7686
 21
59.7186
 31
0.0
  0
LINE
  8
0
 62
     0
 10
78.7686
 20
59.7186
 30
0.0
 11
78.7686
 21
58.7195
 31
0.0
  0
LINE
  8
0
 62
     0
 10
78.7686
 20
58.7195
 30
0.0
 11
79.5694
 21
58.7195
 31
0.0
  0
LINE
  8
0
 62
     0
 10
79.5694
 20
58.7195
 30
0.0
 11
79.5694
 21
55.6189
 31
0.0
  0
LINE
  8
0
 62
     0
 10
79.5694
 20
55.6189
 30
0.0
 11
78.7686
 21
55.6189
 31
0.0
  0
LINE
  8
0
 62
     0
 10
78.7686
 20
55.6189
 30
0.0
 11
78.7686
 21
49.8189
 31
0.0
  0
LINE
  8
0
 62
     0
 10
78.7686
 20
49.8189
 30
0.0
 11
79.5694
 21
49.8189
 31
0.0
  0
LINE
  8
0
 62
     0
 10
79.5694
 20
49.8189
 30
0.0
 11
79.5694
 21
46.7198
 31
0.0
  0
LINE
  8
0
 62
     0
 10
79.5694
 20
46.7198
 30
0.0
 11
78.7686
 21
46.7198
 31
0.0
  0
LINE
  8
0
 62
     0
 10
78.7686
 20
27.6696
 30
0.0
 11
78.7686
 21
26.6692
 31
0.0
  0
LINE
  8
0
 62
     0
 10
78.7686
 20
26.6692
 30
0.0
 11
64.7693
 21
26.6692
 31
0.0
  0
LINE
  8
0
 62
     0
 10
64.7693
 20
26.6692
 30
0.0
 11
64.7693
 21
27.6696
 31
0.0
  0
LINE
  8
0
 62
     0
 10
64.7693
 20
27.6696
 30
0.0
 11
63.9685
 21
27.6696
 31
0.0
  0
LINE
  8
0
 62
     0
 10
63.9685
 20
27.6696
 30
0.0
 11
63.9685
 21
30.7689
 31
0.0
  0
LINE
  8
0
 62
     0
 10
63.9685
 20
30.7689
 30
0.0
 11
64.7693
 21
30.7689
 31
0.0
  0
LINE
  8
0
 62
     0
 10
64.7693
 20
30.7689
 30
0.0
 11
64.7693
 21
36.5689
 31
0.0
  0
LINE
  8
0
 62
     0
 10
64.7693
 20
36.5689
 30
0.0
 11
63.9685
 21
36.5689
 31
0.0
  0
LINE
  8
0
 62
     0
 10
63.9685
 20
36.5689
 30
0.0
 11
63.9685
 21
39.6695
 31
0.0
  0
LINE
  8
0
 62
     0
 10
63.9685
 20
39.6695
 30
0.0
 11
64.7693
 21
39.6695
 31
0.0
  0
LINE
  8
0
 62
     0
 10
64.7693
 20
39.6695
 30
0.0
 11
64.7693
 21
40.6686
 31
0.0
  0
LINE
  8
0
 62
     0
 10
64.7693
 20
40.6686
 30
0.0
 11
78.7686
 21
40.6686
 31
0.0
  0
LINE
  8
0
 62
     0
 10
78.7686
 20
40.6686
 30
0.0
 11
78.7686
 21
39.6695
 31
0.0
  0
LINE
  8
0
 62
     0
 10
78.7686
 20
39.6695
 30
0.0
 11
79.5694
 21
39.6695
 31
0.0
  0
LINE
  8
0
 62
     0
 10
79.5694
 20
39.6695
 30
0.0
 11
79.5694
 21
36.5689
 31
0.0
  0
LINE
  8
0
 62
     0
 10
79.5694
 20
36.5689
 30
0.0
 11
78.7686
 21
36.5689
 31
0.0
  0
LINE
  8
0
 62
     0
 10
78.7686
 20
36.5689
 30
0.0
 11
78.7686
 21
30.7689
 31
0.0
  0
LINE
  8
0
 62
     0
 10
78.7686
 20
30.7689
 30
0.0
 11
79.5694
 21
30.7689
 31
0.0
  0
LINE
  8
0
 62
     0
 10
79.5694
 20
30.7689
 30
0.0
 11
79.5694
 21
27.6696
 31
0.0
  0
LINE
  8
0
 62
     0
 10
79.5694
 20
27.6696
 30
0.0
 11
78.7686
 21
27.6696
 31
0.0
  0
LINE
  8
0
 62
     0
 10
97.8186
 20
84.8198
 30
0.0
 11
97.8186
 21
83.8193
 31
0.0
  0
LINE
  8
0
 62
     0
 10
97.8186
 20
83.8193
 30
0.0
 11
83.8193
 21
83.8193
 31
0.0
  0
LINE
  8
0
 62
     0
 10
83.8193
 20
83.8193
 30
0.0
 11
83.8193
 21
84.8198
 31
0.0
  0
LINE
  8
0
 62
     0
 10
83.8193
 20
84.8198
 30
0.0
 11
83.0185
 21
84.8198
 31
0.0
  0
LINE
  8
0
 62
     0
 10
83.0185
 20
84.8198
 30
0.0
 11
83.0185
 21
87.9189
 31
0.0
  0
LINE
  8
0
 62
     0
 10
83.0185
 20
87.9189
 30
0.0
 11
83.8193
 21
87.9189
 31
0.0
  0
LINE
  8
0
 62
     0
 10
83.8193
 20
87.9189
 30
0.0
 11
83.8193
 21
93.7189
 31
0.0
  0
LINE
  8
0
 62
     0
 10
83.8193
 20
93.7189
 30
0.0
 11
83.0185
 21
93.7189
 31
0.0
  0
LINE
  8
0
 62
     0
 10
83.0185
 20
93.7189
 30
0.0
 11
83.0185
 21
96.8195
 31
0.0
  0
LINE
  8
0
 62
     0
 10
83.0185
 20
96.8195
 30
0.0
 11
83.8193
 21
96.8195
 31
0.0
  0
LINE
  8
0
 62
     0
 10
83.8193
 20
96.8195
 30
0.0
 11
83.8193
 21
97.8186
 31
0.0
  0
LINE
  8
0
 62
     0
 10
83.8193
 20
97.8186
 30
0.0
 11
97.8186
 21
97.8186
 31
0.0
  0
LINE
  8
0
 62
     0
 10
97.8186
 20
97.8186
 30
0.0
 11
97.8186
 21
96.8195
 31
0.0
  0
LINE
  8
0
 62
     0
 10
97.8186
 20
96.8195
 30
0.0
 11
98.6194
 21
96.8195
 31
0.0
  0
LINE
  8
0
 62
     0
 10
98.6194
 20
96.8195
 30
0.0
 11
98.6194
 21
93.7189
 31
0.0
  0
LINE
  8
0
 62
     0
 10
98.6194
 20
93.7189
 30
0.0
 11
97.8186
 21
93.7189
 31
0.0
  0
LINE
  8
0
 62
     0
 10
97.8186
 20
93.7189
 30
0.0
 11
97.8186
 21
87.9189
 31
0.0
  0
LINE
  8
0
 62
     0
 10
97.8186
 20
87.9189
 30
0.0
 11
98.6194
 21
87.9189
 31
0.0
  0
LINE
  8
0
 62
     0
 10
98.6194
 20
87.9189
 30
0.0
 11
98.6194
 21
84.8198
 31
0.0
  0
LINE
  8
0
 62
     0
 10
98.6194
 20
84.8198
 30
0.0
 11
97.8186
 21
84.8198
 31
0.0
  0
LINE
  8
0
 62
     0
 10
97.8186
 20
65.7698
 30
0.0
 11
97.8186
 21
64.7693
 31
0.0
  0
LINE
  8
0
 62
     0
 10
97.8186
 20
64.7693
 30
0.0
 11
83.8193
 21
64.7693
 31
0.0
  0
LINE
  8
0
 62
     0
 10
83.8193
 20
64.7693
 30
0.0
 11
83.8193
 21
65.7698
 31
0.0
  0
LINE
  8
0
 62
     0
 10
83.8193
 20
65.7698
 30
0.0
 11
83.0185
 21
65.7698
 31
0.0
  0
LINE
  8
0
 62
     0
 10
83.0185
 20
65.7698
 30
0.0
 11
83.0185
 21
68.8689
 31
0.0
  0
LINE
  8
0
 62
     0
 10
83.0185
 20
68.8689
 30
0.0
 11
83.8193
 21
68.8689
 31
0.0
  0
LINE
  8
0
 62
     0
 10
83.8193
 20
68.8689
 30
0.0
 11
83.8193
 21
74.6689
 31
0.0
  0
LINE
  8
0
 62
     0
 10
83.8193
 20
74.6689
 30
0.0
 11
83.0185
 21
74.6689
 31
0.0
  0
LINE
  8
0
 62
     0
 10
83.0185
 20
74.6689
 30
0.0
 11
83.0185
 21
77.7695
 31
0.0
  0
LINE
  8
0
 62
     0
 10
83.0185
 20
77.7695
 30
0.0
 11
83.8193
 21
77.7695
 31
0.0
  0
LINE
  8
0
 62
     0
 10
83.8193
 20
77.7695
 30
0.0
 11
83.8193
 21
78.7686
 31
0.0
  0
LINE
  8
0
 62
     0
 10
83.8193
 20
78.7686
 30
0.0
 11
97.8186
 21
78.7686
 31
0.0
  0
LINE
  8
0
 62
     0
 10
97.8186
 20
78.7686
 30
0.0
 11
97.8186
 21
77.7695
 31
0.0
  0
LINE
  8
0
 62
     0
 10
97.8186
 20
77.7695
 30
0.0
 11
98.6194
 21
77.7695
 31
0.0
  0
LINE
  8
0
 62
     0
 10
98.6194
 20
77.7695
 30
0.0
 11
98.6194
 21
74.6689
 31
0.0
  0
LINE
  8
0
 62
     0
 10
98.6194
 20
74.6689
 30
0.0
 11
97.8186
 21
74.6689
 31
0.0
  0
LINE
  8
0
 62
     0
 10
97.8186
 20
74.6689
 30
0.0
 11
97.8186
 21
68.8689
 31
0.0
  0
LINE
  8
0
 62
     0
 10
97.8186
 20
68.8689
 30
0.0
 11
98.6194
 21
68.8689
 31
0.0
  0
LINE
  8
0
 62
     0
 10
98.6194
 20
68.8689
 30
0.0
 11
98.6194
 21
65.7698
 31
0.0
  0
LINE
  8
0
 62
     0
 10
98.6194
 20
65.7698
 30
0.0
 11
97.8186
 21
65.7698
 31
0.0
  0
LINE
  8
0
 62
     0
 10
97.8186
 20
46.7198
 30
0.0
 11
97.8186
 21
45.7193
 31
0.0
  0
LINE
  8
0
 62
     0
 10
97.8186
 20
45.7193
 30
0.0
 11
83.8193
 21
45.7193
 31
0.0
  0
LINE
  8
0
 62
     0
 10
83.8193
 20
45.7193
 30
0.0
 11
83.8193
 21
46.7198
 31
0.0
  0
LINE
  8
0
 62
     0
 10
83.8193
 20
46.7198
 30
0.0
 11
83.0185
 21
46.7198
 31
0.0
  0
LINE
  8
0
 62
     0
 10
83.0185
 20
46.7198
 30
0.0
 11
83.0185
 21
49.8189
 31
0.0
  0
LINE
  8
0
 62
     0
 10
83.0185
 20
49.8189
 30
0.0
 11
83.8193
 21
49.8189
 31
0.0
  0
LINE
  8
0
 62
     0
 10
83.8193
 20
49.8189
 30
0.0
 11
83.8193
 21
55.6189
 31
0.0
  0
LINE
  8
0
 62
     0
 10
83.8193
 20
55.6189
 30
0.0
 11
83.0185
 21
55.6189
 31
0.0
  0
LINE
  8
0
 62
     0
 10
83.0185
 20
55.6189
 30
0.0
 11
83.0185
 21
58.7195
 31
0.0
  0
LINE
  8
0
 62
     0
 10
83.0185
 20
58.7195
 30
0.0
 11
83.8193
 21
58.7195
 31
0.0
  0
LINE
  8
0
 62
     0
 10
83.8193
 20
58.7195
 30
0.0
 11
83.8193
 21
59.7186
 31
0.0
  0
LINE
  8
0
 62
     0
 10
83.8193
 20
59.7186
 30
0.0
 11
97.8186
 21
59.7186
 31
0.0
  0
LINE
  8
0
 62
     0
 10
97.8186
 20
59.7186
 30
0.0
 11
97.8186
 21
58.7195
 31
0.0
  0
LINE
  8
0
 62
     0
 10
97.8186
 20
58.7195
 30
0.0
 11
98.6194
 21
58.7195
 31
0.0
  0
LINE
  8
0
 62
     0
 10
98.6194
 20
58.7195
 30
0.0
 11
98.6194
 21
55.6189
 31
0.0
  0
LINE
  8
0
 62
     0
 10
98.6194
 20
55.6189
 30
0.0
 11
97.8186
 21
55.6189
 31
0.0
  0
LINE
  8
0
 62
     0
 10
97.8186
 20
55.6189
 30
0.0
 11
97.8186
 21
49.8189
 31
0.0
  0
LINE
  8
0
 62
     0
 10
97.8186
 20
49.8189
 30
0.0
 11
98.6194
 21
49.8189
 31
0.0
  0
LINE
  8
0
 62
     0
 10
98.6194
 20
49.8189
 30
0.0
 11
98.6194
 21
46.7198
 31
0.0
  0
LINE
  8
0
 62
     0
 10
98.6194
 20
46.7198
 30
0.0
 11
97.8186
 21
46.7198
 31
0.0
  0
LINE
  8
0
 62
     0
 10
97.8186
 20
27.6696
 30
0.0
 11
97.8186
 21
26.6692
 31
0.0
  0
LINE
  8
0
 62
     0
 10
97.8186
 20
26.6692
 30
0.0
 11
83.8193
 21
26.6692
 31
0.0
  0
LINE
  8
0
 62
     0
 10
83.8193
 20
26.6692
 30
0.0
 11
83.8193
 21
27.6696
 31
0.0
  0
LINE
  8
0
 62
     0
 10
83.8193
 20
27.6696
 30
0.0
 11
83.0185
 21
27.6696
 31
0.0
  0
LINE
  8
0
 62
     0
 10
83.0185
 20
27.6696
 30
0.0
 11
83.0185
 21
30.7689
 31
0.0
  0
LINE
  8
0
 62
     0
 10
83.0185
 20
30.7689
 30
0.0
 11
83.8193
 21
30.7689
 31
0.0
  0
LINE
  8
0
 62
     0
 10
83.8193
 20
30.7689
 30
0.0
 11
83.8193
 21
36.5689
 31
0.0
  0
LINE
  8
0
 62
     0
 10
83.8193
 20
36.5689
 30
0.0
 11
83.0185
 21
36.5689
 31
0.0
  0
LINE
  8
0
 62
     0
 10
83.0185
 20
36.5689
 30
0.0
 11
83.0185
 21
39.6695
 31
0.0
  0
LINE
  8
0
 62
     0
 10
83.0185
 20
39.6695
 30
0.0
 11
83.8193
 21
39.6695
 31
0.0
  0
LINE
  8
0
 62
     0
 10
83.8193
 20
39.6695
 30
0.0
 11
83.8193
 21
40.6686
 31
0.0
  0
LINE
  8
0
 62
     0
 10
83.8193
 20
40.6686
 30
0.0
 11
97.8186
 21
40.6686
 31
0.0
  0
LINE
  8
0
 62
     0
 10
97.8186
 20
40.6686
 30
0.0
 11
97.8186
 21
39.6695
 31
0.0
  0
LINE
  8
0
 62
     0
 10
97.8186
 20
39.6695
 30
0.0
 11
98.6194
 21
39.6695
 31
0.0
  0
LINE
  8
0
 62
     0
 10
98.6194
 20
39.6695
 30
0.0
 11
98.6194
 21
36.5689
 31
0.0
  0
LINE
  8
0
 62
     0
 10
98.6194
 20
36.5689
 30
0.0
 11
97.8186
 21
36.5689
 31
0.0
  0
LINE
  8
0
 62
     0
 10
97.8186
 20
36.5689
 30
0.0
 11
97.8186
 21
30.7689
 31
0.0
  0
LINE
  8
0
 62
     0
 10
97.8186
 20
30.7689
 30
0.0
 11
98.6194
 21
30.7689
 31
0.0
  0
LINE
  8
0
 62
     0
 10
98.6194
 20
30.7689
 30
0.0
 11
98.6194
 21
27.6696
 31
0.0
  0
LINE
  8
0
 62
     0
 10
98.6194
 20
27.6696
 30
0.0
 11
97.8186
 21
27.6696
 31
0.0
  0
LINE
  8
0
 62
     0
 10
115.569
 20
14.1194
 30
0.0
 11
115.569
 21
7.84931
 31
0.0
  0
LINE
  8
0
 62
     0
 10
115.569
 20
7.84931
 30
0.0
 11
113.943
 21
7.84931
 31
0.0
  0
LINE
  8
0
 62
     0
 10
113.943
 20
7.84931
 30
0.0
 11
113.943
 21
6.86954
 31
0.0
  0
LINE
  8
0
 62
     0
 10
113.943
 20
6.86954
 30
0.0
 11
110.644
 21
6.86954
 31
0.0
  0
LINE
  8
0
 62
     0
 10
110.644
 20
6.86954
 30
0.0
 11
110.644
 21
7.84931
 31
0.0
  0
LINE
  8
0
 62
     0
 10
110.644
 20
7.84931
 30
0.0
 11
108.919
 21
7.84931
 31
0.0
  0
LINE
  8
0
 62
     0
 10
108.919
 20
7.84931
 30
0.0
 11
108.919
 21
8.64856
 31
0.0
  0
LINE
  8
0
 62
     0
 10
108.919
 20
8.64856
 30
0.0
 11
108.144
 21
8.64856
 31
0.0
  0
LINE
  8
0
 62
     0
 10
108.144
 20
8.64856
 30
0.0
 11
108.144
 21
8.61963
 31
0.0
  0
LINE
  8
0
 62
     0
 10
108.144
 20
8.61963
 30
0.0
 11
107.344
 21
8.61963
 31
0.0
  0
LINE
  8
0
 62
     0
 10
107.344
 20
8.61963
 30
0.0
 11
107.344
 21
7.61919
 31
0.0
  0
LINE
  8
0
 62
     0
 10
107.344
 20
7.61919
 30
0.0
 11
93.3443
 21
7.61919
 31
0.0
  0
LINE
  8
0
 62
     0
 10
93.3443
 20
7.61919
 30
0.0
 11
93.3443
 21
8.61963
 31
0.0
  0
LINE
  8
0
 62
     0
 10
93.3443
 20
8.61963
 30
0.0
 11
92.5435
 21
8.61963
 31
0.0
  0
LINE
  8
0
 62
     0
 10
92.5435
 20
8.61963
 30
0.0
 11
92.5435
 21
8.64856
 31
0.0
  0
LINE
  8
0
 62
     0
 10
92.5435
 20
8.64856
 30
0.0
 11
91.7691
 21
8.64856
 31
0.0
  0
LINE
  8
0
 62
     0
 10
91.7691
 20
8.64856
 30
0.0
 11
91.7691
 21
7.84931
 31
0.0
  0
LINE
  8
0
 62
     0
 10
91.7691
 20
7.84931
 30
0.0
 11
90.0437
 21
7.84931
 31
0.0
  0
LINE
  8
0
 62
     0
 10
90.0437
 20
7.84931
 30
0.0
 11
90.0437
 21
6.86954
 31
0.0
  0
LINE
  8
0
 62
     0
 10
90.0437
 20
6.86954
 30
0.0
 11
86.7435
 21
6.86954
 31
0.0
  0
LINE
  8
0
 62
     0
 10
86.7435
 20
6.86954
 30
0.0
 11
86.7435
 21
7.84931
 31
0.0
  0
LINE
  8
0
 62
     0
 10
86.7435
 20
7.84931
 30
0.0
 11
85.1186
 21
7.84931
 31
0.0
  0
LINE
  8
0
 62
     0
 10
85.1186
 20
7.84931
 30
0.0
 11
85.1186
 21
14.1194
 31
0.0
  0
LINE
  8
0
 62
     0
 10
85.1186
 20
14.1194
 30
0.0
 11
84.2437
 21
14.1194
 31
0.0
  0
LINE
  8
0
 62
     0
 10
84.2437
 20
14.1194
 30
0.0
 11
84.2437
 21
16.9195
 31
0.0
  0
LINE
  8
0
 62
     0
 10
84.2437
 20
16.9195
 30
0.0
 11
85.1186
 21
16.9195
 31
0.0
  0
LINE
  8
0
 62
     0
 10
85.1186
 20
16.9195
 30
0.0
 11
85.1186
 21
20.1497
 31
0.0
  0
LINE
  8
0
 62
     0
 10
85.1186
 20
20.1497
 30
0.0
 11
86.7435
 21
20.1497
 31
0.0
  0
LINE
  8
0
 62
     0
 10
86.7435
 20
20.1497
 30
0.0
 11
86.7435
 21
21.0688
 31
0.0
  0
LINE
  8
0
 62
     0
 10
86.7435
 20
21.0688
 30
0.0
 11
90.0437
 21
21.0688
 31
0.0
  0
LINE
  8
0
 62
     0
 10
90.0437
 20
21.0688
 30
0.0
 11
90.0437
 21
20.1497
 31
0.0
  0
LINE
  8
0
 62
     0
 10
90.0437
 20
20.1497
 30
0.0
 11
91.7691
 21
20.1497
 31
0.0
  0
LINE
  8
0
 62
     0
 10
91.7691
 20
20.1497
 30
0.0
 11
91.7691
 21
19.349
 31
0.0
  0
LINE
  8
0
 62
     0
 10
91.7691
 20
19.349
 30
0.0
 11
92.5435
 21
19.349
 31
0.0
  0
LINE
  8
0
 62
     0
 10
92.5435
 20
19.349
 30
0.0
 11
92.5435
 21
20.6196
 31
0.0
  0
LINE
  8
0
 62
     0
 10
92.5435
 20
20.6196
 30
0.0
 11
93.3443
 21
20.6196
 31
0.0
  0
LINE
  8
0
 62
     0
 10
93.3443
 20
20.6196
 30
0.0
 11
93.3443
 21
21.6187
 31
0.0
  0
LINE
  8
0
 62
     0
 10
93.3443
 20
21.6187
 30
0.0
 11
107.344
 21
21.6187
 31
0.0
  0
LINE
  8
0
 62
     0
 10
107.344
 20
21.6187
 30
0.0
 11
107.344
 21
20.6196
 31
0.0
  0
LINE
  8
0
 62
     0
 10
107.344
 20
20.6196
 30
0.0
 11
108.144
 21
20.6196
 31
0.0
  0
LINE
  8
0
 62
     0
 10
108.144
 20
20.6196
 30
0.0
 11
108.144
 21
19.349
 31
0.0
  0
LINE
  8
0
 62
     0
 10
108.144
 20
19.349
 30
0.0
 11
108.919
 21
19.349
 31
0.0
  0
LINE
  8
0
 62
     0
 10
108.919
 20
19.349
 30
0.0
 11
108.919
 21
20.1497
 31
0.0
  0
LINE
  8
0
 62
     0
 10
108.919
 20
20.1497
 30
0.0
 11
110.644
 21
20.1497
 31
0.0
  0
LINE
  8
0
 62
     0
 10
110.644
 20
20.1497
 30
0.0
 11
110.644
 21
21.0688
 31
0.0
  0
LINE
  8
0
 62
     0
 10
110.644
 20
21.0688
 30
0.0
 11
113.943
 21
21.0688
 31
0.0
  0
LINE
  8
0
 62
     0
 10
113.943
 20
21.0688
 30
0.0
 11
113.943
 21
20.1497
 31
0.0
  0
LINE
  8
0
 62
     0
 10
113.943
 20
20.1497
 30
0.0
 11
115.569
 21
20.1497
 31
0.0
  0
LINE
  8
0
 62
     0
 10
115.569
 20
20.1497
 30
0.0
 11
115.569
 21
16.9195
 31
0.0
  0
LINE
  8
0
 62
     0
 10
115.569
 20
16.9195
 30
0.0
 11
116.444
 21
16.9195
 31
0.0
  0
LINE
  8
0
 62
     0
 10
116.444
 20
16.9195
 30
0.0
 11
116.444
 21
14.1194
 31
0.0
  0
LINE
  8
0
 62
     0
 10
116.444
 20
14.1194
 30
0.0
 11
115.569
 21
14.1194
 31
0.0
  0
LINE
  8
0
 62
     0
 10
116.869
 20
84.8198
 30
0.0
 11
116.869
 21
83.8193
 31
0.0
  0
LINE
  8
0
 62
     0
 10
116.869
 20
83.8193
 30
0.0
 11
102.869
 21
83.8193
 31
0.0
  0
LINE
  8
0
 62
     0
 10
102.869
 20
83.8193
 30
0.0
 11
102.869
 21
84.8198
 31
0.0
  0
LINE
  8
0
 62
     0
 10
102.869
 20
84.8198
 30
0.0
 11
102.068
 21
84.8198
 31
0.0
  0
LINE
  8
0
 62
     0
 10
102.068
 20
84.8198
 30
0.0
 11
102.068
 21
87.9189
 31
0.0
  0
LINE
  8
0
 62
     0
 10
102.068
 20
87.9189
 30
0.0
 11
102.869
 21
87.9189
 31
0.0
  0
LINE
  8
0
 62
     0
 10
102.869
 20
87.9189
 30
0.0
 11
102.869
 21
93.7189
 31
0.0
  0
LINE
  8
0
 62
     0
 10
102.869
 20
93.7189
 30
0.0
 11
102.068
 21
93.7189
 31
0.0
  0
LINE
  8
0
 62
     0
 10
102.068
 20
93.7189
 30
0.0
 11
102.068
 21
96.8195
 31
0.0
  0
LINE
  8
0
 62
     0
 10
102.068
 20
96.8195
 30
0.0
 11
102.869
 21
96.8195
 31
0.0
  0
LINE
  8
0
 62
     0
 10
102.869
 20
96.8195
 30
0.0
 11
102.869
 21
97.8186
 31
0.0
  0
LINE
  8
0
 62
     0
 10
102.869
 20
97.8186
 30
0.0
 11
116.869
 21
97.8186
 31
0.0
  0
LINE
  8
0
 62
     0
 10
116.869
 20
97.8186
 30
0.0
 11
116.869
 21
96.8195
 31
0.0
  0
LINE
  8
0
 62
     0
 10
116.869
 20
96.8195
 30
0.0
 11
117.669
 21
96.8195
 31
0.0
  0
LINE
  8
0
 62
     0
 10
117.669
 20
96.8195
 30
0.0
 11
117.669
 21
93.7189
 31
0.0
  0
LINE
  8
0
 62
     0
 10
117.669
 20
93.7189
 30
0.0
 11
116.869
 21
93.7189
 31
0.0
  0
LINE
  8
0
 62
     0
 10
116.869
 20
93.7189
 30
0.0
 11
116.869
 21
87.9189
 31
0.0
  0
LINE
  8
0
 62
     0
 10
116.869
 20
87.9189
 30
0.0
 11
117.669
 21
87.9189
 31
0.0
  0
LINE
  8
0
 62
     0
 10
117.669
 20
87.9189
 30
0.0
 11
117.669
 21
84.8198
 31
0.0
  0
LINE
  8
0
 62
     0
 10
117.669
 20
84.8198
 30
0.0
 11
116.869
 21
84.8198
 31
0.0
  0
LINE
  8
0
 62
     0
 10
116.869
 20
65.7698
 30
0.0
 11
116.869
 21
64.7693
 31
0.0
  0
LINE
  8
0
 62
     0
 10
116.869
 20
64.7693
 30
0.0
 11
102.869
 21
64.7693
 31
0.0
  0
LINE
  8
0
 62
     0
 10
102.869
 20
64.7693
 30
0.0
 11
102.869
 21
65.7698
 31
0.0
  0
LINE
  8
0
 62
     0
 10
102.869
 20
65.7698
 30
0.0
 11
102.068
 21
65.7698
 31
0.0
  0
LINE
  8
0
 62
     0
 10
102.068
 20
65.7698
 30
0.0
 11
102.068
 21
68.8689
 31
0.0
  0
LINE
  8
0
 62
     0
 10
102.068
 20
68.8689
 30
0.0
 11
102.869
 21
68.8689
 31
0.0
  0
LINE
  8
0
 62
     0
 10
102.869
 20
68.8689
 30
0.0
 11
102.869
 21
74.6689
 31
0.0
  0
LINE
  8
0
 62
     0
 10
102.869
 20
74.6689
 30
0.0
 11
102.068
 21
74.6689
 31
0.0
  0
LINE
  8
0
 62
     0
 10
102.068
 20
74.6689
 30
0.0
 11
102.068
 21
77.7695
 31
0.0
  0
LINE
  8
0
 62
     0
 10
102.068
 20
77.7695
 30
0.0
 11
102.869
 21
77.7695
 31
0.0
  0
LINE
  8
0
 62
     0
 10
102.869
 20
77.7695
 30
0.0
 11
102.869
 21
78.7686
 31
0.0
  0
LINE
  8
0
 62
     0
 10
102.869
 20
78.7686
 30
0.0
 11
116.869
 21
78.7686
 31
0.0
  0
LINE
  8
0
 62
     0
 10
116.869
 20
78.7686
 30
0.0
 11
116.869
 21
77.7695
 31
0.0
  0
LINE
  8
0
 62
     0
 10
116.869
 20
77.7695
 30
0.0
 11
117.669
 21
77.7695
 31
0.0
  0
LINE
  8
0
 62
     0
 10
117.669
 20
77.7695
 30
0.0
 11
117.669
 21
74.6689
 31
0.0
  0
LINE
  8
0
 62
     0
 10
117.669
 20
74.6689
 30
0.0
 11
116.869
 21
74.6689
 31
0.0
  0
LINE
  8
0
 62
     0
 10
116.869
 20
74.6689
 30
0.0
 11
116.869
 21
68.8689
 31
0.0
  0
LINE
  8
0
 62
     0
 10
116.869
 20
68.8689
 30
0.0
 11
117.669
 21
68.8689
 31
0.0
  0
LINE
  8
0
 62
     0
 10
117.669
 20
68.8689
 30
0.0
 11
117.669
 21
65.7698
 31
0.0
  0
LINE
  8
0
 62
     0
 10
117.669
 20
65.7698
 30
0.0
 11
116.869
 21
65.7698
 31
0.0
  0
LINE
  8
0
 62
     0
 10
116.869
 20
46.7198
 30
0.0
 11
116.869
 21
45.7193
 31
0.0
  0
LINE
  8
0
 62
     0
 10
116.869
 20
45.7193
 30
0.0
 11
102.869
 21
45.7193
 31
0.0
  0
LINE
  8
0
 62
     0
 10
102.869
 20
45.7193
 30
0.0
 11
102.869
 21
46.7198
 31
0.0
  0
LINE
  8
0
 62
     0
 10
102.869
 20
46.7198
 30
0.0
 11
102.068
 21
46.7198
 31
0.0
  0
LINE
  8
0
 62
     0
 10
102.068
 20
46.7198
 30
0.0
 11
102.068
 21
49.8189
 31
0.0
  0
LINE
  8
0
 62
     0
 10
102.068
 20
49.8189
 30
0.0
 11
102.869
 21
49.8189
 31
0.0
  0
LINE
  8
0
 62
     0
 10
102.869
 20
49.8189
 30
0.0
 11
102.869
 21
55.6189
 31
0.0
  0
LINE
  8
0
 62
     0
 10
102.869
 20
55.6189
 30
0.0
 11
102.068
 21
55.6189
 31
0.0
  0
LINE
  8
0
 62
     0
 10
102.068
 20
55.6189
 30
0.0
 11
102.068
 21
58.7195
 31
0.0
  0
LINE
  8
0
 62
     0
 10
102.068
 20
58.7195
 30
0.0
 11
102.869
 21
58.7195
 31
0.0
  0
LINE
  8
0
 62
     0
 10
102.869
 20
58.7195
 30
0.0
 11
102.869
 21
59.7186
 31
0.0
  0
LINE
  8
0
 62
     0
 10
102.869
 20
59.7186
 30
0.0
 11
116.869
 21
59.7186
 31
0.0
  0
LINE
  8
0
 62
     0
 10
116.869
 20
59.7186
 30
0.0
 11
116.869
 21
58.7195
 31
0.0
  0
LINE
  8
0
 62
     0
 10
116.869
 20
58.7195
 30
0.0
 11
117.669
 21
58.7195
 31
0.0
  0
LINE
  8
0
 62
     0
 10
117.669
 20
58.7195
 30
0.0
 11
117.669
 21
55.6189
 31
0.0
  0
LINE
  8
0
 62
     0
 10
117.669
 20
55.6189
 30
0.0
 11
116.869
 21
55.6189
 31
0.0
  0
LINE
  8
0
 62
     0
 10
116.869
 20
55.6189
 30
0.0
 11
116.869
 21
49.8189
 31
0.0
  0
LINE
  8
0
 62
     0
 10
116.869
 20
49.8189
 30
0.0
 11
117.669
 21
49.8189
 31
0.0
  0
LINE
  8
0
 62
     0
 10
117.669
 20
49.8189
 30
0.0
 11
117.669
 21
46.7198
 31
0.0
  0
LINE
  8
0
 62
     0
 10
117.669
 20
46.7198
 30
0.0
 11
116.869
 21
46.7198
 31
0.0
  0
LINE
  8
0
 62
     0
 10
116.869
 20
27.6696
 30
0.0
 11
116.869
 21
26.6692
 31
0.0
  0
LINE
  8
0
 62
     0
 10
116.869
 20
26.6692
 30
0.0
 11
102.869
 21
26.6692
 31
0.0
  0
LINE
  8
0
 62
     0
 10
102.869
 20
26.6692
 30
0.0
 11
102.869
 21
27.6696
 31
0.0
  0
LINE
  8
0
 62
     0
 10
102.869
 20
27.6696
 30
0.0
 11
102.068
 21
27.6696
 31
0.0
  0
LINE
  8
0
 62
     0
 10
102.068
 20
27.6696
 30
0.0
 11
102.068
 21
30.7689
 31
0.0
  0
LINE
  8
0
 62
     0
 10
102.068
 20
30.7689
 30
0.0
 11
102.869
 21
30.7689
 31
0.0
  0
LINE
  8
0
 62
     0
 10
102.869
 20
30.7689
 30
0.0
 11
102.869
 21
36.5689
 31
0.0
  0
LINE
  8
0
 62
     0
 10
102.869
 20
36.5689
 30
0.0
 11
102.068
 21
36.5689
 31
0.0
  0
LINE
  8
0
 62
     0
 10
102.068
 20
36.5689
 30
0.0
 11
102.068
 21
39.6695
 31
0.0
  0
LINE
  8
0
 62
     0
 10
102.068
 20
39.6695
 30
0.0
 11
102.869
 21
39.6695
 31
0.0
  0
LINE
  8
0
 62
     0
 10
102.869
 20
39.6695
 30
0.0
 11
102.869
 21
40.6686
 31
0.0
  0
LINE
  8
0
 62
     0
 10
102.869
 20
40.6686
 30
0.0
 11
116.869
 21
40.6686
 31
0.0
  0
LINE
  8
0
 62
     0
 10
116.869
 20
40.6686
 30
0.0
 11
116.869
 21
39.6695
 31
0.0
  0
LINE
  8
0
 62
     0
 10
116.869
 20
39.6695
 30
0.0
 11
117.669
 21
39.6695
 31
0.0
  0
LINE
  8
0
 62
     0
 10
117.669
 20
39.6695
 30
0.0
 11
117.669
 21
36.5689
 31
0.0
  0
LINE
  8
0
 62
     0
 10
117.669
 20
36.5689
 30
0.0
 11
116.869
 21
36.5689
 31
0.0
  0
LINE
  8
0
 62
     0
 10
116.869
 20
36.5689
 30
0.0
 11
116.869
 21
30.7689
 31
0.0
  0
LINE
  8
0
 62
     0
 10
116.869
 20
30.7689
 30
0.0
 11
117.669
 21
30.7689
 31
0.0
  0
LINE
  8
0
 62
     0
 10
117.669
 20
30.7689
 30
0.0
 11
117.669
 21
27.6696
 31
0.0
  0
LINE
  8
0
 62
     0
 10
117.669
 20
27.6696
 30
0.0
 11
116.869
 21
27.6696
 31
0.0
  0
LINE
  8
0
 62
     0
 10
135.919
 20
84.8198
 30
0.0
 11
135.919
 21
83.8193
 31
0.0
  0
LINE
  8
0
 62
     0
 10
135.919
 20
83.8193
 30
0.0
 11
121.919
 21
83.8193
 31
0.0
  0
LINE
  8
0
 62
     0
 10
121.919
 20
83.8193
 30
0.0
 11
121.919
 21
84.8198
 31
0.0
  0
LINE
  8
0
 62
     0
 10
121.919
 20
84.8198
 30
0.0
 11
121.118
 21
84.8198
 31
0.0
  0
LINE
  8
0
 62
     0
 10
121.118
 20
84.8198
 30
0.0
 11
121.118
 21
87.9189
 31
0.0
  0
LINE
  8
0
 62
     0
 10
121.118
 20
87.9189
 30
0.0
 11
121.919
 21
87.9189
 31
0.0
  0
LINE
  8
0
 62
     0
 10
121.919
 20
87.9189
 30
0.0
 11
121.919
 21
93.7189
 31
0.0
  0
LINE
  8
0
 62
     0
 10
121.919
 20
93.7189
 30
0.0
 11
121.118
 21
93.7189
 31
0.0
  0
LINE
  8
0
 62
     0
 10
121.118
 20
93.7189
 30
0.0
 11
121.118
 21
96.8195
 31
0.0
  0
LINE
  8
0
 62
     0
 10
121.118
 20
96.8195
 30
0.0
 11
121.919
 21
96.8195
 31
0.0
  0
LINE
  8
0
 62
     0
 10
121.919
 20
96.8195
 30
0.0
 11
121.919
 21
97.8186
 31
0.0
  0
LINE
  8
0
 62
     0
 10
121.919
 20
97.8186
 30
0.0
 11
135.919
 21
97.8186
 31
0.0
  0
LINE
  8
0
 62
     0
 10
135.919
 20
97.8186
 30
0.0
 11
135.919
 21
96.8195
 31
0.0
  0
LINE
  8
0
 62
     0
 10
135.919
 20
96.8195
 30
0.0
 11
136.719
 21
96.8195
 31
0.0
  0
LINE
  8
0
 62
     0
 10
136.719
 20
96.8195
 30
0.0
 11
136.719
 21
93.7189
 31
0.0
  0
LINE
  8
0
 62
     0
 10
136.719
 20
93.7189
 30
0.0
 11
135.919
 21
93.7189
 31
0.0
  0
LINE
  8
0
 62
     0
 10
135.919
 20
93.7189
 30
0.0
 11
135.919
 21
87.9189
 31
0.0
  0
LINE
  8
0
 62
     0
 10
135.919
 20
87.9189
 30
0.0
 11
136.719
 21
87.9189
 31
0.0
  0
LINE
  8
0
 62
     0
 10
136.719
 20
87.9189
 30
0.0
 11
136.719
 21
84.8198
 31
0.0
  0
LINE
  8
0
 62
     0
 10
136.719
 20
84.8198
 30
0.0
 11
135.919
 21
84.8198
 31
0.0
  0
LINE
  8
0
 62
     0
 10
135.919
 20
65.7698
 30
0.0
 11
135.919
 21
64.7693
 31
0.0
  0
LINE
  8
0
 62
     0
 10
135.919
 20
64.7693
 30
0.0
 11
121.919
 21
64.7693
 31
0.0
  0
LINE
  8
0
 62
     0
 10
121.919
 20
64.7693
 30
0.0
 11
121.919
 21
65.7698
 31
0.0
  0
LINE
  8
0
 62
     0
 10
121.919
 20
65.7698
 30
0.0
 11
121.118
 21
65.7698
 31
0.0
  0
LINE
  8
0
 62
     0
 10
121.118
 20
65.7698
 30
0.0
 11
121.118
 21
68.8689
 31
0.0
  0
LINE
  8
0
 62
     0
 10
121.118
 20
68.8689
 30
0.0
 11
121.919
 21
68.8689
 31
0.0
  0
LINE
  8
0
 62
     0
 10
121.919
 20
68.8689
 30
0.0
 11
121.919
 21
74.6689
 31
0.0
  0
LINE
  8
0
 62
     0
 10
121.919
 20
74.6689
 30
0.0
 11
121.118
 21
74.6689
 31
0.0
  0
LINE
  8
0
 62
     0
 10
121.118
 20
74.6689
 30
0.0
 11
121.118
 21
77.7695
 31
0.0
  0
LINE
  8
0
 62
     0
 10
121.118
 20
77.7695
 30
0.0
 11
121.919
 21
77.7695
 31
0.0
  0
LINE
  8
0
 62
     0
 10
121.919
 20
77.7695
 30
0.0
 11
121.919
 21
78.7686
 31
0.0
  0
LINE
  8
0
 62
     0
 10
121.919
 20
78.7686
 30
0.0
 11
135.919
 21
78.7686
 31
0.0
  0
LINE
  8
0
 62
     0
 10
135.919
 20
78.7686
 30
0.0
 11
135.919
 21
77.7695
 31
0.0
  0
LINE
  8
0
 62
     0
 10
135.919
 20
77.7695
 30
0.0
 11
136.719
 21
77.7695
 31
0.0
  0
LINE
  8
0
 62
     0
 10
136.719
 20
77.7695
 30
0.0
 11
136.719
 21
74.6689
 31
0.0
  0
LINE
  8
0
 62
     0
 10
136.719
 20
74.6689
 30
0.0
 11
135.919
 21
74.6689
 31
0.0
  0
LINE
  8
0
 62
     0
 10
135.919
 20
74.6689
 30
0.0
 11
135.919
 21
68.8689
 31
0.0
  0
LINE
  8
0
 62
     0
 10
135.919
 20
68.8689
 30
0.0
 11
136.719
 21
68.8689
 31
0.0
  0
LINE
  8
0
 62
     0
 10
136.719
 20
68.8689
 30
0.0
 11
136.719
 21
65.7698
 31
0.0
  0
LINE
  8
0
 62
     0
 10
136.719
 20
65.7698
 30
0.0
 11
135.919
 21
65.7698
 31
0.0
  0
LINE
  8
0
 62
     0
 10
135.919
 20
46.7198
 30
0.0
 11
135.919
 21
45.7193
 31
0.0
  0
LINE
  8
0
 62
     0
 10
135.919
 20
45.7193
 30
0.0
 11
121.919
 21
45.7193
 31
0.0
  0
LINE
  8
0
 62
     0
 10
121.919
 20
45.7193
 30
0.0
 11
121.919
 21
46.7198
 31
0.0
  0
LINE
  8
0
 62
     0
 10
121.919
 20
46.7198
 30
0.0
 11
121.118
 21
46.7198
 31
0.0
  0
LINE
  8
0
 62
     0
 10
121.118
 20
46.7198
 30
0.0
 11
121.118
 21
49.8189
 31
0.0
  0
LINE
  8
0
 62
     0
 10
121.118
 20
49.8189
 30
0.0
 11
121.919
 21
49.8189
 31
0.0
  0
LINE
  8
0
 62
     0
 10
121.919
 20
49.8189
 30
0.0
 11
121.919
 21
55.6189
 31
0.0
  0
LINE
  8
0
 62
     0
 10
121.919
 20
55.6189
 30
0.0
 11
121.118
 21
55.6189
 31
0.0
  0
LINE
  8
0
 62
     0
 10
121.118
 20
55.6189
 30
0.0
 11
121.118
 21
58.7195
 31
0.0
  0
LINE
  8
0
 62
     0
 10
121.118
 20
58.7195
 30
0.0
 11
121.919
 21
58.7195
 31
0.0
  0
LINE
  8
0
 62
     0
 10
121.919
 20
58.7195
 30
0.0
 11
121.919
 21
59.7186
 31
0.0
  0
LINE
  8
0
 62
     0
 10
121.919
 20
59.7186
 30
0.0
 11
135.919
 21
59.7186
 31
0.0
  0
LINE
  8
0
 62
     0
 10
135.919
 20
59.7186
 30
0.0
 11
135.919
 21
58.7195
 31
0.0
  0
LINE
  8
0
 62
     0
 10
135.919
 20
58.7195
 30
0.0
 11
136.719
 21
58.7195
 31
0.0
  0
LINE
  8
0
 62
     0
 10
136.719
 20
58.7195
 30
0.0
 11
136.719
 21
55.6189
 31
0.0
  0
LINE
  8
0
 62
     0
 10
136.719
 20
55.6189
 30
0.0
 11
135.919
 21
55.6189
 31
0.0
  0
LINE
  8
0
 62
     0
 10
135.919
 20
55.6189
 30
0.0
 11
135.919
 21
49.8189
 31
0.0
  0
LINE
  8
0
 62
     0
 10
135.919
 20
49.8189
 30
0.0
 11
136.719
 21
49.8189
 31
0.0
  0
LINE
  8
0
 62
     0
 10
136.719
 20
49.8189
 30
0.0
 11
136.719
 21
46.7198
 31
0.0
  0
LINE
  8
0
 62
     0
 10
136.719
 20
46.7198
 30
0.0
 11
135.919
 21
46.7198
 31
0.0
  0
LINE
  8
0
 62
     0
 10
135.919
 20
27.6696
 30
0.0
 11
135.919
 21
26.6692
 31
0.0
  0
LINE
  8
0
 62
     0
 10
135.919
 20
26.6692
 30
0.0
 11
121.919
 21
26.6692
 31
0.0
  0
LINE
  8
0
 62
     0
 10
121.919
 20
26.6692
 30
0.0
 11
121.919
 21
27.6696
 31
0.0
  0
LINE
  8
0
 62
     0
 10
121.919
 20
27.6696
 30
0.0
 11
121.118
 21
27.6696
 31
0.0
  0
LINE
  8
0
 62
     0
 10
121.118
 20
27.6696
 30
0.0
 11
121.118
 21
30.7689
 31
0.0
  0
LINE
  8
0
 62
     0
 10
121.118
 20
30.7689
 30
0.0
 11
121.919
 21
30.7689
 31
0.0
  0
LINE
  8
0
 62
     0
 10
121.919
 20
30.7689
 30
0.0
 11
121.919
 21
36.5689
 31
0.0
  0
LINE
  8
0
 62
     0
 10
121.919
 20
36.5689
 30
0.0
 11
121.118
 21
36.5689
 31
0.0
  0
LINE
  8
0
 62
     0
 10
121.118
 20
36.5689
 30
0.0
 11
121.118
 21
39.6695
 31
0.0
  0
LINE
  8
0
 62
     0
 10
121.118
 20
39.6695
 30
0.0
 11
121.919
 21
39.6695
 31
0.0
  0
LINE
  8
0
 62
     0
 10
121.919
 20
39.6695
 30
0.0
 11
121.919
 21
40.6686
 31
0.0
  0
LINE
  8
0
 62
     0
 10
121.919
 20
40.6686
 30
0.0
 11
135.919
 21
40.6686
 31
0.0
  0
LINE
  8
0
 62
     0
 10
135.919
 20
40.6686
 30
0.0
 11
135.919
 21
39.6695
 31
0.0
  0
LINE
  8
0
 62
     0
 10
135.919
 20
39.6695
 30
0.0
 11
136.719
 21
39.6695
 31
0.0
  0
LINE
  8
0
 62
     0
 10
136.719
 20
39.6695
 30
0.0
 11
136.719
 21
36.5689
 31
0.0
  0
LINE
  8
0
 62
     0
 10
136.719
 20
36.5689
 30
0.0
 11
135.919
 21
36.5689
 31
0.0
  0
LINE
  8
0
 62
     0
 10
135.919
 20
36.5689
 30
0.0
 11
135.919
 21
30.7689
 31
0.0
  0
LINE
  8
0
 62
     0
 10
135.919
 20
30.7689
 30
0.0
 11
136.719
 21
30.7689
 31
0.0
  0
LINE
  8
0
 62
     0
 10
136.719
 20
30.7689
 30
0.0
 11
136.719
 21
27.6696
 31
0.0
  0
LINE
  8
0
 62
     0
 10
136.719
 20
27.6696
 30
0.0
 11
135.919
 21
27.6696
 31
0.0
  0
LINE
  8
0
 62
     0
 10
154.969
 20
84.8198
 30
0.0
 11
154.969
 21
83.8193
 31
0.0
  0
LINE
  8
0
 62
     0
 10
154.969
 20
83.8193
 30
0.0
 11
140.969
 21
83.8193
 31
0.0
  0
LINE
  8
0
 62
     0
 10
140.969
 20
83.8193
 30
0.0
 11
140.969
 21
84.8198
 31
0.0
  0
LINE
  8
0
 62
     0
 10
140.969
 20
84.8198
 30
0.0
 11
140.168
 21
84.8198
 31
0.0
  0
LINE
  8
0
 62
     0
 10
140.168
 20
84.8198
 30
0.0
 11
140.168
 21
87.9189
 31
0.0
  0
LINE
  8
0
 62
     0
 10
140.168
 20
87.9189
 30
0.0
 11
140.969
 21
87.9189
 31
0.0
  0
LINE
  8
0
 62
     0
 10
140.969
 20
87.9189
 30
0.0
 11
140.969
 21
93.7189
 31
0.0
  0
LINE
  8
0
 62
     0
 10
140.969
 20
93.7189
 30
0.0
 11
140.168
 21
93.7189
 31
0.0
  0
LINE
  8
0
 62
     0
 10
140.168
 20
93.7189
 30
0.0
 11
140.168
 21
96.8195
 31
0.0
  0
LINE
  8
0
 62
     0
 10
140.168
 20
96.8195
 30
0.0
 11
140.969
 21
96.8195
 31
0.0
  0
LINE
  8
0
 62
     0
 10
140.969
 20
96.8195
 30
0.0
 11
140.969
 21
97.8186
 31
0.0
  0
LINE
  8
0
 62
     0
 10
140.969
 20
97.8186
 30
0.0
 11
154.969
 21
97.8186
 31
0.0
  0
LINE
  8
0
 62
     0
 10
154.969
 20
97.8186
 30
0.0
 11
154.969
 21
96.8195
 31
0.0
  0
LINE
  8
0
 62
     0
 10
154.969
 20
96.8195
 30
0.0
 11
155.769
 21
96.8195
 31
0.0
  0
LINE
  8
0
 62
     0
 10
155.769
 20
96.8195
 30
0.0
 11
155.769
 21
93.7189
 31
0.0
  0
LINE
  8
0
 62
     0
 10
155.769
 20
93.7189
 30
0.0
 11
154.969
 21
93.7189
 31
0.0
  0
LINE
  8
0
 62
     0
 10
154.969
 20
93.7189
 30
0.0
 11
154.969
 21
87.9189
 31
0.0
  0
LINE
  8
0
 62
     0
 10
154.969
 20
87.9189
 30
0.0
 11
155.769
 21
87.9189
 31
0.0
  0
LINE
  8
0
 62
     0
 10
155.769
 20
87.9189
 30
0.0
 11
155.769
 21
84.8198
 31
0.0
  0
LINE
  8
0
 62
     0
 10
155.769
 20
84.8198
 30
0.0
 11
154.969
 21
84.8198
 31
0.0
  0
LINE
  8
0
 62
     0
 10
154.969
 20
65.7698
 30
0.0
 11
154.969
 21
64.7693
 31
0.0
  0
LINE
  8
0
 62
     0
 10
154.969
 20
64.7693
 30
0.0
 11
140.969
 21
64.7693
 31
0.0
  0
LINE
  8
0
 62
     0
 10
140.969
 20
64.7693
 30
0.0
 11
140.969
 21
65.7698
 31
0.0
  0
LINE
  8
0
 62
     0
 10
140.969
 20
65.7698
 30
0.0
 11
140.168
 21
65.7698
 31
0.0
  0
LINE
  8
0
 62
     0
 10
140.168
 20
65.7698
 30
0.0
 11
140.168
 21
68.8689
 31
0.0
  0
LINE
  8
0
 62
     0
 10
140.168
 20
68.8689
 30
0.0
 11
140.969
 21
68.8689
 31
0.0
  0
LINE
  8
0
 62
     0
 10
140.969
 20
68.8689
 30
0.0
 11
140.969
 21
74.6689
 31
0.0
  0
LINE
  8
0
 62
     0
 10
140.969
 20
74.6689
 30
0.0
 11
140.168
 21
74.6689
 31
0.0
  0
LINE
  8
0
 62
     0
 10
140.168
 20
74.6689
 30
0.0
 11
140.168
 21
77.7695
 31
0.0
  0
LINE
  8
0
 62
     0
 10
140.168
 20
77.7695
 30
0.0
 11
140.969
 21
77.7695
 31
0.0
  0
LINE
  8
0
 62
     0
 10
140.969
 20
77.7695
 30
0.0
 11
140.969
 21
78.7686
 31
0.0
  0
LINE
  8
0
 62
     0
 10
140.969
 20
78.7686
 30
0.0
 11
154.969
 21
78.7686
 31
0.0
  0
LINE
  8
0
 62
     0
 10
154.969
 20
78.7686
 30
0.0
 11
154.969
 21
77.7695
 31
0.0
  0
LINE
  8
0
 62
     0
 10
154.969
 20
77.7695
 30
0.0
 11
155.769
 21
77.7695
 31
0.0
  0
LINE
  8
0
 62
     0
 10
155.769
 20
77.7695
 30
0.0
 11
155.769
 21
74.6689
 31
0.0
  0
LINE
  8
0
 62
     0
 10
155.769
 20
74.6689
 30
0.0
 11
154.969
 21
74.6689
 31
0.0
  0
LINE
  8
0
 62
     0
 10
154.969
 20
74.6689
 30
0.0
 11
154.969
 21
68.8689
 31
0.0
  0
LINE
  8
0
 62
     0
 10
154.969
 20
68.8689
 30
0.0
 11
155.769
 21
68.8689
 31
0.0
  0
LINE
  8
0
 62
     0
 10
155.769
 20
68.8689
 30
0.0
 11
155.769
 21
65.7698
 31
0.0
  0
LINE
  8
0
 62
     0
 10
155.769
 20
65.7698
 30
0.0
 11
154.969
 21
65.7698
 31
0.0
  0
LINE
  8
0
 62
     0
 10
154.969
 20
46.7198
 30
0.0
 11
154.969
 21
45.7193
 31
0.0
  0
LINE
  8
0
 62
     0
 10
154.969
 20
45.7193
 30
0.0
 11
140.969
 21
45.7193
 31
0.0
  0
LINE
  8
0
 62
     0
 10
140.969
 20
45.7193
 30
0.0
 11
140.969
 21
46.7198
 31
0.0
  0
LINE
  8
0
 62
     0
 10
140.969
 20
46.7198
 30
0.0
 11
140.168
 21
46.7198
 31
0.0
  0
LINE
  8
0
 62
     0
 10
140.168
 20
46.7198
 30
0.0
 11
140.168
 21
49.8189
 31
0.0
  0
LINE
  8
0
 62
     0
 10
140.168
 20
49.8189
 30
0.0
 11
140.969
 21
49.8189
 31
0.0
  0
LINE
  8
0
 62
     0
 10
140.969
 20
49.8189
 30
0.0
 11
140.969
 21
55.6189
 31
0.0
  0
LINE
  8
0
 62
     0
 10
140.969
 20
55.6189
 30
0.0
 11
140.168
 21
55.6189
 31
0.0
  0
LINE
  8
0
 62
     0
 10
140.168
 20
55.6189
 30
0.0
 11
140.168
 21
58.7195
 31
0.0
  0
LINE
  8
0
 62
     0
 10
140.168
 20
58.7195
 30
0.0
 11
140.969
 21
58.7195
 31
0.0
  0
LINE
  8
0
 62
     0
 10
140.969
 20
58.7195
 30
0.0
 11
140.969
 21
59.7186
 31
0.0
  0
LINE
  8
0
 62
     0
 10
140.969
 20
59.7186
 30
0.0
 11
154.969
 21
59.7186
 31
0.0
  0
LINE
  8
0
 62
     0
 10
154.969
 20
59.7186
 30
0.0
 11
154.969
 21
58.7195
 31
0.0
  0
LINE
  8
0
 62
     0
 10
154.969
 20
58.7195
 30
0.0
 11
155.769
 21
58.7195
 31
0.0
  0
LINE
  8
0
 62
     0
 10
155.769
 20
58.7195
 30
0.0
 11
155.769
 21
55.6189
 31
0.0
  0
LINE
  8
0
 62
     0
 10
155.769
 20
55.6189
 30
0.0
 11
154.969
 21
55.6189
 31
0.0
  0
LINE
  8
0
 62
     0
 10
154.969
 20
55.6189
 30
0.0
 11
154.969
 21
49.8189
 31
0.0
  0
LINE
  8
0
 62
     0
 10
154.969
 20
49.8189
 30
0.0
 11
155.769
 21
49.8189
 31
0.0
  0
LINE
  8
0
 62
     0
 10
155.769
 20
49.8189
 30
0.0
 11
155.769
 21
46.7198
 31
0.0
  0
LINE
  8
0
 62
     0
 10
155.769
 20
46.7198
 30
0.0
 11
154.969
 21
46.7198
 31
0.0
  0
LINE
  8
0
 62
     0
 10
154.969
 20
27.6696
 30
0.0
 11
154.969
 21
26.6692
 31
0.0
  0
LINE
  8
0
 62
     0
 10
154.969
 20
26.6692
 30
0.0
 11
140.969
 21
26.6692
 31
0.0
  0
LINE
  8
0
 62
     0
 10
140.969
 20
26.6692
 30
0.0
 11
140.969
 21
27.6696
 31
0.0
  0
LINE
  8
0
 62
     0
 10
140.969
 20
27.6696
 30
0.0
 11
140.168
 21
27.6696
 31
0.0
  0
LINE
  8
0
 62
     0
 10
140.168
 20
27.6696
 30
0.0
 11
140.168
 21
30.7689
 31
0.0
  0
LINE
  8
0
 62
     0
 10
140.168
 20
30.7689
 30
0.0
 11
140.969
 21
30.7689
 31
0.0
  0
LINE
  8
0
 62
     0
 10
140.969
 20
30.7689
 30
0.0
 11
140.969
 21
36.5689
 31
0.0
  0
LINE
  8
0
 62
     0
 10
140.969
 20
36.5689
 30
0.0
 11
140.168
 21
36.5689
 31
0.0
  0
LINE
  8
0
 62
     0
 10
140.168
 20
36.5689
 30
0.0
 11
140.168
 21
39.6695
 31
0.0
  0
LINE
  8
0
 62
     0
 10
140.168
 20
39.6695
 30
0.0
 11
140.969
 21
39.6695
 31
0.0
  0
LINE
  8
0
 62
     0
 10
140.969
 20
39.6695
 30
0.0
 11
140.969
 21
40.6686
 31
0.0
  0
LINE
  8
0
 62
     0
 10
140.969
 20
40.6686
 30
0.0
 11
154.969
 21
40.6686
 31
0.0
  0
LINE
  8
0
 62
     0
 10
154.969
 20
40.6686
 30
0.0
 11
154.969
 21
39.6695
 31
0.0
  0
LINE
  8
0
 62
     0
 10
154.969
 20
39.6695
 30
0.0
 11
155.769
 21
39.6695
 31
0.0
  0
LINE
  8
0
 62
     0
 10
155.769
 20
39.6695
 30
0.0
 11
155.769
 21
36.5689
 31
0.0
  0
LINE
  8
0
 62
     0
 10
155.769
 20
36.5689
 30
0.0
 11
154.969
 21
36.5689
 31
0.0
  0
LINE
  8
0
 62
     0
 10
154.969
 20
36.5689
 30
0.0
 11
154.969
 21
30.7689
 31
0.0
  0
LINE
  8
0
 62
     0
 10
154.969
 20
30.7689
 30
0.0
 11
155.769
 21
30.7689
 31
0.0
  0
LINE
  8
0
 62
     0
 10
155.769
 20
30.7689
 30
0.0
 11
155.769
 21
27.6696
 31
0.0
  0
LINE
  8
0
 62
     0
 10
155.769
 20
27.6696
 30
0.0
 11
154.969
 21
27.6696
 31
0.0
  0
LINE
  8
0
 62
     0
 10
170.343
 20
14.1194
 30
0.0
 11
170.343
 21
7.84931
 31
0.0
  0
LINE
  8
0
 62
     0
 10
170.343
 20
7.84931
 30
0.0
 11
168.669
 21
7.84931
 31
0.0
  0
LINE
  8
0
 62
     0
 10
168.669
 20
7.84931
 30
0.0
 11
168.669
 21
6.86954
 31
0.0
  0
LINE
  8
0
 62
     0
 10
168.669
 20
6.86954
 30
0.0
 11
165.369
 21
6.86954
 31
0.0
  0
LINE
  8
0
 62
     0
 10
165.369
 20
6.86954
 30
0.0
 11
165.369
 21
7.84931
 31
0.0
  0
LINE
  8
0
 62
     0
 10
165.369
 20
7.84931
 30
0.0
 11
163.695
 21
7.84931
 31
0.0
  0
LINE
  8
0
 62
     0
 10
163.695
 20
7.84931
 30
0.0
 11
163.695
 21
12.3197
 31
0.0
  0
LINE
  8
0
 62
     0
 10
163.695
 20
12.3197
 30
0.0
 11
154.969
 21
12.3197
 31
0.0
  0
LINE
  8
0
 62
     0
 10
154.969
 20
12.3197
 30
0.0
 11
154.969
 21
11.7189
 31
0.0
  0
LINE
  8
0
 62
     0
 10
154.969
 20
11.7189
 30
0.0
 11
155.769
 21
11.7189
 31
0.0
  0
LINE
  8
0
 62
     0
 10
155.769
 20
11.7189
 30
0.0
 11
155.769
 21
8.61963
 31
0.0
  0
LINE
  8
0
 62
     0
 10
155.769
 20
8.61963
 30
0.0
 11
154.969
 21
8.61963
 31
0.0
  0
LINE
  8
0
 62
     0
 10
154.969
 20
8.61963
 30
0.0
 11
154.969
 21
7.61919
 31
0.0
  0
LINE
  8
0
 62
     0
 10
154.969
 20
7.61919
 30
0.0
 11
140.969
 21
7.61919
 31
0.0
  0
LINE
  8
0
 62
     0
 10
140.969
 20
7.61919
 30
0.0
 11
140.969
 21
8.61963
 31
0.0
  0
LINE
  8
0
 62
     0
 10
140.969
 20
8.61963
 30
0.0
 11
140.168
 21
8.61963
 31
0.0
  0
LINE
  8
0
 62
     0
 10
140.168
 20
8.61963
 30
0.0
 11
140.168
 21
11.7189
 31
0.0
  0
LINE
  8
0
 62
     0
 10
140.168
 20
11.7189
 30
0.0
 11
140.969
 21
11.7189
 31
0.0
  0
LINE
  8
0
 62
     0
 10
140.969
 20
11.7189
 30
0.0
 11
140.969
 21
12.3197
 31
0.0
  0
LINE
  8
0
 62
     0
 10
140.969
 20
12.3197
 30
0.0
 11
132.243
 21
12.3197
 31
0.0
  0
LINE
  8
0
 62
     0
 10
132.243
 20
12.3197
 30
0.0
 11
132.243
 21
7.84931
 31
0.0
  0
LINE
  8
0
 62
     0
 10
132.243
 20
7.84931
 30
0.0
 11
130.569
 21
7.84931
 31
0.0
  0
LINE
  8
0
 62
     0
 10
130.569
 20
7.84931
 30
0.0
 11
130.569
 21
6.86954
 31
0.0
  0
LINE
  8
0
 62
     0
 10
130.569
 20
6.86954
 30
0.0
 11
127.269
 21
6.86954
 31
0.0
  0
LINE
  8
0
 62
     0
 10
127.269
 20
6.86954
 30
0.0
 11
127.269
 21
7.84931
 31
0.0
  0
LINE
  8
0
 62
     0
 10
127.269
 20
7.84931
 30
0.0
 11
125.595
 21
7.84931
 31
0.0
  0
LINE
  8
0
 62
     0
 10
125.595
 20
7.84931
 30
0.0
 11
125.595
 21
14.1194
 31
0.0
  0
LINE
  8
0
 62
     0
 10
125.595
 20
14.1194
 30
0.0
 11
124.719
 21
14.1194
 31
0.0
  0
LINE
  8
0
 62
     0
 10
124.719
 20
14.1194
 30
0.0
 11
124.719
 21
16.9195
 31
0.0
  0
LINE
  8
0
 62
     0
 10
124.719
 20
16.9195
 30
0.0
 11
125.595
 21
16.9195
 31
0.0
  0
LINE
  8
0
 62
     0
 10
125.595
 20
16.9195
 30
0.0
 11
125.595
 21
20.1497
 31
0.0
  0
LINE
  8
0
 62
     0
 10
125.595
 20
20.1497
 30
0.0
 11
127.269
 21
20.1497
 31
0.0
  0
LINE
  8
0
 62
     0
 10
127.269
 20
20.1497
 30
0.0
 11
127.269
 21
21.0688
 31
0.0
  0
LINE
  8
0
 62
     0
 10
127.269
 20
21.0688
 30
0.0
 11
130.569
 21
21.0688
 31
0.0
  0
LINE
  8
0
 62
     0
 10
130.569
 20
21.0688
 30
0.0
 11
130.569
 21
20.1497
 31
0.0
  0
LINE
  8
0
 62
     0
 10
130.569
 20
20.1497
 30
0.0
 11
132.243
 21
20.1497
 31
0.0
  0
LINE
  8
0
 62
     0
 10
132.243
 20
20.1497
 30
0.0
 11
132.243
 21
16.9195
 31
0.0
  0
LINE
  8
0
 62
     0
 10
132.243
 20
16.9195
 30
0.0
 11
140.969
 21
16.9195
 31
0.0
  0
LINE
  8
0
 62
     0
 10
140.969
 20
16.9195
 30
0.0
 11
140.969
 21
17.519
 31
0.0
  0
LINE
  8
0
 62
     0
 10
140.969
 20
17.519
 30
0.0
 11
140.168
 21
17.519
 31
0.0
  0
LINE
  8
0
 62
     0
 10
140.168
 20
17.519
 30
0.0
 11
140.168
 21
20.6196
 31
0.0
  0
LINE
  8
0
 62
     0
 10
140.168
 20
20.6196
 30
0.0
 11
140.969
 21
20.6196
 31
0.0
  0
LINE
  8
0
 62
     0
 10
140.969
 20
20.6196
 30
0.0
 11
140.969
 21
21.6187
 31
0.0
  0
LINE
  8
0
 62
     0
 10
140.969
 20
21.6187
 30
0.0
 11
154.969
 21
21.6187
 31
0.0
  0
LINE
  8
0
 62
     0
 10
154.969
 20
21.6187
 30
0.0
 11
154.969
 21
20.6196
 31
0.0
  0
LINE
  8
0
 62
     0
 10
154.969
 20
20.6196
 30
0.0
 11
155.769
 21
20.6196
 31
0.0
  0
LINE
  8
0
 62
     0
 10
155.769
 20
20.6196
 30
0.0
 11
155.769
 21
17.519
 31
0.0
  0
LINE
  8
0
 62
     0
 10
155.769
 20
17.519
 30
0.0
 11
154.969
 21
17.519
 31
0.0
  0
LINE
  8
0
 62
     0
 10
154.969
 20
17.519
 30
0.0
 11
154.969
 21
16.9195
 31
0.0
  0
LINE
  8
0
 62
     0
 10
154.969
 20
16.9195
 30
0.0
 11
163.695
 21
16.9195
 31
0.0
  0
LINE
  8
0
 62
     0
 10
163.695
 20
16.9195
 30
0.0
 11
163.695
 21
20.1497
 31
0.0
  0
LINE
  8
0
 62
     0
 10
163.695
 20
20.1497
 30
0.0
 11
165.369
 21
20.1497
 31
0.0
  0
LINE
  8
0
 62
     0
 10
165.369
 20
20.1497
 30
0.0
 11
165.369
 21
21.0688
 31
0.0
  0
LINE
  8
0
 62
     0
 10
165.369
 20
21.0688
 30
0.0
 11
168.669
 21
21.0688
 31
0.0
  0
LINE
  8
0
 62
     0
 10
168.669
 20
21.0688
 30
0.0
 11
168.669
 21
20.1497
 31
0.0
  0
LINE
  8
0
 62
     0
 10
168.669
 20
20.1497
 30
0.0
 11
170.343
 21
20.1497
 31
0.0
  0
LINE
  8
0
 62
     0
 10
170.343
 20
20.1497
 30
0.0
 11
170.343
 21
16.9195
 31
0.0
  0
LINE
  8
0
 62
     0
 10
170.343
 20
16.9195
 30
0.0
 11
171.219
 21
16.9195
 31
0.0
  0
LINE
  8
0
 62
     0
 10
171.219
 20
16.9195
 30
0.0
 11
171.219
 21
14.1194
 31
0.0
  0
LINE
  8
0
 62
     0
 10
171.219
 20
14.1194
 30
0.0
 11
170.343
 21
14.1194
 31
0.0
  0
LINE
  8
0
 62
     0
 10
174.019
 20
84.8198
 30
0.0
 11
174.019
 21
83.8193
 31
0.0
  0
LINE
  8
0
 62
     0
 10
174.019
 20
83.8193
 30
0.0
 11
160.019
 21
83.8193
 31
0.0
  0
LINE
  8
0
 62
     0
 10
160.019
 20
83.8193
 30
0.0
 11
160.019
 21
84.8198
 31
0.0
  0
LINE
  8
0
 62
     0
 10
160.019
 20
84.8198
 30
0.0
 11
159.218
 21
84.8198
 31
0.0
  0
LINE
  8
0
 62
     0
 10
159.218
 20
84.8198
 30
0.0
 11
159.218
 21
87.9189
 31
0.0
  0
LINE
  8
0
 62
     0
 10
159.218
 20
87.9189
 30
0.0
 11
160.019
 21
87.9189
 31
0.0
  0
LINE
  8
0
 62
     0
 10
160.019
 20
87.9189
 30
0.0
 11
160.019
 21
93.7189
 31
0.0
  0
LINE
  8
0
 62
     0
 10
160.019
 20
93.7189
 30
0.0
 11
159.218
 21
93.7189
 31
0.0
  0
LINE
  8
0
 62
     0
 10
159.218
 20
93.7189
 30
0.0
 11
159.218
 21
96.8195
 31
0.0
  0
LINE
  8
0
 62
     0
 10
159.218
 20
96.8195
 30
0.0
 11
160.019
 21
96.8195
 31
0.0
  0
LINE
  8
0
 62
     0
 10
160.019
 20
96.8195
 30
0.0
 11
160.019
 21
97.8186
 31
0.0
  0
LINE
  8
0
 62
     0
 10
160.019
 20
97.8186
 30
0.0
 11
174.019
 21
97.8186
 31
0.0
  0
LINE
  8
0
 62
     0
 10
174.019
 20
97.8186
 30
0.0
 11
174.019
 21
96.8195
 31
0.0
  0
LINE
  8
0
 62
     0
 10
174.019
 20
96.8195
 30
0.0
 11
174.819
 21
96.8195
 31
0.0
  0
LINE
  8
0
 62
     0
 10
174.819
 20
96.8195
 30
0.0
 11
174.819
 21
93.7189
 31
0.0
  0
LINE
  8
0
 62
     0
 10
174.819
 20
93.7189
 30
0.0
 11
174.019
 21
93.7189
 31
0.0
  0
LINE
  8
0
 62
     0
 10
174.019
 20
93.7189
 30
0.0
 11
174.019
 21
87.9189
 31
0.0
  0
LINE
  8
0
 62
     0
 10
174.019
 20
87.9189
 30
0.0
 11
174.819
 21
87.9189
 31
0.0
  0
LINE
  8
0
 62
     0
 10
174.819
 20
87.9189
 30
0.0
 11
174.819
 21
84.8198
 31
0.0
  0
LINE
  8
0
 62
     0
 10
174.819
 20
84.8198
 30
0.0
 11
174.019
 21
84.8198
 31
0.0
  0
LINE
  8
0
 62
     0
 10
174.019
 20
65.7698
 30
0.0
 11
174.019
 21
64.7693
 31
0.0
  0
LINE
  8
0
 62
     0
 10
174.019
 20
64.7693
 30
0.0
 11
160.019
 21
64.7693
 31
0.0
  0
LINE
  8
0
 62
     0
 10
160.019
 20
64.7693
 30
0.0
 11
160.019
 21
65.7698
 31
0.0
  0
LINE
  8
0
 62
     0
 10
160.019
 20
65.7698
 30
0.0
 11
159.218
 21
65.7698
 31
0.0
  0
LINE
  8
0
 62
     0
 10
159.218
 20
65.7698
 30
0.0
 11
159.218
 21
68.8689
 31
0.0
  0
LINE
  8
0
 62
     0
 10
159.218
 20
68.8689
 30
0.0
 11
160.019
 21
68.8689
 31
0.0
  0
LINE
  8
0
 62
     0
 10
160.019
 20
68.8689
 30
0.0
 11
160.019
 21
74.6689
 31
0.0
  0
LINE
  8
0
 62
     0
 10
160.019
 20
74.6689
 30
0.0
 11
159.218
 21
74.6689
 31
0.0
  0
LINE
  8
0
 62
     0
 10
159.218
 20
74.6689
 30
0.0
 11
159.218
 21
77.7695
 31
0.0
  0
LINE
  8
0
 62
     0
 10
159.218
 20
77.7695
 30
0.0
 11
160.019
 21
77.7695
 31
0.0
  0
LINE
  8
0
 62
     0
 10
160.019
 20
77.7695
 30
0.0
 11
160.019
 21
78.7686
 31
0.0
  0
LINE
  8
0
 62
     0
 10
160.019
 20
78.7686
 30
0.0
 11
174.019
 21
78.7686
 31
0.0
  0
LINE
  8
0
 62
     0
 10
174.019
 20
78.7686
 30
0.0
 11
174.019
 21
77.7695
 31
0.0
  0
LINE
  8
0
 62
     0
 10
174.019
 20
77.7695
 30
0.0
 11
174.819
 21
77.7695
 31
0.0
  0
LINE
  8
0
 62
     0
 10
174.819
 20
77.7695
 30
0.0
 11
174.819
 21
74.6689
 31
0.0
  0
LINE
  8
0
 62
     0
 10
174.819
 20
74.6689
 30
0.0
 11
174.019
 21
74.6689
 31
0.0
  0
LINE
  8
0
 62
     0
 10
174.019
 20
74.6689
 30
0.0
 11
174.019
 21
68.8689
 31
0.0
  0
LINE
  8
0
 62
     0
 10
174.019
 20
68.8689
 30
0.0
 11
174.819
 21
68.8689
 31
0.0
  0
LINE
  8
0
 62
     0
 10
174.819
 20
68.8689
 30
0.0
 11
174.819
 21
65.7698
 31
0.0
  0
LINE
  8
0
 62
     0
 10
174.819
 20
65.7698
 30
0.0
 11
174.019
 21
65.7698
 31
0.0
  0
LINE
  8
0
 62
     0
 10
174.019
 20
46.7198
 30
0.0
 11
174.019
 21
45.7193
 31
0.0
  0
LINE
  8
0
 62
     0
 10
174.019
 20
45.7193
 30
0.0
 11
160.019
 21
45.7193
 31
0.0
  0
LINE
  8
0
 62
     0
 10
160.019
 20
45.7193
 30
0.0
 11
160.019
 21
46.7198
 31
0.0
  0
LINE
  8
0
 62
     0
 10
160.019
 20
46.7198
 30
0.0
 11
159.218
 21
46.7198
 31
0.0
  0
LINE
  8
0
 62
     0
 10
159.218
 20
46.7198
 30
0.0
 11
159.218
 21
49.8189
 31
0.0
  0
LINE
  8
0
 62
     0
 10
159.218
 20
49.8189
 30
0.0
 11
160.019
 21
49.8189
 31
0.0
  0
LINE
  8
0
 62
     0
 10
160.019
 20
49.8189
 30
0.0
 11
160.019
 21
55.6189
 31
0.0
  0
LINE
  8
0
 62
     0
 10
160.019
 20
55.6189
 30
0.0
 11
159.218
 21
55.6189
 31
0.0
  0
LINE
  8
0
 62
     0
 10
159.218
 20
55.6189
 30
0.0
 11
159.218
 21
58.7195
 31
0.0
  0
LINE
  8
0
 62
     0
 10
159.218
 20
58.7195
 30
0.0
 11
160.019
 21
58.7195
 31
0.0
  0
LINE
  8
0
 62
     0
 10
160.019
 20
58.7195
 30
0.0
 11
160.019
 21
59.7186
 31
0.0
  0
LINE
  8
0
 62
     0
 10
160.019
 20
59.7186
 30
0.0
 11
174.019
 21
59.7186
 31
0.0
  0
LINE
  8
0
 62
     0
 10
174.019
 20
59.7186
 30
0.0
 11
174.019
 21
58.7195
 31
0.0
  0
LINE
  8
0
 62
     0
 10
174.019
 20
58.7195
 30
0.0
 11
174.819
 21
58.7195
 31
0.0
  0
LINE
  8
0
 62
     0
 10
174.819
 20
58.7195
 30
0.0
 11
174.819
 21
55.6189
 31
0.0
  0
LINE
  8
0
 62
     0
 10
174.819
 20
55.6189
 30
0.0
 11
174.019
 21
55.6189
 31
0.0
  0
LINE
  8
0
 62
     0
 10
174.019
 20
55.6189
 30
0.0
 11
174.019
 21
49.8189
 31
0.0
  0
LINE
  8
0
 62
     0
 10
174.019
 20
49.8189
 30
0.0
 11
174.819
 21
49.8189
 31
0.0
  0
LINE
  8
0
 62
     0
 10
174.819
 20
49.8189
 30
0.0
 11
174.819
 21
46.7198
 31
0.0
  0
LINE
  8
0
 62
     0
 10
174.819
 20
46.7198
 30
0.0
 11
174.019
 21
46.7198
 31
0.0
  0
LINE
  8
0
 62
     0
 10
174.019
 20
27.6696
 30
0.0
 11
174.019
 21
26.6692
 31
0.0
  0
LINE
  8
0
 62
     0
 10
174.019
 20
26.6692
 30
0.0
 11
160.019
 21
26.6692
 31
0.0
  0
LINE
  8
0
 62
     0
 10
160.019
 20
26.6692
 30
0.0
 11
160.019
 21
27.6696
 31
0.0
  0
LINE
  8
0
 62
     0
 10
160.019
 20
27.6696
 30
0.0
 11
159.218
 21
27.6696
 31
0.0
  0
LINE
  8
0
 62
     0
 10
159.218
 20
27.6696
 30
0.0
 11
159.218
 21
30.7689
 31
0.0
  0
LINE
  8
0
 62
     0
 10
159.218
 20
30.7689
 30
0.0
 11
160.019
 21
30.7689
 31
0.0
  0
LINE
  8
0
 62
     0
 10
160.019
 20
30.7689
 30
0.0
 11
160.019
 21
36.5689
 31
0.0
  0
LINE
  8
0
 62
     0
 10
160.019
 20
36.5689
 30
0.0
 11
159.218
 21
36.5689
 31
0.0
  0
LINE
  8
0
 62
     0
 10
159.218
 20
36.5689
 30
0.0
 11
159.218
 21
39.6695
 31
0.0
  0
LINE
  8
0
 62
     0
 10
159.218
 20
39.6695
 30
0.0
 11
160.019
 21
39.6695
 31
0.0
  0
LINE
  8
0
 62
     0
 10
160.019
 20
39.6695
 30
0.0
 11
160.019
 21
40.6686
 31
0.0
  0
LINE
  8
0
 62
     0
 10
160.019
 20
40.6686
 30
0.0
 11
174.019
 21
40.6686
 31
0.0
  0
LINE
  8
0
 62
     0
 10
174.019
 20
40.6686
 30
0.0
 11
174.019
 21
39.6695
 31
0.0
  0
LINE
  8
0
 62
     0
 10
174.019
 20
39.6695
 30
0.0
 11
174.819
 21
39.6695
 31
0.0
  0
LINE
  8
0
 62
     0
 10
174.819
 20
39.6695
 30
0.0
 11
174.819
 21
36.5689
 31
0.0
  0
LINE
  8
0
 62
     0
 10
174.819
 20
36.5689
 30
0.0
 11
174.019
 21
36.5689
 31
0.0
  0
LINE
  8
0
 62
     0
 10
174.019
 20
36.5689
 30
0.0
 11
174.019
 21
30.7689
 31
0.0
  0
LINE
  8
0
 62
     0
 10
174.019
 20
30.7689
 30
0.0
 11
174.819
 21
30.7689
 31
0.0
  0
LINE
  8
0
 62
     0
 10
174.819
 20
30.7689
 30
0.0
 11
174.819
 21
27.6696
 31
0.0
  0
LINE
  8
0
 62
     0
 10
174.819
 20
27.6696
 30
0.0
 11
174.019
 21
27.6696
 31
0.0
  0
LINE
  8
0
 62
     0
 10
193.069
 20
84.8198
 30
0.0
 11
193.069
 21
83.8193
 31
0.0
  0
LINE
  8
0
 62
     0
 10
193.069
 20
83.8193
 30
0.0
 11
179.069
 21
83.8193
 31
0.0
  0
LINE
  8
0
 62
     0
 10
179.069
 20
83.8193
 30
0.0
 11
179.069
 21
84.8198
 31
0.0
  0
LINE
  8
0
 62
     0
 10
179.069
 20
84.8198
 30
0.0
 11
178.268
 21
84.8198
 31
0.0
  0
LINE
  8
0
 62
     0
 10
178.268
 20
84.8198
 30
0.0
 11
178.268
 21
87.9189
 31
0.0
  0
LINE
  8
0
 62
     0
 10
178.268
 20
87.9189
 30
0.0
 11
179.069
 21
87.9189
 31
0.0
  0
LINE
  8
0
 62
     0
 10
179.069
 20
87.9189
 30
0.0
 11
179.069
 21
93.7189
 31
0.0
  0
LINE
  8
0
 62
     0
 10
179.069
 20
93.7189
 30
0.0
 11
178.268
 21
93.7189
 31
0.0
  0
LINE
  8
0
 62
     0
 10
178.268
 20
93.7189
 30
0.0
 11
178.268
 21
96.8195
 31
0.0
  0
LINE
  8
0
 62
     0
 10
178.268
 20
96.8195
 30
0.0
 11
179.069
 21
96.8195
 31
0.0
  0
LINE
  8
0
 62
     0
 10
179.069
 20
96.8195
 30
0.0
 11
179.069
 21
97.8186
 31
0.0
  0
LINE
  8
0
 62
     0
 10
179.069
 20
97.8186
 30
0.0
 11
193.069
 21
97.8186
 31
0.0
  0
LINE
  8
0
 62
     0
 10
193.069
 20
97.8186
 30
0.0
 11
193.069
 21
96.8195
 31
0.0
  0
LINE
  8
0
 62
     0
 10
193.069
 20
96.8195
 30
0.0
 11
193.869
 21
96.8195
 31
0.0
  0
LINE
  8
0
 62
     0
 10
193.869
 20
96.8195
 30
0.0
 11
193.869
 21
93.7189
 31
0.0
  0
LINE
  8
0
 62
     0
 10
193.869
 20
93.7189
 30
0.0
 11
193.069
 21
93.7189
 31
0.0
  0
LINE
  8
0
 62
     0
 10
193.069
 20
93.7189
 30
0.0
 11
193.069
 21
87.9189
 31
0.0
  0
LINE
  8
0
 62
     0
 10
193.069
 20
87.9189
 30
0.0
 11
193.869
 21
87.9189
 31
0.0
  0
LINE
  8
0
 62
     0
 10
193.869
 20
87.9189
 30
0.0
 11
193.869
 21
84.8198
 31
0.0
  0
LINE
  8
0
 62
     0
 10
193.869
 20
84.8198
 30
0.0
 11
193.069
 21
84.8198
 31
0.0
  0
LINE
  8
0
 62
     0
 10
193.069
 20
65.7698
 30
0.0
 11
193.069
 21
64.7693
 31
0.0
  0
LINE
  8
0
 62
     0
 10
193.069
 20
64.7693
 30
0.0
 11
179.069
 21
64.7693
 31
0.0
  0
LINE
  8
0
 62
     0
 10
179.069
 20
64.7693
 30
0.0
 11
179.069
 21
65.7698
 31
0.0
  0
LINE
  8
0
 62
     0
 10
179.069
 20
65.7698
 30
0.0
 11
178.268
 21
65.7698
 31
0.0
  0
LINE
  8
0
 62
     0
 10
178.268
 20
65.7698
 30
0.0
 11
178.268
 21
68.8689
 31
0.0
  0
LINE
  8
0
 62
     0
 10
178.268
 20
68.8689
 30
0.0
 11
179.069
 21
68.8689
 31
0.0
  0
LINE
  8
0
 62
     0
 10
179.069
 20
68.8689
 30
0.0
 11
179.069
 21
74.6689
 31
0.0
  0
LINE
  8
0
 62
     0
 10
179.069
 20
74.6689
 30
0.0
 11
178.268
 21
74.6689
 31
0.0
  0
LINE
  8
0
 62
     0
 10
178.268
 20
74.6689
 30
0.0
 11
178.268
 21
77.7695
 31
0.0
  0
LINE
  8
0
 62
     0
 10
178.268
 20
77.7695
 30
0.0
 11
179.069
 21
77.7695
 31
0.0
  0
LINE
  8
0
 62
     0
 10
179.069
 20
77.7695
 30
0.0
 11
179.069
 21
78.7686
 31
0.0
  0
LINE
  8
0
 62
     0
 10
179.069
 20
78.7686
 30
0.0
 11
193.069
 21
78.7686
 31
0.0
  0
LINE
  8
0
 62
     0
 10
193.069
 20
78.7686
 30
0.0
 11
193.069
 21
77.7695
 31
0.0
  0
LINE
  8
0
 62
     0
 10
193.069
 20
77.7695
 30
0.0
 11
193.869
 21
77.7695
 31
0.0
  0
LINE
  8
0
 62
     0
 10
193.869
 20
77.7695
 30
0.0
 11
193.869
 21
74.6689
 31
0.0
  0
LINE
  8
0
 62
     0
 10
193.869
 20
74.6689
 30
0.0
 11
193.069
 21
74.6689
 31
0.0
  0
LINE
  8
0
 62
     0
 10
193.069
 20
74.6689
 30
0.0
 11
193.069
 21
68.8689
 31
0.0
  0
LINE
  8
0
 62
     0
 10
193.069
 20
68.8689
 30
0.0
 11
193.869
 21
68.8689
 31
0.0
  0
LINE
  8
0
 62
     0
 10
193.869
 20
68.8689
 30
0.0
 11
193.869
 21
65.7698
 31
0.0
  0
LINE
  8
0
 62
     0
 10
193.869
 20
65.7698
 30
0.0
 11
193.069
 21
65.7698
 31
0.0
  0
LINE
  8
0
 62
     0
 10
193.069
 20
46.7198
 30
0.0
 11
193.069
 21
45.7193
 31
0.0
  0
LINE
  8
0
 62
     0
 10
193.069
 20
45.7193
 30
0.0
 11
179.069
 21
45.7193
 31
0.0
  0
LINE
  8
0
 62
     0
 10
179.069
 20
45.7193
 30
0.0
 11
179.069
 21
46.7198
 31
0.0
  0
LINE
  8
0
 62
     0
 10
179.069
 20
46.7198
 30
0.0
 11
178.268
 21
46.7198
 31
0.0
  0
LINE
  8
0
 62
     0
 10
178.268
 20
46.7198
 30
0.0
 11
178.268
 21
49.8189
 31
0.0
  0
LINE
  8
0
 62
     0
 10
178.268
 20
49.8189
 30
0.0
 11
179.069
 21
49.8189
 31
0.0
  0
LINE
  8
0
 62
     0
 10
179.069
 20
49.8189
 30
0.0
 11
179.069
 21
55.6189
 31
0.0
  0
LINE
  8
0
 62
     0
 10
179.069
 20
55.6189
 30
0.0
 11
178.268
 21
55.6189
 31
0.0
  0
LINE
  8
0
 62
     0
 10
178.268
 20
55.6189
 30
0.0
 11
178.268
 21
58.7195
 31
0.0
  0
LINE
  8
0
 62
     0
 10
178.268
 20
58.7195
 30
0.0
 11
179.069
 21
58.7195
 31
0.0
  0
LINE
  8
0
 62
     0
 10
179.069
 20
58.7195
 30
0.0
 11
179.069
 21
59.7186
 31
0.0
  0
LINE
  8
0
 62
     0
 10
179.069
 20
59.7186
 30
0.0
 11
193.069
 21
59.7186
 31
0.0
  0
LINE
  8
0
 62
     0
 10
193.069
 20
59.7186
 30
0.0
 11
193.069
 21
58.7195
 31
0.0
  0
LINE
  8
0
 62
     0
 10
193.069
 20
58.7195
 30
0.0
 11
193.869
 21
58.7195
 31
0.0
  0
LINE
  8
0
 62
     0
 10
193.869
 20
58.7195
 30
0.0
 11
193.869
 21
55.6189
 31
0.0
  0
LINE
  8
0
 62
     0
 10
193.869
 20
55.6189
 30
0.0
 11
193.069
 21
55.6189
 31
0.0
  0
LINE
  8
0
 62
     0
 10
193.069
 20
55.6189
 30
0.0
 11
193.069
 21
49.8189
 31
0.0
  0
LINE
  8
0
 62
     0
 10
193.069
 20
49.8189
 30
0.0
 11
193.869
 21
49.8189
 31
0.0
  0
LINE
  8
0
 62
     0
 10
193.869
 20
49.8189
 30
0.0
 11
193.869
 21
46.7198
 31
0.0
  0
LINE
  8
0
 62
     0
 10
193.869
 20
46.7198
 30
0.0
 11
193.069
 21
46.7198
 31
0.0
  0
LINE
  8
0
 62
     0
 10
193.069
 20
27.6696
 30
0.0
 11
193.069
 21
26.6692
 31
0.0
  0
LINE
  8
0
 62
     0
 10
193.069
 20
26.6692
 30
0.0
 11
179.069
 21
26.6692
 31
0.0
  0
LINE
  8
0
 62
     0
 10
179.069
 20
26.6692
 30
0.0
 11
179.069
 21
27.6696
 31
0.0
  0
LINE
  8
0
 62
     0
 10
179.069
 20
27.6696
 30
0.0
 11
178.268
 21
27.6696
 31
0.0
  0
LINE
  8
0
 62
     0
 10
178.268
 20
27.6696
 30
0.0
 11
178.268
 21
30.7689
 31
0.0
  0
LINE
  8
0
 62
     0
 10
178.268
 20
30.7689
 30
0.0
 11
179.069
 21
30.7689
 31
0.0
  0
LINE
  8
0
 62
     0
 10
179.069
 20
30.7689
 30
0.0
 11
179.069
 21
36.5689
 31
0.0
  0
LINE
  8
0
 62
     0
 10
179.069
 20
36.5689
 30
0.0
 11
178.268
 21
36.5689
 31
0.0
  0
LINE
  8
0
 62
     0
 10
178.268
 20
36.5689
 30
0.0
 11
178.268
 21
39.6695
 31
0.0
  0
LINE
  8
0
 62
     0
 10
178.268
 20
39.6695
 30
0.0
 11
179.069
 21
39.6695
 31
0.0
  0
LINE
  8
0
 62
     0
 10
179.069
 20
39.6695
 30
0.0
 11
179.069
 21
40.6686
 31
0.0
  0
LINE
  8
0
 62
     0
 10
179.069
 20
40.6686
 30
0.0
 11
193.069
 21
40.6686
 31
0.0
  0
LINE
  8
0
 62
     0
 10
193.069
 20
40.6686
 30
0.0
 11
193.069
 21
39.6695
 31
0.0
  0
LINE
  8
0
 62
     0
 10
193.069
 20
39.6695
 30
0.0
 11
193.869
 21
39.6695
 31
0.0
  0
LINE
  8
0
 62
     0
 10
193.869
 20
39.6695
 30
0.0
 11
193.869
 21
36.5689
 31
0.0
  0
LINE
  8
0
 62
     0
 10
193.869
 20
36.5689
 30
0.0
 11
193.069
 21
36.5689
 31
0.0
  0
LINE
  8
0
 62
     0
 10
193.069
 20
36.5689
 30
0.0
 11
193.069
 21
30.7689
 31
0.0
  0
LINE
  8
0
 62
     0
 10
193.069
 20
30.7689
 30
0.0
 11
193.869
 21
30.7689
 31
0.0
  0
LINE
  8
0
 62
     0
 10
193.869
 20
30.7689
 30
0.0
 11
193.869
 21
27.6696
 31
0.0
  0
LINE
  8
0
 62
     0
 10
193.869
 20
27.6696
 30
0.0
 11
193.069
 21
27.6696
 31
0.0
  0
LINE
  8
0
 62
     0
 10
197.831
 20
8.61963
 30
0.0
 11
197.831
 21
7.61919
 31
0.0
  0
LINE
  8
0
 62
     0
 10
197.831
 20
7.61919
 30
0.0
 11
183.832
 21
7.61919
 31
0.0
  0
LINE
  8
0
 62
     0
 10
183.832
 20
7.61919
 30
0.0
 11
183.832
 21
8.61963
 31
0.0
  0
LINE
  8
0
 62
     0
 10
183.832
 20
8.61963
 30
0.0
 11
183.032
 21
8.61963
 31
0.0
  0
LINE
  8
0
 62
     0
 10
183.032
 20
8.61963
 30
0.0
 11
183.032
 21
11.7189
 31
0.0
  0
LINE
  8
0
 62
     0
 10
183.032
 20
11.7189
 30
0.0
 11
183.832
 21
11.7189
 31
0.0
  0
LINE
  8
0
 62
     0
 10
183.832
 20
11.7189
 30
0.0
 11
183.832
 21
17.519
 31
0.0
  0
LINE
  8
0
 62
     0
 10
183.832
 20
17.519
 30
0.0
 11
183.032
 21
17.519
 31
0.0
  0
LINE
  8
0
 62
     0
 10
183.032
 20
17.519
 30
0.0
 11
183.032
 21
20.6196
 31
0.0
  0
LINE
  8
0
 62
     0
 10
183.032
 20
20.6196
 30
0.0
 11
183.832
 21
20.6196
 31
0.0
  0
LINE
  8
0
 62
     0
 10
183.832
 20
20.6196
 30
0.0
 11
183.832
 21
21.6187
 31
0.0
  0
LINE
  8
0
 62
     0
 10
183.832
 20
21.6187
 30
0.0
 11
197.831
 21
21.6187
 31
0.0
  0
LINE
  8
0
 62
     0
 10
197.831
 20
21.6187
 30
0.0
 11
197.831
 21
20.6196
 31
0.0
  0
LINE
  8
0
 62
     0
 10
197.831
 20
20.6196
 30
0.0
 11
198.632
 21
20.6196
 31
0.0
  0
LINE
  8
0
 62
     0
 10
198.632
 20
20.6196
 30
0.0
 11
198.632
 21
17.519
 31
0.0
  0
LINE
  8
0
 62
     0
 10
198.632
 20
17.519
 30
0.0
 11
197.831
 21
17.519
 31
0.0
  0
LINE
  8
0
 62
     0
 10
197.831
 20
17.519
 30
0.0
 11
197.831
 21
11.7189
 31
0.0
  0
LINE
  8
0
 62
     0
 10
197.831
 20
11.7189
 30
0.0
 11
198.632
 21
11.7189
 31
0.0
  0
LINE
  8
0
 62
     0
 10
198.632
 20
11.7189
 30
0.0
 11
198.632
 21
8.61963
 31
0.0
  0
LINE
  8
0
 62
     0
 10
198.632
 20
8.61963
 30
0.0
 11
197.831
 21
8.61963
 31
0.0
  0
LINE
  8
0
 62
     0
 10
212.119
 20
84.8198
 30
0.0
 11
212.119
 21
83.8193
 31
0.0
  0
LINE
  8
0
 62
     0
 10
212.119
 20
83.8193
 30
0.0
 11
198.119
 21
83.8193
 31
0.0
  0
LINE
  8
0
 62
     0
 10
198.119
 20
83.8193
 30
0.0
 11
198.119
 21
84.8198
 31
0.0
  0
LINE
  8
0
 62
     0
 10
198.119
 20
84.8198
 30
0.0
 11
197.318
 21
84.8198
 31
0.0
  0
LINE
  8
0
 62
     0
 10
197.318
 20
84.8198
 30
0.0
 11
197.318
 21
87.9189
 31
0.0
  0
LINE
  8
0
 62
     0
 10
197.318
 20
87.9189
 30
0.0
 11
198.119
 21
87.9189
 31
0.0
  0
LINE
  8
0
 62
     0
 10
198.119
 20
87.9189
 30
0.0
 11
198.119
 21
93.7189
 31
0.0
  0
LINE
  8
0
 62
     0
 10
198.119
 20
93.7189
 30
0.0
 11
197.318
 21
93.7189
 31
0.0
  0
LINE
  8
0
 62
     0
 10
197.318
 20
93.7189
 30
0.0
 11
197.318
 21
96.8195
 31
0.0
  0
LINE
  8
0
 62
     0
 10
197.318
 20
96.8195
 30
0.0
 11
198.119
 21
96.8195
 31
0.0
  0
LINE
  8
0
 62
     0
 10
198.119
 20
96.8195
 30
0.0
 11
198.119
 21
97.8186
 31
0.0
  0
LINE
  8
0
 62
     0
 10
198.119
 20
97.8186
 30
0.0
 11
212.119
 21
97.8186
 31
0.0
  0
LINE
  8
0
 62
     0
 10
212.119
 20
97.8186
 30
0.0
 11
212.119
 21
96.8195
 31
0.0
  0
LINE
  8
0
 62
     0
 10
212.119
 20
96.8195
 30
0.0
 11
212.919
 21
96.8195
 31
0.0
  0
LINE
  8
0
 62
     0
 10
212.919
 20
96.8195
 30
0.0
 11
212.919
 21
93.7189
 31
0.0
  0
LINE
  8
0
 62
     0
 10
212.919
 20
93.7189
 30
0.0
 11
212.119
 21
93.7189
 31
0.0
  0
LINE
  8
0
 62
     0
 10
212.119
 20
93.7189
 30
0.0
 11
212.119
 21
87.9189
 31
0.0
  0
LINE
  8
0
 62
     0
 10
212.119
 20
87.9189
 30
0.0
 11
212.919
 21
87.9189
 31
0.0
  0
LINE
  8
0
 62
     0
 10
212.919
 20
87.9189
 30
0.0
 11
212.919
 21
84.8198
 31
0.0
  0
LINE
  8
0
 62
     0
 10
212.919
 20
84.8198
 30
0.0
 11
212.119
 21
84.8198
 31
0.0
  0
LINE
  8
0
 62
     0
 10
212.119
 20
65.7698
 30
0.0
 11
212.119
 21
64.7693
 31
0.0
  0
LINE
  8
0
 62
     0
 10
212.119
 20
64.7693
 30
0.0
 11
198.119
 21
64.7693
 31
0.0
  0
LINE
  8
0
 62
     0
 10
198.119
 20
64.7693
 30
0.0
 11
198.119
 21
65.7698
 31
0.0
  0
LINE
  8
0
 62
     0
 10
198.119
 20
65.7698
 30
0.0
 11
197.318
 21
65.7698
 31
0.0
  0
LINE
  8
0
 62
     0
 10
197.318
 20
65.7698
 30
0.0
 11
197.318
 21
68.8689
 31
0.0
  0
LINE
  8
0
 62
     0
 10
197.318
 20
68.8689
 30
0.0
 11
198.119
 21
68.8689
 31
0.0
  0
LINE
  8
0
 62
     0
 10
198.119
 20
68.8689
 30
0.0
 11
198.119
 21
74.6689
 31
0.0
  0
LINE
  8
0
 62
     0
 10
198.119
 20
74.6689
 30
0.0
 11
197.318
 21
74.6689
 31
0.0
  0
LINE
  8
0
 62
     0
 10
197.318
 20
74.6689
 30
0.0
 11
197.318
 21
77.7695
 31
0.0
  0
LINE
  8
0
 62
     0
 10
197.318
 20
77.7695
 30
0.0
 11
198.119
 21
77.7695
 31
0.0
  0
LINE
  8
0
 62
     0
 10
198.119
 20
77.7695
 30
0.0
 11
198.119
 21
78.7686
 31
0.0
  0
LINE
  8
0
 62
     0
 10
198.119
 20
78.7686
 30
0.0
 11
212.119
 21
78.7686
 31
0.0
  0
LINE
  8
0
 62
     0
 10
212.119
 20
78.7686
 30
0.0
 11
212.119
 21
77.7695
 31
0.0
  0
LINE
  8
0
 62
     0
 10
212.119
 20
77.7695
 30
0.0
 11
212.919
 21
77.7695
 31
0.0
  0
LINE
  8
0
 62
     0
 10
212.919
 20
77.7695
 30
0.0
 11
212.919
 21
74.6689
 31
0.0
  0
LINE
  8
0
 62
     0
 10
212.919
 20
74.6689
 30
0.0
 11
212.119
 21
74.6689
 31
0.0
  0
LINE
  8
0
 62
     0
 10
212.119
 20
74.6689
 30
0.0
 11
212.119
 21
68.8689
 31
0.0
  0
LINE
  8
0
 62
     0
 10
212.119
 20
68.8689
 30
0.0
 11
212.919
 21
68.8689
 31
0.0
  0
LINE
  8
0
 62
     0
 10
212.919
 20
68.8689
 30
0.0
 11
212.919
 21
65.7698
 31
0.0
  0
LINE
  8
0
 62
     0
 10
212.919
 20
65.7698
 30
0.0
 11
212.119
 21
65.7698
 31
0.0
  0
LINE
  8
0
 62
     0
 10
212.119
 20
46.7198
 30
0.0
 11
212.119
 21
45.7193
 31
0.0
  0
LINE
  8
0
 62
     0
 10
212.119
 20
45.7193
 30
0.0
 11
198.119
 21
45.7193
 31
0.0
  0
LINE
  8
0
 62
     0
 10
198.119
 20
45.7193
 30
0.0
 11
198.119
 21
46.7198
 31
0.0
  0
LINE
  8
0
 62
     0
 10
198.119
 20
46.7198
 30
0.0
 11
197.318
 21
46.7198
 31
0.0
  0
LINE
  8
0
 62
     0
 10
197.318
 20
46.7198
 30
0.0
 11
197.318
 21
49.8189
 31
0.0
  0
LINE
  8
0
 62
     0
 10
197.318
 20
49.8189
 30
0.0
 11
198.119
 21
49.8189
 31
0.0
  0
LINE
  8
0
 62
     0
 10
198.119
 20
49.8189
 30
0.0
 11
198.119
 21
55.6189
 31
0.0
  0
LINE
  8
0
 62
     0
 10
198.119
 20
55.6189
 30
0.0
 11
197.318
 21
55.6189
 31
0.0
  0
LINE
  8
0
 62
     0
 10
197.318
 20
55.6189
 30
0.0
 11
197.318
 21
58.7195
 31
0.0
  0
LINE
  8
0
 62
     0
 10
197.318
 20
58.7195
 30
0.0
 11
198.119
 21
58.7195
 31
0.0
  0
LINE
  8
0
 62
     0
 10
198.119
 20
58.7195
 30
0.0
 11
198.119
 21
59.7186
 31
0.0
  0
LINE
  8
0
 62
     0
 10
198.119
 20
59.7186
 30
0.0
 11
212.119
 21
59.7186
 31
0.0
  0
LINE
  8
0
 62
     0
 10
212.119
 20
59.7186
 30
0.0
 11
212.119
 21
58.7195
 31
0.0
  0
LINE
  8
0
 62
     0
 10
212.119
 20
58.7195
 30
0.0
 11
212.919
 21
58.7195
 31
0.0
  0
LINE
  8
0
 62
     0
 10
212.919
 20
58.7195
 30
0.0
 11
212.919
 21
55.6189
 31
0.0
  0
LINE
  8
0
 62
     0
 10
212.919
 20
55.6189
 30
0.0
 11
212.119
 21
55.6189
 31
0.0
  0
LINE
  8
0
 62
     0
 10
212.119
 20
55.6189
 30
0.0
 11
212.119
 21
49.8189
 31
0.0
  0
LINE
  8
0
 62
     0
 10
212.119
 20
49.8189
 30
0.0
 11
212.919
 21
49.8189
 31
0.0
  0
LINE
  8
0
 62
     0
 10
212.919
 20
49.8189
 30
0.0
 11
212.919
 21
46.7198
 31
0.0
  0
LINE
  8
0
 62
     0
 10
212.919
 20
46.7198
 30
0.0
 11
212.119
 21
46.7198
 31
0.0
  0
LINE
  8
0
 62
     0
 10
212.119
 20
27.6696
 30
0.0
 11
212.119
 21
26.6692
 31
0.0
  0
LINE
  8
0
 62
     0
 10
212.119
 20
26.6692
 30
0.0
 11
198.119
 21
26.6692
 31
0.0
  0
LINE
  8
0
 62
     0
 10
198.119
 20
26.6692
 30
0.0
 11
198.119
 21
27.6696
 31
0.0
  0
LINE
  8
0
 62
     0
 10
198.119
 20
27.6696
 30
0.0
 11
197.318
 21
27.6696
 31
0.0
  0
LINE
  8
0
 62
     0
 10
197.318
 20
27.6696
 30
0.0
 11
197.318
 21
30.7689
 31
0.0
  0
LINE
  8
0
 62
     0
 10
197.318
 20
30.7689
 30
0.0
 11
198.119
 21
30.7689
 31
0.0
  0
LINE
  8
0
 62
     0
 10
198.119
 20
30.7689
 30
0.0
 11
198.119
 21
36.5689
 31
0.0
  0
LINE
  8
0
 62
     0
 10
198.119
 20
36.5689
 30
0.0
 11
197.318
 21
36.5689
 31
0.0
  0
LINE
  8
0
 62
     0
 10
197.318
 20
36.5689
 30
0.0
 11
197.318
 21
39.6695
 31
0.0
  0
LINE
  8
0
 62
     0
 10
197.318
 20
39.6695
 30
0.0
 11
198.119
 21
39.6695
 31
0.0
  0
LINE
  8
0
 62
     0
 10
198.119
 20
39.6695
 30
0.0
 11
198.119
 21
40.6686
 31
0.0
  0
LINE
  8
0
 62
     0
 10
198.119
 20
40.6686
 30
0.0
 11
212.119
 21
40.6686
 31
0.0
  0
LINE
  8
0
 62
     0
 10
212.119
 20
40.6686
 30
0.0
 11
212.119
 21
39.6695
 31
0.0
  0
LINE
  8
0
 62
     0
 10
212.119
 20
39.6695
 30
0.0
 11
212.919
 21
39.6695
 31
0.0
  0
LINE
  8
0
 62
     0
 10
212.919
 20
39.6695
 30
0.0
 11
212.919
 21
36.5689
 31
0.0
  0
LINE
  8
0
 62
     0
 10
212.919
 20
36.5689
 30
0.0
 11
212.119
 21
36.5689
 31
0.0
  0
LINE
  8
0
 62
     0
 10
212.119
 20
36.5689
 30
0.0
 11
212.119
 21
30.7689
 31
0.0
  0
LINE
  8
0
 62
     0
 10
212.119
 20
30.7689
 30
0.0
 11
212.919
 21
30.7689
 31
0.0
  0
LINE
  8
0
 62
     0
 10
212.919
 20
30.7689
 30
0.0
 11
212.919
 21
27.6696
 31
0.0
  0
LINE
  8
0
 62
     0
 10
212.919
 20
27.6696
 30
0.0
 11
212.119
 21
27.6696
 31
0.0
  0
LINE
  8
0
 62
     0
 10
226.406
 20
8.61963
 30
0.0
 11
226.406
 21
7.61919
 31
0.0
  0
LINE
  8
0
 62
     0
 10
226.406
 20
7.61919
 30
0.0
 11
212.405
 21
7.61919
 31
0.0
  0
LINE
  8
0
 62
     0
 10
212.405
 20
7.61919
 30
0.0
 11
212.405
 21
8.61963
 31
0.0
  0
LINE
  8
0
 62
     0
 10
212.405
 20
8.61963
 30
0.0
 11
211.606
 21
8.61963
 31
0.0
  0
LINE
  8
0
 62
     0
 10
211.606
 20
8.61963
 30
0.0
 11
211.606
 21
11.7189
 31
0.0
  0
LINE
  8
0
 62
     0
 10
211.606
 20
11.7189
 30
0.0
 11
212.405
 21
11.7189
 31
0.0
  0
LINE
  8
0
 62
     0
 10
212.405
 20
11.7189
 30
0.0
 11
212.405
 21
17.519
 31
0.0
  0
LINE
  8
0
 62
     0
 10
212.405
 20
17.519
 30
0.0
 11
211.606
 21
17.519
 31
0.0
  0
LINE
  8
0
 62
     0
 10
211.606
 20
17.519
 30
0.0
 11
211.606
 21
20.6196
 31
0.0
  0
LINE
  8
0
 62
     0
 10
211.606
 20
20.6196
 30
0.0
 11
212.405
 21
20.6196
 31
0.0
  0
LINE
  8
0
 62
     0
 10
212.405
 20
20.6196
 30
0.0
 11
212.405
 21
21.6187
 31
0.0
  0
LINE
  8
0
 62
     0
 10
212.405
 20
21.6187
 30
0.0
 11
226.406
 21
21.6187
 31
0.0
  0
LINE
  8
0
 62
     0
 10
226.406
 20
21.6187
 30
0.0
 11
226.406
 21
20.6196
 31
0.0
  0
LINE
  8
0
 62
     0
 10
226.406
 20
20.6196
 30
0.0
 11
227.207
 21
20.6196
 31
0.0
  0
LINE
  8
0
 62
     0
 10
227.207
 20
20.6196
 30
0.0
 11
227.207
 21
17.519
 31
0.0
  0
LINE
  8
0
 62
     0
 10
227.207
 20
17.519
 30
0.0
 11
226.406
 21
17.519
 31
0.0
  0
LINE
  8
0
 62
     0
 10
226.406
 20
17.519
 30
0.0
 11
226.406
 21
11.7189
 31
0.0
  0
LINE
  8
0
 62
     0
 10
226.406
 20
11.7189
 30
0.0
 11
227.207
 21
11.7189
 31
0.0
  0
LINE
  8
0
 62
     0
 10
227.207
 20
11.7189
 30
0.0
 11
227.207
 21
8.61963
 31
0.0
  0
LINE
  8
0
 62
     0
 10
227.207
 20
8.61963
 30
0.0
 11
226.406
 21
8.61963
 31
0.0
  0
LINE
  8
0
 62
     0
 10
231.169
 20
84.8198
 30
0.0
 11
231.169
 21
83.8193
 31
0.0
  0
LINE
  8
0
 62
     0
 10
231.169
 20
83.8193
 30
0.0
 11
217.169
 21
83.8193
 31
0.0
  0
LINE
  8
0
 62
     0
 10
217.169
 20
83.8193
 30
0.0
 11
217.169
 21
84.8198
 31
0.0
  0
LINE
  8
0
 62
     0
 10
217.169
 20
84.8198
 30
0.0
 11
216.368
 21
84.8198
 31
0.0
  0
LINE
  8
0
 62
     0
 10
216.368
 20
84.8198
 30
0.0
 11
216.368
 21
87.9189
 31
0.0
  0
LINE
  8
0
 62
     0
 10
216.368
 20
87.9189
 30
0.0
 11
217.169
 21
87.9189
 31
0.0
  0
LINE
  8
0
 62
     0
 10
217.169
 20
87.9189
 30
0.0
 11
217.169
 21
93.7189
 31
0.0
  0
LINE
  8
0
 62
     0
 10
217.169
 20
93.7189
 30
0.0
 11
216.368
 21
93.7189
 31
0.0
  0
LINE
  8
0
 62
     0
 10
216.368
 20
93.7189
 30
0.0
 11
216.368
 21
96.8195
 31
0.0
  0
LINE
  8
0
 62
     0
 10
216.368
 20
96.8195
 30
0.0
 11
217.169
 21
96.8195
 31
0.0
  0
LINE
  8
0
 62
     0
 10
217.169
 20
96.8195
 30
0.0
 11
217.169
 21
97.8186
 31
0.0
  0
LINE
  8
0
 62
     0
 10
217.169
 20
97.8186
 30
0.0
 11
231.169
 21
97.8186
 31
0.0
  0
LINE
  8
0
 62
     0
 10
231.169
 20
97.8186
 30
0.0
 11
231.169
 21
96.8195
 31
0.0
  0
LINE
  8
0
 62
     0
 10
231.169
 20
96.8195
 30
0.0
 11
231.969
 21
96.8195
 31
0.0
  0
LINE
  8
0
 62
     0
 10
231.969
 20
96.8195
 30
0.0
 11
231.969
 21
93.7189
 31
0.0
  0
LINE
  8
0
 62
     0
 10
231.969
 20
93.7189
 30
0.0
 11
231.169
 21
93.7189
 31
0.0
  0
LINE
  8
0
 62
     0
 10
231.169
 20
93.7189
 30
0.0
 11
231.169
 21
87.9189
 31
0.0
  0
LINE
  8
0
 62
     0
 10
231.169
 20
87.9189
 30
0.0
 11
231.969
 21
87.9189
 31
0.0
  0
LINE
  8
0
 62
     0
 10
231.969
 20
87.9189
 30
0.0
 11
231.969
 21
84.8198
 31
0.0
  0
LINE
  8
0
 62
     0
 10
231.969
 20
84.8198
 30
0.0
 11
231.169
 21
84.8198
 31
0.0
  0
LINE
  8
0
 62
     0
 10
231.169
 20
65.7698
 30
0.0
 11
231.169
 21
64.7693
 31
0.0
  0
LINE
  8
0
 62
     0
 10
231.169
 20
64.7693
 30
0.0
 11
217.169
 21
64.7693
 31
0.0
  0
LINE
  8
0
 62
     0
 10
217.169
 20
64.7693
 30
0.0
 11
217.169
 21
65.7698
 31
0.0
  0
LINE
  8
0
 62
     0
 10
217.169
 20
65.7698
 30
0.0
 11
216.368
 21
65.7698
 31
0.0
  0
LINE
  8
0
 62
     0
 10
216.368
 20
65.7698
 30
0.0
 11
216.368
 21
68.8689
 31
0.0
  0
LINE
  8
0
 62
     0
 10
216.368
 20
68.8689
 30
0.0
 11
217.169
 21
68.8689
 31
0.0
  0
LINE
  8
0
 62
     0
 10
217.169
 20
68.8689
 30
0.0
 11
217.169
 21
74.6689
 31
0.0
  0
LINE
  8
0
 62
     0
 10
217.169
 20
74.6689
 30
0.0
 11
216.368
 21
74.6689
 31
0.0
  0
LINE
  8
0
 62
     0
 10
216.368
 20
74.6689
 30
0.0
 11
216.368
 21
77.7695
 31
0.0
  0
LINE
  8
0
 62
     0
 10
216.368
 20
77.7695
 30
0.0
 11
217.169
 21
77.7695
 31
0.0
  0
LINE
  8
0
 62
     0
 10
217.169
 20
77.7695
 30
0.0
 11
217.169
 21
78.7686
 31
0.0
  0
LINE
  8
0
 62
     0
 10
217.169
 20
78.7686
 30
0.0
 11
231.169
 21
78.7686
 31
0.0
  0
LINE
  8
0
 62
     0
 10
231.169
 20
78.7686
 30
0.0
 11
231.169
 21
77.7695
 31
0.0
  0
LINE
  8
0
 62
     0
 10
231.169
 20
77.7695
 30
0.0
 11
231.969
 21
77.7695
 31
0.0
  0
LINE
  8
0
 62
     0
 10
231.969
 20
77.7695
 30
0.0
 11
231.969
 21
74.6689
 31
0.0
  0
LINE
  8
0
 62
     0
 10
231.969
 20
74.6689
 30
0.0
 11
231.169
 21
74.6689
 31
0.0
  0
LINE
  8
0
 62
     0
 10
231.169
 20
74.6689
 30
0.0
 11
231.169
 21
68.8689
 31
0.0
  0
LINE
  8
0
 62
     0
 10
231.169
 20
68.8689
 30
0.0
 11
231.969
 21
68.8689
 31
0.0
  0
LINE
  8
0
 62
     0
 10
231.969
 20
68.8689
 30
0.0
 11
231.969
 21
65.7698
 31
0.0
  0
LINE
  8
0
 62
     0
 10
231.969
 20
65.7698
 30
0.0
 11
231.169
 21
65.7698
 31
0.0
  0
LINE
  8
0
 62
     0
 10
231.169
 20
46.7198
 30
0.0
 11
231.169
 21
45.7193
 31
0.0
  0
LINE
  8
0
 62
     0
 10
231.169
 20
45.7193
 30
0.0
 11
217.169
 21
45.7193
 31
0.0
  0
LINE
  8
0
 62
     0
 10
217.169
 20
45.7193
 30
0.0
 11
217.169
 21
46.7198
 31
0.0
  0
LINE
  8
0
 62
     0
 10
217.169
 20
46.7198
 30
0.0
 11
216.368
 21
46.7198
 31
0.0
  0
LINE
  8
0
 62
     0
 10
216.368
 20
46.7198
 30
0.0
 11
216.368
 21
49.8189
 31
0.0
  0
LINE
  8
0
 62
     0
 10
216.368
 20
49.8189
 30
0.0
 11
217.169
 21
49.8189
 31
0.0
  0
LINE
  8
0
 62
     0
 10
217.169
 20
49.8189
 30
0.0
 11
217.169
 21
55.6189
 31
0.0
  0
LINE
  8
0
 62
     0
 10
217.169
 20
55.6189
 30
0.0
 11
216.368
 21
55.6189
 31
0.0
  0
LINE
  8
0
 62
     0
 10
216.368
 20
55.6189
 30
0.0
 11
216.368
 21
58.7195
 31
0.0
  0
LINE
  8
0
 62
     0
 10
216.368
 20
58.7195
 30
0.0
 11
217.169
 21
58.7195
 31
0.0
  0
LINE
  8
0
 62
     0
 10
217.169
 20
58.7195
 30
0.0
 11
217.169
 21
59.7186
 31
0.0
  0
LINE
  8
0
 62
     0
 10
217.169
 20
59.7186
 30
0.0
 11
231.169
 21
59.7186
 31
0.0
  0
LINE
  8
0
 62
     0
 10
231.169
 20
59.7186
 30
0.0
 11
231.169
 21
58.7195
 31
0.0
  0
LINE
  8
0
 62
     0
 10
231.169
 20
58.7195
 30
0.0
 11
231.969
 21
58.7195
 31
0.0
  0
LINE
  8
0
 62
     0
 10
231.969
 20
58.7195
 30
0.0
 11
231.969
 21
55.6189
 31
0.0
  0
LINE
  8
0
 62
     0
 10
231.969
 20
55.6189
 30
0.0
 11
231.169
 21
55.6189
 31
0.0
  0
LINE
  8
0
 62
     0
 10
231.169
 20
55.6189
 30
0.0
 11
231.169
 21
49.8189
 31
0.0
  0
LINE
  8
0
 62
     0
 10
231.169
 20
49.8189
 30
0.0
 11
231.969
 21
49.8189
 31
0.0
  0
LINE
  8
0
 62
     0
 10
231.969
 20
49.8189
 30
0.0
 11
231.969
 21
46.7198
 31
0.0
  0
LINE
  8
0
 62
     0
 10
231.969
 20
46.7198
 30
0.0
 11
231.169
 21
46.7198
 31
0.0
  0
LINE
  8
0
 62
     0
 10
248.919
 20
33.1694
 30
0.0
 11
248.919
 21
26.8993
 31
0.0
  0
LINE
  8
0
 62
     0
 10
248.919
 20
26.8993
 30
0.0
 11
247.293
 21
26.8993
 31
0.0
  0
LINE
  8
0
 62
     0
 10
247.293
 20
26.8993
 30
0.0
 11
247.293
 21
25.9195
 31
0.0
  0
LINE
  8
0
 62
     0
 10
247.293
 20
25.9195
 30
0.0
 11
243.994
 21
25.9195
 31
0.0
  0
LINE
  8
0
 62
     0
 10
243.994
 20
25.9195
 30
0.0
 11
243.994
 21
26.8993
 31
0.0
  0
LINE
  8
0
 62
     0
 10
243.994
 20
26.8993
 30
0.0
 11
242.269
 21
26.8993
 31
0.0
  0
LINE
  8
0
 62
     0
 10
242.269
 20
26.8993
 30
0.0
 11
242.269
 21
27.6986
 31
0.0
  0
LINE
  8
0
 62
     0
 10
242.269
 20
27.6986
 30
0.0
 11
241.494
 21
27.6986
 31
0.0
  0
LINE
  8
0
 62
     0
 10
241.494
 20
27.6986
 30
0.0
 11
241.494
 21
27.6696
 31
0.0
  0
LINE
  8
0
 62
     0
 10
241.494
 20
27.6696
 30
0.0
 11
240.694
 21
27.6696
 31
0.0
  0
LINE
  8
0
 62
     0
 10
240.694
 20
27.6696
 30
0.0
 11
240.694
 21
26.6692
 31
0.0
  0
LINE
  8
0
 62
     0
 10
240.694
 20
26.6692
 30
0.0
 11
226.694
 21
26.6692
 31
0.0
  0
LINE
  8
0
 62
     0
 10
226.694
 20
26.6692
 30
0.0
 11
226.694
 21
27.6696
 31
0.0
  0
LINE
  8
0
 62
     0
 10
226.694
 20
27.6696
 30
0.0
 11
225.893
 21
27.6696
 31
0.0
  0
LINE
  8
0
 62
     0
 10
225.893
 20
27.6696
 30
0.0
 11
225.893
 21
27.6986
 31
0.0
  0
LINE
  8
0
 62
     0
 10
225.893
 20
27.6986
 30
0.0
 11
225.119
 21
27.6986
 31
0.0
  0
LINE
  8
0
 62
     0
 10
225.119
 20
27.6986
 30
0.0
 11
225.119
 21
26.8993
 31
0.0
  0
LINE
  8
0
 62
     0
 10
225.119
 20
26.8993
 30
0.0
 11
223.394
 21
26.8993
 31
0.0
  0
LINE
  8
0
 62
     0
 10
223.394
 20
26.8993
 30
0.0
 11
223.394
 21
25.9195
 31
0.0
  0
LINE
  8
0
 62
     0
 10
223.394
 20
25.9195
 30
0.0
 11
220.093
 21
25.9195
 31
0.0
  0
LINE
  8
0
 62
     0
 10
220.093
 20
25.9195
 30
0.0
 11
220.093
 21
26.8993
 31
0.0
  0
LINE
  8
0
 62
     0
 10
220.093
 20
26.8993
 30
0.0
 11
218.469
 21
26.8993
 31
0.0
  0
LINE
  8
0
 62
     0
 10
218.469
 20
26.8993
 30
0.0
 11
218.469
 21
33.1694
 31
0.0
  0
LINE
  8
0
 62
     0
 10
218.469
 20
33.1694
 30
0.0
 11
217.594
 21
33.1694
 31
0.0
  0
LINE
  8
0
 62
     0
 10
217.594
 20
33.1694
 30
0.0
 11
217.594
 21
35.9696
 31
0.0
  0
LINE
  8
0
 62
     0
 10
217.594
 20
35.9696
 30
0.0
 11
218.469
 21
35.9696
 31
0.0
  0
LINE
  8
0
 62
     0
 10
218.469
 20
35.9696
 30
0.0
 11
218.469
 21
39.1996
 31
0.0
  0
LINE
  8
0
 62
     0
 10
218.469
 20
39.1996
 30
0.0
 11
220.093
 21
39.1996
 31
0.0
  0
LINE
  8
0
 62
     0
 10
220.093
 20
39.1996
 30
0.0
 11
220.093
 21
40.1189
 31
0.0
  0
LINE
  8
0
 62
     0
 10
220.093
 20
40.1189
 30
0.0
 11
223.394
 21
40.1189
 31
0.0
  0
LINE
  8
0
 62
     0
 10
223.394
 20
40.1189
 30
0.0
 11
223.394
 21
39.1996
 31
0.0
  0
LINE
  8
0
 62
     0
 10
223.394
 20
39.1996
 30
0.0
 11
225.119
 21
39.1996
 31
0.0
  0
LINE
  8
0
 62
     0
 10
225.119
 20
39.1996
 30
0.0
 11
225.119
 21
38.3992
 31
0.0
  0
LINE
  8
0
 62
     0
 10
225.119
 20
38.3992
 30
0.0
 11
225.893
 21
38.3992
 31
0.0
  0
LINE
  8
0
 62
     0
 10
225.893
 20
38.3992
 30
0.0
 11
225.893
 21
39.6695
 31
0.0
  0
LINE
  8
0
 62
     0
 10
225.893
 20
39.6695
 30
0.0
 11
226.694
 21
39.6695
 31
0.0
  0
LINE
  8
0
 62
     0
 10
226.694
 20
39.6695
 30
0.0
 11
226.694
 21
40.6686
 31
0.0
  0
LINE
  8
0
 62
     0
 10
226.694
 20
40.6686
 30
0.0
 11
240.694
 21
40.6686
 31
0.0
  0
LINE
  8
0
 62
     0
 10
240.694
 20
40.6686
 30
0.0
 11
240.694
 21
39.6695
 31
0.0
  0
LINE
  8
0
 62
     0
 10
240.694
 20
39.6695
 30
0.0
 11
241.494
 21
39.6695
 31
0.0
  0
LINE
  8
0
 62
     0
 10
241.494
 20
39.6695
 30
0.0
 11
241.494
 21
38.3992
 31
0.0
  0
LINE
  8
0
 62
     0
 10
241.494
 20
38.3992
 30
0.0
 11
242.269
 21
38.3992
 31
0.0
  0
LINE
  8
0
 62
     0
 10
242.269
 20
38.3992
 30
0.0
 11
242.269
 21
39.1996
 31
0.0
  0
LINE
  8
0
 62
     0
 10
242.269
 20
39.1996
 30
0.0
 11
243.994
 21
39.1996
 31
0.0
  0
LINE
  8
0
 62
     0
 10
243.994
 20
39.1996
 30
0.0
 11
243.994
 21
40.1189
 31
0.0
  0
LINE
  8
0
 62
     0
 10
243.994
 20
40.1189
 30
0.0
 11
247.293
 21
40.1189
 31
0.0
  0
LINE
  8
0
 62
     0
 10
247.293
 20
40.1189
 30
0.0
 11
247.293
 21
39.1996
 31
0.0
  0
LINE
  8
0
 62
     0
 10
247.293
 20
39.1996
 30
0.0
 11
248.919
 21
39.1996
 31
0.0
  0
LINE
  8
0
 62
     0
 10
248.919
 20
39.1996
 30
0.0
 11
248.919
 21
35.9696
 31
0.0
  0
LINE
  8
0
 62
     0
 10
248.919
 20
35.9696
 30
0.0
 11
249.794
 21
35.9696
 31
0.0
  0
LINE
  8
0
 62
     0
 10
249.794
 20
35.9696
 30
0.0
 11
249.794
 21
33.1694
 31
0.0
  0
LINE
  8
0
 62
     0
 10
249.794
 20
33.1694
 30
0.0
 11
248.919
 21
33.1694
 31
0.0
  0
LINE
  8
0
 62
     0
 10
250.219
 20
8.61963
 30
0.0
 11
250.219
 21
7.61919
 31
0.0
  0
LINE
  8
0
 62
     0
 10
250.219
 20
7.61919
 30
0.0
 11
236.219
 21
7.61919
 31
0.0
  0
LINE
  8
0
 62
     0
 10
236.219
 20
7.61919
 30
0.0
 11
236.219
 21
8.61963
 31
0.0
  0
LINE
  8
0
 62
     0
 10
236.219
 20
8.61963
 30
0.0
 11
235.418
 21
8.61963
 31
0.0
  0
LINE
  8
0
 62
     0
 10
235.418
 20
8.61963
 30
0.0
 11
235.418
 21
11.7189
 31
0.0
  0
LINE
  8
0
 62
     0
 10
235.418
 20
11.7189
 30
0.0
 11
236.219
 21
11.7189
 31
0.0
  0
LINE
  8
0
 62
     0
 10
236.219
 20
11.7189
 30
0.0
 11
236.219
 21
17.519
 31
0.0
  0
LINE
  8
0
 62
     0
 10
236.219
 20
17.519
 30
0.0
 11
235.418
 21
17.519
 31
0.0
  0
LINE
  8
0
 62
     0
 10
235.418
 20
17.519
 30
0.0
 11
235.418
 21
20.6196
 31
0.0
  0
LINE
  8
0
 62
     0
 10
235.418
 20
20.6196
 30
0.0
 11
236.219
 21
20.6196
 31
0.0
  0
LINE
  8
0
 62
     0
 10
236.219
 20
20.6196
 30
0.0
 11
236.219
 21
21.6187
 31
0.0
  0
LINE
  8
0
 62
     0
 10
236.219
 20
21.6187
 30
0.0
 11
250.219
 21
21.6187
 31
0.0
  0
LINE
  8
0
 62
     0
 10
250.219
 20
21.6187
 30
0.0
 11
250.219
 21
20.6196
 31
0.0
  0
LINE
  8
0
 62
     0
 10
250.219
 20
20.6196
 30
0.0
 11
251.019
 21
20.6196
 31
0.0
  0
LINE
  8
0
 62
     0
 10
251.019
 20
20.6196
 30
0.0
 11
251.019
 21
17.519
 31
0.0
  0
LINE
  8
0
 62
     0
 10
251.019
 20
17.519
 30
0.0
 11
250.219
 21
17.519
 31
0.0
  0
LINE
  8
0
 62
     0
 10
250.219
 20
17.519
 30
0.0
 11
250.219
 21
11.7189
 31
0.0
  0
LINE
  8
0
 62
     0
 10
250.219
 20
11.7189
 30
0.0
 11
251.019
 21
11.7189
 31
0.0
  0
LINE
  8
0
 62
     0
 10
251.019
 20
11.7189
 30
0.0
 11
251.019
 21
8.61963
 31
0.0
  0
LINE
  8
0
 62
     0
 10
251.019
 20
8.61963
 30
0.0
 11
250.219
 21
8.61963
 31
0.0
  0
LINE
  8
0
 62
     0
 10
250.219
 20
84.8198
 30
0.0
 11
250.219
 21
83.8193
 31
0.0
  0
LINE
  8
0
 62
     0
 10
250.219
 20
83.8193
 30
0.0
 11
236.219
 21
83.8193
 31
0.0
  0
LINE
  8
0
 62
     0
 10
236.219
 20
83.8193
 30
0.0
 11
236.219
 21
84.8198
 31
0.0
  0
LINE
  8
0
 62
     0
 10
236.219
 20
84.8198
 30
0.0
 11
235.418
 21
84.8198
 31
0.0
  0
LINE
  8
0
 62
     0
 10
235.418
 20
84.8198
 30
0.0
 11
235.418
 21
87.9189
 31
0.0
  0
LINE
  8
0
 62
     0
 10
235.418
 20
87.9189
 30
0.0
 11
236.219
 21
87.9189
 31
0.0
  0
LINE
  8
0
 62
     0
 10
236.219
 20
87.9189
 30
0.0
 11
236.219
 21
93.7189
 31
0.0
  0
LINE
  8
0
 62
     0
 10
236.219
 20
93.7189
 30
0.0
 11
235.418
 21
93.7189
 31
0.0
  0
LINE
  8
0
 62
     0
 10
235.418
 20
93.7189
 30
0.0
 11
235.418
 21
96.8195
 31
0.0
  0
LINE
  8
0
 62
     0
 10
235.418
 20
96.8195
 30
0.0
 11
236.219
 21
96.8195
 31
0.0
  0
LINE
  8
0
 62
     0
 10
236.219
 20
96.8195
 30
0.0
 11
236.219
 21
97.8186
 31
0.0
  0
LINE
  8
0
 62
     0
 10
236.219
 20
97.8186
 30
0.0
 11
250.219
 21
97.8186
 31
0.0
  0
LINE
  8
0
 62
     0
 10
250.219
 20
97.8186
 30
0.0
 11
250.219
 21
96.8195
 31
0.0
  0
LINE
  8
0
 62
     0
 10
250.219
 20
96.8195
 30
0.0
 11
251.019
 21
96.8195
 31
0.0
  0
LINE
  8
0
 62
     0
 10
251.019
 20
96.8195
 30
0.0
 11
251.019
 21
93.7189
 31
0.0
  0
LINE
  8
0
 62
     0
 10
251.019
 20
93.7189
 30
0.0
 11
250.219
 21
93.7189
 31
0.0
  0
LINE
  8
0
 62
     0
 10
250.219
 20
93.7189
 30
0.0
 11
250.219
 21
87.9189
 31
0.0
  0
LINE
  8
0
 62
     0
 10
250.219
 20
87.9189
 30
0.0
 11
251.019
 21
87.9189
 31
0.0
  0
LINE
  8
0
 62
     0
 10
251.019
 20
87.9189
 30
0.0
 11
251.019
 21
84.8198
 31
0.0
  0
LINE
  8
0
 62
     0
 10
251.019
 20
84.8198
 30
0.0
 11
250.219
 21
84.8198
 31
0.0
  0
LINE
  8
0
 62
     0
 10
250.219
 20
65.7698
 30
0.0
 11
250.219
 21
64.7693
 31
0.0
  0
LINE
  8
0
 62
     0
 10
250.219
 20
64.7693
 30
0.0
 11
236.219
 21
64.7693
 31
0.0
  0
LINE
  8
0
 62
     0
 10
236.219
 20
64.7693
 30
0.0
 11
236.219
 21
65.7698
 31
0.0
  0
LINE
  8
0
 62
     0
 10
236.219
 20
65.7698
 30
0.0
 11
235.418
 21
65.7698
 31
0.0
  0
LINE
  8
0
 62
     0
 10
235.418
 20
65.7698
 30
0.0
 11
235.418
 21
68.8689
 31
0.0
  0
LINE
  8
0
 62
     0
 10
235.418
 20
68.8689
 30
0.0
 11
236.219
 21
68.8689
 31
0.0
  0
LINE
  8
0
 62
     0
 10
236.219
 20
68.8689
 30
0.0
 11
236.219
 21
74.6689
 31
0.0
  0
LINE
  8
0
 62
     0
 10
236.219
 20
74.6689
 30
0.0
 11
235.418
 21
74.6689
 31
0.0
  0
LINE
  8
0
 62
     0
 10
235.418
 20
74.6689
 30
0.0
 11
235.418
 21
77.7695
 31
0.0
  0
LINE
  8
0
 62
     0
 10
235.418
 20
77.7695
 30
0.0
 11
236.219
 21
77.7695
 31
0.0
  0
LINE
  8
0
 62
     0
 10
236.219
 20
77.7695
 30
0.0
 11
236.219
 21
78.7686
 31
0.0
  0
LINE
  8
0
 62
     0
 10
236.219
 20
78.7686
 30
0.0
 11
250.219
 21
78.7686
 31
0.0
  0
LINE
  8
0
 62
     0
 10
250.219
 20
78.7686
 30
0.0
 11
250.219
 21
77.7695
 31
0.0
  0
LINE
  8
0
 62
     0
 10
250.219
 20
77.7695
 30
0.0
 11
251.019
 21
77.7695
 31
0.0
  0
LINE
  8
0
 62
     0
 10
251.019
 20
77.7695
 30
0.0
 11
251.019
 21
74.6689
 31
0.0
  0
LINE
  8
0
 62
     0
 10
251.019
 20
74.6689
 30
0.0
 11
250.219
 21
74.6689
 31
0.0
  0
LINE
  8
0
 62
     0
 10
250.219
 20
74.6689
 30
0.0
 11
250.219
 21
68.8689
 31
0.0
  0
LINE
  8
0
 62
     0
 10
250.219
 20
68.8689
 30
0.0
 11
251.019
 21
68.8689
 31
0.0
  0
LINE
  8
0
 62
     0
 10
251.019
 20
68.8689
 30
0.0
 11
251.019
 21
65.7698
 31
0.0
  0
LINE
  8
0
 62
     0
 10
251.019
 20
65.7698
 30
0.0
 11
250.219
 21
65.7698
 31
0.0
  0
LINE
  8
0
 62
     0
 10
267.969
 20
52.2192
 30
0.0
 11
267.969
 21
45.9493
 31
0.0
  0
LINE
  8
0
 62
     0
 10
267.969
 20
45.9493
 30
0.0
 11
266.343
 21
45.9493
 31
0.0
  0
LINE
  8
0
 62
     0
 10
266.343
 20
45.9493
 30
0.0
 11
266.343
 21
44.9696
 31
0.0
  0
LINE
  8
0
 62
     0
 10
266.343
 20
44.9696
 30
0.0
 11
263.044
 21
44.9696
 31
0.0
  0
LINE
  8
0
 62
     0
 10
263.044
 20
44.9696
 30
0.0
 11
263.044
 21
45.9493
 31
0.0
  0
LINE
  8
0
 62
     0
 10
263.044
 20
45.9493
 30
0.0
 11
261.319
 21
45.9493
 31
0.0
  0
LINE
  8
0
 62
     0
 10
261.319
 20
45.9493
 30
0.0
 11
261.319
 21
46.7487
 31
0.0
  0
LINE
  8
0
 62
     0
 10
261.319
 20
46.7487
 30
0.0
 11
260.544
 21
46.7487
 31
0.0
  0
LINE
  8
0
 62
     0
 10
260.544
 20
46.7487
 30
0.0
 11
260.544
 21
46.7198
 31
0.0
  0
LINE
  8
0
 62
     0
 10
260.544
 20
46.7198
 30
0.0
 11
259.744
 21
46.7198
 31
0.0
  0
LINE
  8
0
 62
     0
 10
259.744
 20
46.7198
 30
0.0
 11
259.744
 21
45.7193
 31
0.0
  0
LINE
  8
0
 62
     0
 10
259.744
 20
45.7193
 30
0.0
 11
245.744
 21
45.7193
 31
0.0
  0
LINE
  8
0
 62
     0
 10
245.744
 20
45.7193
 30
0.0
 11
245.744
 21
46.7198
 31
0.0
  0
LINE
  8
0
 62
     0
 10
245.744
 20
46.7198
 30
0.0
 11
244.943
 21
46.7198
 31
0.0
  0
LINE
  8
0
 62
     0
 10
244.943
 20
46.7198
 30
0.0
 11
244.943
 21
46.7487
 31
0.0
  0
LINE
  8
0
 62
     0
 10
244.943
 20
46.7487
 30
0.0
 11
244.169
 21
46.7487
 31
0.0
  0
LINE
  8
0
 62
     0
 10
244.169
 20
46.7487
 30
0.0
 11
244.169
 21
45.9493
 31
0.0
  0
LINE
  8
0
 62
     0
 10
244.169
 20
45.9493
 30
0.0
 11
242.444
 21
45.9493
 31
0.0
  0
LINE
  8
0
 62
     0
 10
242.444
 20
45.9493
 30
0.0
 11
242.444
 21
44.9696
 31
0.0
  0
LINE
  8
0
 62
     0
 10
242.444
 20
44.9696
 30
0.0
 11
239.143
 21
44.9696
 31
0.0
  0
LINE
  8
0
 62
     0
 10
239.143
 20
44.9696
 30
0.0
 11
239.143
 21
45.9493
 31
0.0
  0
LINE
  8
0
 62
     0
 10
239.143
 20
45.9493
 30
0.0
 11
237.519
 21
45.9493
 31
0.0
  0
LINE
  8
0
 62
     0
 10
237.519
 20
45.9493
 30
0.0
 11
237.519
 21
52.2192
 31
0.0
  0
LINE
  8
0
 62
     0
 10
237.519
 20
52.2192
 30
0.0
 11
236.644
 21
52.2192
 31
0.0
  0
LINE
  8
0
 62
     0
 10
236.644
 20
52.2192
 30
0.0
 11
236.644
 21
55.0196
 31
0.0
  0
LINE
  8
0
 62
     0
 10
236.644
 20
55.0196
 30
0.0
 11
237.519
 21
55.0196
 31
0.0
  0
LINE
  8
0
 62
     0
 10
237.519
 20
55.0196
 30
0.0
 11
237.519
 21
58.2496
 31
0.0
  0
LINE
  8
0
 62
     0
 10
237.519
 20
58.2496
 30
0.0
 11
239.143
 21
58.2496
 31
0.0
  0
LINE
  8
0
 62
     0
 10
239.143
 20
58.2496
 30
0.0
 11
239.143
 21
59.1689
 31
0.0
  0
LINE
  8
0
 62
     0
 10
239.143
 20
59.1689
 30
0.0
 11
242.444
 21
59.1689
 31
0.0
  0
LINE
  8
0
 62
     0
 10
242.444
 20
59.1689
 30
0.0
 11
242.444
 21
58.2496
 31
0.0
  0
LINE
  8
0
 62
     0
 10
242.444
 20
58.2496
 30
0.0
 11
244.169
 21
58.2496
 31
0.0
  0
LINE
  8
0
 62
     0
 10
244.169
 20
58.2496
 30
0.0
 11
244.169
 21
57.4492
 31
0.0
  0
LINE
  8
0
 62
     0
 10
244.169
 20
57.4492
 30
0.0
 11
244.943
 21
57.4492
 31
0.0
  0
LINE
  8
0
 62
     0
 10
244.943
 20
57.4492
 30
0.0
 11
244.943
 21
58.7195
 31
0.0
  0
LINE
  8
0
 62
     0
 10
244.943
 20
58.7195
 30
0.0
 11
245.744
 21
58.7195
 31
0.0
  0
LINE
  8
0
 62
     0
 10
245.744
 20
58.7195
 30
0.0
 11
245.744
 21
59.7186
 31
0.0
  0
LINE
  8
0
 62
     0
 10
245.744
 20
59.7186
 30
0.0
 11
259.744
 21
59.7186
 31
0.0
  0
LINE
  8
0
 62
     0
 10
259.744
 20
59.7186
 30
0.0
 11
259.744
 21
58.7195
 31
0.0
  0
LINE
  8
0
 62
     0
 10
259.744
 20
58.7195
 30
0.0
 11
260.544
 21
58.7195
 31
0.0
  0
LINE
  8
0
 62
     0
 10
260.544
 20
58.7195
 30
0.0
 11
260.544
 21
57.4492
 31
0.0
  0
LINE
  8
0
 62
     0
 10
260.544
 20
57.4492
 30
0.0
 11
261.319
 21
57.4492
 31
0.0
  0
LINE
  8
0
 62
     0
 10
261.319
 20
57.4492
 30
0.0
 11
261.319
 21
58.2496
 31
0.0
  0
LINE
  8
0
 62
     0
 10
261.319
 20
58.2496
 30
0.0
 11
263.044
 21
58.2496
 31
0.0
  0
LINE
  8
0
 62
     0
 10
263.044
 20
58.2496
 30
0.0
 11
263.044
 21
59.1689
 31
0.0
  0
LINE
  8
0
 62
     0
 10
263.044
 20
59.1689
 30
0.0
 11
266.343
 21
59.1689
 31
0.0
  0
LINE
  8
0
 62
     0
 10
266.343
 20
59.1689
 30
0.0
 11
266.343
 21
58.2496
 31
0.0
  0
LINE
  8
0
 62
     0
 10
266.343
 20
58.2496
 30
0.0
 11
267.969
 21
58.2496
 31
0.0
  0
LINE
  8
0
 62
     0
 10
267.969
 20
58.2496
 30
0.0
 11
267.969
 21
55.0196
 31
0.0
  0
LINE
  8
0
 62
     0
 10
267.969
 20
55.0196
 30
0.0
 11
268.844
 21
55.0196
 31
0.0
  0
LINE
  8
0
 62
     0
 10
268.844
 20
55.0196
 30
0.0
 11
268.844
 21
52.2192
 31
0.0
  0
LINE
  8
0
 62
     0
 10
268.844
 20
52.2192
 30
0.0
 11
267.969
 21
52.2192
 31
0.0
  0
LINE
  8
0
 62
     0
 10
269.269
 20
27.6696
 30
0.0
 11
269.269
 21
26.6692
 31
0.0
  0
LINE
  8
0
 62
     0
 10
269.269
 20
26.6692
 30
0.0
 11
255.269
 21
26.6692
 31
0.0
  0
LINE
  8
0
 62
     0
 10
255.269
 20
26.6692
 30
0.0
 11
255.269
 21
27.6696
 31
0.0
  0
LINE
  8
0
 62
     0
 10
255.269
 20
27.6696
 30
0.0
 11
254.468
 21
27.6696
 31
0.0
  0
LINE
  8
0
 62
     0
 10
254.468
 20
27.6696
 30
0.0
 11
254.468
 21
30.7689
 31
0.0
  0
LINE
  8
0
 62
     0
 10
254.468
 20
30.7689
 30
0.0
 11
255.269
 21
30.7689
 31
0.0
  0
LINE
  8
0
 62
     0
 10
255.269
 20
30.7689
 30
0.0
 11
255.269
 21
36.5689
 31
0.0
  0
LINE
  8
0
 62
     0
 10
255.269
 20
36.5689
 30
0.0
 11
254.468
 21
36.5689
 31
0.0
  0
LINE
  8
0
 62
     0
 10
254.468
 20
36.5689
 30
0.0
 11
254.468
 21
39.6695
 31
0.0
  0
LINE
  8
0
 62
     0
 10
254.468
 20
39.6695
 30
0.0
 11
255.269
 21
39.6695
 31
0.0
  0
LINE
  8
0
 62
     0
 10
255.269
 20
39.6695
 30
0.0
 11
255.269
 21
40.6686
 31
0.0
  0
LINE
  8
0
 62
     0
 10
255.269
 20
40.6686
 30
0.0
 11
269.269
 21
40.6686
 31
0.0
  0
LINE
  8
0
 62
     0
 10
269.269
 20
40.6686
 30
0.0
 11
269.269
 21
39.6695
 31
0.0
  0
LINE
  8
0
 62
     0
 10
269.269
 20
39.6695
 30
0.0
 11
270.069
 21
39.6695
 31
0.0
  0
LINE
  8
0
 62
     0
 10
270.069
 20
39.6695
 30
0.0
 11
270.069
 21
36.5689
 31
0.0
  0
LINE
  8
0
 62
     0
 10
270.069
 20
36.5689
 30
0.0
 11
269.269
 21
36.5689
 31
0.0
  0
LINE
  8
0
 62
     0
 10
269.269
 20
36.5689
 30
0.0
 11
269.269
 21
30.7689
 31
0.0
  0
LINE
  8
0
 62
     0
 10
269.269
 20
30.7689
 30
0.0
 11
270.069
 21
30.7689
 31
0.0
  0
LINE
  8
0
 62
     0
 10
270.069
 20
30.7689
 30
0.0
 11
270.069
 21
27.6696
 31
0.0
  0
LINE
  8
0
 62
     0
 10
270.069
 20
27.6696
 30
0.0
 11
269.269
 21
27.6696
 31
0.0
  0
LINE
  8
0
 62
     0
 10
269.269
 20
8.61963
 30
0.0
 11
269.269
 21
7.61919
 31
0.0
  0
LINE
  8
0
 62
     0
 10
269.269
 20
7.61919
 30
0.0
 11
255.269
 21
7.61919
 31
0.0
  0
LINE
  8
0
 62
     0
 10
255.269
 20
7.61919
 30
0.0
 11
255.269
 21
8.61963
 31
0.0
  0
LINE
  8
0
 62
     0
 10
255.269
 20
8.61963
 30
0.0
 11
254.468
 21
8.61963
 31
0.0
  0
LINE
  8
0
 62
     0
 10
254.468
 20
8.61963
 30
0.0
 11
254.468
 21
11.7189
 31
0.0
  0
LINE
  8
0
 62
     0
 10
254.468
 20
11.7189
 30
0.0
 11
255.269
 21
11.7189
 31
0.0
  0
LINE
  8
0
 62
     0
 10
255.269
 20
11.7189
 30
0.0
 11
255.269
 21
17.519
 31
0.0
  0
LINE
  8
0
 62
     0
 10
255.269
 20
17.519
 30
0.0
 11
254.468
 21
17.519
 31
0.0
  0
LINE
  8
0
 62
     0
 10
254.468
 20
17.519
 30
0.0
 11
254.468
 21
20.6196
 31
0.0
  0
LINE
  8
0
 62
     0
 10
254.468
 20
20.6196
 30
0.0
 11
255.269
 21
20.6196
 31
0.0
  0
LINE
  8
0
 62
     0
 10
255.269
 20
20.6196
 30
0.0
 11
255.269
 21
21.6187
 31
0.0
  0
LINE
  8
0
 62
     0
 10
255.269
 20
21.6187
 30
0.0
 11
269.269
 21
21.6187
 31
0.0
  0
LINE
  8
0
 62
     0
 10
269.269
 20
21.6187
 30
0.0
 11
269.269
 21
20.6196
 31
0.0
  0
LINE
  8
0
 62
     0
 10
269.269
 20
20.6196
 30
0.0
 11
270.069
 21
20.6196
 31
0.0
  0
LINE
  8
0
 62
     0
 10
270.069
 20
20.6196
 30
0.0
 11
270.069
 21
17.519
 31
0.0
  0
LINE
  8
0
 62
     0
 10
270.069
 20
17.519
 30
0.0
 11
269.269
 21
17.519
 31
0.0
  0
LINE
  8
0
 62
     0
 10
269.269
 20
17.519
 30
0.0
 11
269.269
 21
11.7189
 31
0.0
  0
LINE
  8
0
 62
     0
 10
269.269
 20
11.7189
 30
0.0
 11
270.069
 21
11.7189
 31
0.0
  0
LINE
  8
0
 62
     0
 10
270.069
 20
11.7189
 30
0.0
 11
270.069
 21
8.61963
 31
0.0
  0
LINE
  8
0
 62
     0
 10
270.069
 20
8.61963
 30
0.0
 11
269.269
 21
8.61963
 31
0.0
  0
LINE
  8
0
 62
     0
 10
269.269
 20
65.7698
 30
0.0
 11
269.269
 21
64.7693
 31
0.0
  0
LINE
  8
0
 62
     0
 10
269.269
 20
64.7693
 30
0.0
 11
255.269
 21
64.7693
 31
0.0
  0
LINE
  8
0
 62
     0
 10
255.269
 20
64.7693
 30
0.0
 11
255.269
 21
65.7698
 31
0.0
  0
LINE
  8
0
 62
     0
 10
255.269
 20
65.7698
 30
0.0
 11
254.468
 21
65.7698
 31
0.0
  0
LINE
  8
0
 62
     0
 10
254.468
 20
65.7698
 30
0.0
 11
254.468
 21
68.8689
 31
0.0
  0
LINE
  8
0
 62
     0
 10
254.468
 20
68.8689
 30
0.0
 11
255.269
 21
68.8689
 31
0.0
  0
LINE
  8
0
 62
     0
 10
255.269
 20
68.8689
 30
0.0
 11
255.269
 21
74.6689
 31
0.0
  0
LINE
  8
0
 62
     0
 10
255.269
 20
74.6689
 30
0.0
 11
254.468
 21
74.6689
 31
0.0
  0
LINE
  8
0
 62
     0
 10
254.468
 20
74.6689
 30
0.0
 11
254.468
 21
77.7695
 31
0.0
  0
LINE
  8
0
 62
     0
 10
254.468
 20
77.7695
 30
0.0
 11
255.269
 21
77.7695
 31
0.0
  0
LINE
  8
0
 62
     0
 10
255.269
 20
77.7695
 30
0.0
 11
255.269
 21
78.7686
 31
0.0
  0
LINE
  8
0
 62
     0
 10
255.269
 20
78.7686
 30
0.0
 11
269.269
 21
78.7686
 31
0.0
  0
LINE
  8
0
 62
     0
 10
269.269
 20
78.7686
 30
0.0
 11
269.269
 21
77.7695
 31
0.0
  0
LINE
  8
0
 62
     0
 10
269.269
 20
77.7695
 30
0.0
 11
270.069
 21
77.7695
 31
0.0
  0
LINE
  8
0
 62
     0
 10
270.069
 20
77.7695
 30
0.0
 11
270.069
 21
74.6689
 31
0.0
  0
LINE
  8
0
 62
     0
 10
270.069
 20
74.6689
 30
0.0
 11
269.269
 21
74.6689
 31
0.0
  0
LINE
  8
0
 62
     0
 10
269.269
 20
74.6689
 30
0.0
 11
269.269
 21
68.8689
 31
0.0
  0
LINE
  8
0
 62
     0
 10
269.269
 20
68.8689
 30
0.0
 11
270.069
 21
68.8689
 31
0.0
  0
LINE
  8
0
 62
     0
 10
270.069
 20
68.8689
 30
0.0
 11
270.069
 21
65.7698
 31
0.0
  0
LINE
  8
0
 62
     0
 10
270.069
 20
65.7698
 30
0.0
 11
269.269
 21
65.7698
 31
0.0
  0
LINE
  8
0
 62
     0
 10
287.019
 20
90.3192
 30
0.0
 11
287.019
 21
84.0493
 31
0.0
  0
LINE
  8
0
 62
     0
 10
287.019
 20
84.0493
 30
0.0
 11
285.393
 21
84.0493
 31
0.0
  0
LINE
  8
0
 62
     0
 10
285.393
 20
84.0493
 30
0.0
 11
285.393
 21
83.0696
 31
0.0
  0
LINE
  8
0
 62
     0
 10
285.393
 20
83.0696
 30
0.0
 11
282.094
 21
83.0696
 31
0.0
  0
LINE
  8
0
 62
     0
 10
282.094
 20
83.0696
 30
0.0
 11
282.094
 21
84.0493
 31
0.0
  0
LINE
  8
0
 62
     0
 10
282.094
 20
84.0493
 30
0.0
 11
280.369
 21
84.0493
 31
0.0
  0
LINE
  8
0
 62
     0
 10
280.369
 20
84.0493
 30
0.0
 11
280.369
 21
84.8487
 31
0.0
  0
LINE
  8
0
 62
     0
 10
280.369
 20
84.8487
 30
0.0
 11
279.594
 21
84.8487
 31
0.0
  0
LINE
  8
0
 62
     0
 10
279.594
 20
84.8487
 30
0.0
 11
279.594
 21
84.8198
 31
0.0
  0
LINE
  8
0
 62
     0
 10
279.594
 20
84.8198
 30
0.0
 11
278.794
 21
84.8198
 31
0.0
  0
LINE
  8
0
 62
     0
 10
278.794
 20
84.8198
 30
0.0
 11
278.794
 21
83.8193
 31
0.0
  0
LINE
  8
0
 62
     0
 10
278.794
 20
83.8193
 30
0.0
 11
264.794
 21
83.8193
 31
0.0
  0
LINE
  8
0
 62
     0
 10
264.794
 20
83.8193
 30
0.0
 11
264.794
 21
84.8198
 31
0.0
  0
LINE
  8
0
 62
     0
 10
264.794
 20
84.8198
 30
0.0
 11
263.993
 21
84.8198
 31
0.0
  0
LINE
  8
0
 62
     0
 10
263.993
 20
84.8198
 30
0.0
 11
263.993
 21
84.8487
 31
0.0
  0
LINE
  8
0
 62
     0
 10
263.993
 20
84.8487
 30
0.0
 11
263.219
 21
84.8487
 31
0.0
  0
LINE
  8
0
 62
     0
 10
263.219
 20
84.8487
 30
0.0
 11
263.219
 21
84.0493
 31
0.0
  0
LINE
  8
0
 62
     0
 10
263.219
 20
84.0493
 30
0.0
 11
261.494
 21
84.0493
 31
0.0
  0
LINE
  8
0
 62
     0
 10
261.494
 20
84.0493
 30
0.0
 11
261.494
 21
83.0696
 31
0.0
  0
LINE
  8
0
 62
     0
 10
261.494
 20
83.0696
 30
0.0
 11
258.193
 21
83.0696
 31
0.0
  0
LINE
  8
0
 62
     0
 10
258.193
 20
83.0696
 30
0.0
 11
258.193
 21
84.0493
 31
0.0
  0
LINE
  8
0
 62
     0
 10
258.193
 20
84.0493
 30
0.0
 11
256.569
 21
84.0493
 31
0.0
  0
LINE
  8
0
 62
     0
 10
256.569
 20
84.0493
 30
0.0
 11
256.569
 21
90.3192
 31
0.0
  0
LINE
  8
0
 62
     0
 10
256.569
 20
90.3192
 30
0.0
 11
255.694
 21
90.3192
 31
0.0
  0
LINE
  8
0
 62
     0
 10
255.694
 20
90.3192
 30
0.0
 11
255.694
 21
93.1196
 31
0.0
  0
LINE
  8
0
 62
     0
 10
255.694
 20
93.1196
 30
0.0
 11
256.569
 21
93.1196
 31
0.0
  0
LINE
  8
0
 62
     0
 10
256.569
 20
93.1196
 30
0.0
 11
256.569
 21
96.3496
 31
0.0
  0
LINE
  8
0
 62
     0
 10
256.569
 20
96.3496
 30
0.0
 11
258.193
 21
96.3496
 31
0.0
  0
LINE
  8
0
 62
     0
 10
258.193
 20
96.3496
 30
0.0
 11
258.193
 21
97.2689
 31
0.0
  0
LINE
  8
0
 62
     0
 10
258.193
 20
97.2689
 30
0.0
 11
261.494
 21
97.2689
 31
0.0
  0
LINE
  8
0
 62
     0
 10
261.494
 20
97.2689
 30
0.0
 11
261.494
 21
96.3496
 31
0.0
  0
LINE
  8
0
 62
     0
 10
261.494
 20
96.3496
 30
0.0
 11
263.219
 21
96.3496
 31
0.0
  0
LINE
  8
0
 62
     0
 10
263.219
 20
96.3496
 30
0.0
 11
263.219
 21
95.5492
 31
0.0
  0
LINE
  8
0
 62
     0
 10
263.219
 20
95.5492
 30
0.0
 11
263.993
 21
95.5492
 31
0.0
  0
LINE
  8
0
 62
     0
 10
263.993
 20
95.5492
 30
0.0
 11
263.993
 21
96.8195
 31
0.0
  0
LINE
  8
0
 62
     0
 10
263.993
 20
96.8195
 30
0.0
 11
264.794
 21
96.8195
 31
0.0
  0
LINE
  8
0
 62
     0
 10
264.794
 20
96.8195
 30
0.0
 11
264.794
 21
97.8186
 31
0.0
  0
LINE
  8
0
 62
     0
 10
264.794
 20
97.8186
 30
0.0
 11
278.794
 21
97.8186
 31
0.0
  0
LINE
  8
0
 62
     0
 10
278.794
 20
97.8186
 30
0.0
 11
278.794
 21
96.8195
 31
0.0
  0
LINE
  8
0
 62
     0
 10
278.794
 20
96.8195
 30
0.0
 11
279.594
 21
96.8195
 31
0.0
  0
LINE
  8
0
 62
     0
 10
279.594
 20
96.8195
 30
0.0
 11
279.594
 21
95.5492
 31
0.0
  0
LINE
  8
0
 62
     0
 10
279.594
 20
95.5492
 30
0.0
 11
280.369
 21
95.5492
 31
0.0
  0
LINE
  8
0
 62
     0
 10
280.369
 20
95.5492
 30
0.0
 11
280.369
 21
96.3496
 31
0.0
  0
LINE
  8
0
 62
     0
 10
280.369
 20
96.3496
 30
0.0
 11
282.094
 21
96.3496
 31
0.0
  0
LINE
  8
0
 62
     0
 10
282.094
 20
96.3496
 30
0.0
 11
282.094
 21
97.2689
 31
0.0
  0
LINE
  8
0
 62
     0
 10
282.094
 20
97.2689
 30
0.0
 11
285.393
 21
97.2689
 31
0.0
  0
LINE
  8
0
 62
     0
 10
285.393
 20
97.2689
 30
0.0
 11
285.393
 21
96.3496
 31
0.0
  0
LINE
  8
0
 62
     0
 10
285.393
 20
96.3496
 30
0.0
 11
287.019
 21
96.3496
 31
0.0
  0
LINE
  8
0
 62
     0
 10
287.019
 20
96.3496
 30
0.0
 11
287.019
 21
93.1196
 31
0.0
  0
LINE
  8
0
 62
     0
 10
287.019
 20
93.1196
 30
0.0
 11
287.894
 21
93.1196
 31
0.0
  0
LINE
  8
0
 62
     0
 10
287.894
 20
93.1196
 30
0.0
 11
287.894
 21
90.3192
 31
0.0
  0
LINE
  8
0
 62
     0
 10
287.894
 20
90.3192
 30
0.0
 11
287.019
 21
90.3192
 31
0.0
  0
LINE
  8
0
 62
     0
 10
288.319
 20
46.7198
 30
0.0
 11
288.319
 21
45.7193
 31
0.0
  0
LINE
  8
0
 62
     0
 10
288.319
 20
45.7193
 30
0.0
 11
274.319
 21
45.7193
 31
0.0
  0
LINE
  8
0
 62
     0
 10
274.319
 20
45.7193
 30
0.0
 11
274.319
 21
46.7198
 31
0.0
  0
LINE
  8
0
 62
     0
 10
274.319
 20
46.7198
 30
0.0
 11
273.518
 21
46.7198
 31
0.0
  0
LINE
  8
0
 62
     0
 10
273.518
 20
46.7198
 30
0.0
 11
273.518
 21
49.8189
 31
0.0
  0
LINE
  8
0
 62
     0
 10
273.518
 20
49.8189
 30
0.0
 11
274.319
 21
49.8189
 31
0.0
  0
LINE
  8
0
 62
     0
 10
274.319
 20
49.8189
 30
0.0
 11
274.319
 21
55.6189
 31
0.0
  0
LINE
  8
0
 62
     0
 10
274.319
 20
55.6189
 30
0.0
 11
273.518
 21
55.6189
 31
0.0
  0
LINE
  8
0
 62
     0
 10
273.518
 20
55.6189
 30
0.0
 11
273.518
 21
58.7195
 31
0.0
  0
LINE
  8
0
 62
     0
 10
273.518
 20
58.7195
 30
0.0
 11
274.319
 21
58.7195
 31
0.0
  0
LINE
  8
0
 62
     0
 10
274.319
 20
58.7195
 30
0.0
 11
274.319
 21
59.7186
 31
0.0
  0
LINE
  8
0
 62
     0
 10
274.319
 20
59.7186
 30
0.0
 11
288.319
 21
59.7186
 31
0.0
  0
LINE
  8
0
 62
     0
 10
288.319
 20
59.7186
 30
0.0
 11
288.319
 21
58.7195
 31
0.0
  0
LINE
  8
0
 62
     0
 10
288.319
 20
58.7195
 30
0.0
 11
289.119
 21
58.7195
 31
0.0
  0
LINE
  8
0
 62
     0
 10
289.119
 20
58.7195
 30
0.0
 11
289.119
 21
55.6189
 31
0.0
  0
LINE
  8
0
 62
     0
 10
289.119
 20
55.6189
 30
0.0
 11
288.319
 21
55.6189
 31
0.0
  0
LINE
  8
0
 62
     0
 10
288.319
 20
55.6189
 30
0.0
 11
288.319
 21
49.8189
 31
0.0
  0
LINE
  8
0
 62
     0
 10
288.319
 20
49.8189
 30
0.0
 11
289.119
 21
49.8189
 31
0.0
  0
LINE
  8
0
 62
     0
 10
289.119
 20
49.8189
 30
0.0
 11
289.119
 21
46.7198
 31
0.0
  0
LINE
  8
0
 62
     0
 10
289.119
 20
46.7198
 30
0.0
 11
288.319
 21
46.7198
 31
0.0
  0
LINE
  8
0
 62
     0
 10
288.319
 20
27.6696
 30
0.0
 11
288.319
 21
26.6692
 31
0.0
  0
LINE
  8
0
 62
     0
 10
288.319
 20
26.6692
 30
0.0
 11
274.319
 21
26.6692
 31
0.0
  0
LINE
  8
0
 62
     0
 10
274.319
 20
26.6692
 30
0.0
 11
274.319
 21
27.6696
 31
0.0
  0
LINE
  8
0
 62
     0
 10
274.319
 20
27.6696
 30
0.0
 11
273.518
 21
27.6696
 31
0.0
  0
LINE
  8
0
 62
     0
 10
273.518
 20
27.6696
 30
0.0
 11
273.518
 21
30.7689
 31
0.0
  0
LINE
  8
0
 62
     0
 10
273.518
 20
30.7689
 30
0.0
 11
274.319
 21
30.7689
 31
0.0
  0
LINE
  8
0
 62
     0
 10
274.319
 20
30.7689
 30
0.0
 11
274.319
 21
36.5689
 31
0.0
  0
LINE
  8
0
 62
     0
 10
274.319
 20
36.5689
 30
0.0
 11
273.518
 21
36.5689
 31
0.0
  0
LINE
  8
0
 62
     0
 10
273.518
 20
36.5689
 30
0.0
 11
273.518
 21
39.6695
 31
0.0
  0
LINE
  8
0
 62
     0
 10
273.518
 20
39.6695
 30
0.0
 11
274.319
 21
39.6695
 31
0.0
  0
LINE
  8
0
 62
     0
 10
274.319
 20
39.6695
 30
0.0
 11
274.319
 21
40.6686
 31
0.0
  0
LINE
  8
0
 62
     0
 10
274.319
 20
40.6686
 30
0.0
 11
288.319
 21
40.6686
 31
0.0
  0
LINE
  8
0
 62
     0
 10
288.319
 20
40.6686
 30
0.0
 11
288.319
 21
39.6695
 31
0.0
  0
LINE
  8
0
 62
     0
 10
288.319
 20
39.6695
 30
0.0
 11
289.119
 21
39.6695
 31
0.0
  0
LINE
  8
0
 62
     0
 10
289.119
 20
39.6695
 30
0.0
 11
289.119
 21
36.5689
 31
0.0
  0
LINE
  8
0
 62
     0
 10
289.119
 20
36.5689
 30
0.0
 11
288.319
 21
36.5689
 31
0.0
  0
LINE
  8
0
 62
     0
 10
288.319
 20
36.5689
 30
0.0
 11
288.319
 21
30.7689
 31
0.0
  0
LINE
  8
0
 62
     0
 10
288.319
 20
30.7689
 30
0.0
 11
289.119
 21
30.7689
 31
0.0
  0
LINE
  8
0
 62
     0
 10
289.119
 20
30.7689
 30
0.0
 11
289.119
 21
27.6696
 31
0.0
  0
LINE
  8
0
 62
     0
 10
289.119
 20
27.6696
 30
0.0
 11
288.319
 21
27.6696
 31
0.0
  0
LINE
  8
0
 62
     0
 10
288.319
 20
8.61963
 30
0.0
 11
288.319
 21
7.61919
 31
0.0
  0
LINE
  8
0
 62
     0
 10
288.319
 20
7.61919
 30
0.0
 11
274.319
 21
7.61919
 31
0.0
  0
LINE
  8
0
 62
     0
 10
274.319
 20
7.61919
 30
0.0
 11
274.319
 21
8.61963
 31
0.0
  0
LINE
  8
0
 62
     0
 10
274.319
 20
8.61963
 30
0.0
 11
273.518
 21
8.61963
 31
0.0
  0
LINE
  8
0
 62
     0
 10
273.518
 20
8.61963
 30
0.0
 11
273.518
 21
11.7189
 31
0.0
  0
LINE
  8
0
 62
     0
 10
273.518
 20
11.7189
 30
0.0
 11
274.319
 21
11.7189
 31
0.0
  0
LINE
  8
0
 62
     0
 10
274.319
 20
11.7189
 30
0.0
 11
274.319
 21
17.519
 31
0.0
  0
LINE
  8
0
 62
     0
 10
274.319
 20
17.519
 30
0.0
 11
273.518
 21
17.519
 31
0.0
  0
LINE
  8
0
 62
     0
 10
273.518
 20
17.519
 30
0.0
 11
273.518
 21
20.6196
 31
0.0
  0
LINE
  8
0
 62
     0
 10
273.518
 20
20.6196
 30
0.0
 11
274.319
 21
20.6196
 31
0.0
  0
LINE
  8
0
 62
     0
 10
274.319
 20
20.6196
 30
0.0
 11
274.319
 21
21.6187
 31
0.0
  0
LINE
  8
0
 62
     0
 10
274.319
 20
21.6187
 30
0.0
 11
288.319
 21
21.6187
 31
0.0
  0
LINE
  8
0
 62
     0
 10
288.319
 20
21.6187
 30
0.0
 11
288.319
 21
20.6196
 31
0.0
  0
LINE
  8
0
 62
     0
 10
288.319
 20
20.6196
 30
0.0
 11
289.119
 21
20.6196
 31
0.0
  0
LINE
  8
0
 62
     0
 10
289.119
 20
20.6196
 30
0.0
 11
289.119
 21
17.519
 31
0.0
  0
LINE
  8
0
 62
     0
 10
289.119
 20
17.519
 30
0.0
 11
288.319
 21
17.519
 31
0.0
  0
LINE
  8
0
 62
     0
 10
288.319
 20
17.519
 30
0.0
 11
288.319
 21
11.7189
 31
0.0
  0
LINE
  8
0
 62
     0
 10
288.319
 20
11.7189
 30
0.0
 11
289.119
 21
11.7189
 31
0.0
  0
LINE
  8
0
 62
     0
 10
289.119
 20
11.7189
 30
0.0
 11
289.119
 21
8.61963
 31
0.0
  0
LINE
  8
0
 62
     0
 10
289.119
 20
8.61963
 30
0.0
 11
288.319
 21
8.61963
 31
0.0
  0
LINE
  8
0
 62
     0
 10
288.319
 20
65.7698
 30
0.0
 11
288.319
 21
64.7693
 31
0.0
  0
LINE
  8
0
 62
     0
 10
288.319
 20
64.7693
 30
0.0
 11
274.319
 21
64.7693
 31
0.0
  0
LINE
  8
0
 62
     0
 10
274.319
 20
64.7693
 30
0.0
 11
274.319
 21
65.7698
 31
0.0
  0
LINE
  8
0
 62
     0
 10
274.319
 20
65.7698
 30
0.0
 11
273.518
 21
65.7698
 31
0.0
  0
LINE
  8
0
 62
     0
 10
273.518
 20
65.7698
 30
0.0
 11
273.518
 21
68.8689
 31
0.0
  0
LINE
  8
0
 62
     0
 10
273.518
 20
68.8689
 30
0.0
 11
274.319
 21
68.8689
 31
0.0
  0
LINE
  8
0
 62
     0
 10
274.319
 20
68.8689
 30
0.0
 11
274.319
 21
74.6689
 31
0.0
  0
LINE
  8
0
 62
     0
 10
274.319
 20
74.6689
 30
0.0
 11
273.518
 21
74.6689
 31
0.0
  0
LINE
  8
0
 62
     0
 10
273.518
 20
74.6689
 30
0.0
 11
273.518
 21
77.7695
 31
0.0
  0
LINE
  8
0
 62
     0
 10
273.518
 20
77.7695
 30
0.0
 11
274.319
 21
77.7695
 31
0.0
  0
LINE
  8
0
 62
     0
 10
274.319
 20
77.7695
 30
0.0
 11
274.319
 21
78.7686
 31
0.0
  0
LINE
  8
0
 62
     0
 10
274.319
 20
78.7686
 30
0.0
 11
288.319
 21
78.7686
 31
0.0
  0
LINE
  8
0
 62
     0
 10
288.319
 20
78.7686
 30
0.0
 11
288.319
 21
77.7695
 31
0.0
  0
LINE
  8
0
 62
     0
 10
288.319
 20
77.7695
 30
0.0
 11
289.119
 21
77.7695
 31
0.0
  0
LINE
  8
0
 62
     0
 10
289.119
 20
77.7695
 30
0.0
 11
289.119
 21
74.6689
 31
0.0
  0
LINE
  8
0
 62
     0
 10
289.119
 20
74.6689
 30
0.0
 11
288.319
 21
74.6689
 31
0.0
  0
LINE
  8
0
 62
     0
 10
288.319
 20
74.6689
 30
0.0
 11
288.319
 21
68.8689
 31
0.0
  0
LINE
  8
0
 62
     0
 10
288.319
 20
68.8689
 30
0.0
 11
289.119
 21
68.8689
 31
0.0
  0
LINE
  8
0
 62
     0
 10
289.119
 20
68.8689
 30
0.0
 11
289.119
 21
65.7698
 31
0.0
  0
LINE
  8
0
 62
     0
 10
289.119
 20
65.7698
 30
0.0
 11
288.319
 21
65.7698
 31
0.0
  0
ENDSEC
  0
EOF
