  0
SECTION
  2
HEADER
  9
$ACADVER
  1
AC1009
  9
$EXTMIN
 10
0.0
 20
0.0
 30
0.0
  9
$EXTMAX
 10
1000.0
 20
1000.0
 30
0.0
  9
$FILLMODE
 70
 0
  9
$SPLFRAME
 70
 1
  0
ENDSEC
  0
SECTION
  2
TABLES
  0
TABLE
  2
LAYER
 70
1
  0
LAYER
  2
0
 70
     0
 62
     7
  6
CONTINUOUS
  0
ENDTAB
  0
ENDSEC
  0
SECTION
  2
ENTITIES
  0
LINE
  8
0
 62
     0
 10
0.0937066
 20
99.344
 30
0.0
 11
289.844
 21
99.344
 31
0.0
  0
LINE
  8
0
 62
     0
 10
289.844
 20
99.344
 30
0.0
 11
289.844
 21
0.0937066
 31
0.0
  0
LINE
  8
0
 62
     0
 10
289.844
 20
0.0937066
 30
0.0
 11
0.0937066
 21
0.0937066
 31
0.0
  0
LINE
  8
0
 62
     0
 10
0.0937066
 20
0.0937066
 30
0.0
 11
0.0937066
 21
99.344
 31
0.0
  0
LINE
  8
0
 62
     0
 10
18.6187
 20
81.8197
 30
0.0
 11
18.6187
 21
80.8193
 31
0.0
  0
LINE
  8
0
 62
     0
 10
18.6187
 20
80.8193
 30
0.0
 11
4.6192
 21
80.8193
 31
0.0
  0
LINE
  8
0
 62
     0
 10
4.6192
 20
80.8193
 30
0.0
 11
4.6192
 21
81.8197
 31
0.0
  0
LINE
  8
0
 62
     0
 10
4.6192
 20
81.8197
 30
0.0
 11
3.81854
 21
81.8197
 31
0.0
  0
LINE
  8
0
 62
     0
 10
3.81854
 20
81.8197
 30
0.0
 11
3.81854
 21
84.9189
 31
0.0
  0
LINE
  8
0
 62
     0
 10
3.81854
 20
84.9189
 30
0.0
 11
4.6192
 21
84.9189
 31
0.0
  0
LINE
  8
0
 62
     0
 10
4.6192
 20
84.9189
 30
0.0
 11
4.6192
 21
90.7189
 31
0.0
  0
LINE
  8
0
 62
     0
 10
4.6192
 20
90.7189
 30
0.0
 11
3.81854
 21
90.7189
 31
0.0
  0
LINE
  8
0
 62
     0
 10
3.81854
 20
90.7189
 30
0.0
 11
3.81854
 21
93.8195
 31
0.0
  0
LINE
  8
0
 62
     0
 10
3.81854
 20
93.8195
 30
0.0
 11
4.6192
 21
93.8195
 31
0.0
  0
LINE
  8
0
 62
     0
 10
4.6192
 20
93.8195
 30
0.0
 11
4.6192
 21
94.8186
 31
0.0
  0
LINE
  8
0
 62
     0
 10
4.6192
 20
94.8186
 30
0.0
 11
18.6187
 21
94.8186
 31
0.0
  0
LINE
  8
0
 62
     0
 10
18.6187
 20
94.8186
 30
0.0
 11
18.6187
 21
93.8195
 31
0.0
  0
LINE
  8
0
 62
     0
 10
18.6187
 20
93.8195
 30
0.0
 11
19.4193
 21
93.8195
 31
0.0
  0
LINE
  8
0
 62
     0
 10
19.4193
 20
93.8195
 30
0.0
 11
19.4193
 21
90.7189
 31
0.0
  0
LINE
  8
0
 62
     0
 10
19.4193
 20
90.7189
 30
0.0
 11
18.6187
 21
90.7189
 31
0.0
  0
LINE
  8
0
 62
     0
 10
18.6187
 20
90.7189
 30
0.0
 11
18.6187
 21
84.9189
 31
0.0
  0
LINE
  8
0
 62
     0
 10
18.6187
 20
84.9189
 30
0.0
 11
19.4193
 21
84.9189
 31
0.0
  0
LINE
  8
0
 62
     0
 10
19.4193
 20
84.9189
 30
0.0
 11
19.4193
 21
81.8197
 31
0.0
  0
LINE
  8
0
 62
     0
 10
19.4193
 20
81.8197
 30
0.0
 11
18.6187
 21
81.8197
 31
0.0
  0
LINE
  8
0
 62
     0
 10
18.6187
 20
62.7697
 30
0.0
 11
18.6187
 21
61.7693
 31
0.0
  0
LINE
  8
0
 62
     0
 10
18.6187
 20
61.7693
 30
0.0
 11
4.6192
 21
61.7693
 31
0.0
  0
LINE
  8
0
 62
     0
 10
4.6192
 20
61.7693
 30
0.0
 11
4.6192
 21
62.7697
 31
0.0
  0
LINE
  8
0
 62
     0
 10
4.6192
 20
62.7697
 30
0.0
 11
3.81854
 21
62.7697
 31
0.0
  0
LINE
  8
0
 62
     0
 10
3.81854
 20
62.7697
 30
0.0
 11
3.81854
 21
65.8689
 31
0.0
  0
LINE
  8
0
 62
     0
 10
3.81854
 20
65.8689
 30
0.0
 11
4.6192
 21
65.8689
 31
0.0
  0
LINE
  8
0
 62
     0
 10
4.6192
 20
65.8689
 30
0.0
 11
4.6192
 21
71.6689
 31
0.0
  0
LINE
  8
0
 62
     0
 10
4.6192
 20
71.6689
 30
0.0
 11
3.81854
 21
71.6689
 31
0.0
  0
LINE
  8
0
 62
     0
 10
3.81854
 20
71.6689
 30
0.0
 11
3.81854
 21
74.7695
 31
0.0
  0
LINE
  8
0
 62
     0
 10
3.81854
 20
74.7695
 30
0.0
 11
4.6192
 21
74.7695
 31
0.0
  0
LINE
  8
0
 62
     0
 10
4.6192
 20
74.7695
 30
0.0
 11
4.6192
 21
75.7686
 31
0.0
  0
LINE
  8
0
 62
     0
 10
4.6192
 20
75.7686
 30
0.0
 11
18.6187
 21
75.7686
 31
0.0
  0
LINE
  8
0
 62
     0
 10
18.6187
 20
75.7686
 30
0.0
 11
18.6187
 21
74.7695
 31
0.0
  0
LINE
  8
0
 62
     0
 10
18.6187
 20
74.7695
 30
0.0
 11
19.4193
 21
74.7695
 31
0.0
  0
LINE
  8
0
 62
     0
 10
19.4193
 20
74.7695
 30
0.0
 11
19.4193
 21
71.6689
 31
0.0
  0
LINE
  8
0
 62
     0
 10
19.4193
 20
71.6689
 30
0.0
 11
18.6187
 21
71.6689
 31
0.0
  0
LINE
  8
0
 62
     0
 10
18.6187
 20
71.6689
 30
0.0
 11
18.6187
 21
65.8689
 31
0.0
  0
LINE
  8
0
 62
     0
 10
18.6187
 20
65.8689
 30
0.0
 11
19.4193
 21
65.8689
 31
0.0
  0
LINE
  8
0
 62
     0
 10
19.4193
 20
65.8689
 30
0.0
 11
19.4193
 21
62.7697
 31
0.0
  0
LINE
  8
0
 62
     0
 10
19.4193
 20
62.7697
 30
0.0
 11
18.6187
 21
62.7697
 31
0.0
  0
LINE
  8
0
 62
     0
 10
18.6187
 20
43.7198
 30
0.0
 11
18.6187
 21
42.7193
 31
0.0
  0
LINE
  8
0
 62
     0
 10
18.6187
 20
42.7193
 30
0.0
 11
4.6192
 21
42.7193
 31
0.0
  0
LINE
  8
0
 62
     0
 10
4.6192
 20
42.7193
 30
0.0
 11
4.6192
 21
43.7198
 31
0.0
  0
LINE
  8
0
 62
     0
 10
4.6192
 20
43.7198
 30
0.0
 11
3.81854
 21
43.7198
 31
0.0
  0
LINE
  8
0
 62
     0
 10
3.81854
 20
43.7198
 30
0.0
 11
3.81854
 21
46.8189
 31
0.0
  0
LINE
  8
0
 62
     0
 10
3.81854
 20
46.8189
 30
0.0
 11
4.6192
 21
46.8189
 31
0.0
  0
LINE
  8
0
 62
     0
 10
4.6192
 20
46.8189
 30
0.0
 11
4.6192
 21
52.6189
 31
0.0
  0
LINE
  8
0
 62
     0
 10
4.6192
 20
52.6189
 30
0.0
 11
3.81854
 21
52.6189
 31
0.0
  0
LINE
  8
0
 62
     0
 10
3.81854
 20
52.6189
 30
0.0
 11
3.81854
 21
55.7195
 31
0.0
  0
LINE
  8
0
 62
     0
 10
3.81854
 20
55.7195
 30
0.0
 11
4.6192
 21
55.7195
 31
0.0
  0
LINE
  8
0
 62
     0
 10
4.6192
 20
55.7195
 30
0.0
 11
4.6192
 21
56.7186
 31
0.0
  0
LINE
  8
0
 62
     0
 10
4.6192
 20
56.7186
 30
0.0
 11
18.6187
 21
56.7186
 31
0.0
  0
LINE
  8
0
 62
     0
 10
18.6187
 20
56.7186
 30
0.0
 11
18.6187
 21
55.7195
 31
0.0
  0
LINE
  8
0
 62
     0
 10
18.6187
 20
55.7195
 30
0.0
 11
19.4193
 21
55.7195
 31
0.0
  0
LINE
  8
0
 62
     0
 10
19.4193
 20
55.7195
 30
0.0
 11
19.4193
 21
52.6189
 31
0.0
  0
LINE
  8
0
 62
     0
 10
19.4193
 20
52.6189
 30
0.0
 11
18.6187
 21
52.6189
 31
0.0
  0
LINE
  8
0
 62
     0
 10
18.6187
 20
52.6189
 30
0.0
 11
18.6187
 21
46.8189
 31
0.0
  0
LINE
  8
0
 62
     0
 10
18.6187
 20
46.8189
 30
0.0
 11
19.4193
 21
46.8189
 31
0.0
  0
LINE
  8
0
 62
     0
 10
19.4193
 20
46.8189
 30
0.0
 11
19.4193
 21
43.7198
 31
0.0
  0
LINE
  8
0
 62
     0
 10
19.4193
 20
43.7198
 30
0.0
 11
18.6187
 21
43.7198
 31
0.0
  0
LINE
  8
0
 62
     0
 10
18.6187
 20
24.6696
 30
0.0
 11
18.6187
 21
23.6692
 31
0.0
  0
LINE
  8
0
 62
     0
 10
18.6187
 20
23.6692
 30
0.0
 11
4.6192
 21
23.6692
 31
0.0
  0
LINE
  8
0
 62
     0
 10
4.6192
 20
23.6692
 30
0.0
 11
4.6192
 21
24.6696
 31
0.0
  0
LINE
  8
0
 62
     0
 10
4.6192
 20
24.6696
 30
0.0
 11
3.81854
 21
24.6696
 31
0.0
  0
LINE
  8
0
 62
     0
 10
3.81854
 20
24.6696
 30
0.0
 11
3.81854
 21
27.7688
 31
0.0
  0
LINE
  8
0
 62
     0
 10
3.81854
 20
27.7688
 30
0.0
 11
4.6192
 21
27.7688
 31
0.0
  0
LINE
  8
0
 62
     0
 10
4.6192
 20
27.7688
 30
0.0
 11
4.6192
 21
33.569
 31
0.0
  0
LINE
  8
0
 62
     0
 10
4.6192
 20
33.569
 30
0.0
 11
3.81854
 21
33.569
 31
0.0
  0
LINE
  8
0
 62
     0
 10
3.81854
 20
33.569
 30
0.0
 11
3.81854
 21
36.6695
 31
0.0
  0
LINE
  8
0
 62
     0
 10
3.81854
 20
36.6695
 30
0.0
 11
4.6192
 21
36.6695
 31
0.0
  0
LINE
  8
0
 62
     0
 10
4.6192
 20
36.6695
 30
0.0
 11
4.6192
 21
37.6686
 31
0.0
  0
LINE
  8
0
 62
     0
 10
4.6192
 20
37.6686
 30
0.0
 11
18.6187
 21
37.6686
 31
0.0
  0
LINE
  8
0
 62
     0
 10
18.6187
 20
37.6686
 30
0.0
 11
18.6187
 21
36.6695
 31
0.0
  0
LINE
  8
0
 62
     0
 10
18.6187
 20
36.6695
 30
0.0
 11
19.4193
 21
36.6695
 31
0.0
  0
LINE
  8
0
 62
     0
 10
19.4193
 20
36.6695
 30
0.0
 11
19.4193
 21
33.569
 31
0.0
  0
LINE
  8
0
 62
     0
 10
19.4193
 20
33.569
 30
0.0
 11
18.6187
 21
33.569
 31
0.0
  0
LINE
  8
0
 62
     0
 10
18.6187
 20
33.569
 30
0.0
 11
18.6187
 21
27.7688
 31
0.0
  0
LINE
  8
0
 62
     0
 10
18.6187
 20
27.7688
 30
0.0
 11
19.4193
 21
27.7688
 31
0.0
  0
LINE
  8
0
 62
     0
 10
19.4193
 20
27.7688
 30
0.0
 11
19.4193
 21
24.6696
 31
0.0
  0
LINE
  8
0
 62
     0
 10
19.4193
 20
24.6696
 30
0.0
 11
18.6187
 21
24.6696
 31
0.0
  0
LINE
  8
0
 62
     0
 10
18.6187
 20
5.61964
 30
0.0
 11
18.6187
 21
4.6192
 31
0.0
  0
LINE
  8
0
 62
     0
 10
18.6187
 20
4.6192
 30
0.0
 11
4.6192
 21
4.6192
 31
0.0
  0
LINE
  8
0
 62
     0
 10
4.6192
 20
4.6192
 30
0.0
 11
4.6192
 21
5.61964
 31
0.0
  0
LINE
  8
0
 62
     0
 10
4.6192
 20
5.61964
 30
0.0
 11
3.81854
 21
5.61964
 31
0.0
  0
LINE
  8
0
 62
     0
 10
3.81854
 20
5.61964
 30
0.0
 11
3.81854
 21
8.71883
 31
0.0
  0
LINE
  8
0
 62
     0
 10
3.81854
 20
8.71883
 30
0.0
 11
4.6192
 21
8.71883
 31
0.0
  0
LINE
  8
0
 62
     0
 10
4.6192
 20
8.71883
 30
0.0
 11
4.6192
 21
14.519
 31
0.0
  0
LINE
  8
0
 62
     0
 10
4.6192
 20
14.519
 30
0.0
 11
3.81854
 21
14.519
 31
0.0
  0
LINE
  8
0
 62
     0
 10
3.81854
 20
14.519
 30
0.0
 11
3.81854
 21
17.6196
 31
0.0
  0
LINE
  8
0
 62
     0
 10
3.81854
 20
17.6196
 30
0.0
 11
4.6192
 21
17.6196
 31
0.0
  0
LINE
  8
0
 62
     0
 10
4.6192
 20
17.6196
 30
0.0
 11
4.6192
 21
18.6187
 31
0.0
  0
LINE
  8
0
 62
     0
 10
4.6192
 20
18.6187
 30
0.0
 11
18.6187
 21
18.6187
 31
0.0
  0
LINE
  8
0
 62
     0
 10
18.6187
 20
18.6187
 30
0.0
 11
18.6187
 21
17.6196
 31
0.0
  0
LINE
  8
0
 62
     0
 10
18.6187
 20
17.6196
 30
0.0
 11
19.4193
 21
17.6196
 31
0.0
  0
LINE
  8
0
 62
     0
 10
19.4193
 20
17.6196
 30
0.0
 11
19.4193
 21
14.519
 31
0.0
  0
LINE
  8
0
 62
     0
 10
19.4193
 20
14.519
 30
0.0
 11
18.6187
 21
14.519
 31
0.0
  0
LINE
  8
0
 62
     0
 10
18.6187
 20
14.519
 30
0.0
 11
18.6187
 21
8.71883
 31
0.0
  0
LINE
  8
0
 62
     0
 10
18.6187
 20
8.71883
 30
0.0
 11
19.4193
 21
8.71883
 31
0.0
  0
LINE
  8
0
 62
     0
 10
19.4193
 20
8.71883
 30
0.0
 11
19.4193
 21
5.61964
 31
0.0
  0
LINE
  8
0
 62
     0
 10
19.4193
 20
5.61964
 30
0.0
 11
18.6187
 21
5.61964
 31
0.0
  0
LINE
  8
0
 62
     0
 10
37.6686
 20
81.8197
 30
0.0
 11
37.6686
 21
80.8193
 31
0.0
  0
LINE
  8
0
 62
     0
 10
37.6686
 20
80.8193
 30
0.0
 11
23.6692
 21
80.8193
 31
0.0
  0
LINE
  8
0
 62
     0
 10
23.6692
 20
80.8193
 30
0.0
 11
23.6692
 21
81.8197
 31
0.0
  0
LINE
  8
0
 62
     0
 10
23.6692
 20
81.8197
 30
0.0
 11
22.8685
 21
81.8197
 31
0.0
  0
LINE
  8
0
 62
     0
 10
22.8685
 20
81.8197
 30
0.0
 11
22.8685
 21
84.9189
 31
0.0
  0
LINE
  8
0
 62
     0
 10
22.8685
 20
84.9189
 30
0.0
 11
23.6692
 21
84.9189
 31
0.0
  0
LINE
  8
0
 62
     0
 10
23.6692
 20
84.9189
 30
0.0
 11
23.6692
 21
90.7189
 31
0.0
  0
LINE
  8
0
 62
     0
 10
23.6692
 20
90.7189
 30
0.0
 11
22.8685
 21
90.7189
 31
0.0
  0
LINE
  8
0
 62
     0
 10
22.8685
 20
90.7189
 30
0.0
 11
22.8685
 21
93.8195
 31
0.0
  0
LINE
  8
0
 62
     0
 10
22.8685
 20
93.8195
 30
0.0
 11
23.6692
 21
93.8195
 31
0.0
  0
LINE
  8
0
 62
     0
 10
23.6692
 20
93.8195
 30
0.0
 11
23.6692
 21
94.8186
 31
0.0
  0
LINE
  8
0
 62
     0
 10
23.6692
 20
94.8186
 30
0.0
 11
37.6686
 21
94.8186
 31
0.0
  0
LINE
  8
0
 62
     0
 10
37.6686
 20
94.8186
 30
0.0
 11
37.6686
 21
93.8195
 31
0.0
  0
LINE
  8
0
 62
     0
 10
37.6686
 20
93.8195
 30
0.0
 11
38.4694
 21
93.8195
 31
0.0
  0
LINE
  8
0
 62
     0
 10
38.4694
 20
93.8195
 30
0.0
 11
38.4694
 21
90.7189
 31
0.0
  0
LINE
  8
0
 62
     0
 10
38.4694
 20
90.7189
 30
0.0
 11
37.6686
 21
90.7189
 31
0.0
  0
LINE
  8
0
 62
     0
 10
37.6686
 20
90.7189
 30
0.0
 11
37.6686
 21
84.9189
 31
0.0
  0
LINE
  8
0
 62
     0
 10
37.6686
 20
84.9189
 30
0.0
 11
38.4694
 21
84.9189
 31
0.0
  0
LINE
  8
0
 62
     0
 10
38.4694
 20
84.9189
 30
0.0
 11
38.4694
 21
81.8197
 31
0.0
  0
LINE
  8
0
 62
     0
 10
38.4694
 20
81.8197
 30
0.0
 11
37.6686
 21
81.8197
 31
0.0
  0
LINE
  8
0
 62
     0
 10
37.6686
 20
62.7697
 30
0.0
 11
37.6686
 21
61.7693
 31
0.0
  0
LINE
  8
0
 62
     0
 10
37.6686
 20
61.7693
 30
0.0
 11
23.6692
 21
61.7693
 31
0.0
  0
LINE
  8
0
 62
     0
 10
23.6692
 20
61.7693
 30
0.0
 11
23.6692
 21
62.7697
 31
0.0
  0
LINE
  8
0
 62
     0
 10
23.6692
 20
62.7697
 30
0.0
 11
22.8685
 21
62.7697
 31
0.0
  0
LINE
  8
0
 62
     0
 10
22.8685
 20
62.7697
 30
0.0
 11
22.8685
 21
65.8689
 31
0.0
  0
LINE
  8
0
 62
     0
 10
22.8685
 20
65.8689
 30
0.0
 11
23.6692
 21
65.8689
 31
0.0
  0
LINE
  8
0
 62
     0
 10
23.6692
 20
65.8689
 30
0.0
 11
23.6692
 21
71.6689
 31
0.0
  0
LINE
  8
0
 62
     0
 10
23.6692
 20
71.6689
 30
0.0
 11
22.8685
 21
71.6689
 31
0.0
  0
LINE
  8
0
 62
     0
 10
22.8685
 20
71.6689
 30
0.0
 11
22.8685
 21
74.7695
 31
0.0
  0
LINE
  8
0
 62
     0
 10
22.8685
 20
74.7695
 30
0.0
 11
23.6692
 21
74.7695
 31
0.0
  0
LINE
  8
0
 62
     0
 10
23.6692
 20
74.7695
 30
0.0
 11
23.6692
 21
75.7686
 31
0.0
  0
LINE
  8
0
 62
     0
 10
23.6692
 20
75.7686
 30
0.0
 11
37.6686
 21
75.7686
 31
0.0
  0
LINE
  8
0
 62
     0
 10
37.6686
 20
75.7686
 30
0.0
 11
37.6686
 21
74.7695
 31
0.0
  0
LINE
  8
0
 62
     0
 10
37.6686
 20
74.7695
 30
0.0
 11
38.4694
 21
74.7695
 31
0.0
  0
LINE
  8
0
 62
     0
 10
38.4694
 20
74.7695
 30
0.0
 11
38.4694
 21
71.6689
 31
0.0
  0
LINE
  8
0
 62
     0
 10
38.4694
 20
71.6689
 30
0.0
 11
37.6686
 21
71.6689
 31
0.0
  0
LINE
  8
0
 62
     0
 10
37.6686
 20
71.6689
 30
0.0
 11
37.6686
 21
65.8689
 31
0.0
  0
LINE
  8
0
 62
     0
 10
37.6686
 20
65.8689
 30
0.0
 11
38.4694
 21
65.8689
 31
0.0
  0
LINE
  8
0
 62
     0
 10
38.4694
 20
65.8689
 30
0.0
 11
38.4694
 21
62.7697
 31
0.0
  0
LINE
  8
0
 62
     0
 10
38.4694
 20
62.7697
 30
0.0
 11
37.6686
 21
62.7697
 31
0.0
  0
LINE
  8
0
 62
     0
 10
37.6686
 20
43.7198
 30
0.0
 11
37.6686
 21
42.7193
 31
0.0
  0
LINE
  8
0
 62
     0
 10
37.6686
 20
42.7193
 30
0.0
 11
23.6692
 21
42.7193
 31
0.0
  0
LINE
  8
0
 62
     0
 10
23.6692
 20
42.7193
 30
0.0
 11
23.6692
 21
43.7198
 31
0.0
  0
LINE
  8
0
 62
     0
 10
23.6692
 20
43.7198
 30
0.0
 11
22.8685
 21
43.7198
 31
0.0
  0
LINE
  8
0
 62
     0
 10
22.8685
 20
43.7198
 30
0.0
 11
22.8685
 21
46.8189
 31
0.0
  0
LINE
  8
0
 62
     0
 10
22.8685
 20
46.8189
 30
0.0
 11
23.6692
 21
46.8189
 31
0.0
  0
LINE
  8
0
 62
     0
 10
23.6692
 20
46.8189
 30
0.0
 11
23.6692
 21
52.6189
 31
0.0
  0
LINE
  8
0
 62
     0
 10
23.6692
 20
52.6189
 30
0.0
 11
22.8685
 21
52.6189
 31
0.0
  0
LINE
  8
0
 62
     0
 10
22.8685
 20
52.6189
 30
0.0
 11
22.8685
 21
55.7195
 31
0.0
  0
LINE
  8
0
 62
     0
 10
22.8685
 20
55.7195
 30
0.0
 11
23.6692
 21
55.7195
 31
0.0
  0
LINE
  8
0
 62
     0
 10
23.6692
 20
55.7195
 30
0.0
 11
23.6692
 21
56.7186
 31
0.0
  0
LINE
  8
0
 62
     0
 10
23.6692
 20
56.7186
 30
0.0
 11
37.6686
 21
56.7186
 31
0.0
  0
LINE
  8
0
 62
     0
 10
37.6686
 20
56.7186
 30
0.0
 11
37.6686
 21
55.7195
 31
0.0
  0
LINE
  8
0
 62
     0
 10
37.6686
 20
55.7195
 30
0.0
 11
38.4694
 21
55.7195
 31
0.0
  0
LINE
  8
0
 62
     0
 10
38.4694
 20
55.7195
 30
0.0
 11
38.4694
 21
52.6189
 31
0.0
  0
LINE
  8
0
 62
     0
 10
38.4694
 20
52.6189
 30
0.0
 11
37.6686
 21
52.6189
 31
0.0
  0
LINE
  8
0
 62
     0
 10
37.6686
 20
52.6189
 30
0.0
 11
37.6686
 21
46.8189
 31
0.0
  0
LINE
  8
0
 62
     0
 10
37.6686
 20
46.8189
 30
0.0
 11
38.4694
 21
46.8189
 31
0.0
  0
LINE
  8
0
 62
     0
 10
38.4694
 20
46.8189
 30
0.0
 11
38.4694
 21
43.7198
 31
0.0
  0
LINE
  8
0
 62
     0
 10
38.4694
 20
43.7198
 30
0.0
 11
37.6686
 21
43.7198
 31
0.0
  0
LINE
  8
0
 62
     0
 10
37.6686
 20
24.6696
 30
0.0
 11
37.6686
 21
23.6692
 31
0.0
  0
LINE
  8
0
 62
     0
 10
37.6686
 20
23.6692
 30
0.0
 11
23.6692
 21
23.6692
 31
0.0
  0
LINE
  8
0
 62
     0
 10
23.6692
 20
23.6692
 30
0.0
 11
23.6692
 21
24.6696
 31
0.0
  0
LINE
  8
0
 62
     0
 10
23.6692
 20
24.6696
 30
0.0
 11
22.8685
 21
24.6696
 31
0.0
  0
LINE
  8
0
 62
     0
 10
22.8685
 20
24.6696
 30
0.0
 11
22.8685
 21
27.7688
 31
0.0
  0
LINE
  8
0
 62
     0
 10
22.8685
 20
27.7688
 30
0.0
 11
23.6692
 21
27.7688
 31
0.0
  0
LINE
  8
0
 62
     0
 10
23.6692
 20
27.7688
 30
0.0
 11
23.6692
 21
33.569
 31
0.0
  0
LINE
  8
0
 62
     0
 10
23.6692
 20
33.569
 30
0.0
 11
22.8685
 21
33.569
 31
0.0
  0
LINE
  8
0
 62
     0
 10
22.8685
 20
33.569
 30
0.0
 11
22.8685
 21
36.6695
 31
0.0
  0
LINE
  8
0
 62
     0
 10
22.8685
 20
36.6695
 30
0.0
 11
23.6692
 21
36.6695
 31
0.0
  0
LINE
  8
0
 62
     0
 10
23.6692
 20
36.6695
 30
0.0
 11
23.6692
 21
37.6686
 31
0.0
  0
LINE
  8
0
 62
     0
 10
23.6692
 20
37.6686
 30
0.0
 11
37.6686
 21
37.6686
 31
0.0
  0
LINE
  8
0
 62
     0
 10
37.6686
 20
37.6686
 30
0.0
 11
37.6686
 21
36.6695
 31
0.0
  0
LINE
  8
0
 62
     0
 10
37.6686
 20
36.6695
 30
0.0
 11
38.4694
 21
36.6695
 31
0.0
  0
LINE
  8
0
 62
     0
 10
38.4694
 20
36.6695
 30
0.0
 11
38.4694
 21
33.569
 31
0.0
  0
LINE
  8
0
 62
     0
 10
38.4694
 20
33.569
 30
0.0
 11
37.6686
 21
33.569
 31
0.0
  0
LINE
  8
0
 62
     0
 10
37.6686
 20
33.569
 30
0.0
 11
37.6686
 21
27.7688
 31
0.0
  0
LINE
  8
0
 62
     0
 10
37.6686
 20
27.7688
 30
0.0
 11
38.4694
 21
27.7688
 31
0.0
  0
LINE
  8
0
 62
     0
 10
38.4694
 20
27.7688
 30
0.0
 11
38.4694
 21
24.6696
 31
0.0
  0
LINE
  8
0
 62
     0
 10
38.4694
 20
24.6696
 30
0.0
 11
37.6686
 21
24.6696
 31
0.0
  0
LINE
  8
0
 62
     0
 10
37.6686
 20
5.61964
 30
0.0
 11
37.6686
 21
4.6192
 31
0.0
  0
LINE
  8
0
 62
     0
 10
37.6686
 20
4.6192
 30
0.0
 11
23.6692
 21
4.6192
 31
0.0
  0
LINE
  8
0
 62
     0
 10
23.6692
 20
4.6192
 30
0.0
 11
23.6692
 21
5.61964
 31
0.0
  0
LINE
  8
0
 62
     0
 10
23.6692
 20
5.61964
 30
0.0
 11
22.8685
 21
5.61964
 31
0.0
  0
LINE
  8
0
 62
     0
 10
22.8685
 20
5.61964
 30
0.0
 11
22.8685
 21
8.71883
 31
0.0
  0
LINE
  8
0
 62
     0
 10
22.8685
 20
8.71883
 30
0.0
 11
23.6692
 21
8.71883
 31
0.0
  0
LINE
  8
0
 62
     0
 10
23.6692
 20
8.71883
 30
0.0
 11
23.6692
 21
14.519
 31
0.0
  0
LINE
  8
0
 62
     0
 10
23.6692
 20
14.519
 30
0.0
 11
22.8685
 21
14.519
 31
0.0
  0
LINE
  8
0
 62
     0
 10
22.8685
 20
14.519
 30
0.0
 11
22.8685
 21
17.6196
 31
0.0
  0
LINE
  8
0
 62
     0
 10
22.8685
 20
17.6196
 30
0.0
 11
23.6692
 21
17.6196
 31
0.0
  0
LINE
  8
0
 62
     0
 10
23.6692
 20
17.6196
 30
0.0
 11
23.6692
 21
18.6187
 31
0.0
  0
LINE
  8
0
 62
     0
 10
23.6692
 20
18.6187
 30
0.0
 11
37.6686
 21
18.6187
 31
0.0
  0
LINE
  8
0
 62
     0
 10
37.6686
 20
18.6187
 30
0.0
 11
37.6686
 21
17.6196
 31
0.0
  0
LINE
  8
0
 62
     0
 10
37.6686
 20
17.6196
 30
0.0
 11
38.4694
 21
17.6196
 31
0.0
  0
LINE
  8
0
 62
     0
 10
38.4694
 20
17.6196
 30
0.0
 11
38.4694
 21
14.519
 31
0.0
  0
LINE
  8
0
 62
     0
 10
38.4694
 20
14.519
 30
0.0
 11
37.6686
 21
14.519
 31
0.0
  0
LINE
  8
0
 62
     0
 10
37.6686
 20
14.519
 30
0.0
 11
37.6686
 21
8.71883
 31
0.0
  0
LINE
  8
0
 62
     0
 10
37.6686
 20
8.71883
 30
0.0
 11
38.4694
 21
8.71883
 31
0.0
  0
LINE
  8
0
 62
     0
 10
38.4694
 20
8.71883
 30
0.0
 11
38.4694
 21
5.61964
 31
0.0
  0
LINE
  8
0
 62
     0
 10
38.4694
 20
5.61964
 30
0.0
 11
37.6686
 21
5.61964
 31
0.0
  0
LINE
  8
0
 62
     0
 10
56.7186
 20
81.8197
 30
0.0
 11
56.7186
 21
80.8193
 31
0.0
  0
LINE
  8
0
 62
     0
 10
56.7186
 20
80.8193
 30
0.0
 11
42.7193
 21
80.8193
 31
0.0
  0
LINE
  8
0
 62
     0
 10
42.7193
 20
80.8193
 30
0.0
 11
42.7193
 21
81.8197
 31
0.0
  0
LINE
  8
0
 62
     0
 10
42.7193
 20
81.8197
 30
0.0
 11
41.9185
 21
81.8197
 31
0.0
  0
LINE
  8
0
 62
     0
 10
41.9185
 20
81.8197
 30
0.0
 11
41.9185
 21
84.9189
 31
0.0
  0
LINE
  8
0
 62
     0
 10
41.9185
 20
84.9189
 30
0.0
 11
42.7193
 21
84.9189
 31
0.0
  0
LINE
  8
0
 62
     0
 10
42.7193
 20
84.9189
 30
0.0
 11
42.7193
 21
90.7189
 31
0.0
  0
LINE
  8
0
 62
     0
 10
42.7193
 20
90.7189
 30
0.0
 11
41.9185
 21
90.7189
 31
0.0
  0
LINE
  8
0
 62
     0
 10
41.9185
 20
90.7189
 30
0.0
 11
41.9185
 21
93.8195
 31
0.0
  0
LINE
  8
0
 62
     0
 10
41.9185
 20
93.8195
 30
0.0
 11
42.7193
 21
93.8195
 31
0.0
  0
LINE
  8
0
 62
     0
 10
42.7193
 20
93.8195
 30
0.0
 11
42.7193
 21
94.8186
 31
0.0
  0
LINE
  8
0
 62
     0
 10
42.7193
 20
94.8186
 30
0.0
 11
56.7186
 21
94.8186
 31
0.0
  0
LINE
  8
0
 62
     0
 10
56.7186
 20
94.8186
 30
0.0
 11
56.7186
 21
93.8195
 31
0.0
  0
LINE
  8
0
 62
     0
 10
56.7186
 20
93.8195
 30
0.0
 11
57.5194
 21
93.8195
 31
0.0
  0
LINE
  8
0
 62
     0
 10
57.5194
 20
93.8195
 30
0.0
 11
57.5194
 21
90.7189
 31
0.0
  0
LINE
  8
0
 62
     0
 10
57.5194
 20
90.7189
 30
0.0
 11
56.7186
 21
90.7189
 31
0.0
  0
LINE
  8
0
 62
     0
 10
56.7186
 20
90.7189
 30
0.0
 11
56.7186
 21
84.9189
 31
0.0
  0
LINE
  8
0
 62
     0
 10
56.7186
 20
84.9189
 30
0.0
 11
57.5194
 21
84.9189
 31
0.0
  0
LINE
  8
0
 62
     0
 10
57.5194
 20
84.9189
 30
0.0
 11
57.5194
 21
81.8197
 31
0.0
  0
LINE
  8
0
 62
     0
 10
57.5194
 20
81.8197
 30
0.0
 11
56.7186
 21
81.8197
 31
0.0
  0
LINE
  8
0
 62
     0
 10
56.7186
 20
62.7697
 30
0.0
 11
56.7186
 21
61.7693
 31
0.0
  0
LINE
  8
0
 62
     0
 10
56.7186
 20
61.7693
 30
0.0
 11
42.7193
 21
61.7693
 31
0.0
  0
LINE
  8
0
 62
     0
 10
42.7193
 20
61.7693
 30
0.0
 11
42.7193
 21
62.7697
 31
0.0
  0
LINE
  8
0
 62
     0
 10
42.7193
 20
62.7697
 30
0.0
 11
41.9185
 21
62.7697
 31
0.0
  0
LINE
  8
0
 62
     0
 10
41.9185
 20
62.7697
 30
0.0
 11
41.9185
 21
65.8689
 31
0.0
  0
LINE
  8
0
 62
     0
 10
41.9185
 20
65.8689
 30
0.0
 11
42.7193
 21
65.8689
 31
0.0
  0
LINE
  8
0
 62
     0
 10
42.7193
 20
65.8689
 30
0.0
 11
42.7193
 21
71.6689
 31
0.0
  0
LINE
  8
0
 62
     0
 10
42.7193
 20
71.6689
 30
0.0
 11
41.9185
 21
71.6689
 31
0.0
  0
LINE
  8
0
 62
     0
 10
41.9185
 20
71.6689
 30
0.0
 11
41.9185
 21
74.7695
 31
0.0
  0
LINE
  8
0
 62
     0
 10
41.9185
 20
74.7695
 30
0.0
 11
42.7193
 21
74.7695
 31
0.0
  0
LINE
  8
0
 62
     0
 10
42.7193
 20
74.7695
 30
0.0
 11
42.7193
 21
75.7686
 31
0.0
  0
LINE
  8
0
 62
     0
 10
42.7193
 20
75.7686
 30
0.0
 11
56.7186
 21
75.7686
 31
0.0
  0
LINE
  8
0
 62
     0
 10
56.7186
 20
75.7686
 30
0.0
 11
56.7186
 21
74.7695
 31
0.0
  0
LINE
  8
0
 62
     0
 10
56.7186
 20
74.7695
 30
0.0
 11
57.5194
 21
74.7695
 31
0.0
  0
LINE
  8
0
 62
     0
 10
57.5194
 20
74.7695
 30
0.0
 11
57.5194
 21
71.6689
 31
0.0
  0
LINE
  8
0
 62
     0
 10
57.5194
 20
71.6689
 30
0.0
 11
56.7186
 21
71.6689
 31
0.0
  0
LINE
  8
0
 62
     0
 10
56.7186
 20
71.6689
 30
0.0
 11
56.7186
 21
65.8689
 31
0.0
  0
LINE
  8
0
 62
     0
 10
56.7186
 20
65.8689
 30
0.0
 11
57.5194
 21
65.8689
 31
0.0
  0
LINE
  8
0
 62
     0
 10
57.5194
 20
65.8689
 30
0.0
 11
57.5194
 21
62.7697
 31
0.0
  0
LINE
  8
0
 62
     0
 10
57.5194
 20
62.7697
 30
0.0
 11
56.7186
 21
62.7697
 31
0.0
  0
LINE
  8
0
 62
     0
 10
56.7186
 20
43.7198
 30
0.0
 11
56.7186
 21
42.7193
 31
0.0
  0
LINE
  8
0
 62
     0
 10
56.7186
 20
42.7193
 30
0.0
 11
42.7193
 21
42.7193
 31
0.0
  0
LINE
  8
0
 62
     0
 10
42.7193
 20
42.7193
 30
0.0
 11
42.7193
 21
43.7198
 31
0.0
  0
LINE
  8
0
 62
     0
 10
42.7193
 20
43.7198
 30
0.0
 11
41.9185
 21
43.7198
 31
0.0
  0
LINE
  8
0
 62
     0
 10
41.9185
 20
43.7198
 30
0.0
 11
41.9185
 21
46.8189
 31
0.0
  0
LINE
  8
0
 62
     0
 10
41.9185
 20
46.8189
 30
0.0
 11
42.7193
 21
46.8189
 31
0.0
  0
LINE
  8
0
 62
     0
 10
42.7193
 20
46.8189
 30
0.0
 11
42.7193
 21
52.6189
 31
0.0
  0
LINE
  8
0
 62
     0
 10
42.7193
 20
52.6189
 30
0.0
 11
41.9185
 21
52.6189
 31
0.0
  0
LINE
  8
0
 62
     0
 10
41.9185
 20
52.6189
 30
0.0
 11
41.9185
 21
55.7195
 31
0.0
  0
LINE
  8
0
 62
     0
 10
41.9185
 20
55.7195
 30
0.0
 11
42.7193
 21
55.7195
 31
0.0
  0
LINE
  8
0
 62
     0
 10
42.7193
 20
55.7195
 30
0.0
 11
42.7193
 21
56.7186
 31
0.0
  0
LINE
  8
0
 62
     0
 10
42.7193
 20
56.7186
 30
0.0
 11
56.7186
 21
56.7186
 31
0.0
  0
LINE
  8
0
 62
     0
 10
56.7186
 20
56.7186
 30
0.0
 11
56.7186
 21
55.7195
 31
0.0
  0
LINE
  8
0
 62
     0
 10
56.7186
 20
55.7195
 30
0.0
 11
57.5194
 21
55.7195
 31
0.0
  0
LINE
  8
0
 62
     0
 10
57.5194
 20
55.7195
 30
0.0
 11
57.5194
 21
52.6189
 31
0.0
  0
LINE
  8
0
 62
     0
 10
57.5194
 20
52.6189
 30
0.0
 11
56.7186
 21
52.6189
 31
0.0
  0
LINE
  8
0
 62
     0
 10
56.7186
 20
52.6189
 30
0.0
 11
56.7186
 21
46.8189
 31
0.0
  0
LINE
  8
0
 62
     0
 10
56.7186
 20
46.8189
 30
0.0
 11
57.5194
 21
46.8189
 31
0.0
  0
LINE
  8
0
 62
     0
 10
57.5194
 20
46.8189
 30
0.0
 11
57.5194
 21
43.7198
 31
0.0
  0
LINE
  8
0
 62
     0
 10
57.5194
 20
43.7198
 30
0.0
 11
56.7186
 21
43.7198
 31
0.0
  0
LINE
  8
0
 62
     0
 10
56.7186
 20
24.6696
 30
0.0
 11
56.7186
 21
23.6692
 31
0.0
  0
LINE
  8
0
 62
     0
 10
56.7186
 20
23.6692
 30
0.0
 11
42.7193
 21
23.6692
 31
0.0
  0
LINE
  8
0
 62
     0
 10
42.7193
 20
23.6692
 30
0.0
 11
42.7193
 21
24.6696
 31
0.0
  0
LINE
  8
0
 62
     0
 10
42.7193
 20
24.6696
 30
0.0
 11
41.9185
 21
24.6696
 31
0.0
  0
LINE
  8
0
 62
     0
 10
41.9185
 20
24.6696
 30
0.0
 11
41.9185
 21
27.7688
 31
0.0
  0
LINE
  8
0
 62
     0
 10
41.9185
 20
27.7688
 30
0.0
 11
42.7193
 21
27.7688
 31
0.0
  0
LINE
  8
0
 62
     0
 10
42.7193
 20
27.7688
 30
0.0
 11
42.7193
 21
33.569
 31
0.0
  0
LINE
  8
0
 62
     0
 10
42.7193
 20
33.569
 30
0.0
 11
41.9185
 21
33.569
 31
0.0
  0
LINE
  8
0
 62
     0
 10
41.9185
 20
33.569
 30
0.0
 11
41.9185
 21
36.6695
 31
0.0
  0
LINE
  8
0
 62
     0
 10
41.9185
 20
36.6695
 30
0.0
 11
42.7193
 21
36.6695
 31
0.0
  0
LINE
  8
0
 62
     0
 10
42.7193
 20
36.6695
 30
0.0
 11
42.7193
 21
37.6686
 31
0.0
  0
LINE
  8
0
 62
     0
 10
42.7193
 20
37.6686
 30
0.0
 11
56.7186
 21
37.6686
 31
0.0
  0
LINE
  8
0
 62
     0
 10
56.7186
 20
37.6686
 30
0.0
 11
56.7186
 21
36.6695
 31
0.0
  0
LINE
  8
0
 62
     0
 10
56.7186
 20
36.6695
 30
0.0
 11
57.5194
 21
36.6695
 31
0.0
  0
LINE
  8
0
 62
     0
 10
57.5194
 20
36.6695
 30
0.0
 11
57.5194
 21
33.569
 31
0.0
  0
LINE
  8
0
 62
     0
 10
57.5194
 20
33.569
 30
0.0
 11
56.7186
 21
33.569
 31
0.0
  0
LINE
  8
0
 62
     0
 10
56.7186
 20
33.569
 30
0.0
 11
56.7186
 21
27.7688
 31
0.0
  0
LINE
  8
0
 62
     0
 10
56.7186
 20
27.7688
 30
0.0
 11
57.5194
 21
27.7688
 31
0.0
  0
LINE
  8
0
 62
     0
 10
57.5194
 20
27.7688
 30
0.0
 11
57.5194
 21
24.6696
 31
0.0
  0
LINE
  8
0
 62
     0
 10
57.5194
 20
24.6696
 30
0.0
 11
56.7186
 21
24.6696
 31
0.0
  0
LINE
  8
0
 62
     0
 10
61.4811
 20
5.61964
 30
0.0
 11
61.4811
 21
4.6192
 31
0.0
  0
LINE
  8
0
 62
     0
 10
61.4811
 20
4.6192
 30
0.0
 11
47.4818
 21
4.6192
 31
0.0
  0
LINE
  8
0
 62
     0
 10
47.4818
 20
4.6192
 30
0.0
 11
47.4818
 21
5.61964
 31
0.0
  0
LINE
  8
0
 62
     0
 10
47.4818
 20
5.61964
 30
0.0
 11
46.6824
 21
5.61964
 31
0.0
  0
LINE
  8
0
 62
     0
 10
46.6824
 20
5.61964
 30
0.0
 11
46.6824
 21
8.71883
 31
0.0
  0
LINE
  8
0
 62
     0
 10
46.6824
 20
8.71883
 30
0.0
 11
47.4818
 21
8.71883
 31
0.0
  0
LINE
  8
0
 62
     0
 10
47.4818
 20
8.71883
 30
0.0
 11
47.4818
 21
14.519
 31
0.0
  0
LINE
  8
0
 62
     0
 10
47.4818
 20
14.519
 30
0.0
 11
46.6824
 21
14.519
 31
0.0
  0
LINE
  8
0
 62
     0
 10
46.6824
 20
14.519
 30
0.0
 11
46.6824
 21
17.6196
 31
0.0
  0
LINE
  8
0
 62
     0
 10
46.6824
 20
17.6196
 30
0.0
 11
47.4818
 21
17.6196
 31
0.0
  0
LINE
  8
0
 62
     0
 10
47.4818
 20
17.6196
 30
0.0
 11
47.4818
 21
18.6187
 31
0.0
  0
LINE
  8
0
 62
     0
 10
47.4818
 20
18.6187
 30
0.0
 11
61.4811
 21
18.6187
 31
0.0
  0
LINE
  8
0
 62
     0
 10
61.4811
 20
18.6187
 30
0.0
 11
61.4811
 21
17.6196
 31
0.0
  0
LINE
  8
0
 62
     0
 10
61.4811
 20
17.6196
 30
0.0
 11
62.2819
 21
17.6196
 31
0.0
  0
LINE
  8
0
 62
     0
 10
62.2819
 20
17.6196
 30
0.0
 11
62.2819
 21
14.519
 31
0.0
  0
LINE
  8
0
 62
     0
 10
62.2819
 20
14.519
 30
0.0
 11
61.4811
 21
14.519
 31
0.0
  0
LINE
  8
0
 62
     0
 10
61.4811
 20
14.519
 30
0.0
 11
61.4811
 21
8.71883
 31
0.0
  0
LINE
  8
0
 62
     0
 10
61.4811
 20
8.71883
 30
0.0
 11
62.2819
 21
8.71883
 31
0.0
  0
LINE
  8
0
 62
     0
 10
62.2819
 20
8.71883
 30
0.0
 11
62.2819
 21
5.61964
 31
0.0
  0
LINE
  8
0
 62
     0
 10
62.2819
 20
5.61964
 30
0.0
 11
61.4811
 21
5.61964
 31
0.0
  0
LINE
  8
0
 62
     0
 10
75.7686
 20
81.8197
 30
0.0
 11
75.7686
 21
80.8193
 31
0.0
  0
LINE
  8
0
 62
     0
 10
75.7686
 20
80.8193
 30
0.0
 11
61.7693
 21
80.8193
 31
0.0
  0
LINE
  8
0
 62
     0
 10
61.7693
 20
80.8193
 30
0.0
 11
61.7693
 21
81.8197
 31
0.0
  0
LINE
  8
0
 62
     0
 10
61.7693
 20
81.8197
 30
0.0
 11
60.9685
 21
81.8197
 31
0.0
  0
LINE
  8
0
 62
     0
 10
60.9685
 20
81.8197
 30
0.0
 11
60.9685
 21
84.9189
 31
0.0
  0
LINE
  8
0
 62
     0
 10
60.9685
 20
84.9189
 30
0.0
 11
61.7693
 21
84.9189
 31
0.0
  0
LINE
  8
0
 62
     0
 10
61.7693
 20
84.9189
 30
0.0
 11
61.7693
 21
90.7189
 31
0.0
  0
LINE
  8
0
 62
     0
 10
61.7693
 20
90.7189
 30
0.0
 11
60.9685
 21
90.7189
 31
0.0
  0
LINE
  8
0
 62
     0
 10
60.9685
 20
90.7189
 30
0.0
 11
60.9685
 21
93.8195
 31
0.0
  0
LINE
  8
0
 62
     0
 10
60.9685
 20
93.8195
 30
0.0
 11
61.7693
 21
93.8195
 31
0.0
  0
LINE
  8
0
 62
     0
 10
61.7693
 20
93.8195
 30
0.0
 11
61.7693
 21
94.8186
 31
0.0
  0
LINE
  8
0
 62
     0
 10
61.7693
 20
94.8186
 30
0.0
 11
75.7686
 21
94.8186
 31
0.0
  0
LINE
  8
0
 62
     0
 10
75.7686
 20
94.8186
 30
0.0
 11
75.7686
 21
93.8195
 31
0.0
  0
LINE
  8
0
 62
     0
 10
75.7686
 20
93.8195
 30
0.0
 11
76.5694
 21
93.8195
 31
0.0
  0
LINE
  8
0
 62
     0
 10
76.5694
 20
93.8195
 30
0.0
 11
76.5694
 21
90.7189
 31
0.0
  0
LINE
  8
0
 62
     0
 10
76.5694
 20
90.7189
 30
0.0
 11
75.7686
 21
90.7189
 31
0.0
  0
LINE
  8
0
 62
     0
 10
75.7686
 20
90.7189
 30
0.0
 11
75.7686
 21
84.9189
 31
0.0
  0
LINE
  8
0
 62
     0
 10
75.7686
 20
84.9189
 30
0.0
 11
76.5694
 21
84.9189
 31
0.0
  0
LINE
  8
0
 62
     0
 10
76.5694
 20
84.9189
 30
0.0
 11
76.5694
 21
81.8197
 31
0.0
  0
LINE
  8
0
 62
     0
 10
76.5694
 20
81.8197
 30
0.0
 11
75.7686
 21
81.8197
 31
0.0
  0
LINE
  8
0
 62
     0
 10
75.7686
 20
62.7697
 30
0.0
 11
75.7686
 21
61.7693
 31
0.0
  0
LINE
  8
0
 62
     0
 10
75.7686
 20
61.7693
 30
0.0
 11
61.7693
 21
61.7693
 31
0.0
  0
LINE
  8
0
 62
     0
 10
61.7693
 20
61.7693
 30
0.0
 11
61.7693
 21
62.7697
 31
0.0
  0
LINE
  8
0
 62
     0
 10
61.7693
 20
62.7697
 30
0.0
 11
60.9685
 21
62.7697
 31
0.0
  0
LINE
  8
0
 62
     0
 10
60.9685
 20
62.7697
 30
0.0
 11
60.9685
 21
65.8689
 31
0.0
  0
LINE
  8
0
 62
     0
 10
60.9685
 20
65.8689
 30
0.0
 11
61.7693
 21
65.8689
 31
0.0
  0
LINE
  8
0
 62
     0
 10
61.7693
 20
65.8689
 30
0.0
 11
61.7693
 21
71.6689
 31
0.0
  0
LINE
  8
0
 62
     0
 10
61.7693
 20
71.6689
 30
0.0
 11
60.9685
 21
71.6689
 31
0.0
  0
LINE
  8
0
 62
     0
 10
60.9685
 20
71.6689
 30
0.0
 11
60.9685
 21
74.7695
 31
0.0
  0
LINE
  8
0
 62
     0
 10
60.9685
 20
74.7695
 30
0.0
 11
61.7693
 21
74.7695
 31
0.0
  0
LINE
  8
0
 62
     0
 10
61.7693
 20
74.7695
 30
0.0
 11
61.7693
 21
75.7686
 31
0.0
  0
LINE
  8
0
 62
     0
 10
61.7693
 20
75.7686
 30
0.0
 11
75.7686
 21
75.7686
 31
0.0
  0
LINE
  8
0
 62
     0
 10
75.7686
 20
75.7686
 30
0.0
 11
75.7686
 21
74.7695
 31
0.0
  0
LINE
  8
0
 62
     0
 10
75.7686
 20
74.7695
 30
0.0
 11
76.5694
 21
74.7695
 31
0.0
  0
LINE
  8
0
 62
     0
 10
76.5694
 20
74.7695
 30
0.0
 11
76.5694
 21
71.6689
 31
0.0
  0
LINE
  8
0
 62
     0
 10
76.5694
 20
71.6689
 30
0.0
 11
75.7686
 21
71.6689
 31
0.0
  0
LINE
  8
0
 62
     0
 10
75.7686
 20
71.6689
 30
0.0
 11
75.7686
 21
65.8689
 31
0.0
  0
LINE
  8
0
 62
     0
 10
75.7686
 20
65.8689
 30
0.0
 11
76.5694
 21
65.8689
 31
0.0
  0
LINE
  8
0
 62
     0
 10
76.5694
 20
65.8689
 30
0.0
 11
76.5694
 21
62.7697
 31
0.0
  0
LINE
  8
0
 62
     0
 10
76.5694
 20
62.7697
 30
0.0
 11
75.7686
 21
62.7697
 31
0.0
  0
LINE
  8
0
 62
     0
 10
75.7686
 20
43.7198
 30
0.0
 11
75.7686
 21
42.7193
 31
0.0
  0
LINE
  8
0
 62
     0
 10
75.7686
 20
42.7193
 30
0.0
 11
61.7693
 21
42.7193
 31
0.0
  0
LINE
  8
0
 62
     0
 10
61.7693
 20
42.7193
 30
0.0
 11
61.7693
 21
43.7198
 31
0.0
  0
LINE
  8
0
 62
     0
 10
61.7693
 20
43.7198
 30
0.0
 11
60.9685
 21
43.7198
 31
0.0
  0
LINE
  8
0
 62
     0
 10
60.9685
 20
43.7198
 30
0.0
 11
60.9685
 21
46.8189
 31
0.0
  0
LINE
  8
0
 62
     0
 10
60.9685
 20
46.8189
 30
0.0
 11
61.7693
 21
46.8189
 31
0.0
  0
LINE
  8
0
 62
     0
 10
61.7693
 20
46.8189
 30
0.0
 11
61.7693
 21
52.6189
 31
0.0
  0
LINE
  8
0
 62
     0
 10
61.7693
 20
52.6189
 30
0.0
 11
60.9685
 21
52.6189
 31
0.0
  0
LINE
  8
0
 62
     0
 10
60.9685
 20
52.6189
 30
0.0
 11
60.9685
 21
55.7195
 31
0.0
  0
LINE
  8
0
 62
     0
 10
60.9685
 20
55.7195
 30
0.0
 11
61.7693
 21
55.7195
 31
0.0
  0
LINE
  8
0
 62
     0
 10
61.7693
 20
55.7195
 30
0.0
 11
61.7693
 21
56.7186
 31
0.0
  0
LINE
  8
0
 62
     0
 10
61.7693
 20
56.7186
 30
0.0
 11
75.7686
 21
56.7186
 31
0.0
  0
LINE
  8
0
 62
     0
 10
75.7686
 20
56.7186
 30
0.0
 11
75.7686
 21
55.7195
 31
0.0
  0
LINE
  8
0
 62
     0
 10
75.7686
 20
55.7195
 30
0.0
 11
76.5694
 21
55.7195
 31
0.0
  0
LINE
  8
0
 62
     0
 10
76.5694
 20
55.7195
 30
0.0
 11
76.5694
 21
52.6189
 31
0.0
  0
LINE
  8
0
 62
     0
 10
76.5694
 20
52.6189
 30
0.0
 11
75.7686
 21
52.6189
 31
0.0
  0
LINE
  8
0
 62
     0
 10
75.7686
 20
52.6189
 30
0.0
 11
75.7686
 21
46.8189
 31
0.0
  0
LINE
  8
0
 62
     0
 10
75.7686
 20
46.8189
 30
0.0
 11
76.5694
 21
46.8189
 31
0.0
  0
LINE
  8
0
 62
     0
 10
76.5694
 20
46.8189
 30
0.0
 11
76.5694
 21
43.7198
 31
0.0
  0
LINE
  8
0
 62
     0
 10
76.5694
 20
43.7198
 30
0.0
 11
75.7686
 21
43.7198
 31
0.0
  0
LINE
  8
0
 62
     0
 10
75.7686
 20
24.6696
 30
0.0
 11
75.7686
 21
23.6692
 31
0.0
  0
LINE
  8
0
 62
     0
 10
75.7686
 20
23.6692
 30
0.0
 11
61.7693
 21
23.6692
 31
0.0
  0
LINE
  8
0
 62
     0
 10
61.7693
 20
23.6692
 30
0.0
 11
61.7693
 21
24.6696
 31
0.0
  0
LINE
  8
0
 62
     0
 10
61.7693
 20
24.6696
 30
0.0
 11
60.9685
 21
24.6696
 31
0.0
  0
LINE
  8
0
 62
     0
 10
60.9685
 20
24.6696
 30
0.0
 11
60.9685
 21
27.7688
 31
0.0
  0
LINE
  8
0
 62
     0
 10
60.9685
 20
27.7688
 30
0.0
 11
61.7693
 21
27.7688
 31
0.0
  0
LINE
  8
0
 62
     0
 10
61.7693
 20
27.7688
 30
0.0
 11
61.7693
 21
33.569
 31
0.0
  0
LINE
  8
0
 62
     0
 10
61.7693
 20
33.569
 30
0.0
 11
60.9685
 21
33.569
 31
0.0
  0
LINE
  8
0
 62
     0
 10
60.9685
 20
33.569
 30
0.0
 11
60.9685
 21
36.6695
 31
0.0
  0
LINE
  8
0
 62
     0
 10
60.9685
 20
36.6695
 30
0.0
 11
61.7693
 21
36.6695
 31
0.0
  0
LINE
  8
0
 62
     0
 10
61.7693
 20
36.6695
 30
0.0
 11
61.7693
 21
37.6686
 31
0.0
  0
LINE
  8
0
 62
     0
 10
61.7693
 20
37.6686
 30
0.0
 11
75.7686
 21
37.6686
 31
0.0
  0
LINE
  8
0
 62
     0
 10
75.7686
 20
37.6686
 30
0.0
 11
75.7686
 21
36.6695
 31
0.0
  0
LINE
  8
0
 62
     0
 10
75.7686
 20
36.6695
 30
0.0
 11
76.5694
 21
36.6695
 31
0.0
  0
LINE
  8
0
 62
     0
 10
76.5694
 20
36.6695
 30
0.0
 11
76.5694
 21
33.569
 31
0.0
  0
LINE
  8
0
 62
     0
 10
76.5694
 20
33.569
 30
0.0
 11
75.7686
 21
33.569
 31
0.0
  0
LINE
  8
0
 62
     0
 10
75.7686
 20
33.569
 30
0.0
 11
75.7686
 21
27.7688
 31
0.0
  0
LINE
  8
0
 62
     0
 10
75.7686
 20
27.7688
 30
0.0
 11
76.5694
 21
27.7688
 31
0.0
  0
LINE
  8
0
 62
     0
 10
76.5694
 20
27.7688
 30
0.0
 11
76.5694
 21
24.6696
 31
0.0
  0
LINE
  8
0
 62
     0
 10
76.5694
 20
24.6696
 30
0.0
 11
75.7686
 21
24.6696
 31
0.0
  0
LINE
  8
0
 62
     0
 10
94.8186
 20
81.8197
 30
0.0
 11
94.8186
 21
80.8193
 31
0.0
  0
LINE
  8
0
 62
     0
 10
94.8186
 20
80.8193
 30
0.0
 11
80.8193
 21
80.8193
 31
0.0
  0
LINE
  8
0
 62
     0
 10
80.8193
 20
80.8193
 30
0.0
 11
80.8193
 21
81.8197
 31
0.0
  0
LINE
  8
0
 62
     0
 10
80.8193
 20
81.8197
 30
0.0
 11
80.0185
 21
81.8197
 31
0.0
  0
LINE
  8
0
 62
     0
 10
80.0185
 20
81.8197
 30
0.0
 11
80.0185
 21
84.9189
 31
0.0
  0
LINE
  8
0
 62
     0
 10
80.0185
 20
84.9189
 30
0.0
 11
80.8193
 21
84.9189
 31
0.0
  0
LINE
  8
0
 62
     0
 10
80.8193
 20
84.9189
 30
0.0
 11
80.8193
 21
90.7189
 31
0.0
  0
LINE
  8
0
 62
     0
 10
80.8193
 20
90.7189
 30
0.0
 11
80.0185
 21
90.7189
 31
0.0
  0
LINE
  8
0
 62
     0
 10
80.0185
 20
90.7189
 30
0.0
 11
80.0185
 21
93.8195
 31
0.0
  0
LINE
  8
0
 62
     0
 10
80.0185
 20
93.8195
 30
0.0
 11
80.8193
 21
93.8195
 31
0.0
  0
LINE
  8
0
 62
     0
 10
80.8193
 20
93.8195
 30
0.0
 11
80.8193
 21
94.8186
 31
0.0
  0
LINE
  8
0
 62
     0
 10
80.8193
 20
94.8186
 30
0.0
 11
94.8186
 21
94.8186
 31
0.0
  0
LINE
  8
0
 62
     0
 10
94.8186
 20
94.8186
 30
0.0
 11
94.8186
 21
93.8195
 31
0.0
  0
LINE
  8
0
 62
     0
 10
94.8186
 20
93.8195
 30
0.0
 11
95.6194
 21
93.8195
 31
0.0
  0
LINE
  8
0
 62
     0
 10
95.6194
 20
93.8195
 30
0.0
 11
95.6194
 21
90.7189
 31
0.0
  0
LINE
  8
0
 62
     0
 10
95.6194
 20
90.7189
 30
0.0
 11
94.8186
 21
90.7189
 31
0.0
  0
LINE
  8
0
 62
     0
 10
94.8186
 20
90.7189
 30
0.0
 11
94.8186
 21
84.9189
 31
0.0
  0
LINE
  8
0
 62
     0
 10
94.8186
 20
84.9189
 30
0.0
 11
95.6194
 21
84.9189
 31
0.0
  0
LINE
  8
0
 62
     0
 10
95.6194
 20
84.9189
 30
0.0
 11
95.6194
 21
81.8197
 31
0.0
  0
LINE
  8
0
 62
     0
 10
95.6194
 20
81.8197
 30
0.0
 11
94.8186
 21
81.8197
 31
0.0
  0
LINE
  8
0
 62
     0
 10
94.8186
 20
62.7697
 30
0.0
 11
94.8186
 21
61.7693
 31
0.0
  0
LINE
  8
0
 62
     0
 10
94.8186
 20
61.7693
 30
0.0
 11
80.8193
 21
61.7693
 31
0.0
  0
LINE
  8
0
 62
     0
 10
80.8193
 20
61.7693
 30
0.0
 11
80.8193
 21
62.7697
 31
0.0
  0
LINE
  8
0
 62
     0
 10
80.8193
 20
62.7697
 30
0.0
 11
80.0185
 21
62.7697
 31
0.0
  0
LINE
  8
0
 62
     0
 10
80.0185
 20
62.7697
 30
0.0
 11
80.0185
 21
65.8689
 31
0.0
  0
LINE
  8
0
 62
     0
 10
80.0185
 20
65.8689
 30
0.0
 11
80.8193
 21
65.8689
 31
0.0
  0
LINE
  8
0
 62
     0
 10
80.8193
 20
65.8689
 30
0.0
 11
80.8193
 21
71.6689
 31
0.0
  0
LINE
  8
0
 62
     0
 10
80.8193
 20
71.6689
 30
0.0
 11
80.0185
 21
71.6689
 31
0.0
  0
LINE
  8
0
 62
     0
 10
80.0185
 20
71.6689
 30
0.0
 11
80.0185
 21
74.7695
 31
0.0
  0
LINE
  8
0
 62
     0
 10
80.0185
 20
74.7695
 30
0.0
 11
80.8193
 21
74.7695
 31
0.0
  0
LINE
  8
0
 62
     0
 10
80.8193
 20
74.7695
 30
0.0
 11
80.8193
 21
75.7686
 31
0.0
  0
LINE
  8
0
 62
     0
 10
80.8193
 20
75.7686
 30
0.0
 11
94.8186
 21
75.7686
 31
0.0
  0
LINE
  8
0
 62
     0
 10
94.8186
 20
75.7686
 30
0.0
 11
94.8186
 21
74.7695
 31
0.0
  0
LINE
  8
0
 62
     0
 10
94.8186
 20
74.7695
 30
0.0
 11
95.6194
 21
74.7695
 31
0.0
  0
LINE
  8
0
 62
     0
 10
95.6194
 20
74.7695
 30
0.0
 11
95.6194
 21
71.6689
 31
0.0
  0
LINE
  8
0
 62
     0
 10
95.6194
 20
71.6689
 30
0.0
 11
94.8186
 21
71.6689
 31
0.0
  0
LINE
  8
0
 62
     0
 10
94.8186
 20
71.6689
 30
0.0
 11
94.8186
 21
65.8689
 31
0.0
  0
LINE
  8
0
 62
     0
 10
94.8186
 20
65.8689
 30
0.0
 11
95.6194
 21
65.8689
 31
0.0
  0
LINE
  8
0
 62
     0
 10
95.6194
 20
65.8689
 30
0.0
 11
95.6194
 21
62.7697
 31
0.0
  0
LINE
  8
0
 62
     0
 10
95.6194
 20
62.7697
 30
0.0
 11
94.8186
 21
62.7697
 31
0.0
  0
LINE
  8
0
 62
     0
 10
94.8186
 20
43.7198
 30
0.0
 11
94.8186
 21
42.7193
 31
0.0
  0
LINE
  8
0
 62
     0
 10
94.8186
 20
42.7193
 30
0.0
 11
80.8193
 21
42.7193
 31
0.0
  0
LINE
  8
0
 62
     0
 10
80.8193
 20
42.7193
 30
0.0
 11
80.8193
 21
43.7198
 31
0.0
  0
LINE
  8
0
 62
     0
 10
80.8193
 20
43.7198
 30
0.0
 11
80.0185
 21
43.7198
 31
0.0
  0
LINE
  8
0
 62
     0
 10
80.0185
 20
43.7198
 30
0.0
 11
80.0185
 21
46.8189
 31
0.0
  0
LINE
  8
0
 62
     0
 10
80.0185
 20
46.8189
 30
0.0
 11
80.8193
 21
46.8189
 31
0.0
  0
LINE
  8
0
 62
     0
 10
80.8193
 20
46.8189
 30
0.0
 11
80.8193
 21
52.6189
 31
0.0
  0
LINE
  8
0
 62
     0
 10
80.8193
 20
52.6189
 30
0.0
 11
80.0185
 21
52.6189
 31
0.0
  0
LINE
  8
0
 62
     0
 10
80.0185
 20
52.6189
 30
0.0
 11
80.0185
 21
55.7195
 31
0.0
  0
LINE
  8
0
 62
     0
 10
80.0185
 20
55.7195
 30
0.0
 11
80.8193
 21
55.7195
 31
0.0
  0
LINE
  8
0
 62
     0
 10
80.8193
 20
55.7195
 30
0.0
 11
80.8193
 21
56.7186
 31
0.0
  0
LINE
  8
0
 62
     0
 10
80.8193
 20
56.7186
 30
0.0
 11
94.8186
 21
56.7186
 31
0.0
  0
LINE
  8
0
 62
     0
 10
94.8186
 20
56.7186
 30
0.0
 11
94.8186
 21
55.7195
 31
0.0
  0
LINE
  8
0
 62
     0
 10
94.8186
 20
55.7195
 30
0.0
 11
95.6194
 21
55.7195
 31
0.0
  0
LINE
  8
0
 62
     0
 10
95.6194
 20
55.7195
 30
0.0
 11
95.6194
 21
52.6189
 31
0.0
  0
LINE
  8
0
 62
     0
 10
95.6194
 20
52.6189
 30
0.0
 11
94.8186
 21
52.6189
 31
0.0
  0
LINE
  8
0
 62
     0
 10
94.8186
 20
52.6189
 30
0.0
 11
94.8186
 21
46.8189
 31
0.0
  0
LINE
  8
0
 62
     0
 10
94.8186
 20
46.8189
 30
0.0
 11
95.6194
 21
46.8189
 31
0.0
  0
LINE
  8
0
 62
     0
 10
95.6194
 20
46.8189
 30
0.0
 11
95.6194
 21
43.7198
 31
0.0
  0
LINE
  8
0
 62
     0
 10
95.6194
 20
43.7198
 30
0.0
 11
94.8186
 21
43.7198
 31
0.0
  0
LINE
  8
0
 62
     0
 10
94.8186
 20
24.6696
 30
0.0
 11
94.8186
 21
23.6692
 31
0.0
  0
LINE
  8
0
 62
     0
 10
94.8186
 20
23.6692
 30
0.0
 11
80.8193
 21
23.6692
 31
0.0
  0
LINE
  8
0
 62
     0
 10
80.8193
 20
23.6692
 30
0.0
 11
80.8193
 21
24.6696
 31
0.0
  0
LINE
  8
0
 62
     0
 10
80.8193
 20
24.6696
 30
0.0
 11
80.0185
 21
24.6696
 31
0.0
  0
LINE
  8
0
 62
     0
 10
80.0185
 20
24.6696
 30
0.0
 11
80.0185
 21
27.7688
 31
0.0
  0
LINE
  8
0
 62
     0
 10
80.0185
 20
27.7688
 30
0.0
 11
80.8193
 21
27.7688
 31
0.0
  0
LINE
  8
0
 62
     0
 10
80.8193
 20
27.7688
 30
0.0
 11
80.8193
 21
33.569
 31
0.0
  0
LINE
  8
0
 62
     0
 10
80.8193
 20
33.569
 30
0.0
 11
80.0185
 21
33.569
 31
0.0
  0
LINE
  8
0
 62
     0
 10
80.0185
 20
33.569
 30
0.0
 11
80.0185
 21
36.6695
 31
0.0
  0
LINE
  8
0
 62
     0
 10
80.0185
 20
36.6695
 30
0.0
 11
80.8193
 21
36.6695
 31
0.0
  0
LINE
  8
0
 62
     0
 10
80.8193
 20
36.6695
 30
0.0
 11
80.8193
 21
37.6686
 31
0.0
  0
LINE
  8
0
 62
     0
 10
80.8193
 20
37.6686
 30
0.0
 11
94.8186
 21
37.6686
 31
0.0
  0
LINE
  8
0
 62
     0
 10
94.8186
 20
37.6686
 30
0.0
 11
94.8186
 21
36.6695
 31
0.0
  0
LINE
  8
0
 62
     0
 10
94.8186
 20
36.6695
 30
0.0
 11
95.6194
 21
36.6695
 31
0.0
  0
LINE
  8
0
 62
     0
 10
95.6194
 20
36.6695
 30
0.0
 11
95.6194
 21
33.569
 31
0.0
  0
LINE
  8
0
 62
     0
 10
95.6194
 20
33.569
 30
0.0
 11
94.8186
 21
33.569
 31
0.0
  0
LINE
  8
0
 62
     0
 10
94.8186
 20
33.569
 30
0.0
 11
94.8186
 21
27.7688
 31
0.0
  0
LINE
  8
0
 62
     0
 10
94.8186
 20
27.7688
 30
0.0
 11
95.6194
 21
27.7688
 31
0.0
  0
LINE
  8
0
 62
     0
 10
95.6194
 20
27.7688
 30
0.0
 11
95.6194
 21
24.6696
 31
0.0
  0
LINE
  8
0
 62
     0
 10
95.6194
 20
24.6696
 30
0.0
 11
94.8186
 21
24.6696
 31
0.0
  0
LINE
  8
0
 62
     0
 10
103.044
 20
11.1194
 30
0.0
 11
103.044
 21
4.84932
 31
0.0
  0
LINE
  8
0
 62
     0
 10
103.044
 20
4.84932
 30
0.0
 11
101.418
 21
4.84932
 31
0.0
  0
LINE
  8
0
 62
     0
 10
101.418
 20
4.84932
 30
0.0
 11
101.418
 21
3.86955
 31
0.0
  0
LINE
  8
0
 62
     0
 10
101.418
 20
3.86955
 30
0.0
 11
98.1191
 21
3.86955
 31
0.0
  0
LINE
  8
0
 62
     0
 10
98.1191
 20
3.86955
 30
0.0
 11
98.1191
 21
4.84932
 31
0.0
  0
LINE
  8
0
 62
     0
 10
98.1191
 20
4.84932
 30
0.0
 11
96.3937
 21
4.84932
 31
0.0
  0
LINE
  8
0
 62
     0
 10
96.3937
 20
4.84932
 30
0.0
 11
96.3937
 21
5.64857
 31
0.0
  0
LINE
  8
0
 62
     0
 10
96.3937
 20
5.64857
 30
0.0
 11
95.6194
 21
5.64857
 31
0.0
  0
LINE
  8
0
 62
     0
 10
95.6194
 20
5.64857
 30
0.0
 11
95.6194
 21
5.61964
 31
0.0
  0
LINE
  8
0
 62
     0
 10
95.6194
 20
5.61964
 30
0.0
 11
94.8186
 21
5.61964
 31
0.0
  0
LINE
  8
0
 62
     0
 10
94.8186
 20
5.61964
 30
0.0
 11
94.8186
 21
4.6192
 31
0.0
  0
LINE
  8
0
 62
     0
 10
94.8186
 20
4.6192
 30
0.0
 11
80.8193
 21
4.6192
 31
0.0
  0
LINE
  8
0
 62
     0
 10
80.8193
 20
4.6192
 30
0.0
 11
80.8193
 21
5.61964
 31
0.0
  0
LINE
  8
0
 62
     0
 10
80.8193
 20
5.61964
 30
0.0
 11
80.0185
 21
5.61964
 31
0.0
  0
LINE
  8
0
 62
     0
 10
80.0185
 20
5.61964
 30
0.0
 11
80.0185
 21
5.64857
 31
0.0
  0
LINE
  8
0
 62
     0
 10
80.0185
 20
5.64857
 30
0.0
 11
79.2441
 21
5.64857
 31
0.0
  0
LINE
  8
0
 62
     0
 10
79.2441
 20
5.64857
 30
0.0
 11
79.2441
 21
4.84932
 31
0.0
  0
LINE
  8
0
 62
     0
 10
79.2441
 20
4.84932
 30
0.0
 11
77.5187
 21
4.84932
 31
0.0
  0
LINE
  8
0
 62
     0
 10
77.5187
 20
4.84932
 30
0.0
 11
77.5187
 21
3.86955
 31
0.0
  0
LINE
  8
0
 62
     0
 10
77.5187
 20
3.86955
 30
0.0
 11
74.2184
 21
3.86955
 31
0.0
  0
LINE
  8
0
 62
     0
 10
74.2184
 20
3.86955
 30
0.0
 11
74.2184
 21
4.84932
 31
0.0
  0
LINE
  8
0
 62
     0
 10
74.2184
 20
4.84932
 30
0.0
 11
72.5936
 21
4.84932
 31
0.0
  0
LINE
  8
0
 62
     0
 10
72.5936
 20
4.84932
 30
0.0
 11
72.5936
 21
11.1194
 31
0.0
  0
LINE
  8
0
 62
     0
 10
72.5936
 20
11.1194
 30
0.0
 11
71.7187
 21
11.1194
 31
0.0
  0
LINE
  8
0
 62
     0
 10
71.7187
 20
11.1194
 30
0.0
 11
71.7187
 21
13.9196
 31
0.0
  0
LINE
  8
0
 62
     0
 10
71.7187
 20
13.9196
 30
0.0
 11
72.5936
 21
13.9196
 31
0.0
  0
LINE
  8
0
 62
     0
 10
72.5936
 20
13.9196
 30
0.0
 11
72.5936
 21
17.1497
 31
0.0
  0
LINE
  8
0
 62
     0
 10
72.5936
 20
17.1497
 30
0.0
 11
74.2184
 21
17.1497
 31
0.0
  0
LINE
  8
0
 62
     0
 10
74.2184
 20
17.1497
 30
0.0
 11
74.2184
 21
18.0689
 31
0.0
  0
LINE
  8
0
 62
     0
 10
74.2184
 20
18.0689
 30
0.0
 11
77.5187
 21
18.0689
 31
0.0
  0
LINE
  8
0
 62
     0
 10
77.5187
 20
18.0689
 30
0.0
 11
77.5187
 21
17.1497
 31
0.0
  0
LINE
  8
0
 62
     0
 10
77.5187
 20
17.1497
 30
0.0
 11
79.2441
 21
17.1497
 31
0.0
  0
LINE
  8
0
 62
     0
 10
79.2441
 20
17.1497
 30
0.0
 11
79.2441
 21
16.3491
 31
0.0
  0
LINE
  8
0
 62
     0
 10
79.2441
 20
16.3491
 30
0.0
 11
80.0185
 21
16.3491
 31
0.0
  0
LINE
  8
0
 62
     0
 10
80.0185
 20
16.3491
 30
0.0
 11
80.0185
 21
17.6196
 31
0.0
  0
LINE
  8
0
 62
     0
 10
80.0185
 20
17.6196
 30
0.0
 11
80.8193
 21
17.6196
 31
0.0
  0
LINE
  8
0
 62
     0
 10
80.8193
 20
17.6196
 30
0.0
 11
80.8193
 21
18.6187
 31
0.0
  0
LINE
  8
0
 62
     0
 10
80.8193
 20
18.6187
 30
0.0
 11
94.8186
 21
18.6187
 31
0.0
  0
LINE
  8
0
 62
     0
 10
94.8186
 20
18.6187
 30
0.0
 11
94.8186
 21
17.6196
 31
0.0
  0
LINE
  8
0
 62
     0
 10
94.8186
 20
17.6196
 30
0.0
 11
95.6194
 21
17.6196
 31
0.0
  0
LINE
  8
0
 62
     0
 10
95.6194
 20
17.6196
 30
0.0
 11
95.6194
 21
16.3491
 31
0.0
  0
LINE
  8
0
 62
     0
 10
95.6194
 20
16.3491
 30
0.0
 11
96.3937
 21
16.3491
 31
0.0
  0
LINE
  8
0
 62
     0
 10
96.3937
 20
16.3491
 30
0.0
 11
96.3937
 21
17.1497
 31
0.0
  0
LINE
  8
0
 62
     0
 10
96.3937
 20
17.1497
 30
0.0
 11
98.1191
 21
17.1497
 31
0.0
  0
LINE
  8
0
 62
     0
 10
98.1191
 20
17.1497
 30
0.0
 11
98.1191
 21
18.0689
 31
0.0
  0
LINE
  8
0
 62
     0
 10
98.1191
 20
18.0689
 30
0.0
 11
101.418
 21
18.0689
 31
0.0
  0
LINE
  8
0
 62
     0
 10
101.418
 20
18.0689
 30
0.0
 11
101.418
 21
17.1497
 31
0.0
  0
LINE
  8
0
 62
     0
 10
101.418
 20
17.1497
 30
0.0
 11
103.044
 21
17.1497
 31
0.0
  0
LINE
  8
0
 62
     0
 10
103.044
 20
17.1497
 30
0.0
 11
103.044
 21
13.9196
 31
0.0
  0
LINE
  8
0
 62
     0
 10
103.044
 20
13.9196
 30
0.0
 11
103.919
 21
13.9196
 31
0.0
  0
LINE
  8
0
 62
     0
 10
103.919
 20
13.9196
 30
0.0
 11
103.919
 21
11.1194
 31
0.0
  0
LINE
  8
0
 62
     0
 10
103.919
 20
11.1194
 30
0.0
 11
103.044
 21
11.1194
 31
0.0
  0
LINE
  8
0
 62
     0
 10
113.869
 20
81.8197
 30
0.0
 11
113.869
 21
80.8193
 31
0.0
  0
LINE
  8
0
 62
     0
 10
113.869
 20
80.8193
 30
0.0
 11
99.8693
 21
80.8193
 31
0.0
  0
LINE
  8
0
 62
     0
 10
99.8693
 20
80.8193
 30
0.0
 11
99.8693
 21
81.8197
 31
0.0
  0
LINE
  8
0
 62
     0
 10
99.8693
 20
81.8197
 30
0.0
 11
99.0685
 21
81.8197
 31
0.0
  0
LINE
  8
0
 62
     0
 10
99.0685
 20
81.8197
 30
0.0
 11
99.0685
 21
84.9189
 31
0.0
  0
LINE
  8
0
 62
     0
 10
99.0685
 20
84.9189
 30
0.0
 11
99.8693
 21
84.9189
 31
0.0
  0
LINE
  8
0
 62
     0
 10
99.8693
 20
84.9189
 30
0.0
 11
99.8693
 21
90.7189
 31
0.0
  0
LINE
  8
0
 62
     0
 10
99.8693
 20
90.7189
 30
0.0
 11
99.0685
 21
90.7189
 31
0.0
  0
LINE
  8
0
 62
     0
 10
99.0685
 20
90.7189
 30
0.0
 11
99.0685
 21
93.8195
 31
0.0
  0
LINE
  8
0
 62
     0
 10
99.0685
 20
93.8195
 30
0.0
 11
99.8693
 21
93.8195
 31
0.0
  0
LINE
  8
0
 62
     0
 10
99.8693
 20
93.8195
 30
0.0
 11
99.8693
 21
94.8186
 31
0.0
  0
LINE
  8
0
 62
     0
 10
99.8693
 20
94.8186
 30
0.0
 11
113.869
 21
94.8186
 31
0.0
  0
LINE
  8
0
 62
     0
 10
113.869
 20
94.8186
 30
0.0
 11
113.869
 21
93.8195
 31
0.0
  0
LINE
  8
0
 62
     0
 10
113.869
 20
93.8195
 30
0.0
 11
114.669
 21
93.8195
 31
0.0
  0
LINE
  8
0
 62
     0
 10
114.669
 20
93.8195
 30
0.0
 11
114.669
 21
90.7189
 31
0.0
  0
LINE
  8
0
 62
     0
 10
114.669
 20
90.7189
 30
0.0
 11
113.869
 21
90.7189
 31
0.0
  0
LINE
  8
0
 62
     0
 10
113.869
 20
90.7189
 30
0.0
 11
113.869
 21
84.9189
 31
0.0
  0
LINE
  8
0
 62
     0
 10
113.869
 20
84.9189
 30
0.0
 11
114.669
 21
84.9189
 31
0.0
  0
LINE
  8
0
 62
     0
 10
114.669
 20
84.9189
 30
0.0
 11
114.669
 21
81.8197
 31
0.0
  0
LINE
  8
0
 62
     0
 10
114.669
 20
81.8197
 30
0.0
 11
113.869
 21
81.8197
 31
0.0
  0
LINE
  8
0
 62
     0
 10
113.869
 20
62.7697
 30
0.0
 11
113.869
 21
61.7693
 31
0.0
  0
LINE
  8
0
 62
     0
 10
113.869
 20
61.7693
 30
0.0
 11
99.8693
 21
61.7693
 31
0.0
  0
LINE
  8
0
 62
     0
 10
99.8693
 20
61.7693
 30
0.0
 11
99.8693
 21
62.7697
 31
0.0
  0
LINE
  8
0
 62
     0
 10
99.8693
 20
62.7697
 30
0.0
 11
99.0685
 21
62.7697
 31
0.0
  0
LINE
  8
0
 62
     0
 10
99.0685
 20
62.7697
 30
0.0
 11
99.0685
 21
65.8689
 31
0.0
  0
LINE
  8
0
 62
     0
 10
99.0685
 20
65.8689
 30
0.0
 11
99.8693
 21
65.8689
 31
0.0
  0
LINE
  8
0
 62
     0
 10
99.8693
 20
65.8689
 30
0.0
 11
99.8693
 21
71.6689
 31
0.0
  0
LINE
  8
0
 62
     0
 10
99.8693
 20
71.6689
 30
0.0
 11
99.0685
 21
71.6689
 31
0.0
  0
LINE
  8
0
 62
     0
 10
99.0685
 20
71.6689
 30
0.0
 11
99.0685
 21
74.7695
 31
0.0
  0
LINE
  8
0
 62
     0
 10
99.0685
 20
74.7695
 30
0.0
 11
99.8693
 21
74.7695
 31
0.0
  0
LINE
  8
0
 62
     0
 10
99.8693
 20
74.7695
 30
0.0
 11
99.8693
 21
75.7686
 31
0.0
  0
LINE
  8
0
 62
     0
 10
99.8693
 20
75.7686
 30
0.0
 11
113.869
 21
75.7686
 31
0.0
  0
LINE
  8
0
 62
     0
 10
113.869
 20
75.7686
 30
0.0
 11
113.869
 21
74.7695
 31
0.0
  0
LINE
  8
0
 62
     0
 10
113.869
 20
74.7695
 30
0.0
 11
114.669
 21
74.7695
 31
0.0
  0
LINE
  8
0
 62
     0
 10
114.669
 20
74.7695
 30
0.0
 11
114.669
 21
71.6689
 31
0.0
  0
LINE
  8
0
 62
     0
 10
114.669
 20
71.6689
 30
0.0
 11
113.869
 21
71.6689
 31
0.0
  0
LINE
  8
0
 62
     0
 10
113.869
 20
71.6689
 30
0.0
 11
113.869
 21
65.8689
 31
0.0
  0
LINE
  8
0
 62
     0
 10
113.869
 20
65.8689
 30
0.0
 11
114.669
 21
65.8689
 31
0.0
  0
LINE
  8
0
 62
     0
 10
114.669
 20
65.8689
 30
0.0
 11
114.669
 21
62.7697
 31
0.0
  0
LINE
  8
0
 62
     0
 10
114.669
 20
62.7697
 30
0.0
 11
113.869
 21
62.7697
 31
0.0
  0
LINE
  8
0
 62
     0
 10
113.869
 20
43.7198
 30
0.0
 11
113.869
 21
42.7193
 31
0.0
  0
LINE
  8
0
 62
     0
 10
113.869
 20
42.7193
 30
0.0
 11
99.8693
 21
42.7193
 31
0.0
  0
LINE
  8
0
 62
     0
 10
99.8693
 20
42.7193
 30
0.0
 11
99.8693
 21
43.7198
 31
0.0
  0
LINE
  8
0
 62
     0
 10
99.8693
 20
43.7198
 30
0.0
 11
99.0685
 21
43.7198
 31
0.0
  0
LINE
  8
0
 62
     0
 10
99.0685
 20
43.7198
 30
0.0
 11
99.0685
 21
46.8189
 31
0.0
  0
LINE
  8
0
 62
     0
 10
99.0685
 20
46.8189
 30
0.0
 11
99.8693
 21
46.8189
 31
0.0
  0
LINE
  8
0
 62
     0
 10
99.8693
 20
46.8189
 30
0.0
 11
99.8693
 21
52.6189
 31
0.0
  0
LINE
  8
0
 62
     0
 10
99.8693
 20
52.6189
 30
0.0
 11
99.0685
 21
52.6189
 31
0.0
  0
LINE
  8
0
 62
     0
 10
99.0685
 20
52.6189
 30
0.0
 11
99.0685
 21
55.7195
 31
0.0
  0
LINE
  8
0
 62
     0
 10
99.0685
 20
55.7195
 30
0.0
 11
99.8693
 21
55.7195
 31
0.0
  0
LINE
  8
0
 62
     0
 10
99.8693
 20
55.7195
 30
0.0
 11
99.8693
 21
56.7186
 31
0.0
  0
LINE
  8
0
 62
     0
 10
99.8693
 20
56.7186
 30
0.0
 11
113.869
 21
56.7186
 31
0.0
  0
LINE
  8
0
 62
     0
 10
113.869
 20
56.7186
 30
0.0
 11
113.869
 21
55.7195
 31
0.0
  0
LINE
  8
0
 62
     0
 10
113.869
 20
55.7195
 30
0.0
 11
114.669
 21
55.7195
 31
0.0
  0
LINE
  8
0
 62
     0
 10
114.669
 20
55.7195
 30
0.0
 11
114.669
 21
52.6189
 31
0.0
  0
LINE
  8
0
 62
     0
 10
114.669
 20
52.6189
 30
0.0
 11
113.869
 21
52.6189
 31
0.0
  0
LINE
  8
0
 62
     0
 10
113.869
 20
52.6189
 30
0.0
 11
113.869
 21
46.8189
 31
0.0
  0
LINE
  8
0
 62
     0
 10
113.869
 20
46.8189
 30
0.0
 11
114.669
 21
46.8189
 31
0.0
  0
LINE
  8
0
 62
     0
 10
114.669
 20
46.8189
 30
0.0
 11
114.669
 21
43.7198
 31
0.0
  0
LINE
  8
0
 62
     0
 10
114.669
 20
43.7198
 30
0.0
 11
113.869
 21
43.7198
 31
0.0
  0
LINE
  8
0
 62
     0
 10
113.869
 20
24.6696
 30
0.0
 11
113.869
 21
23.6692
 31
0.0
  0
LINE
  8
0
 62
     0
 10
113.869
 20
23.6692
 30
0.0
 11
99.8693
 21
23.6692
 31
0.0
  0
LINE
  8
0
 62
     0
 10
99.8693
 20
23.6692
 30
0.0
 11
99.8693
 21
24.6696
 31
0.0
  0
LINE
  8
0
 62
     0
 10
99.8693
 20
24.6696
 30
0.0
 11
99.0685
 21
24.6696
 31
0.0
  0
LINE
  8
0
 62
     0
 10
99.0685
 20
24.6696
 30
0.0
 11
99.0685
 21
27.7688
 31
0.0
  0
LINE
  8
0
 62
     0
 10
99.0685
 20
27.7688
 30
0.0
 11
99.8693
 21
27.7688
 31
0.0
  0
LINE
  8
0
 62
     0
 10
99.8693
 20
27.7688
 30
0.0
 11
99.8693
 21
33.569
 31
0.0
  0
LINE
  8
0
 62
     0
 10
99.8693
 20
33.569
 30
0.0
 11
99.0685
 21
33.569
 31
0.0
  0
LINE
  8
0
 62
     0
 10
99.0685
 20
33.569
 30
0.0
 11
99.0685
 21
36.6695
 31
0.0
  0
LINE
  8
0
 62
     0
 10
99.0685
 20
36.6695
 30
0.0
 11
99.8693
 21
36.6695
 31
0.0
  0
LINE
  8
0
 62
     0
 10
99.8693
 20
36.6695
 30
0.0
 11
99.8693
 21
37.6686
 31
0.0
  0
LINE
  8
0
 62
     0
 10
99.8693
 20
37.6686
 30
0.0
 11
113.869
 21
37.6686
 31
0.0
  0
LINE
  8
0
 62
     0
 10
113.869
 20
37.6686
 30
0.0
 11
113.869
 21
36.6695
 31
0.0
  0
LINE
  8
0
 62
     0
 10
113.869
 20
36.6695
 30
0.0
 11
114.669
 21
36.6695
 31
0.0
  0
LINE
  8
0
 62
     0
 10
114.669
 20
36.6695
 30
0.0
 11
114.669
 21
33.569
 31
0.0
  0
LINE
  8
0
 62
     0
 10
114.669
 20
33.569
 30
0.0
 11
113.869
 21
33.569
 31
0.0
  0
LINE
  8
0
 62
     0
 10
113.869
 20
33.569
 30
0.0
 11
113.869
 21
27.7688
 31
0.0
  0
LINE
  8
0
 62
     0
 10
113.869
 20
27.7688
 30
0.0
 11
114.669
 21
27.7688
 31
0.0
  0
LINE
  8
0
 62
     0
 10
114.669
 20
27.7688
 30
0.0
 11
114.669
 21
24.6696
 31
0.0
  0
LINE
  8
0
 62
     0
 10
114.669
 20
24.6696
 30
0.0
 11
113.869
 21
24.6696
 31
0.0
  0
LINE
  8
0
 62
     0
 10
123.394
 20
5.61964
 30
0.0
 11
123.394
 21
4.6192
 31
0.0
  0
LINE
  8
0
 62
     0
 10
123.394
 20
4.6192
 30
0.0
 11
109.394
 21
4.6192
 31
0.0
  0
LINE
  8
0
 62
     0
 10
109.394
 20
4.6192
 30
0.0
 11
109.394
 21
5.61964
 31
0.0
  0
LINE
  8
0
 62
     0
 10
109.394
 20
5.61964
 30
0.0
 11
108.593
 21
5.61964
 31
0.0
  0
LINE
  8
0
 62
     0
 10
108.593
 20
5.61964
 30
0.0
 11
108.593
 21
8.71883
 31
0.0
  0
LINE
  8
0
 62
     0
 10
108.593
 20
8.71883
 30
0.0
 11
109.394
 21
8.71883
 31
0.0
  0
LINE
  8
0
 62
     0
 10
109.394
 20
8.71883
 30
0.0
 11
109.394
 21
14.519
 31
0.0
  0
LINE
  8
0
 62
     0
 10
109.394
 20
14.519
 30
0.0
 11
108.593
 21
14.519
 31
0.0
  0
LINE
  8
0
 62
     0
 10
108.593
 20
14.519
 30
0.0
 11
108.593
 21
17.6196
 31
0.0
  0
LINE
  8
0
 62
     0
 10
108.593
 20
17.6196
 30
0.0
 11
109.394
 21
17.6196
 31
0.0
  0
LINE
  8
0
 62
     0
 10
109.394
 20
17.6196
 30
0.0
 11
109.394
 21
18.6187
 31
0.0
  0
LINE
  8
0
 62
     0
 10
109.394
 20
18.6187
 30
0.0
 11
123.394
 21
18.6187
 31
0.0
  0
LINE
  8
0
 62
     0
 10
123.394
 20
18.6187
 30
0.0
 11
123.394
 21
17.6196
 31
0.0
  0
LINE
  8
0
 62
     0
 10
123.394
 20
17.6196
 30
0.0
 11
124.194
 21
17.6196
 31
0.0
  0
LINE
  8
0
 62
     0
 10
124.194
 20
17.6196
 30
0.0
 11
124.194
 21
14.519
 31
0.0
  0
LINE
  8
0
 62
     0
 10
124.194
 20
14.519
 30
0.0
 11
123.394
 21
14.519
 31
0.0
  0
LINE
  8
0
 62
     0
 10
123.394
 20
14.519
 30
0.0
 11
123.394
 21
8.71883
 31
0.0
  0
LINE
  8
0
 62
     0
 10
123.394
 20
8.71883
 30
0.0
 11
124.194
 21
8.71883
 31
0.0
  0
LINE
  8
0
 62
     0
 10
124.194
 20
8.71883
 30
0.0
 11
124.194
 21
5.61964
 31
0.0
  0
LINE
  8
0
 62
     0
 10
124.194
 20
5.61964
 30
0.0
 11
123.394
 21
5.61964
 31
0.0
  0
LINE
  8
0
 62
     0
 10
132.919
 20
81.8197
 30
0.0
 11
132.919
 21
80.8193
 31
0.0
  0
LINE
  8
0
 62
     0
 10
132.919
 20
80.8193
 30
0.0
 11
118.919
 21
80.8193
 31
0.0
  0
LINE
  8
0
 62
     0
 10
118.919
 20
80.8193
 30
0.0
 11
118.919
 21
81.8197
 31
0.0
  0
LINE
  8
0
 62
     0
 10
118.919
 20
81.8197
 30
0.0
 11
118.118
 21
81.8197
 31
0.0
  0
LINE
  8
0
 62
     0
 10
118.118
 20
81.8197
 30
0.0
 11
118.118
 21
84.9189
 31
0.0
  0
LINE
  8
0
 62
     0
 10
118.118
 20
84.9189
 30
0.0
 11
118.919
 21
84.9189
 31
0.0
  0
LINE
  8
0
 62
     0
 10
118.919
 20
84.9189
 30
0.0
 11
118.919
 21
90.7189
 31
0.0
  0
LINE
  8
0
 62
     0
 10
118.919
 20
90.7189
 30
0.0
 11
118.118
 21
90.7189
 31
0.0
  0
LINE
  8
0
 62
     0
 10
118.118
 20
90.7189
 30
0.0
 11
118.118
 21
93.8195
 31
0.0
  0
LINE
  8
0
 62
     0
 10
118.118
 20
93.8195
 30
0.0
 11
118.919
 21
93.8195
 31
0.0
  0
LINE
  8
0
 62
     0
 10
118.919
 20
93.8195
 30
0.0
 11
118.919
 21
94.8186
 31
0.0
  0
LINE
  8
0
 62
     0
 10
118.919
 20
94.8186
 30
0.0
 11
132.919
 21
94.8186
 31
0.0
  0
LINE
  8
0
 62
     0
 10
132.919
 20
94.8186
 30
0.0
 11
132.919
 21
93.8195
 31
0.0
  0
LINE
  8
0
 62
     0
 10
132.919
 20
93.8195
 30
0.0
 11
133.719
 21
93.8195
 31
0.0
  0
LINE
  8
0
 62
     0
 10
133.719
 20
93.8195
 30
0.0
 11
133.719
 21
90.7189
 31
0.0
  0
LINE
  8
0
 62
     0
 10
133.719
 20
90.7189
 30
0.0
 11
132.919
 21
90.7189
 31
0.0
  0
LINE
  8
0
 62
     0
 10
132.919
 20
90.7189
 30
0.0
 11
132.919
 21
84.9189
 31
0.0
  0
LINE
  8
0
 62
     0
 10
132.919
 20
84.9189
 30
0.0
 11
133.719
 21
84.9189
 31
0.0
  0
LINE
  8
0
 62
     0
 10
133.719
 20
84.9189
 30
0.0
 11
133.719
 21
81.8197
 31
0.0
  0
LINE
  8
0
 62
     0
 10
133.719
 20
81.8197
 30
0.0
 11
132.919
 21
81.8197
 31
0.0
  0
LINE
  8
0
 62
     0
 10
132.919
 20
62.7697
 30
0.0
 11
132.919
 21
61.7693
 31
0.0
  0
LINE
  8
0
 62
     0
 10
132.919
 20
61.7693
 30
0.0
 11
118.919
 21
61.7693
 31
0.0
  0
LINE
  8
0
 62
     0
 10
118.919
 20
61.7693
 30
0.0
 11
118.919
 21
62.7697
 31
0.0
  0
LINE
  8
0
 62
     0
 10
118.919
 20
62.7697
 30
0.0
 11
118.118
 21
62.7697
 31
0.0
  0
LINE
  8
0
 62
     0
 10
118.118
 20
62.7697
 30
0.0
 11
118.118
 21
65.8689
 31
0.0
  0
LINE
  8
0
 62
     0
 10
118.118
 20
65.8689
 30
0.0
 11
118.919
 21
65.8689
 31
0.0
  0
LINE
  8
0
 62
     0
 10
118.919
 20
65.8689
 30
0.0
 11
118.919
 21
71.6689
 31
0.0
  0
LINE
  8
0
 62
     0
 10
118.919
 20
71.6689
 30
0.0
 11
118.118
 21
71.6689
 31
0.0
  0
LINE
  8
0
 62
     0
 10
118.118
 20
71.6689
 30
0.0
 11
118.118
 21
74.7695
 31
0.0
  0
LINE
  8
0
 62
     0
 10
118.118
 20
74.7695
 30
0.0
 11
118.919
 21
74.7695
 31
0.0
  0
LINE
  8
0
 62
     0
 10
118.919
 20
74.7695
 30
0.0
 11
118.919
 21
75.7686
 31
0.0
  0
LINE
  8
0
 62
     0
 10
118.919
 20
75.7686
 30
0.0
 11
132.919
 21
75.7686
 31
0.0
  0
LINE
  8
0
 62
     0
 10
132.919
 20
75.7686
 30
0.0
 11
132.919
 21
74.7695
 31
0.0
  0
LINE
  8
0
 62
     0
 10
132.919
 20
74.7695
 30
0.0
 11
133.719
 21
74.7695
 31
0.0
  0
LINE
  8
0
 62
     0
 10
133.719
 20
74.7695
 30
0.0
 11
133.719
 21
71.6689
 31
0.0
  0
LINE
  8
0
 62
     0
 10
133.719
 20
71.6689
 30
0.0
 11
132.919
 21
71.6689
 31
0.0
  0
LINE
  8
0
 62
     0
 10
132.919
 20
71.6689
 30
0.0
 11
132.919
 21
65.8689
 31
0.0
  0
LINE
  8
0
 62
     0
 10
132.919
 20
65.8689
 30
0.0
 11
133.719
 21
65.8689
 31
0.0
  0
LINE
  8
0
 62
     0
 10
133.719
 20
65.8689
 30
0.0
 11
133.719
 21
62.7697
 31
0.0
  0
LINE
  8
0
 62
     0
 10
133.719
 20
62.7697
 30
0.0
 11
132.919
 21
62.7697
 31
0.0
  0
LINE
  8
0
 62
     0
 10
132.919
 20
43.7198
 30
0.0
 11
132.919
 21
42.7193
 31
0.0
  0
LINE
  8
0
 62
     0
 10
132.919
 20
42.7193
 30
0.0
 11
118.919
 21
42.7193
 31
0.0
  0
LINE
  8
0
 62
     0
 10
118.919
 20
42.7193
 30
0.0
 11
118.919
 21
43.7198
 31
0.0
  0
LINE
  8
0
 62
     0
 10
118.919
 20
43.7198
 30
0.0
 11
118.118
 21
43.7198
 31
0.0
  0
LINE
  8
0
 62
     0
 10
118.118
 20
43.7198
 30
0.0
 11
118.118
 21
46.8189
 31
0.0
  0
LINE
  8
0
 62
     0
 10
118.118
 20
46.8189
 30
0.0
 11
118.919
 21
46.8189
 31
0.0
  0
LINE
  8
0
 62
     0
 10
118.919
 20
46.8189
 30
0.0
 11
118.919
 21
52.6189
 31
0.0
  0
LINE
  8
0
 62
     0
 10
118.919
 20
52.6189
 30
0.0
 11
118.118
 21
52.6189
 31
0.0
  0
LINE
  8
0
 62
     0
 10
118.118
 20
52.6189
 30
0.0
 11
118.118
 21
55.7195
 31
0.0
  0
LINE
  8
0
 62
     0
 10
118.118
 20
55.7195
 30
0.0
 11
118.919
 21
55.7195
 31
0.0
  0
LINE
  8
0
 62
     0
 10
118.919
 20
55.7195
 30
0.0
 11
118.919
 21
56.7186
 31
0.0
  0
LINE
  8
0
 62
     0
 10
118.919
 20
56.7186
 30
0.0
 11
132.919
 21
56.7186
 31
0.0
  0
LINE
  8
0
 62
     0
 10
132.919
 20
56.7186
 30
0.0
 11
132.919
 21
55.7195
 31
0.0
  0
LINE
  8
0
 62
     0
 10
132.919
 20
55.7195
 30
0.0
 11
133.719
 21
55.7195
 31
0.0
  0
LINE
  8
0
 62
     0
 10
133.719
 20
55.7195
 30
0.0
 11
133.719
 21
52.6189
 31
0.0
  0
LINE
  8
0
 62
     0
 10
133.719
 20
52.6189
 30
0.0
 11
132.919
 21
52.6189
 31
0.0
  0
LINE
  8
0
 62
     0
 10
132.919
 20
52.6189
 30
0.0
 11
132.919
 21
46.8189
 31
0.0
  0
LINE
  8
0
 62
     0
 10
132.919
 20
46.8189
 30
0.0
 11
133.719
 21
46.8189
 31
0.0
  0
LINE
  8
0
 62
     0
 10
133.719
 20
46.8189
 30
0.0
 11
133.719
 21
43.7198
 31
0.0
  0
LINE
  8
0
 62
     0
 10
133.719
 20
43.7198
 30
0.0
 11
132.919
 21
43.7198
 31
0.0
  0
LINE
  8
0
 62
     0
 10
132.919
 20
24.6696
 30
0.0
 11
132.919
 21
23.6692
 31
0.0
  0
LINE
  8
0
 62
     0
 10
132.919
 20
23.6692
 30
0.0
 11
118.919
 21
23.6692
 31
0.0
  0
LINE
  8
0
 62
     0
 10
118.919
 20
23.6692
 30
0.0
 11
118.919
 21
24.6696
 31
0.0
  0
LINE
  8
0
 62
     0
 10
118.919
 20
24.6696
 30
0.0
 11
118.118
 21
24.6696
 31
0.0
  0
LINE
  8
0
 62
     0
 10
118.118
 20
24.6696
 30
0.0
 11
118.118
 21
27.7688
 31
0.0
  0
LINE
  8
0
 62
     0
 10
118.118
 20
27.7688
 30
0.0
 11
118.919
 21
27.7688
 31
0.0
  0
LINE
  8
0
 62
     0
 10
118.919
 20
27.7688
 30
0.0
 11
118.919
 21
33.569
 31
0.0
  0
LINE
  8
0
 62
     0
 10
118.919
 20
33.569
 30
0.0
 11
118.118
 21
33.569
 31
0.0
  0
LINE
  8
0
 62
     0
 10
118.118
 20
33.569
 30
0.0
 11
118.118
 21
36.6695
 31
0.0
  0
LINE
  8
0
 62
     0
 10
118.118
 20
36.6695
 30
0.0
 11
118.919
 21
36.6695
 31
0.0
  0
LINE
  8
0
 62
     0
 10
118.919
 20
36.6695
 30
0.0
 11
118.919
 21
37.6686
 31
0.0
  0
LINE
  8
0
 62
     0
 10
118.919
 20
37.6686
 30
0.0
 11
132.919
 21
37.6686
 31
0.0
  0
LINE
  8
0
 62
     0
 10
132.919
 20
37.6686
 30
0.0
 11
132.919
 21
36.6695
 31
0.0
  0
LINE
  8
0
 62
     0
 10
132.919
 20
36.6695
 30
0.0
 11
133.719
 21
36.6695
 31
0.0
  0
LINE
  8
0
 62
     0
 10
133.719
 20
36.6695
 30
0.0
 11
133.719
 21
33.569
 31
0.0
  0
LINE
  8
0
 62
     0
 10
133.719
 20
33.569
 30
0.0
 11
132.919
 21
33.569
 31
0.0
  0
LINE
  8
0
 62
     0
 10
132.919
 20
33.569
 30
0.0
 11
132.919
 21
27.7688
 31
0.0
  0
LINE
  8
0
 62
     0
 10
132.919
 20
27.7688
 30
0.0
 11
133.719
 21
27.7688
 31
0.0
  0
LINE
  8
0
 62
     0
 10
133.719
 20
27.7688
 30
0.0
 11
133.719
 21
24.6696
 31
0.0
  0
LINE
  8
0
 62
     0
 10
133.719
 20
24.6696
 30
0.0
 11
132.919
 21
24.6696
 31
0.0
  0
LINE
  8
0
 62
     0
 10
151.969
 20
81.8197
 30
0.0
 11
151.969
 21
80.8193
 31
0.0
  0
LINE
  8
0
 62
     0
 10
151.969
 20
80.8193
 30
0.0
 11
137.969
 21
80.8193
 31
0.0
  0
LINE
  8
0
 62
     0
 10
137.969
 20
80.8193
 30
0.0
 11
137.969
 21
81.8197
 31
0.0
  0
LINE
  8
0
 62
     0
 10
137.969
 20
81.8197
 30
0.0
 11
137.168
 21
81.8197
 31
0.0
  0
LINE
  8
0
 62
     0
 10
137.168
 20
81.8197
 30
0.0
 11
137.168
 21
84.9189
 31
0.0
  0
LINE
  8
0
 62
     0
 10
137.168
 20
84.9189
 30
0.0
 11
137.969
 21
84.9189
 31
0.0
  0
LINE
  8
0
 62
     0
 10
137.969
 20
84.9189
 30
0.0
 11
137.969
 21
90.7189
 31
0.0
  0
LINE
  8
0
 62
     0
 10
137.969
 20
90.7189
 30
0.0
 11
137.168
 21
90.7189
 31
0.0
  0
LINE
  8
0
 62
     0
 10
137.168
 20
90.7189
 30
0.0
 11
137.168
 21
93.8195
 31
0.0
  0
LINE
  8
0
 62
     0
 10
137.168
 20
93.8195
 30
0.0
 11
137.969
 21
93.8195
 31
0.0
  0
LINE
  8
0
 62
     0
 10
137.969
 20
93.8195
 30
0.0
 11
137.969
 21
94.8186
 31
0.0
  0
LINE
  8
0
 62
     0
 10
137.969
 20
94.8186
 30
0.0
 11
151.969
 21
94.8186
 31
0.0
  0
LINE
  8
0
 62
     0
 10
151.969
 20
94.8186
 30
0.0
 11
151.969
 21
93.8195
 31
0.0
  0
LINE
  8
0
 62
     0
 10
151.969
 20
93.8195
 30
0.0
 11
152.769
 21
93.8195
 31
0.0
  0
LINE
  8
0
 62
     0
 10
152.769
 20
93.8195
 30
0.0
 11
152.769
 21
90.7189
 31
0.0
  0
LINE
  8
0
 62
     0
 10
152.769
 20
90.7189
 30
0.0
 11
151.969
 21
90.7189
 31
0.0
  0
LINE
  8
0
 62
     0
 10
151.969
 20
90.7189
 30
0.0
 11
151.969
 21
84.9189
 31
0.0
  0
LINE
  8
0
 62
     0
 10
151.969
 20
84.9189
 30
0.0
 11
152.769
 21
84.9189
 31
0.0
  0
LINE
  8
0
 62
     0
 10
152.769
 20
84.9189
 30
0.0
 11
152.769
 21
81.8197
 31
0.0
  0
LINE
  8
0
 62
     0
 10
152.769
 20
81.8197
 30
0.0
 11
151.969
 21
81.8197
 31
0.0
  0
LINE
  8
0
 62
     0
 10
151.969
 20
62.7697
 30
0.0
 11
151.969
 21
61.7693
 31
0.0
  0
LINE
  8
0
 62
     0
 10
151.969
 20
61.7693
 30
0.0
 11
137.969
 21
61.7693
 31
0.0
  0
LINE
  8
0
 62
     0
 10
137.969
 20
61.7693
 30
0.0
 11
137.969
 21
62.7697
 31
0.0
  0
LINE
  8
0
 62
     0
 10
137.969
 20
62.7697
 30
0.0
 11
137.168
 21
62.7697
 31
0.0
  0
LINE
  8
0
 62
     0
 10
137.168
 20
62.7697
 30
0.0
 11
137.168
 21
65.8689
 31
0.0
  0
LINE
  8
0
 62
     0
 10
137.168
 20
65.8689
 30
0.0
 11
137.969
 21
65.8689
 31
0.0
  0
LINE
  8
0
 62
     0
 10
137.969
 20
65.8689
 30
0.0
 11
137.969
 21
71.6689
 31
0.0
  0
LINE
  8
0
 62
     0
 10
137.969
 20
71.6689
 30
0.0
 11
137.168
 21
71.6689
 31
0.0
  0
LINE
  8
0
 62
     0
 10
137.168
 20
71.6689
 30
0.0
 11
137.168
 21
74.7695
 31
0.0
  0
LINE
  8
0
 62
     0
 10
137.168
 20
74.7695
 30
0.0
 11
137.969
 21
74.7695
 31
0.0
  0
LINE
  8
0
 62
     0
 10
137.969
 20
74.7695
 30
0.0
 11
137.969
 21
75.7686
 31
0.0
  0
LINE
  8
0
 62
     0
 10
137.969
 20
75.7686
 30
0.0
 11
151.969
 21
75.7686
 31
0.0
  0
LINE
  8
0
 62
     0
 10
151.969
 20
75.7686
 30
0.0
 11
151.969
 21
74.7695
 31
0.0
  0
LINE
  8
0
 62
     0
 10
151.969
 20
74.7695
 30
0.0
 11
152.769
 21
74.7695
 31
0.0
  0
LINE
  8
0
 62
     0
 10
152.769
 20
74.7695
 30
0.0
 11
152.769
 21
71.6689
 31
0.0
  0
LINE
  8
0
 62
     0
 10
152.769
 20
71.6689
 30
0.0
 11
151.969
 21
71.6689
 31
0.0
  0
LINE
  8
0
 62
     0
 10
151.969
 20
71.6689
 30
0.0
 11
151.969
 21
65.8689
 31
0.0
  0
LINE
  8
0
 62
     0
 10
151.969
 20
65.8689
 30
0.0
 11
152.769
 21
65.8689
 31
0.0
  0
LINE
  8
0
 62
     0
 10
152.769
 20
65.8689
 30
0.0
 11
152.769
 21
62.7697
 31
0.0
  0
LINE
  8
0
 62
     0
 10
152.769
 20
62.7697
 30
0.0
 11
151.969
 21
62.7697
 31
0.0
  0
LINE
  8
0
 62
     0
 10
151.969
 20
43.7198
 30
0.0
 11
151.969
 21
42.7193
 31
0.0
  0
LINE
  8
0
 62
     0
 10
151.969
 20
42.7193
 30
0.0
 11
137.969
 21
42.7193
 31
0.0
  0
LINE
  8
0
 62
     0
 10
137.969
 20
42.7193
 30
0.0
 11
137.969
 21
43.7198
 31
0.0
  0
LINE
  8
0
 62
     0
 10
137.969
 20
43.7198
 30
0.0
 11
137.168
 21
43.7198
 31
0.0
  0
LINE
  8
0
 62
     0
 10
137.168
 20
43.7198
 30
0.0
 11
137.168
 21
46.8189
 31
0.0
  0
LINE
  8
0
 62
     0
 10
137.168
 20
46.8189
 30
0.0
 11
137.969
 21
46.8189
 31
0.0
  0
LINE
  8
0
 62
     0
 10
137.969
 20
46.8189
 30
0.0
 11
137.969
 21
52.6189
 31
0.0
  0
LINE
  8
0
 62
     0
 10
137.969
 20
52.6189
 30
0.0
 11
137.168
 21
52.6189
 31
0.0
  0
LINE
  8
0
 62
     0
 10
137.168
 20
52.6189
 30
0.0
 11
137.168
 21
55.7195
 31
0.0
  0
LINE
  8
0
 62
     0
 10
137.168
 20
55.7195
 30
0.0
 11
137.969
 21
55.7195
 31
0.0
  0
LINE
  8
0
 62
     0
 10
137.969
 20
55.7195
 30
0.0
 11
137.969
 21
56.7186
 31
0.0
  0
LINE
  8
0
 62
     0
 10
137.969
 20
56.7186
 30
0.0
 11
151.969
 21
56.7186
 31
0.0
  0
LINE
  8
0
 62
     0
 10
151.969
 20
56.7186
 30
0.0
 11
151.969
 21
55.7195
 31
0.0
  0
LINE
  8
0
 62
     0
 10
151.969
 20
55.7195
 30
0.0
 11
152.769
 21
55.7195
 31
0.0
  0
LINE
  8
0
 62
     0
 10
152.769
 20
55.7195
 30
0.0
 11
152.769
 21
52.6189
 31
0.0
  0
LINE
  8
0
 62
     0
 10
152.769
 20
52.6189
 30
0.0
 11
151.969
 21
52.6189
 31
0.0
  0
LINE
  8
0
 62
     0
 10
151.969
 20
52.6189
 30
0.0
 11
151.969
 21
46.8189
 31
0.0
  0
LINE
  8
0
 62
     0
 10
151.969
 20
46.8189
 30
0.0
 11
152.769
 21
46.8189
 31
0.0
  0
LINE
  8
0
 62
     0
 10
152.769
 20
46.8189
 30
0.0
 11
152.769
 21
43.7198
 31
0.0
  0
LINE
  8
0
 62
     0
 10
152.769
 20
43.7198
 30
0.0
 11
151.969
 21
43.7198
 31
0.0
  0
LINE
  8
0
 62
     0
 10
151.969
 20
24.6696
 30
0.0
 11
151.969
 21
23.6692
 31
0.0
  0
LINE
  8
0
 62
     0
 10
151.969
 20
23.6692
 30
0.0
 11
137.969
 21
23.6692
 31
0.0
  0
LINE
  8
0
 62
     0
 10
137.969
 20
23.6692
 30
0.0
 11
137.969
 21
24.6696
 31
0.0
  0
LINE
  8
0
 62
     0
 10
137.969
 20
24.6696
 30
0.0
 11
137.168
 21
24.6696
 31
0.0
  0
LINE
  8
0
 62
     0
 10
137.168
 20
24.6696
 30
0.0
 11
137.168
 21
27.7688
 31
0.0
  0
LINE
  8
0
 62
     0
 10
137.168
 20
27.7688
 30
0.0
 11
137.969
 21
27.7688
 31
0.0
  0
LINE
  8
0
 62
     0
 10
137.969
 20
27.7688
 30
0.0
 11
137.969
 21
33.569
 31
0.0
  0
LINE
  8
0
 62
     0
 10
137.969
 20
33.569
 30
0.0
 11
137.168
 21
33.569
 31
0.0
  0
LINE
  8
0
 62
     0
 10
137.168
 20
33.569
 30
0.0
 11
137.168
 21
36.6695
 31
0.0
  0
LINE
  8
0
 62
     0
 10
137.168
 20
36.6695
 30
0.0
 11
137.969
 21
36.6695
 31
0.0
  0
LINE
  8
0
 62
     0
 10
137.969
 20
36.6695
 30
0.0
 11
137.969
 21
37.6686
 31
0.0
  0
LINE
  8
0
 62
     0
 10
137.969
 20
37.6686
 30
0.0
 11
151.969
 21
37.6686
 31
0.0
  0
LINE
  8
0
 62
     0
 10
151.969
 20
37.6686
 30
0.0
 11
151.969
 21
36.6695
 31
0.0
  0
LINE
  8
0
 62
     0
 10
151.969
 20
36.6695
 30
0.0
 11
152.769
 21
36.6695
 31
0.0
  0
LINE
  8
0
 62
     0
 10
152.769
 20
36.6695
 30
0.0
 11
152.769
 21
33.569
 31
0.0
  0
LINE
  8
0
 62
     0
 10
152.769
 20
33.569
 30
0.0
 11
151.969
 21
33.569
 31
0.0
  0
LINE
  8
0
 62
     0
 10
151.969
 20
33.569
 30
0.0
 11
151.969
 21
27.7688
 31
0.0
  0
LINE
  8
0
 62
     0
 10
151.969
 20
27.7688
 30
0.0
 11
152.769
 21
27.7688
 31
0.0
  0
LINE
  8
0
 62
     0
 10
152.769
 20
27.7688
 30
0.0
 11
152.769
 21
24.6696
 31
0.0
  0
LINE
  8
0
 62
     0
 10
152.769
 20
24.6696
 30
0.0
 11
151.969
 21
24.6696
 31
0.0
  0
LINE
  8
0
 62
     0
 10
160.194
 20
11.1194
 30
0.0
 11
160.194
 21
4.84932
 31
0.0
  0
LINE
  8
0
 62
     0
 10
160.194
 20
4.84932
 30
0.0
 11
158.568
 21
4.84932
 31
0.0
  0
LINE
  8
0
 62
     0
 10
158.568
 20
4.84932
 30
0.0
 11
158.568
 21
3.86955
 31
0.0
  0
LINE
  8
0
 62
     0
 10
158.568
 20
3.86955
 30
0.0
 11
155.269
 21
3.86955
 31
0.0
  0
LINE
  8
0
 62
     0
 10
155.269
 20
3.86955
 30
0.0
 11
155.269
 21
4.84932
 31
0.0
  0
LINE
  8
0
 62
     0
 10
155.269
 20
4.84932
 30
0.0
 11
153.544
 21
4.84932
 31
0.0
  0
LINE
  8
0
 62
     0
 10
153.544
 20
4.84932
 30
0.0
 11
153.544
 21
5.64857
 31
0.0
  0
LINE
  8
0
 62
     0
 10
153.544
 20
5.64857
 30
0.0
 11
152.769
 21
5.64857
 31
0.0
  0
LINE
  8
0
 62
     0
 10
152.769
 20
5.64857
 30
0.0
 11
152.769
 21
5.61964
 31
0.0
  0
LINE
  8
0
 62
     0
 10
152.769
 20
5.61964
 30
0.0
 11
151.969
 21
5.61964
 31
0.0
  0
LINE
  8
0
 62
     0
 10
151.969
 20
5.61964
 30
0.0
 11
151.969
 21
4.6192
 31
0.0
  0
LINE
  8
0
 62
     0
 10
151.969
 20
4.6192
 30
0.0
 11
137.969
 21
4.6192
 31
0.0
  0
LINE
  8
0
 62
     0
 10
137.969
 20
4.6192
 30
0.0
 11
137.969
 21
5.61964
 31
0.0
  0
LINE
  8
0
 62
     0
 10
137.969
 20
5.61964
 30
0.0
 11
137.168
 21
5.61964
 31
0.0
  0
LINE
  8
0
 62
     0
 10
137.168
 20
5.61964
 30
0.0
 11
137.168
 21
5.64857
 31
0.0
  0
LINE
  8
0
 62
     0
 10
137.168
 20
5.64857
 30
0.0
 11
136.394
 21
5.64857
 31
0.0
  0
LINE
  8
0
 62
     0
 10
136.394
 20
5.64857
 30
0.0
 11
136.394
 21
4.84932
 31
0.0
  0
LINE
  8
0
 62
     0
 10
136.394
 20
4.84932
 30
0.0
 11
134.669
 21
4.84932
 31
0.0
  0
LINE
  8
0
 62
     0
 10
134.669
 20
4.84932
 30
0.0
 11
134.669
 21
3.86955
 31
0.0
  0
LINE
  8
0
 62
     0
 10
134.669
 20
3.86955
 30
0.0
 11
131.368
 21
3.86955
 31
0.0
  0
LINE
  8
0
 62
     0
 10
131.368
 20
3.86955
 30
0.0
 11
131.368
 21
4.84932
 31
0.0
  0
LINE
  8
0
 62
     0
 10
131.368
 20
4.84932
 30
0.0
 11
129.744
 21
4.84932
 31
0.0
  0
LINE
  8
0
 62
     0
 10
129.744
 20
4.84932
 30
0.0
 11
129.744
 21
11.1194
 31
0.0
  0
LINE
  8
0
 62
     0
 10
129.744
 20
11.1194
 30
0.0
 11
128.869
 21
11.1194
 31
0.0
  0
LINE
  8
0
 62
     0
 10
128.869
 20
11.1194
 30
0.0
 11
128.869
 21
13.9196
 31
0.0
  0
LINE
  8
0
 62
     0
 10
128.869
 20
13.9196
 30
0.0
 11
129.744
 21
13.9196
 31
0.0
  0
LINE
  8
0
 62
     0
 10
129.744
 20
13.9196
 30
0.0
 11
129.744
 21
17.1497
 31
0.0
  0
LINE
  8
0
 62
     0
 10
129.744
 20
17.1497
 30
0.0
 11
131.368
 21
17.1497
 31
0.0
  0
LINE
  8
0
 62
     0
 10
131.368
 20
17.1497
 30
0.0
 11
131.368
 21
18.0689
 31
0.0
  0
LINE
  8
0
 62
     0
 10
131.368
 20
18.0689
 30
0.0
 11
134.669
 21
18.0689
 31
0.0
  0
LINE
  8
0
 62
     0
 10
134.669
 20
18.0689
 30
0.0
 11
134.669
 21
17.1497
 31
0.0
  0
LINE
  8
0
 62
     0
 10
134.669
 20
17.1497
 30
0.0
 11
136.394
 21
17.1497
 31
0.0
  0
LINE
  8
0
 62
     0
 10
136.394
 20
17.1497
 30
0.0
 11
136.394
 21
16.3491
 31
0.0
  0
LINE
  8
0
 62
     0
 10
136.394
 20
16.3491
 30
0.0
 11
137.168
 21
16.3491
 31
0.0
  0
LINE
  8
0
 62
     0
 10
137.168
 20
16.3491
 30
0.0
 11
137.168
 21
17.6196
 31
0.0
  0
LINE
  8
0
 62
     0
 10
137.168
 20
17.6196
 30
0.0
 11
137.969
 21
17.6196
 31
0.0
  0
LINE
  8
0
 62
     0
 10
137.969
 20
17.6196
 30
0.0
 11
137.969
 21
18.6187
 31
0.0
  0
LINE
  8
0
 62
     0
 10
137.969
 20
18.6187
 30
0.0
 11
151.969
 21
18.6187
 31
0.0
  0
LINE
  8
0
 62
     0
 10
151.969
 20
18.6187
 30
0.0
 11
151.969
 21
17.6196
 31
0.0
  0
LINE
  8
0
 62
     0
 10
151.969
 20
17.6196
 30
0.0
 11
152.769
 21
17.6196
 31
0.0
  0
LINE
  8
0
 62
     0
 10
152.769
 20
17.6196
 30
0.0
 11
152.769
 21
16.3491
 31
0.0
  0
LINE
  8
0
 62
     0
 10
152.769
 20
16.3491
 30
0.0
 11
153.544
 21
16.3491
 31
0.0
  0
LINE
  8
0
 62
     0
 10
153.544
 20
16.3491
 30
0.0
 11
153.544
 21
17.1497
 31
0.0
  0
LINE
  8
0
 62
     0
 10
153.544
 20
17.1497
 30
0.0
 11
155.269
 21
17.1497
 31
0.0
  0
LINE
  8
0
 62
     0
 10
155.269
 20
17.1497
 30
0.0
 11
155.269
 21
18.0689
 31
0.0
  0
LINE
  8
0
 62
     0
 10
155.269
 20
18.0689
 30
0.0
 11
158.568
 21
18.0689
 31
0.0
  0
LINE
  8
0
 62
     0
 10
158.568
 20
18.0689
 30
0.0
 11
158.568
 21
17.1497
 31
0.0
  0
LINE
  8
0
 62
     0
 10
158.568
 20
17.1497
 30
0.0
 11
160.194
 21
17.1497
 31
0.0
  0
LINE
  8
0
 62
     0
 10
160.194
 20
17.1497
 30
0.0
 11
160.194
 21
13.9196
 31
0.0
  0
LINE
  8
0
 62
     0
 10
160.194
 20
13.9196
 30
0.0
 11
161.069
 21
13.9196
 31
0.0
  0
LINE
  8
0
 62
     0
 10
161.069
 20
13.9196
 30
0.0
 11
161.069
 21
11.1194
 31
0.0
  0
LINE
  8
0
 62
     0
 10
161.069
 20
11.1194
 30
0.0
 11
160.194
 21
11.1194
 31
0.0
  0
LINE
  8
0
 62
     0
 10
171.019
 20
81.8197
 30
0.0
 11
171.019
 21
80.8193
 31
0.0
  0
LINE
  8
0
 62
     0
 10
171.019
 20
80.8193
 30
0.0
 11
157.019
 21
80.8193
 31
0.0
  0
LINE
  8
0
 62
     0
 10
157.019
 20
80.8193
 30
0.0
 11
157.019
 21
81.8197
 31
0.0
  0
LINE
  8
0
 62
     0
 10
157.019
 20
81.8197
 30
0.0
 11
156.218
 21
81.8197
 31
0.0
  0
LINE
  8
0
 62
     0
 10
156.218
 20
81.8197
 30
0.0
 11
156.218
 21
84.9189
 31
0.0
  0
LINE
  8
0
 62
     0
 10
156.218
 20
84.9189
 30
0.0
 11
157.019
 21
84.9189
 31
0.0
  0
LINE
  8
0
 62
     0
 10
157.019
 20
84.9189
 30
0.0
 11
157.019
 21
90.7189
 31
0.0
  0
LINE
  8
0
 62
     0
 10
157.019
 20
90.7189
 30
0.0
 11
156.218
 21
90.7189
 31
0.0
  0
LINE
  8
0
 62
     0
 10
156.218
 20
90.7189
 30
0.0
 11
156.218
 21
93.8195
 31
0.0
  0
LINE
  8
0
 62
     0
 10
156.218
 20
93.8195
 30
0.0
 11
157.019
 21
93.8195
 31
0.0
  0
LINE
  8
0
 62
     0
 10
157.019
 20
93.8195
 30
0.0
 11
157.019
 21
94.8186
 31
0.0
  0
LINE
  8
0
 62
     0
 10
157.019
 20
94.8186
 30
0.0
 11
171.019
 21
94.8186
 31
0.0
  0
LINE
  8
0
 62
     0
 10
171.019
 20
94.8186
 30
0.0
 11
171.019
 21
93.8195
 31
0.0
  0
LINE
  8
0
 62
     0
 10
171.019
 20
93.8195
 30
0.0
 11
171.819
 21
93.8195
 31
0.0
  0
LINE
  8
0
 62
     0
 10
171.819
 20
93.8195
 30
0.0
 11
171.819
 21
90.7189
 31
0.0
  0
LINE
  8
0
 62
     0
 10
171.819
 20
90.7189
 30
0.0
 11
171.019
 21
90.7189
 31
0.0
  0
LINE
  8
0
 62
     0
 10
171.019
 20
90.7189
 30
0.0
 11
171.019
 21
84.9189
 31
0.0
  0
LINE
  8
0
 62
     0
 10
171.019
 20
84.9189
 30
0.0
 11
171.819
 21
84.9189
 31
0.0
  0
LINE
  8
0
 62
     0
 10
171.819
 20
84.9189
 30
0.0
 11
171.819
 21
81.8197
 31
0.0
  0
LINE
  8
0
 62
     0
 10
171.819
 20
81.8197
 30
0.0
 11
171.019
 21
81.8197
 31
0.0
  0
LINE
  8
0
 62
     0
 10
171.019
 20
62.7697
 30
0.0
 11
171.019
 21
61.7693
 31
0.0
  0
LINE
  8
0
 62
     0
 10
171.019
 20
61.7693
 30
0.0
 11
157.019
 21
61.7693
 31
0.0
  0
LINE
  8
0
 62
     0
 10
157.019
 20
61.7693
 30
0.0
 11
157.019
 21
62.7697
 31
0.0
  0
LINE
  8
0
 62
     0
 10
157.019
 20
62.7697
 30
0.0
 11
156.218
 21
62.7697
 31
0.0
  0
LINE
  8
0
 62
     0
 10
156.218
 20
62.7697
 30
0.0
 11
156.218
 21
65.8689
 31
0.0
  0
LINE
  8
0
 62
     0
 10
156.218
 20
65.8689
 30
0.0
 11
157.019
 21
65.8689
 31
0.0
  0
LINE
  8
0
 62
     0
 10
157.019
 20
65.8689
 30
0.0
 11
157.019
 21
71.6689
 31
0.0
  0
LINE
  8
0
 62
     0
 10
157.019
 20
71.6689
 30
0.0
 11
156.218
 21
71.6689
 31
0.0
  0
LINE
  8
0
 62
     0
 10
156.218
 20
71.6689
 30
0.0
 11
156.218
 21
74.7695
 31
0.0
  0
LINE
  8
0
 62
     0
 10
156.218
 20
74.7695
 30
0.0
 11
157.019
 21
74.7695
 31
0.0
  0
LINE
  8
0
 62
     0
 10
157.019
 20
74.7695
 30
0.0
 11
157.019
 21
75.7686
 31
0.0
  0
LINE
  8
0
 62
     0
 10
157.019
 20
75.7686
 30
0.0
 11
171.019
 21
75.7686
 31
0.0
  0
LINE
  8
0
 62
     0
 10
171.019
 20
75.7686
 30
0.0
 11
171.019
 21
74.7695
 31
0.0
  0
LINE
  8
0
 62
     0
 10
171.019
 20
74.7695
 30
0.0
 11
171.819
 21
74.7695
 31
0.0
  0
LINE
  8
0
 62
     0
 10
171.819
 20
74.7695
 30
0.0
 11
171.819
 21
71.6689
 31
0.0
  0
LINE
  8
0
 62
     0
 10
171.819
 20
71.6689
 30
0.0
 11
171.019
 21
71.6689
 31
0.0
  0
LINE
  8
0
 62
     0
 10
171.019
 20
71.6689
 30
0.0
 11
171.019
 21
65.8689
 31
0.0
  0
LINE
  8
0
 62
     0
 10
171.019
 20
65.8689
 30
0.0
 11
171.819
 21
65.8689
 31
0.0
  0
LINE
  8
0
 62
     0
 10
171.819
 20
65.8689
 30
0.0
 11
171.819
 21
62.7697
 31
0.0
  0
LINE
  8
0
 62
     0
 10
171.819
 20
62.7697
 30
0.0
 11
171.019
 21
62.7697
 31
0.0
  0
LINE
  8
0
 62
     0
 10
171.019
 20
43.7198
 30
0.0
 11
171.019
 21
42.7193
 31
0.0
  0
LINE
  8
0
 62
     0
 10
171.019
 20
42.7193
 30
0.0
 11
157.019
 21
42.7193
 31
0.0
  0
LINE
  8
0
 62
     0
 10
157.019
 20
42.7193
 30
0.0
 11
157.019
 21
43.7198
 31
0.0
  0
LINE
  8
0
 62
     0
 10
157.019
 20
43.7198
 30
0.0
 11
156.218
 21
43.7198
 31
0.0
  0
LINE
  8
0
 62
     0
 10
156.218
 20
43.7198
 30
0.0
 11
156.218
 21
46.8189
 31
0.0
  0
LINE
  8
0
 62
     0
 10
156.218
 20
46.8189
 30
0.0
 11
157.019
 21
46.8189
 31
0.0
  0
LINE
  8
0
 62
     0
 10
157.019
 20
46.8189
 30
0.0
 11
157.019
 21
52.6189
 31
0.0
  0
LINE
  8
0
 62
     0
 10
157.019
 20
52.6189
 30
0.0
 11
156.218
 21
52.6189
 31
0.0
  0
LINE
  8
0
 62
     0
 10
156.218
 20
52.6189
 30
0.0
 11
156.218
 21
55.7195
 31
0.0
  0
LINE
  8
0
 62
     0
 10
156.218
 20
55.7195
 30
0.0
 11
157.019
 21
55.7195
 31
0.0
  0
LINE
  8
0
 62
     0
 10
157.019
 20
55.7195
 30
0.0
 11
157.019
 21
56.7186
 31
0.0
  0
LINE
  8
0
 62
     0
 10
157.019
 20
56.7186
 30
0.0
 11
171.019
 21
56.7186
 31
0.0
  0
LINE
  8
0
 62
     0
 10
171.019
 20
56.7186
 30
0.0
 11
171.019
 21
55.7195
 31
0.0
  0
LINE
  8
0
 62
     0
 10
171.019
 20
55.7195
 30
0.0
 11
171.819
 21
55.7195
 31
0.0
  0
LINE
  8
0
 62
     0
 10
171.819
 20
55.7195
 30
0.0
 11
171.819
 21
52.6189
 31
0.0
  0
LINE
  8
0
 62
     0
 10
171.819
 20
52.6189
 30
0.0
 11
171.019
 21
52.6189
 31
0.0
  0
LINE
  8
0
 62
     0
 10
171.019
 20
52.6189
 30
0.0
 11
171.019
 21
46.8189
 31
0.0
  0
LINE
  8
0
 62
     0
 10
171.019
 20
46.8189
 30
0.0
 11
171.819
 21
46.8189
 31
0.0
  0
LINE
  8
0
 62
     0
 10
171.819
 20
46.8189
 30
0.0
 11
171.819
 21
43.7198
 31
0.0
  0
LINE
  8
0
 62
     0
 10
171.819
 20
43.7198
 30
0.0
 11
171.019
 21
43.7198
 31
0.0
  0
LINE
  8
0
 62
     0
 10
171.019
 20
24.6696
 30
0.0
 11
171.019
 21
23.6692
 31
0.0
  0
LINE
  8
0
 62
     0
 10
171.019
 20
23.6692
 30
0.0
 11
157.019
 21
23.6692
 31
0.0
  0
LINE
  8
0
 62
     0
 10
157.019
 20
23.6692
 30
0.0
 11
157.019
 21
24.6696
 31
0.0
  0
LINE
  8
0
 62
     0
 10
157.019
 20
24.6696
 30
0.0
 11
156.218
 21
24.6696
 31
0.0
  0
LINE
  8
0
 62
     0
 10
156.218
 20
24.6696
 30
0.0
 11
156.218
 21
27.7688
 31
0.0
  0
LINE
  8
0
 62
     0
 10
156.218
 20
27.7688
 30
0.0
 11
157.019
 21
27.7688
 31
0.0
  0
LINE
  8
0
 62
     0
 10
157.019
 20
27.7688
 30
0.0
 11
157.019
 21
33.569
 31
0.0
  0
LINE
  8
0
 62
     0
 10
157.019
 20
33.569
 30
0.0
 11
156.218
 21
33.569
 31
0.0
  0
LINE
  8
0
 62
     0
 10
156.218
 20
33.569
 30
0.0
 11
156.218
 21
36.6695
 31
0.0
  0
LINE
  8
0
 62
     0
 10
156.218
 20
36.6695
 30
0.0
 11
157.019
 21
36.6695
 31
0.0
  0
LINE
  8
0
 62
     0
 10
157.019
 20
36.6695
 30
0.0
 11
157.019
 21
37.6686
 31
0.0
  0
LINE
  8
0
 62
     0
 10
157.019
 20
37.6686
 30
0.0
 11
171.019
 21
37.6686
 31
0.0
  0
LINE
  8
0
 62
     0
 10
171.019
 20
37.6686
 30
0.0
 11
171.019
 21
36.6695
 31
0.0
  0
LINE
  8
0
 62
     0
 10
171.019
 20
36.6695
 30
0.0
 11
171.819
 21
36.6695
 31
0.0
  0
LINE
  8
0
 62
     0
 10
171.819
 20
36.6695
 30
0.0
 11
171.819
 21
33.569
 31
0.0
  0
LINE
  8
0
 62
     0
 10
171.819
 20
33.569
 30
0.0
 11
171.019
 21
33.569
 31
0.0
  0
LINE
  8
0
 62
     0
 10
171.019
 20
33.569
 30
0.0
 11
171.019
 21
27.7688
 31
0.0
  0
LINE
  8
0
 62
     0
 10
171.019
 20
27.7688
 30
0.0
 11
171.819
 21
27.7688
 31
0.0
  0
LINE
  8
0
 62
     0
 10
171.819
 20
27.7688
 30
0.0
 11
171.819
 21
24.6696
 31
0.0
  0
LINE
  8
0
 62
     0
 10
171.819
 20
24.6696
 30
0.0
 11
171.019
 21
24.6696
 31
0.0
  0
LINE
  8
0
 62
     0
 10
185.306
 20
5.61964
 30
0.0
 11
185.306
 21
4.6192
 31
0.0
  0
LINE
  8
0
 62
     0
 10
185.306
 20
4.6192
 30
0.0
 11
171.307
 21
4.6192
 31
0.0
  0
LINE
  8
0
 62
     0
 10
171.307
 20
4.6192
 30
0.0
 11
171.307
 21
5.61964
 31
0.0
  0
LINE
  8
0
 62
     0
 10
171.307
 20
5.61964
 30
0.0
 11
170.506
 21
5.61964
 31
0.0
  0
LINE
  8
0
 62
     0
 10
170.506
 20
5.61964
 30
0.0
 11
170.506
 21
8.71883
 31
0.0
  0
LINE
  8
0
 62
     0
 10
170.506
 20
8.71883
 30
0.0
 11
171.307
 21
8.71883
 31
0.0
  0
LINE
  8
0
 62
     0
 10
171.307
 20
8.71883
 30
0.0
 11
171.307
 21
14.519
 31
0.0
  0
LINE
  8
0
 62
     0
 10
171.307
 20
14.519
 30
0.0
 11
170.506
 21
14.519
 31
0.0
  0
LINE
  8
0
 62
     0
 10
170.506
 20
14.519
 30
0.0
 11
170.506
 21
17.6196
 31
0.0
  0
LINE
  8
0
 62
     0
 10
170.506
 20
17.6196
 30
0.0
 11
171.307
 21
17.6196
 31
0.0
  0
LINE
  8
0
 62
     0
 10
171.307
 20
17.6196
 30
0.0
 11
171.307
 21
18.6187
 31
0.0
  0
LINE
  8
0
 62
     0
 10
171.307
 20
18.6187
 30
0.0
 11
185.306
 21
18.6187
 31
0.0
  0
LINE
  8
0
 62
     0
 10
185.306
 20
18.6187
 30
0.0
 11
185.306
 21
17.6196
 31
0.0
  0
LINE
  8
0
 62
     0
 10
185.306
 20
17.6196
 30
0.0
 11
186.107
 21
17.6196
 31
0.0
  0
LINE
  8
0
 62
     0
 10
186.107
 20
17.6196
 30
0.0
 11
186.107
 21
14.519
 31
0.0
  0
LINE
  8
0
 62
     0
 10
186.107
 20
14.519
 30
0.0
 11
185.306
 21
14.519
 31
0.0
  0
LINE
  8
0
 62
     0
 10
185.306
 20
14.519
 30
0.0
 11
185.306
 21
8.71883
 31
0.0
  0
LINE
  8
0
 62
     0
 10
185.306
 20
8.71883
 30
0.0
 11
186.107
 21
8.71883
 31
0.0
  0
LINE
  8
0
 62
     0
 10
186.107
 20
8.71883
 30
0.0
 11
186.107
 21
5.61964
 31
0.0
  0
LINE
  8
0
 62
     0
 10
186.107
 20
5.61964
 30
0.0
 11
185.306
 21
5.61964
 31
0.0
  0
LINE
  8
0
 62
     0
 10
190.069
 20
81.8197
 30
0.0
 11
190.069
 21
80.8193
 31
0.0
  0
LINE
  8
0
 62
     0
 10
190.069
 20
80.8193
 30
0.0
 11
176.069
 21
80.8193
 31
0.0
  0
LINE
  8
0
 62
     0
 10
176.069
 20
80.8193
 30
0.0
 11
176.069
 21
81.8197
 31
0.0
  0
LINE
  8
0
 62
     0
 10
176.069
 20
81.8197
 30
0.0
 11
175.268
 21
81.8197
 31
0.0
  0
LINE
  8
0
 62
     0
 10
175.268
 20
81.8197
 30
0.0
 11
175.268
 21
84.9189
 31
0.0
  0
LINE
  8
0
 62
     0
 10
175.268
 20
84.9189
 30
0.0
 11
176.069
 21
84.9189
 31
0.0
  0
LINE
  8
0
 62
     0
 10
176.069
 20
84.9189
 30
0.0
 11
176.069
 21
90.7189
 31
0.0
  0
LINE
  8
0
 62
     0
 10
176.069
 20
90.7189
 30
0.0
 11
175.268
 21
90.7189
 31
0.0
  0
LINE
  8
0
 62
     0
 10
175.268
 20
90.7189
 30
0.0
 11
175.268
 21
93.8195
 31
0.0
  0
LINE
  8
0
 62
     0
 10
175.268
 20
93.8195
 30
0.0
 11
176.069
 21
93.8195
 31
0.0
  0
LINE
  8
0
 62
     0
 10
176.069
 20
93.8195
 30
0.0
 11
176.069
 21
94.8186
 31
0.0
  0
LINE
  8
0
 62
     0
 10
176.069
 20
94.8186
 30
0.0
 11
190.069
 21
94.8186
 31
0.0
  0
LINE
  8
0
 62
     0
 10
190.069
 20
94.8186
 30
0.0
 11
190.069
 21
93.8195
 31
0.0
  0
LINE
  8
0
 62
     0
 10
190.069
 20
93.8195
 30
0.0
 11
190.869
 21
93.8195
 31
0.0
  0
LINE
  8
0
 62
     0
 10
190.869
 20
93.8195
 30
0.0
 11
190.869
 21
90.7189
 31
0.0
  0
LINE
  8
0
 62
     0
 10
190.869
 20
90.7189
 30
0.0
 11
190.069
 21
90.7189
 31
0.0
  0
LINE
  8
0
 62
     0
 10
190.069
 20
90.7189
 30
0.0
 11
190.069
 21
84.9189
 31
0.0
  0
LINE
  8
0
 62
     0
 10
190.069
 20
84.9189
 30
0.0
 11
190.869
 21
84.9189
 31
0.0
  0
LINE
  8
0
 62
     0
 10
190.869
 20
84.9189
 30
0.0
 11
190.869
 21
81.8197
 31
0.0
  0
LINE
  8
0
 62
     0
 10
190.869
 20
81.8197
 30
0.0
 11
190.069
 21
81.8197
 31
0.0
  0
LINE
  8
0
 62
     0
 10
190.069
 20
62.7697
 30
0.0
 11
190.069
 21
61.7693
 31
0.0
  0
LINE
  8
0
 62
     0
 10
190.069
 20
61.7693
 30
0.0
 11
176.069
 21
61.7693
 31
0.0
  0
LINE
  8
0
 62
     0
 10
176.069
 20
61.7693
 30
0.0
 11
176.069
 21
62.7697
 31
0.0
  0
LINE
  8
0
 62
     0
 10
176.069
 20
62.7697
 30
0.0
 11
175.268
 21
62.7697
 31
0.0
  0
LINE
  8
0
 62
     0
 10
175.268
 20
62.7697
 30
0.0
 11
175.268
 21
65.8689
 31
0.0
  0
LINE
  8
0
 62
     0
 10
175.268
 20
65.8689
 30
0.0
 11
176.069
 21
65.8689
 31
0.0
  0
LINE
  8
0
 62
     0
 10
176.069
 20
65.8689
 30
0.0
 11
176.069
 21
71.6689
 31
0.0
  0
LINE
  8
0
 62
     0
 10
176.069
 20
71.6689
 30
0.0
 11
175.268
 21
71.6689
 31
0.0
  0
LINE
  8
0
 62
     0
 10
175.268
 20
71.6689
 30
0.0
 11
175.268
 21
74.7695
 31
0.0
  0
LINE
  8
0
 62
     0
 10
175.268
 20
74.7695
 30
0.0
 11
176.069
 21
74.7695
 31
0.0
  0
LINE
  8
0
 62
     0
 10
176.069
 20
74.7695
 30
0.0
 11
176.069
 21
75.7686
 31
0.0
  0
LINE
  8
0
 62
     0
 10
176.069
 20
75.7686
 30
0.0
 11
190.069
 21
75.7686
 31
0.0
  0
LINE
  8
0
 62
     0
 10
190.069
 20
75.7686
 30
0.0
 11
190.069
 21
74.7695
 31
0.0
  0
LINE
  8
0
 62
     0
 10
190.069
 20
74.7695
 30
0.0
 11
190.869
 21
74.7695
 31
0.0
  0
LINE
  8
0
 62
     0
 10
190.869
 20
74.7695
 30
0.0
 11
190.869
 21
71.6689
 31
0.0
  0
LINE
  8
0
 62
     0
 10
190.869
 20
71.6689
 30
0.0
 11
190.069
 21
71.6689
 31
0.0
  0
LINE
  8
0
 62
     0
 10
190.069
 20
71.6689
 30
0.0
 11
190.069
 21
65.8689
 31
0.0
  0
LINE
  8
0
 62
     0
 10
190.069
 20
65.8689
 30
0.0
 11
190.869
 21
65.8689
 31
0.0
  0
LINE
  8
0
 62
     0
 10
190.869
 20
65.8689
 30
0.0
 11
190.869
 21
62.7697
 31
0.0
  0
LINE
  8
0
 62
     0
 10
190.869
 20
62.7697
 30
0.0
 11
190.069
 21
62.7697
 31
0.0
  0
LINE
  8
0
 62
     0
 10
190.069
 20
43.7198
 30
0.0
 11
190.069
 21
42.7193
 31
0.0
  0
LINE
  8
0
 62
     0
 10
190.069
 20
42.7193
 30
0.0
 11
176.069
 21
42.7193
 31
0.0
  0
LINE
  8
0
 62
     0
 10
176.069
 20
42.7193
 30
0.0
 11
176.069
 21
43.7198
 31
0.0
  0
LINE
  8
0
 62
     0
 10
176.069
 20
43.7198
 30
0.0
 11
175.268
 21
43.7198
 31
0.0
  0
LINE
  8
0
 62
     0
 10
175.268
 20
43.7198
 30
0.0
 11
175.268
 21
46.8189
 31
0.0
  0
LINE
  8
0
 62
     0
 10
175.268
 20
46.8189
 30
0.0
 11
176.069
 21
46.8189
 31
0.0
  0
LINE
  8
0
 62
     0
 10
176.069
 20
46.8189
 30
0.0
 11
176.069
 21
52.6189
 31
0.0
  0
LINE
  8
0
 62
     0
 10
176.069
 20
52.6189
 30
0.0
 11
175.268
 21
52.6189
 31
0.0
  0
LINE
  8
0
 62
     0
 10
175.268
 20
52.6189
 30
0.0
 11
175.268
 21
55.7195
 31
0.0
  0
LINE
  8
0
 62
     0
 10
175.268
 20
55.7195
 30
0.0
 11
176.069
 21
55.7195
 31
0.0
  0
LINE
  8
0
 62
     0
 10
176.069
 20
55.7195
 30
0.0
 11
176.069
 21
56.7186
 31
0.0
  0
LINE
  8
0
 62
     0
 10
176.069
 20
56.7186
 30
0.0
 11
190.069
 21
56.7186
 31
0.0
  0
LINE
  8
0
 62
     0
 10
190.069
 20
56.7186
 30
0.0
 11
190.069
 21
55.7195
 31
0.0
  0
LINE
  8
0
 62
     0
 10
190.069
 20
55.7195
 30
0.0
 11
190.869
 21
55.7195
 31
0.0
  0
LINE
  8
0
 62
     0
 10
190.869
 20
55.7195
 30
0.0
 11
190.869
 21
52.6189
 31
0.0
  0
LINE
  8
0
 62
     0
 10
190.869
 20
52.6189
 30
0.0
 11
190.069
 21
52.6189
 31
0.0
  0
LINE
  8
0
 62
     0
 10
190.069
 20
52.6189
 30
0.0
 11
190.069
 21
46.8189
 31
0.0
  0
LINE
  8
0
 62
     0
 10
190.069
 20
46.8189
 30
0.0
 11
190.869
 21
46.8189
 31
0.0
  0
LINE
  8
0
 62
     0
 10
190.869
 20
46.8189
 30
0.0
 11
190.869
 21
43.7198
 31
0.0
  0
LINE
  8
0
 62
     0
 10
190.869
 20
43.7198
 30
0.0
 11
190.069
 21
43.7198
 31
0.0
  0
LINE
  8
0
 62
     0
 10
190.069
 20
24.6696
 30
0.0
 11
190.069
 21
23.6692
 31
0.0
  0
LINE
  8
0
 62
     0
 10
190.069
 20
23.6692
 30
0.0
 11
176.069
 21
23.6692
 31
0.0
  0
LINE
  8
0
 62
     0
 10
176.069
 20
23.6692
 30
0.0
 11
176.069
 21
24.6696
 31
0.0
  0
LINE
  8
0
 62
     0
 10
176.069
 20
24.6696
 30
0.0
 11
175.268
 21
24.6696
 31
0.0
  0
LINE
  8
0
 62
     0
 10
175.268
 20
24.6696
 30
0.0
 11
175.268
 21
27.7688
 31
0.0
  0
LINE
  8
0
 62
     0
 10
175.268
 20
27.7688
 30
0.0
 11
176.069
 21
27.7688
 31
0.0
  0
LINE
  8
0
 62
     0
 10
176.069
 20
27.7688
 30
0.0
 11
176.069
 21
33.569
 31
0.0
  0
LINE
  8
0
 62
     0
 10
176.069
 20
33.569
 30
0.0
 11
175.268
 21
33.569
 31
0.0
  0
LINE
  8
0
 62
     0
 10
175.268
 20
33.569
 30
0.0
 11
175.268
 21
36.6695
 31
0.0
  0
LINE
  8
0
 62
     0
 10
175.268
 20
36.6695
 30
0.0
 11
176.069
 21
36.6695
 31
0.0
  0
LINE
  8
0
 62
     0
 10
176.069
 20
36.6695
 30
0.0
 11
176.069
 21
37.6686
 31
0.0
  0
LINE
  8
0
 62
     0
 10
176.069
 20
37.6686
 30
0.0
 11
190.069
 21
37.6686
 31
0.0
  0
LINE
  8
0
 62
     0
 10
190.069
 20
37.6686
 30
0.0
 11
190.069
 21
36.6695
 31
0.0
  0
LINE
  8
0
 62
     0
 10
190.069
 20
36.6695
 30
0.0
 11
190.869
 21
36.6695
 31
0.0
  0
LINE
  8
0
 62
     0
 10
190.869
 20
36.6695
 30
0.0
 11
190.869
 21
33.569
 31
0.0
  0
LINE
  8
0
 62
     0
 10
190.869
 20
33.569
 30
0.0
 11
190.069
 21
33.569
 31
0.0
  0
LINE
  8
0
 62
     0
 10
190.069
 20
33.569
 30
0.0
 11
190.069
 21
27.7688
 31
0.0
  0
LINE
  8
0
 62
     0
 10
190.069
 20
27.7688
 30
0.0
 11
190.869
 21
27.7688
 31
0.0
  0
LINE
  8
0
 62
     0
 10
190.869
 20
27.7688
 30
0.0
 11
190.869
 21
24.6696
 31
0.0
  0
LINE
  8
0
 62
     0
 10
190.869
 20
24.6696
 30
0.0
 11
190.069
 21
24.6696
 31
0.0
  0
LINE
  8
0
 62
     0
 10
209.119
 20
5.61964
 30
0.0
 11
209.119
 21
4.6192
 31
0.0
  0
LINE
  8
0
 62
     0
 10
209.119
 20
4.6192
 30
0.0
 11
195.119
 21
4.6192
 31
0.0
  0
LINE
  8
0
 62
     0
 10
195.119
 20
4.6192
 30
0.0
 11
195.119
 21
5.61964
 31
0.0
  0
LINE
  8
0
 62
     0
 10
195.119
 20
5.61964
 30
0.0
 11
194.318
 21
5.61964
 31
0.0
  0
LINE
  8
0
 62
     0
 10
194.318
 20
5.61964
 30
0.0
 11
194.318
 21
8.71883
 31
0.0
  0
LINE
  8
0
 62
     0
 10
194.318
 20
8.71883
 30
0.0
 11
195.119
 21
8.71883
 31
0.0
  0
LINE
  8
0
 62
     0
 10
195.119
 20
8.71883
 30
0.0
 11
195.119
 21
14.519
 31
0.0
  0
LINE
  8
0
 62
     0
 10
195.119
 20
14.519
 30
0.0
 11
194.318
 21
14.519
 31
0.0
  0
LINE
  8
0
 62
     0
 10
194.318
 20
14.519
 30
0.0
 11
194.318
 21
17.6196
 31
0.0
  0
LINE
  8
0
 62
     0
 10
194.318
 20
17.6196
 30
0.0
 11
195.119
 21
17.6196
 31
0.0
  0
LINE
  8
0
 62
     0
 10
195.119
 20
17.6196
 30
0.0
 11
195.119
 21
18.6187
 31
0.0
  0
LINE
  8
0
 62
     0
 10
195.119
 20
18.6187
 30
0.0
 11
209.119
 21
18.6187
 31
0.0
  0
LINE
  8
0
 62
     0
 10
209.119
 20
18.6187
 30
0.0
 11
209.119
 21
17.6196
 31
0.0
  0
LINE
  8
0
 62
     0
 10
209.119
 20
17.6196
 30
0.0
 11
209.919
 21
17.6196
 31
0.0
  0
LINE
  8
0
 62
     0
 10
209.919
 20
17.6196
 30
0.0
 11
209.919
 21
14.519
 31
0.0
  0
LINE
  8
0
 62
     0
 10
209.919
 20
14.519
 30
0.0
 11
209.119
 21
14.519
 31
0.0
  0
LINE
  8
0
 62
     0
 10
209.119
 20
14.519
 30
0.0
 11
209.119
 21
8.71883
 31
0.0
  0
LINE
  8
0
 62
     0
 10
209.119
 20
8.71883
 30
0.0
 11
209.919
 21
8.71883
 31
0.0
  0
LINE
  8
0
 62
     0
 10
209.919
 20
8.71883
 30
0.0
 11
209.919
 21
5.61964
 31
0.0
  0
LINE
  8
0
 62
     0
 10
209.919
 20
5.61964
 30
0.0
 11
209.119
 21
5.61964
 31
0.0
  0
LINE
  8
0
 62
     0
 10
209.119
 20
81.8197
 30
0.0
 11
209.119
 21
80.8193
 31
0.0
  0
LINE
  8
0
 62
     0
 10
209.119
 20
80.8193
 30
0.0
 11
195.119
 21
80.8193
 31
0.0
  0
LINE
  8
0
 62
     0
 10
195.119
 20
80.8193
 30
0.0
 11
195.119
 21
81.8197
 31
0.0
  0
LINE
  8
0
 62
     0
 10
195.119
 20
81.8197
 30
0.0
 11
194.318
 21
81.8197
 31
0.0
  0
LINE
  8
0
 62
     0
 10
194.318
 20
81.8197
 30
0.0
 11
194.318
 21
84.9189
 31
0.0
  0
LINE
  8
0
 62
     0
 10
194.318
 20
84.9189
 30
0.0
 11
195.119
 21
84.9189
 31
0.0
  0
LINE
  8
0
 62
     0
 10
195.119
 20
84.9189
 30
0.0
 11
195.119
 21
90.7189
 31
0.0
  0
LINE
  8
0
 62
     0
 10
195.119
 20
90.7189
 30
0.0
 11
194.318
 21
90.7189
 31
0.0
  0
LINE
  8
0
 62
     0
 10
194.318
 20
90.7189
 30
0.0
 11
194.318
 21
93.8195
 31
0.0
  0
LINE
  8
0
 62
     0
 10
194.318
 20
93.8195
 30
0.0
 11
195.119
 21
93.8195
 31
0.0
  0
LINE
  8
0
 62
     0
 10
195.119
 20
93.8195
 30
0.0
 11
195.119
 21
94.8186
 31
0.0
  0
LINE
  8
0
 62
     0
 10
195.119
 20
94.8186
 30
0.0
 11
209.119
 21
94.8186
 31
0.0
  0
LINE
  8
0
 62
     0
 10
209.119
 20
94.8186
 30
0.0
 11
209.119
 21
93.8195
 31
0.0
  0
LINE
  8
0
 62
     0
 10
209.119
 20
93.8195
 30
0.0
 11
209.919
 21
93.8195
 31
0.0
  0
LINE
  8
0
 62
     0
 10
209.919
 20
93.8195
 30
0.0
 11
209.919
 21
90.7189
 31
0.0
  0
LINE
  8
0
 62
     0
 10
209.919
 20
90.7189
 30
0.0
 11
209.119
 21
90.7189
 31
0.0
  0
LINE
  8
0
 62
     0
 10
209.119
 20
90.7189
 30
0.0
 11
209.119
 21
84.9189
 31
0.0
  0
LINE
  8
0
 62
     0
 10
209.119
 20
84.9189
 30
0.0
 11
209.919
 21
84.9189
 31
0.0
  0
LINE
  8
0
 62
     0
 10
209.919
 20
84.9189
 30
0.0
 11
209.919
 21
81.8197
 31
0.0
  0
LINE
  8
0
 62
     0
 10
209.919
 20
81.8197
 30
0.0
 11
209.119
 21
81.8197
 31
0.0
  0
LINE
  8
0
 62
     0
 10
209.119
 20
62.7697
 30
0.0
 11
209.119
 21
61.7693
 31
0.0
  0
LINE
  8
0
 62
     0
 10
209.119
 20
61.7693
 30
0.0
 11
195.119
 21
61.7693
 31
0.0
  0
LINE
  8
0
 62
     0
 10
195.119
 20
61.7693
 30
0.0
 11
195.119
 21
62.7697
 31
0.0
  0
LINE
  8
0
 62
     0
 10
195.119
 20
62.7697
 30
0.0
 11
194.318
 21
62.7697
 31
0.0
  0
LINE
  8
0
 62
     0
 10
194.318
 20
62.7697
 30
0.0
 11
194.318
 21
65.8689
 31
0.0
  0
LINE
  8
0
 62
     0
 10
194.318
 20
65.8689
 30
0.0
 11
195.119
 21
65.8689
 31
0.0
  0
LINE
  8
0
 62
     0
 10
195.119
 20
65.8689
 30
0.0
 11
195.119
 21
71.6689
 31
0.0
  0
LINE
  8
0
 62
     0
 10
195.119
 20
71.6689
 30
0.0
 11
194.318
 21
71.6689
 31
0.0
  0
LINE
  8
0
 62
     0
 10
194.318
 20
71.6689
 30
0.0
 11
194.318
 21
74.7695
 31
0.0
  0
LINE
  8
0
 62
     0
 10
194.318
 20
74.7695
 30
0.0
 11
195.119
 21
74.7695
 31
0.0
  0
LINE
  8
0
 62
     0
 10
195.119
 20
74.7695
 30
0.0
 11
195.119
 21
75.7686
 31
0.0
  0
LINE
  8
0
 62
     0
 10
195.119
 20
75.7686
 30
0.0
 11
209.119
 21
75.7686
 31
0.0
  0
LINE
  8
0
 62
     0
 10
209.119
 20
75.7686
 30
0.0
 11
209.119
 21
74.7695
 31
0.0
  0
LINE
  8
0
 62
     0
 10
209.119
 20
74.7695
 30
0.0
 11
209.919
 21
74.7695
 31
0.0
  0
LINE
  8
0
 62
     0
 10
209.919
 20
74.7695
 30
0.0
 11
209.919
 21
71.6689
 31
0.0
  0
LINE
  8
0
 62
     0
 10
209.919
 20
71.6689
 30
0.0
 11
209.119
 21
71.6689
 31
0.0
  0
LINE
  8
0
 62
     0
 10
209.119
 20
71.6689
 30
0.0
 11
209.119
 21
65.8689
 31
0.0
  0
LINE
  8
0
 62
     0
 10
209.119
 20
65.8689
 30
0.0
 11
209.919
 21
65.8689
 31
0.0
  0
LINE
  8
0
 62
     0
 10
209.919
 20
65.8689
 30
0.0
 11
209.919
 21
62.7697
 31
0.0
  0
LINE
  8
0
 62
     0
 10
209.919
 20
62.7697
 30
0.0
 11
209.119
 21
62.7697
 31
0.0
  0
LINE
  8
0
 62
     0
 10
209.119
 20
43.7198
 30
0.0
 11
209.119
 21
42.7193
 31
0.0
  0
LINE
  8
0
 62
     0
 10
209.119
 20
42.7193
 30
0.0
 11
195.119
 21
42.7193
 31
0.0
  0
LINE
  8
0
 62
     0
 10
195.119
 20
42.7193
 30
0.0
 11
195.119
 21
43.7198
 31
0.0
  0
LINE
  8
0
 62
     0
 10
195.119
 20
43.7198
 30
0.0
 11
194.318
 21
43.7198
 31
0.0
  0
LINE
  8
0
 62
     0
 10
194.318
 20
43.7198
 30
0.0
 11
194.318
 21
46.8189
 31
0.0
  0
LINE
  8
0
 62
     0
 10
194.318
 20
46.8189
 30
0.0
 11
195.119
 21
46.8189
 31
0.0
  0
LINE
  8
0
 62
     0
 10
195.119
 20
46.8189
 30
0.0
 11
195.119
 21
52.6189
 31
0.0
  0
LINE
  8
0
 62
     0
 10
195.119
 20
52.6189
 30
0.0
 11
194.318
 21
52.6189
 31
0.0
  0
LINE
  8
0
 62
     0
 10
194.318
 20
52.6189
 30
0.0
 11
194.318
 21
55.7195
 31
0.0
  0
LINE
  8
0
 62
     0
 10
194.318
 20
55.7195
 30
0.0
 11
195.119
 21
55.7195
 31
0.0
  0
LINE
  8
0
 62
     0
 10
195.119
 20
55.7195
 30
0.0
 11
195.119
 21
56.7186
 31
0.0
  0
LINE
  8
0
 62
     0
 10
195.119
 20
56.7186
 30
0.0
 11
209.119
 21
56.7186
 31
0.0
  0
LINE
  8
0
 62
     0
 10
209.119
 20
56.7186
 30
0.0
 11
209.119
 21
55.7195
 31
0.0
  0
LINE
  8
0
 62
     0
 10
209.119
 20
55.7195
 30
0.0
 11
209.919
 21
55.7195
 31
0.0
  0
LINE
  8
0
 62
     0
 10
209.919
 20
55.7195
 30
0.0
 11
209.919
 21
52.6189
 31
0.0
  0
LINE
  8
0
 62
     0
 10
209.919
 20
52.6189
 30
0.0
 11
209.119
 21
52.6189
 31
0.0
  0
LINE
  8
0
 62
     0
 10
209.119
 20
52.6189
 30
0.0
 11
209.119
 21
46.8189
 31
0.0
  0
LINE
  8
0
 62
     0
 10
209.119
 20
46.8189
 30
0.0
 11
209.919
 21
46.8189
 31
0.0
  0
LINE
  8
0
 62
     0
 10
209.919
 20
46.8189
 30
0.0
 11
209.919
 21
43.7198
 31
0.0
  0
LINE
  8
0
 62
     0
 10
209.919
 20
43.7198
 30
0.0
 11
209.119
 21
43.7198
 31
0.0
  0
LINE
  8
0
 62
     0
 10
209.119
 20
24.6696
 30
0.0
 11
209.119
 21
23.6692
 31
0.0
  0
LINE
  8
0
 62
     0
 10
209.119
 20
23.6692
 30
0.0
 11
195.119
 21
23.6692
 31
0.0
  0
LINE
  8
0
 62
     0
 10
195.119
 20
23.6692
 30
0.0
 11
195.119
 21
24.6696
 31
0.0
  0
LINE
  8
0
 62
     0
 10
195.119
 20
24.6696
 30
0.0
 11
194.318
 21
24.6696
 31
0.0
  0
LINE
  8
0
 62
     0
 10
194.318
 20
24.6696
 30
0.0
 11
194.318
 21
27.7688
 31
0.0
  0
LINE
  8
0
 62
     0
 10
194.318
 20
27.7688
 30
0.0
 11
195.119
 21
27.7688
 31
0.0
  0
LINE
  8
0
 62
     0
 10
195.119
 20
27.7688
 30
0.0
 11
195.119
 21
33.569
 31
0.0
  0
LINE
  8
0
 62
     0
 10
195.119
 20
33.569
 30
0.0
 11
194.318
 21
33.569
 31
0.0
  0
LINE
  8
0
 62
     0
 10
194.318
 20
33.569
 30
0.0
 11
194.318
 21
36.6695
 31
0.0
  0
LINE
  8
0
 62
     0
 10
194.318
 20
36.6695
 30
0.0
 11
195.119
 21
36.6695
 31
0.0
  0
LINE
  8
0
 62
     0
 10
195.119
 20
36.6695
 30
0.0
 11
195.119
 21
37.6686
 31
0.0
  0
LINE
  8
0
 62
     0
 10
195.119
 20
37.6686
 30
0.0
 11
209.119
 21
37.6686
 31
0.0
  0
LINE
  8
0
 62
     0
 10
209.119
 20
37.6686
 30
0.0
 11
209.119
 21
36.6695
 31
0.0
  0
LINE
  8
0
 62
     0
 10
209.119
 20
36.6695
 30
0.0
 11
209.919
 21
36.6695
 31
0.0
  0
LINE
  8
0
 62
     0
 10
209.919
 20
36.6695
 30
0.0
 11
209.919
 21
33.569
 31
0.0
  0
LINE
  8
0
 62
     0
 10
209.919
 20
33.569
 30
0.0
 11
209.119
 21
33.569
 31
0.0
  0
LINE
  8
0
 62
     0
 10
209.119
 20
33.569
 30
0.0
 11
209.119
 21
27.7688
 31
0.0
  0
LINE
  8
0
 62
     0
 10
209.119
 20
27.7688
 30
0.0
 11
209.919
 21
27.7688
 31
0.0
  0
LINE
  8
0
 62
     0
 10
209.919
 20
27.7688
 30
0.0
 11
209.919
 21
24.6696
 31
0.0
  0
LINE
  8
0
 62
     0
 10
209.919
 20
24.6696
 30
0.0
 11
209.119
 21
24.6696
 31
0.0
  0
LINE
  8
0
 62
     0
 10
228.169
 20
5.61964
 30
0.0
 11
228.169
 21
4.6192
 31
0.0
  0
LINE
  8
0
 62
     0
 10
228.169
 20
4.6192
 30
0.0
 11
214.169
 21
4.6192
 31
0.0
  0
LINE
  8
0
 62
     0
 10
214.169
 20
4.6192
 30
0.0
 11
214.169
 21
5.61964
 31
0.0
  0
LINE
  8
0
 62
     0
 10
214.169
 20
5.61964
 30
0.0
 11
213.368
 21
5.61964
 31
0.0
  0
LINE
  8
0
 62
     0
 10
213.368
 20
5.61964
 30
0.0
 11
213.368
 21
8.71883
 31
0.0
  0
LINE
  8
0
 62
     0
 10
213.368
 20
8.71883
 30
0.0
 11
214.169
 21
8.71883
 31
0.0
  0
LINE
  8
0
 62
     0
 10
214.169
 20
8.71883
 30
0.0
 11
214.169
 21
14.519
 31
0.0
  0
LINE
  8
0
 62
     0
 10
214.169
 20
14.519
 30
0.0
 11
213.368
 21
14.519
 31
0.0
  0
LINE
  8
0
 62
     0
 10
213.368
 20
14.519
 30
0.0
 11
213.368
 21
17.6196
 31
0.0
  0
LINE
  8
0
 62
     0
 10
213.368
 20
17.6196
 30
0.0
 11
214.169
 21
17.6196
 31
0.0
  0
LINE
  8
0
 62
     0
 10
214.169
 20
17.6196
 30
0.0
 11
214.169
 21
18.6187
 31
0.0
  0
LINE
  8
0
 62
     0
 10
214.169
 20
18.6187
 30
0.0
 11
228.169
 21
18.6187
 31
0.0
  0
LINE
  8
0
 62
     0
 10
228.169
 20
18.6187
 30
0.0
 11
228.169
 21
17.6196
 31
0.0
  0
LINE
  8
0
 62
     0
 10
228.169
 20
17.6196
 30
0.0
 11
228.969
 21
17.6196
 31
0.0
  0
LINE
  8
0
 62
     0
 10
228.969
 20
17.6196
 30
0.0
 11
228.969
 21
14.519
 31
0.0
  0
LINE
  8
0
 62
     0
 10
228.969
 20
14.519
 30
0.0
 11
228.169
 21
14.519
 31
0.0
  0
LINE
  8
0
 62
     0
 10
228.169
 20
14.519
 30
0.0
 11
228.169
 21
8.71883
 31
0.0
  0
LINE
  8
0
 62
     0
 10
228.169
 20
8.71883
 30
0.0
 11
228.969
 21
8.71883
 31
0.0
  0
LINE
  8
0
 62
     0
 10
228.969
 20
8.71883
 30
0.0
 11
228.969
 21
5.61964
 31
0.0
  0
LINE
  8
0
 62
     0
 10
228.969
 20
5.61964
 30
0.0
 11
228.169
 21
5.61964
 31
0.0
  0
LINE
  8
0
 62
     0
 10
228.169
 20
81.8197
 30
0.0
 11
228.169
 21
80.8193
 31
0.0
  0
LINE
  8
0
 62
     0
 10
228.169
 20
80.8193
 30
0.0
 11
214.169
 21
80.8193
 31
0.0
  0
LINE
  8
0
 62
     0
 10
214.169
 20
80.8193
 30
0.0
 11
214.169
 21
81.8197
 31
0.0
  0
LINE
  8
0
 62
     0
 10
214.169
 20
81.8197
 30
0.0
 11
213.368
 21
81.8197
 31
0.0
  0
LINE
  8
0
 62
     0
 10
213.368
 20
81.8197
 30
0.0
 11
213.368
 21
84.9189
 31
0.0
  0
LINE
  8
0
 62
     0
 10
213.368
 20
84.9189
 30
0.0
 11
214.169
 21
84.9189
 31
0.0
  0
LINE
  8
0
 62
     0
 10
214.169
 20
84.9189
 30
0.0
 11
214.169
 21
90.7189
 31
0.0
  0
LINE
  8
0
 62
     0
 10
214.169
 20
90.7189
 30
0.0
 11
213.368
 21
90.7189
 31
0.0
  0
LINE
  8
0
 62
     0
 10
213.368
 20
90.7189
 30
0.0
 11
213.368
 21
93.8195
 31
0.0
  0
LINE
  8
0
 62
     0
 10
213.368
 20
93.8195
 30
0.0
 11
214.169
 21
93.8195
 31
0.0
  0
LINE
  8
0
 62
     0
 10
214.169
 20
93.8195
 30
0.0
 11
214.169
 21
94.8186
 31
0.0
  0
LINE
  8
0
 62
     0
 10
214.169
 20
94.8186
 30
0.0
 11
228.169
 21
94.8186
 31
0.0
  0
LINE
  8
0
 62
     0
 10
228.169
 20
94.8186
 30
0.0
 11
228.169
 21
93.8195
 31
0.0
  0
LINE
  8
0
 62
     0
 10
228.169
 20
93.8195
 30
0.0
 11
228.969
 21
93.8195
 31
0.0
  0
LINE
  8
0
 62
     0
 10
228.969
 20
93.8195
 30
0.0
 11
228.969
 21
90.7189
 31
0.0
  0
LINE
  8
0
 62
     0
 10
228.969
 20
90.7189
 30
0.0
 11
228.169
 21
90.7189
 31
0.0
  0
LINE
  8
0
 62
     0
 10
228.169
 20
90.7189
 30
0.0
 11
228.169
 21
84.9189
 31
0.0
  0
LINE
  8
0
 62
     0
 10
228.169
 20
84.9189
 30
0.0
 11
228.969
 21
84.9189
 31
0.0
  0
LINE
  8
0
 62
     0
 10
228.969
 20
84.9189
 30
0.0
 11
228.969
 21
81.8197
 31
0.0
  0
LINE
  8
0
 62
     0
 10
228.969
 20
81.8197
 30
0.0
 11
228.169
 21
81.8197
 31
0.0
  0
LINE
  8
0
 62
     0
 10
228.169
 20
62.7697
 30
0.0
 11
228.169
 21
61.7693
 31
0.0
  0
LINE
  8
0
 62
     0
 10
228.169
 20
61.7693
 30
0.0
 11
214.169
 21
61.7693
 31
0.0
  0
LINE
  8
0
 62
     0
 10
214.169
 20
61.7693
 30
0.0
 11
214.169
 21
62.7697
 31
0.0
  0
LINE
  8
0
 62
     0
 10
214.169
 20
62.7697
 30
0.0
 11
213.368
 21
62.7697
 31
0.0
  0
LINE
  8
0
 62
     0
 10
213.368
 20
62.7697
 30
0.0
 11
213.368
 21
65.8689
 31
0.0
  0
LINE
  8
0
 62
     0
 10
213.368
 20
65.8689
 30
0.0
 11
214.169
 21
65.8689
 31
0.0
  0
LINE
  8
0
 62
     0
 10
214.169
 20
65.8689
 30
0.0
 11
214.169
 21
71.6689
 31
0.0
  0
LINE
  8
0
 62
     0
 10
214.169
 20
71.6689
 30
0.0
 11
213.368
 21
71.6689
 31
0.0
  0
LINE
  8
0
 62
     0
 10
213.368
 20
71.6689
 30
0.0
 11
213.368
 21
74.7695
 31
0.0
  0
LINE
  8
0
 62
     0
 10
213.368
 20
74.7695
 30
0.0
 11
214.169
 21
74.7695
 31
0.0
  0
LINE
  8
0
 62
     0
 10
214.169
 20
74.7695
 30
0.0
 11
214.169
 21
75.7686
 31
0.0
  0
LINE
  8
0
 62
     0
 10
214.169
 20
75.7686
 30
0.0
 11
228.169
 21
75.7686
 31
0.0
  0
LINE
  8
0
 62
     0
 10
228.169
 20
75.7686
 30
0.0
 11
228.169
 21
74.7695
 31
0.0
  0
LINE
  8
0
 62
     0
 10
228.169
 20
74.7695
 30
0.0
 11
228.969
 21
74.7695
 31
0.0
  0
LINE
  8
0
 62
     0
 10
228.969
 20
74.7695
 30
0.0
 11
228.969
 21
71.6689
 31
0.0
  0
LINE
  8
0
 62
     0
 10
228.969
 20
71.6689
 30
0.0
 11
228.169
 21
71.6689
 31
0.0
  0
LINE
  8
0
 62
     0
 10
228.169
 20
71.6689
 30
0.0
 11
228.169
 21
65.8689
 31
0.0
  0
LINE
  8
0
 62
     0
 10
228.169
 20
65.8689
 30
0.0
 11
228.969
 21
65.8689
 31
0.0
  0
LINE
  8
0
 62
     0
 10
228.969
 20
65.8689
 30
0.0
 11
228.969
 21
62.7697
 31
0.0
  0
LINE
  8
0
 62
     0
 10
228.969
 20
62.7697
 30
0.0
 11
228.169
 21
62.7697
 31
0.0
  0
LINE
  8
0
 62
     0
 10
228.169
 20
43.7198
 30
0.0
 11
228.169
 21
42.7193
 31
0.0
  0
LINE
  8
0
 62
     0
 10
228.169
 20
42.7193
 30
0.0
 11
214.169
 21
42.7193
 31
0.0
  0
LINE
  8
0
 62
     0
 10
214.169
 20
42.7193
 30
0.0
 11
214.169
 21
43.7198
 31
0.0
  0
LINE
  8
0
 62
     0
 10
214.169
 20
43.7198
 30
0.0
 11
213.368
 21
43.7198
 31
0.0
  0
LINE
  8
0
 62
     0
 10
213.368
 20
43.7198
 30
0.0
 11
213.368
 21
46.8189
 31
0.0
  0
LINE
  8
0
 62
     0
 10
213.368
 20
46.8189
 30
0.0
 11
214.169
 21
46.8189
 31
0.0
  0
LINE
  8
0
 62
     0
 10
214.169
 20
46.8189
 30
0.0
 11
214.169
 21
52.6189
 31
0.0
  0
LINE
  8
0
 62
     0
 10
214.169
 20
52.6189
 30
0.0
 11
213.368
 21
52.6189
 31
0.0
  0
LINE
  8
0
 62
     0
 10
213.368
 20
52.6189
 30
0.0
 11
213.368
 21
55.7195
 31
0.0
  0
LINE
  8
0
 62
     0
 10
213.368
 20
55.7195
 30
0.0
 11
214.169
 21
55.7195
 31
0.0
  0
LINE
  8
0
 62
     0
 10
214.169
 20
55.7195
 30
0.0
 11
214.169
 21
56.7186
 31
0.0
  0
LINE
  8
0
 62
     0
 10
214.169
 20
56.7186
 30
0.0
 11
228.169
 21
56.7186
 31
0.0
  0
LINE
  8
0
 62
     0
 10
228.169
 20
56.7186
 30
0.0
 11
228.169
 21
55.7195
 31
0.0
  0
LINE
  8
0
 62
     0
 10
228.169
 20
55.7195
 30
0.0
 11
228.969
 21
55.7195
 31
0.0
  0
LINE
  8
0
 62
     0
 10
228.969
 20
55.7195
 30
0.0
 11
228.969
 21
52.6189
 31
0.0
  0
LINE
  8
0
 62
     0
 10
228.969
 20
52.6189
 30
0.0
 11
228.169
 21
52.6189
 31
0.0
  0
LINE
  8
0
 62
     0
 10
228.169
 20
52.6189
 30
0.0
 11
228.169
 21
46.8189
 31
0.0
  0
LINE
  8
0
 62
     0
 10
228.169
 20
46.8189
 30
0.0
 11
228.969
 21
46.8189
 31
0.0
  0
LINE
  8
0
 62
     0
 10
228.969
 20
46.8189
 30
0.0
 11
228.969
 21
43.7198
 31
0.0
  0
LINE
  8
0
 62
     0
 10
228.969
 20
43.7198
 30
0.0
 11
228.169
 21
43.7198
 31
0.0
  0
LINE
  8
0
 62
     0
 10
245.919
 20
30.1694
 30
0.0
 11
245.919
 21
23.8993
 31
0.0
  0
LINE
  8
0
 62
     0
 10
245.919
 20
23.8993
 30
0.0
 11
244.293
 21
23.8993
 31
0.0
  0
LINE
  8
0
 62
     0
 10
244.293
 20
23.8993
 30
0.0
 11
244.293
 21
22.9196
 31
0.0
  0
LINE
  8
0
 62
     0
 10
244.293
 20
22.9196
 30
0.0
 11
240.994
 21
22.9196
 31
0.0
  0
LINE
  8
0
 62
     0
 10
240.994
 20
22.9196
 30
0.0
 11
240.994
 21
23.8993
 31
0.0
  0
LINE
  8
0
 62
     0
 10
240.994
 20
23.8993
 30
0.0
 11
239.269
 21
23.8993
 31
0.0
  0
LINE
  8
0
 62
     0
 10
239.269
 20
23.8993
 30
0.0
 11
239.269
 21
24.6986
 31
0.0
  0
LINE
  8
0
 62
     0
 10
239.269
 20
24.6986
 30
0.0
 11
238.494
 21
24.6986
 31
0.0
  0
LINE
  8
0
 62
     0
 10
238.494
 20
24.6986
 30
0.0
 11
238.494
 21
24.6696
 31
0.0
  0
LINE
  8
0
 62
     0
 10
238.494
 20
24.6696
 30
0.0
 11
237.694
 21
24.6696
 31
0.0
  0
LINE
  8
0
 62
     0
 10
237.694
 20
24.6696
 30
0.0
 11
237.694
 21
23.6692
 31
0.0
  0
LINE
  8
0
 62
     0
 10
237.694
 20
23.6692
 30
0.0
 11
223.694
 21
23.6692
 31
0.0
  0
LINE
  8
0
 62
     0
 10
223.694
 20
23.6692
 30
0.0
 11
223.694
 21
24.6696
 31
0.0
  0
LINE
  8
0
 62
     0
 10
223.694
 20
24.6696
 30
0.0
 11
222.893
 21
24.6696
 31
0.0
  0
LINE
  8
0
 62
     0
 10
222.893
 20
24.6696
 30
0.0
 11
222.893
 21
24.6986
 31
0.0
  0
LINE
  8
0
 62
     0
 10
222.893
 20
24.6986
 30
0.0
 11
222.119
 21
24.6986
 31
0.0
  0
LINE
  8
0
 62
     0
 10
222.119
 20
24.6986
 30
0.0
 11
222.119
 21
23.8993
 31
0.0
  0
LINE
  8
0
 62
     0
 10
222.119
 20
23.8993
 30
0.0
 11
220.394
 21
23.8993
 31
0.0
  0
LINE
  8
0
 62
     0
 10
220.394
 20
23.8993
 30
0.0
 11
220.394
 21
22.9196
 31
0.0
  0
LINE
  8
0
 62
     0
 10
220.394
 20
22.9196
 30
0.0
 11
217.093
 21
22.9196
 31
0.0
  0
LINE
  8
0
 62
     0
 10
217.093
 20
22.9196
 30
0.0
 11
217.093
 21
23.8993
 31
0.0
  0
LINE
  8
0
 62
     0
 10
217.093
 20
23.8993
 30
0.0
 11
215.469
 21
23.8993
 31
0.0
  0
LINE
  8
0
 62
     0
 10
215.469
 20
23.8993
 30
0.0
 11
215.469
 21
30.1694
 31
0.0
  0
LINE
  8
0
 62
     0
 10
215.469
 20
30.1694
 30
0.0
 11
214.594
 21
30.1694
 31
0.0
  0
LINE
  8
0
 62
     0
 10
214.594
 20
30.1694
 30
0.0
 11
214.594
 21
32.9696
 31
0.0
  0
LINE
  8
0
 62
     0
 10
214.594
 20
32.9696
 30
0.0
 11
215.469
 21
32.9696
 31
0.0
  0
LINE
  8
0
 62
     0
 10
215.469
 20
32.9696
 30
0.0
 11
215.469
 21
36.1996
 31
0.0
  0
LINE
  8
0
 62
     0
 10
215.469
 20
36.1996
 30
0.0
 11
217.093
 21
36.1996
 31
0.0
  0
LINE
  8
0
 62
     0
 10
217.093
 20
36.1996
 30
0.0
 11
217.093
 21
37.1189
 31
0.0
  0
LINE
  8
0
 62
     0
 10
217.093
 20
37.1189
 30
0.0
 11
220.394
 21
37.1189
 31
0.0
  0
LINE
  8
0
 62
     0
 10
220.394
 20
37.1189
 30
0.0
 11
220.394
 21
36.1996
 31
0.0
  0
LINE
  8
0
 62
     0
 10
220.394
 20
36.1996
 30
0.0
 11
222.119
 21
36.1996
 31
0.0
  0
LINE
  8
0
 62
     0
 10
222.119
 20
36.1996
 30
0.0
 11
222.119
 21
35.3991
 31
0.0
  0
LINE
  8
0
 62
     0
 10
222.119
 20
35.3991
 30
0.0
 11
222.893
 21
35.3991
 31
0.0
  0
LINE
  8
0
 62
     0
 10
222.893
 20
35.3991
 30
0.0
 11
222.893
 21
36.6695
 31
0.0
  0
LINE
  8
0
 62
     0
 10
222.893
 20
36.6695
 30
0.0
 11
223.694
 21
36.6695
 31
0.0
  0
LINE
  8
0
 62
     0
 10
223.694
 20
36.6695
 30
0.0
 11
223.694
 21
37.6686
 31
0.0
  0
LINE
  8
0
 62
     0
 10
223.694
 20
37.6686
 30
0.0
 11
237.694
 21
37.6686
 31
0.0
  0
LINE
  8
0
 62
     0
 10
237.694
 20
37.6686
 30
0.0
 11
237.694
 21
36.6695
 31
0.0
  0
LINE
  8
0
 62
     0
 10
237.694
 20
36.6695
 30
0.0
 11
238.494
 21
36.6695
 31
0.0
  0
LINE
  8
0
 62
     0
 10
238.494
 20
36.6695
 30
0.0
 11
238.494
 21
35.3991
 31
0.0
  0
LINE
  8
0
 62
     0
 10
238.494
 20
35.3991
 30
0.0
 11
239.269
 21
35.3991
 31
0.0
  0
LINE
  8
0
 62
     0
 10
239.269
 20
35.3991
 30
0.0
 11
239.269
 21
36.1996
 31
0.0
  0
LINE
  8
0
 62
     0
 10
239.269
 20
36.1996
 30
0.0
 11
240.994
 21
36.1996
 31
0.0
  0
LINE
  8
0
 62
     0
 10
240.994
 20
36.1996
 30
0.0
 11
240.994
 21
37.1189
 31
0.0
  0
LINE
  8
0
 62
     0
 10
240.994
 20
37.1189
 30
0.0
 11
244.293
 21
37.1189
 31
0.0
  0
LINE
  8
0
 62
     0
 10
244.293
 20
37.1189
 30
0.0
 11
244.293
 21
36.1996
 31
0.0
  0
LINE
  8
0
 62
     0
 10
244.293
 20
36.1996
 30
0.0
 11
245.919
 21
36.1996
 31
0.0
  0
LINE
  8
0
 62
     0
 10
245.919
 20
36.1996
 30
0.0
 11
245.919
 21
32.9696
 31
0.0
  0
LINE
  8
0
 62
     0
 10
245.919
 20
32.9696
 30
0.0
 11
246.794
 21
32.9696
 31
0.0
  0
LINE
  8
0
 62
     0
 10
246.794
 20
32.9696
 30
0.0
 11
246.794
 21
30.1694
 31
0.0
  0
LINE
  8
0
 62
     0
 10
246.794
 20
30.1694
 30
0.0
 11
245.919
 21
30.1694
 31
0.0
  0
LINE
  8
0
 62
     0
 10
247.219
 20
5.61964
 30
0.0
 11
247.219
 21
4.6192
 31
0.0
  0
LINE
  8
0
 62
     0
 10
247.219
 20
4.6192
 30
0.0
 11
233.219
 21
4.6192
 31
0.0
  0
LINE
  8
0
 62
     0
 10
233.219
 20
4.6192
 30
0.0
 11
233.219
 21
5.61964
 31
0.0
  0
LINE
  8
0
 62
     0
 10
233.219
 20
5.61964
 30
0.0
 11
232.418
 21
5.61964
 31
0.0
  0
LINE
  8
0
 62
     0
 10
232.418
 20
5.61964
 30
0.0
 11
232.418
 21
8.71883
 31
0.0
  0
LINE
  8
0
 62
     0
 10
232.418
 20
8.71883
 30
0.0
 11
233.219
 21
8.71883
 31
0.0
  0
LINE
  8
0
 62
     0
 10
233.219
 20
8.71883
 30
0.0
 11
233.219
 21
14.519
 31
0.0
  0
LINE
  8
0
 62
     0
 10
233.219
 20
14.519
 30
0.0
 11
232.418
 21
14.519
 31
0.0
  0
LINE
  8
0
 62
     0
 10
232.418
 20
14.519
 30
0.0
 11
232.418
 21
17.6196
 31
0.0
  0
LINE
  8
0
 62
     0
 10
232.418
 20
17.6196
 30
0.0
 11
233.219
 21
17.6196
 31
0.0
  0
LINE
  8
0
 62
     0
 10
233.219
 20
17.6196
 30
0.0
 11
233.219
 21
18.6187
 31
0.0
  0
LINE
  8
0
 62
     0
 10
233.219
 20
18.6187
 30
0.0
 11
247.219
 21
18.6187
 31
0.0
  0
LINE
  8
0
 62
     0
 10
247.219
 20
18.6187
 30
0.0
 11
247.219
 21
17.6196
 31
0.0
  0
LINE
  8
0
 62
     0
 10
247.219
 20
17.6196
 30
0.0
 11
248.019
 21
17.6196
 31
0.0
  0
LINE
  8
0
 62
     0
 10
248.019
 20
17.6196
 30
0.0
 11
248.019
 21
14.519
 31
0.0
  0
LINE
  8
0
 62
     0
 10
248.019
 20
14.519
 30
0.0
 11
247.219
 21
14.519
 31
0.0
  0
LINE
  8
0
 62
     0
 10
247.219
 20
14.519
 30
0.0
 11
247.219
 21
8.71883
 31
0.0
  0
LINE
  8
0
 62
     0
 10
247.219
 20
8.71883
 30
0.0
 11
248.019
 21
8.71883
 31
0.0
  0
LINE
  8
0
 62
     0
 10
248.019
 20
8.71883
 30
0.0
 11
248.019
 21
5.61964
 31
0.0
  0
LINE
  8
0
 62
     0
 10
248.019
 20
5.61964
 30
0.0
 11
247.219
 21
5.61964
 31
0.0
  0
LINE
  8
0
 62
     0
 10
247.219
 20
81.8197
 30
0.0
 11
247.219
 21
80.8193
 31
0.0
  0
LINE
  8
0
 62
     0
 10
247.219
 20
80.8193
 30
0.0
 11
233.219
 21
80.8193
 31
0.0
  0
LINE
  8
0
 62
     0
 10
233.219
 20
80.8193
 30
0.0
 11
233.219
 21
81.8197
 31
0.0
  0
LINE
  8
0
 62
     0
 10
233.219
 20
81.8197
 30
0.0
 11
232.418
 21
81.8197
 31
0.0
  0
LINE
  8
0
 62
     0
 10
232.418
 20
81.8197
 30
0.0
 11
232.418
 21
84.9189
 31
0.0
  0
LINE
  8
0
 62
     0
 10
232.418
 20
84.9189
 30
0.0
 11
233.219
 21
84.9189
 31
0.0
  0
LINE
  8
0
 62
     0
 10
233.219
 20
84.9189
 30
0.0
 11
233.219
 21
90.7189
 31
0.0
  0
LINE
  8
0
 62
     0
 10
233.219
 20
90.7189
 30
0.0
 11
232.418
 21
90.7189
 31
0.0
  0
LINE
  8
0
 62
     0
 10
232.418
 20
90.7189
 30
0.0
 11
232.418
 21
93.8195
 31
0.0
  0
LINE
  8
0
 62
     0
 10
232.418
 20
93.8195
 30
0.0
 11
233.219
 21
93.8195
 31
0.0
  0
LINE
  8
0
 62
     0
 10
233.219
 20
93.8195
 30
0.0
 11
233.219
 21
94.8186
 31
0.0
  0
LINE
  8
0
 62
     0
 10
233.219
 20
94.8186
 30
0.0
 11
247.219
 21
94.8186
 31
0.0
  0
LINE
  8
0
 62
     0
 10
247.219
 20
94.8186
 30
0.0
 11
247.219
 21
93.8195
 31
0.0
  0
LINE
  8
0
 62
     0
 10
247.219
 20
93.8195
 30
0.0
 11
248.019
 21
93.8195
 31
0.0
  0
LINE
  8
0
 62
     0
 10
248.019
 20
93.8195
 30
0.0
 11
248.019
 21
90.7189
 31
0.0
  0
LINE
  8
0
 62
     0
 10
248.019
 20
90.7189
 30
0.0
 11
247.219
 21
90.7189
 31
0.0
  0
LINE
  8
0
 62
     0
 10
247.219
 20
90.7189
 30
0.0
 11
247.219
 21
84.9189
 31
0.0
  0
LINE
  8
0
 62
     0
 10
247.219
 20
84.9189
 30
0.0
 11
248.019
 21
84.9189
 31
0.0
  0
LINE
  8
0
 62
     0
 10
248.019
 20
84.9189
 30
0.0
 11
248.019
 21
81.8197
 31
0.0
  0
LINE
  8
0
 62
     0
 10
248.019
 20
81.8197
 30
0.0
 11
247.219
 21
81.8197
 31
0.0
  0
LINE
  8
0
 62
     0
 10
247.219
 20
62.7697
 30
0.0
 11
247.219
 21
61.7693
 31
0.0
  0
LINE
  8
0
 62
     0
 10
247.219
 20
61.7693
 30
0.0
 11
233.219
 21
61.7693
 31
0.0
  0
LINE
  8
0
 62
     0
 10
233.219
 20
61.7693
 30
0.0
 11
233.219
 21
62.7697
 31
0.0
  0
LINE
  8
0
 62
     0
 10
233.219
 20
62.7697
 30
0.0
 11
232.418
 21
62.7697
 31
0.0
  0
LINE
  8
0
 62
     0
 10
232.418
 20
62.7697
 30
0.0
 11
232.418
 21
65.8689
 31
0.0
  0
LINE
  8
0
 62
     0
 10
232.418
 20
65.8689
 30
0.0
 11
233.219
 21
65.8689
 31
0.0
  0
LINE
  8
0
 62
     0
 10
233.219
 20
65.8689
 30
0.0
 11
233.219
 21
71.6689
 31
0.0
  0
LINE
  8
0
 62
     0
 10
233.219
 20
71.6689
 30
0.0
 11
232.418
 21
71.6689
 31
0.0
  0
LINE
  8
0
 62
     0
 10
232.418
 20
71.6689
 30
0.0
 11
232.418
 21
74.7695
 31
0.0
  0
LINE
  8
0
 62
     0
 10
232.418
 20
74.7695
 30
0.0
 11
233.219
 21
74.7695
 31
0.0
  0
LINE
  8
0
 62
     0
 10
233.219
 20
74.7695
 30
0.0
 11
233.219
 21
75.7686
 31
0.0
  0
LINE
  8
0
 62
     0
 10
233.219
 20
75.7686
 30
0.0
 11
247.219
 21
75.7686
 31
0.0
  0
LINE
  8
0
 62
     0
 10
247.219
 20
75.7686
 30
0.0
 11
247.219
 21
74.7695
 31
0.0
  0
LINE
  8
0
 62
     0
 10
247.219
 20
74.7695
 30
0.0
 11
248.019
 21
74.7695
 31
0.0
  0
LINE
  8
0
 62
     0
 10
248.019
 20
74.7695
 30
0.0
 11
248.019
 21
71.6689
 31
0.0
  0
LINE
  8
0
 62
     0
 10
248.019
 20
71.6689
 30
0.0
 11
247.219
 21
71.6689
 31
0.0
  0
LINE
  8
0
 62
     0
 10
247.219
 20
71.6689
 30
0.0
 11
247.219
 21
65.8689
 31
0.0
  0
LINE
  8
0
 62
     0
 10
247.219
 20
65.8689
 30
0.0
 11
248.019
 21
65.8689
 31
0.0
  0
LINE
  8
0
 62
     0
 10
248.019
 20
65.8689
 30
0.0
 11
248.019
 21
62.7697
 31
0.0
  0
LINE
  8
0
 62
     0
 10
248.019
 20
62.7697
 30
0.0
 11
247.219
 21
62.7697
 31
0.0
  0
LINE
  8
0
 62
     0
 10
264.969
 20
49.2196
 30
0.0
 11
264.969
 21
42.9493
 31
0.0
  0
LINE
  8
0
 62
     0
 10
264.969
 20
42.9493
 30
0.0
 11
263.343
 21
42.9493
 31
0.0
  0
LINE
  8
0
 62
     0
 10
263.343
 20
42.9493
 30
0.0
 11
263.343
 21
41.9696
 31
0.0
  0
LINE
  8
0
 62
     0
 10
263.343
 20
41.9696
 30
0.0
 11
260.044
 21
41.9696
 31
0.0
  0
LINE
  8
0
 62
     0
 10
260.044
 20
41.9696
 30
0.0
 11
260.044
 21
42.9493
 31
0.0
  0
LINE
  8
0
 62
     0
 10
260.044
 20
42.9493
 30
0.0
 11
258.319
 21
42.9493
 31
0.0
  0
LINE
  8
0
 62
     0
 10
258.319
 20
42.9493
 30
0.0
 11
258.319
 21
43.7487
 31
0.0
  0
LINE
  8
0
 62
     0
 10
258.319
 20
43.7487
 30
0.0
 11
257.544
 21
43.7487
 31
0.0
  0
LINE
  8
0
 62
     0
 10
257.544
 20
43.7487
 30
0.0
 11
257.544
 21
43.7198
 31
0.0
  0
LINE
  8
0
 62
     0
 10
257.544
 20
43.7198
 30
0.0
 11
256.744
 21
43.7198
 31
0.0
  0
LINE
  8
0
 62
     0
 10
256.744
 20
43.7198
 30
0.0
 11
256.744
 21
42.7193
 31
0.0
  0
LINE
  8
0
 62
     0
 10
256.744
 20
42.7193
 30
0.0
 11
242.744
 21
42.7193
 31
0.0
  0
LINE
  8
0
 62
     0
 10
242.744
 20
42.7193
 30
0.0
 11
242.744
 21
43.7198
 31
0.0
  0
LINE
  8
0
 62
     0
 10
242.744
 20
43.7198
 30
0.0
 11
241.943
 21
43.7198
 31
0.0
  0
LINE
  8
0
 62
     0
 10
241.943
 20
43.7198
 30
0.0
 11
241.943
 21
43.7487
 31
0.0
  0
LINE
  8
0
 62
     0
 10
241.943
 20
43.7487
 30
0.0
 11
241.169
 21
43.7487
 31
0.0
  0
LINE
  8
0
 62
     0
 10
241.169
 20
43.7487
 30
0.0
 11
241.169
 21
42.9493
 31
0.0
  0
LINE
  8
0
 62
     0
 10
241.169
 20
42.9493
 30
0.0
 11
239.444
 21
42.9493
 31
0.0
  0
LINE
  8
0
 62
     0
 10
239.444
 20
42.9493
 30
0.0
 11
239.444
 21
41.9696
 31
0.0
  0
LINE
  8
0
 62
     0
 10
239.444
 20
41.9696
 30
0.0
 11
236.143
 21
41.9696
 31
0.0
  0
LINE
  8
0
 62
     0
 10
236.143
 20
41.9696
 30
0.0
 11
236.143
 21
42.9493
 31
0.0
  0
LINE
  8
0
 62
     0
 10
236.143
 20
42.9493
 30
0.0
 11
234.519
 21
42.9493
 31
0.0
  0
LINE
  8
0
 62
     0
 10
234.519
 20
42.9493
 30
0.0
 11
234.519
 21
49.2196
 31
0.0
  0
LINE
  8
0
 62
     0
 10
234.519
 20
49.2196
 30
0.0
 11
233.644
 21
49.2196
 31
0.0
  0
LINE
  8
0
 62
     0
 10
233.644
 20
49.2196
 30
0.0
 11
233.644
 21
52.0196
 31
0.0
  0
LINE
  8
0
 62
     0
 10
233.644
 20
52.0196
 30
0.0
 11
234.519
 21
52.0196
 31
0.0
  0
LINE
  8
0
 62
     0
 10
234.519
 20
52.0196
 30
0.0
 11
234.519
 21
55.2496
 31
0.0
  0
LINE
  8
0
 62
     0
 10
234.519
 20
55.2496
 30
0.0
 11
236.143
 21
55.2496
 31
0.0
  0
LINE
  8
0
 62
     0
 10
236.143
 20
55.2496
 30
0.0
 11
236.143
 21
56.1689
 31
0.0
  0
LINE
  8
0
 62
     0
 10
236.143
 20
56.1689
 30
0.0
 11
239.444
 21
56.1689
 31
0.0
  0
LINE
  8
0
 62
     0
 10
239.444
 20
56.1689
 30
0.0
 11
239.444
 21
55.2496
 31
0.0
  0
LINE
  8
0
 62
     0
 10
239.444
 20
55.2496
 30
0.0
 11
241.169
 21
55.2496
 31
0.0
  0
LINE
  8
0
 62
     0
 10
241.169
 20
55.2496
 30
0.0
 11
241.169
 21
54.4491
 31
0.0
  0
LINE
  8
0
 62
     0
 10
241.169
 20
54.4491
 30
0.0
 11
241.943
 21
54.4491
 31
0.0
  0
LINE
  8
0
 62
     0
 10
241.943
 20
54.4491
 30
0.0
 11
241.943
 21
55.7195
 31
0.0
  0
LINE
  8
0
 62
     0
 10
241.943
 20
55.7195
 30
0.0
 11
242.744
 21
55.7195
 31
0.0
  0
LINE
  8
0
 62
     0
 10
242.744
 20
55.7195
 30
0.0
 11
242.744
 21
56.7186
 31
0.0
  0
LINE
  8
0
 62
     0
 10
242.744
 20
56.7186
 30
0.0
 11
256.744
 21
56.7186
 31
0.0
  0
LINE
  8
0
 62
     0
 10
256.744
 20
56.7186
 30
0.0
 11
256.744
 21
55.7195
 31
0.0
  0
LINE
  8
0
 62
     0
 10
256.744
 20
55.7195
 30
0.0
 11
257.544
 21
55.7195
 31
0.0
  0
LINE
  8
0
 62
     0
 10
257.544
 20
55.7195
 30
0.0
 11
257.544
 21
54.4491
 31
0.0
  0
LINE
  8
0
 62
     0
 10
257.544
 20
54.4491
 30
0.0
 11
258.319
 21
54.4491
 31
0.0
  0
LINE
  8
0
 62
     0
 10
258.319
 20
54.4491
 30
0.0
 11
258.319
 21
55.2496
 31
0.0
  0
LINE
  8
0
 62
     0
 10
258.319
 20
55.2496
 30
0.0
 11
260.044
 21
55.2496
 31
0.0
  0
LINE
  8
0
 62
     0
 10
260.044
 20
55.2496
 30
0.0
 11
260.044
 21
56.1689
 31
0.0
  0
LINE
  8
0
 62
     0
 10
260.044
 20
56.1689
 30
0.0
 11
263.343
 21
56.1689
 31
0.0
  0
LINE
  8
0
 62
     0
 10
263.343
 20
56.1689
 30
0.0
 11
263.343
 21
55.2496
 31
0.0
  0
LINE
  8
0
 62
     0
 10
263.343
 20
55.2496
 30
0.0
 11
264.969
 21
55.2496
 31
0.0
  0
LINE
  8
0
 62
     0
 10
264.969
 20
55.2496
 30
0.0
 11
264.969
 21
52.0196
 31
0.0
  0
LINE
  8
0
 62
     0
 10
264.969
 20
52.0196
 30
0.0
 11
265.844
 21
52.0196
 31
0.0
  0
LINE
  8
0
 62
     0
 10
265.844
 20
52.0196
 30
0.0
 11
265.844
 21
49.2196
 31
0.0
  0
LINE
  8
0
 62
     0
 10
265.844
 20
49.2196
 30
0.0
 11
264.969
 21
49.2196
 31
0.0
  0
LINE
  8
0
 62
     0
 10
266.269
 20
24.6696
 30
0.0
 11
266.269
 21
23.6692
 31
0.0
  0
LINE
  8
0
 62
     0
 10
266.269
 20
23.6692
 30
0.0
 11
252.269
 21
23.6692
 31
0.0
  0
LINE
  8
0
 62
     0
 10
252.269
 20
23.6692
 30
0.0
 11
252.269
 21
24.6696
 31
0.0
  0
LINE
  8
0
 62
     0
 10
252.269
 20
24.6696
 30
0.0
 11
251.468
 21
24.6696
 31
0.0
  0
LINE
  8
0
 62
     0
 10
251.468
 20
24.6696
 30
0.0
 11
251.468
 21
27.7688
 31
0.0
  0
LINE
  8
0
 62
     0
 10
251.468
 20
27.7688
 30
0.0
 11
252.269
 21
27.7688
 31
0.0
  0
LINE
  8
0
 62
     0
 10
252.269
 20
27.7688
 30
0.0
 11
252.269
 21
33.569
 31
0.0
  0
LINE
  8
0
 62
     0
 10
252.269
 20
33.569
 30
0.0
 11
251.468
 21
33.569
 31
0.0
  0
LINE
  8
0
 62
     0
 10
251.468
 20
33.569
 30
0.0
 11
251.468
 21
36.6695
 31
0.0
  0
LINE
  8
0
 62
     0
 10
251.468
 20
36.6695
 30
0.0
 11
252.269
 21
36.6695
 31
0.0
  0
LINE
  8
0
 62
     0
 10
252.269
 20
36.6695
 30
0.0
 11
252.269
 21
37.6686
 31
0.0
  0
LINE
  8
0
 62
     0
 10
252.269
 20
37.6686
 30
0.0
 11
266.269
 21
37.6686
 31
0.0
  0
LINE
  8
0
 62
     0
 10
266.269
 20
37.6686
 30
0.0
 11
266.269
 21
36.6695
 31
0.0
  0
LINE
  8
0
 62
     0
 10
266.269
 20
36.6695
 30
0.0
 11
267.069
 21
36.6695
 31
0.0
  0
LINE
  8
0
 62
     0
 10
267.069
 20
36.6695
 30
0.0
 11
267.069
 21
33.569
 31
0.0
  0
LINE
  8
0
 62
     0
 10
267.069
 20
33.569
 30
0.0
 11
266.269
 21
33.569
 31
0.0
  0
LINE
  8
0
 62
     0
 10
266.269
 20
33.569
 30
0.0
 11
266.269
 21
27.7688
 31
0.0
  0
LINE
  8
0
 62
     0
 10
266.269
 20
27.7688
 30
0.0
 11
267.069
 21
27.7688
 31
0.0
  0
LINE
  8
0
 62
     0
 10
267.069
 20
27.7688
 30
0.0
 11
267.069
 21
24.6696
 31
0.0
  0
LINE
  8
0
 62
     0
 10
267.069
 20
24.6696
 30
0.0
 11
266.269
 21
24.6696
 31
0.0
  0
LINE
  8
0
 62
     0
 10
266.269
 20
5.61964
 30
0.0
 11
266.269
 21
4.6192
 31
0.0
  0
LINE
  8
0
 62
     0
 10
266.269
 20
4.6192
 30
0.0
 11
252.269
 21
4.6192
 31
0.0
  0
LINE
  8
0
 62
     0
 10
252.269
 20
4.6192
 30
0.0
 11
252.269
 21
5.61964
 31
0.0
  0
LINE
  8
0
 62
     0
 10
252.269
 20
5.61964
 30
0.0
 11
251.468
 21
5.61964
 31
0.0
  0
LINE
  8
0
 62
     0
 10
251.468
 20
5.61964
 30
0.0
 11
251.468
 21
8.71883
 31
0.0
  0
LINE
  8
0
 62
     0
 10
251.468
 20
8.71883
 30
0.0
 11
252.269
 21
8.71883
 31
0.0
  0
LINE
  8
0
 62
     0
 10
252.269
 20
8.71883
 30
0.0
 11
252.269
 21
14.519
 31
0.0
  0
LINE
  8
0
 62
     0
 10
252.269
 20
14.519
 30
0.0
 11
251.468
 21
14.519
 31
0.0
  0
LINE
  8
0
 62
     0
 10
251.468
 20
14.519
 30
0.0
 11
251.468
 21
17.6196
 31
0.0
  0
LINE
  8
0
 62
     0
 10
251.468
 20
17.6196
 30
0.0
 11
252.269
 21
17.6196
 31
0.0
  0
LINE
  8
0
 62
     0
 10
252.269
 20
17.6196
 30
0.0
 11
252.269
 21
18.6187
 31
0.0
  0
LINE
  8
0
 62
     0
 10
252.269
 20
18.6187
 30
0.0
 11
266.269
 21
18.6187
 31
0.0
  0
LINE
  8
0
 62
     0
 10
266.269
 20
18.6187
 30
0.0
 11
266.269
 21
17.6196
 31
0.0
  0
LINE
  8
0
 62
     0
 10
266.269
 20
17.6196
 30
0.0
 11
267.069
 21
17.6196
 31
0.0
  0
LINE
  8
0
 62
     0
 10
267.069
 20
17.6196
 30
0.0
 11
267.069
 21
14.519
 31
0.0
  0
LINE
  8
0
 62
     0
 10
267.069
 20
14.519
 30
0.0
 11
266.269
 21
14.519
 31
0.0
  0
LINE
  8
0
 62
     0
 10
266.269
 20
14.519
 30
0.0
 11
266.269
 21
8.71883
 31
0.0
  0
LINE
  8
0
 62
     0
 10
266.269
 20
8.71883
 30
0.0
 11
267.069
 21
8.71883
 31
0.0
  0
LINE
  8
0
 62
     0
 10
267.069
 20
8.71883
 30
0.0
 11
267.069
 21
5.61964
 31
0.0
  0
LINE
  8
0
 62
     0
 10
267.069
 20
5.61964
 30
0.0
 11
266.269
 21
5.61964
 31
0.0
  0
LINE
  8
0
 62
     0
 10
266.269
 20
62.7697
 30
0.0
 11
266.269
 21
61.7693
 31
0.0
  0
LINE
  8
0
 62
     0
 10
266.269
 20
61.7693
 30
0.0
 11
252.269
 21
61.7693
 31
0.0
  0
LINE
  8
0
 62
     0
 10
252.269
 20
61.7693
 30
0.0
 11
252.269
 21
62.7697
 31
0.0
  0
LINE
  8
0
 62
     0
 10
252.269
 20
62.7697
 30
0.0
 11
251.468
 21
62.7697
 31
0.0
  0
LINE
  8
0
 62
     0
 10
251.468
 20
62.7697
 30
0.0
 11
251.468
 21
65.8689
 31
0.0
  0
LINE
  8
0
 62
     0
 10
251.468
 20
65.8689
 30
0.0
 11
252.269
 21
65.8689
 31
0.0
  0
LINE
  8
0
 62
     0
 10
252.269
 20
65.8689
 30
0.0
 11
252.269
 21
71.6689
 31
0.0
  0
LINE
  8
0
 62
     0
 10
252.269
 20
71.6689
 30
0.0
 11
251.468
 21
71.6689
 31
0.0
  0
LINE
  8
0
 62
     0
 10
251.468
 20
71.6689
 30
0.0
 11
251.468
 21
74.7695
 31
0.0
  0
LINE
  8
0
 62
     0
 10
251.468
 20
74.7695
 30
0.0
 11
252.269
 21
74.7695
 31
0.0
  0
LINE
  8
0
 62
     0
 10
252.269
 20
74.7695
 30
0.0
 11
252.269
 21
75.7686
 31
0.0
  0
LINE
  8
0
 62
     0
 10
252.269
 20
75.7686
 30
0.0
 11
266.269
 21
75.7686
 31
0.0
  0
LINE
  8
0
 62
     0
 10
266.269
 20
75.7686
 30
0.0
 11
266.269
 21
74.7695
 31
0.0
  0
LINE
  8
0
 62
     0
 10
266.269
 20
74.7695
 30
0.0
 11
267.069
 21
74.7695
 31
0.0
  0
LINE
  8
0
 62
     0
 10
267.069
 20
74.7695
 30
0.0
 11
267.069
 21
71.6689
 31
0.0
  0
LINE
  8
0
 62
     0
 10
267.069
 20
71.6689
 30
0.0
 11
266.269
 21
71.6689
 31
0.0
  0
LINE
  8
0
 62
     0
 10
266.269
 20
71.6689
 30
0.0
 11
266.269
 21
65.8689
 31
0.0
  0
LINE
  8
0
 62
     0
 10
266.269
 20
65.8689
 30
0.0
 11
267.069
 21
65.8689
 31
0.0
  0
LINE
  8
0
 62
     0
 10
267.069
 20
65.8689
 30
0.0
 11
267.069
 21
62.7697
 31
0.0
  0
LINE
  8
0
 62
     0
 10
267.069
 20
62.7697
 30
0.0
 11
266.269
 21
62.7697
 31
0.0
  0
LINE
  8
0
 62
     0
 10
284.019
 20
87.3196
 30
0.0
 11
284.019
 21
81.0493
 31
0.0
  0
LINE
  8
0
 62
     0
 10
284.019
 20
81.0493
 30
0.0
 11
282.393
 21
81.0493
 31
0.0
  0
LINE
  8
0
 62
     0
 10
282.393
 20
81.0493
 30
0.0
 11
282.393
 21
80.0696
 31
0.0
  0
LINE
  8
0
 62
     0
 10
282.393
 20
80.0696
 30
0.0
 11
279.094
 21
80.0696
 31
0.0
  0
LINE
  8
0
 62
     0
 10
279.094
 20
80.0696
 30
0.0
 11
279.094
 21
81.0493
 31
0.0
  0
LINE
  8
0
 62
     0
 10
279.094
 20
81.0493
 30
0.0
 11
277.369
 21
81.0493
 31
0.0
  0
LINE
  8
0
 62
     0
 10
277.369
 20
81.0493
 30
0.0
 11
277.369
 21
81.8487
 31
0.0
  0
LINE
  8
0
 62
     0
 10
277.369
 20
81.8487
 30
0.0
 11
276.594
 21
81.8487
 31
0.0
  0
LINE
  8
0
 62
     0
 10
276.594
 20
81.8487
 30
0.0
 11
276.594
 21
81.8197
 31
0.0
  0
LINE
  8
0
 62
     0
 10
276.594
 20
81.8197
 30
0.0
 11
275.794
 21
81.8197
 31
0.0
  0
LINE
  8
0
 62
     0
 10
275.794
 20
81.8197
 30
0.0
 11
275.794
 21
80.8193
 31
0.0
  0
LINE
  8
0
 62
     0
 10
275.794
 20
80.8193
 30
0.0
 11
261.794
 21
80.8193
 31
0.0
  0
LINE
  8
0
 62
     0
 10
261.794
 20
80.8193
 30
0.0
 11
261.794
 21
81.8197
 31
0.0
  0
LINE
  8
0
 62
     0
 10
261.794
 20
81.8197
 30
0.0
 11
260.993
 21
81.8197
 31
0.0
  0
LINE
  8
0
 62
     0
 10
260.993
 20
81.8197
 30
0.0
 11
260.993
 21
81.8487
 31
0.0
  0
LINE
  8
0
 62
     0
 10
260.993
 20
81.8487
 30
0.0
 11
260.219
 21
81.8487
 31
0.0
  0
LINE
  8
0
 62
     0
 10
260.219
 20
81.8487
 30
0.0
 11
260.219
 21
81.0493
 31
0.0
  0
LINE
  8
0
 62
     0
 10
260.219
 20
81.0493
 30
0.0
 11
258.494
 21
81.0493
 31
0.0
  0
LINE
  8
0
 62
     0
 10
258.494
 20
81.0493
 30
0.0
 11
258.494
 21
80.0696
 31
0.0
  0
LINE
  8
0
 62
     0
 10
258.494
 20
80.0696
 30
0.0
 11
255.193
 21
80.0696
 31
0.0
  0
LINE
  8
0
 62
     0
 10
255.193
 20
80.0696
 30
0.0
 11
255.193
 21
81.0493
 31
0.0
  0
LINE
  8
0
 62
     0
 10
255.193
 20
81.0493
 30
0.0
 11
253.569
 21
81.0493
 31
0.0
  0
LINE
  8
0
 62
     0
 10
253.569
 20
81.0493
 30
0.0
 11
253.569
 21
87.3196
 31
0.0
  0
LINE
  8
0
 62
     0
 10
253.569
 20
87.3196
 30
0.0
 11
252.694
 21
87.3196
 31
0.0
  0
LINE
  8
0
 62
     0
 10
252.694
 20
87.3196
 30
0.0
 11
252.694
 21
90.1196
 31
0.0
  0
LINE
  8
0
 62
     0
 10
252.694
 20
90.1196
 30
0.0
 11
253.569
 21
90.1196
 31
0.0
  0
LINE
  8
0
 62
     0
 10
253.569
 20
90.1196
 30
0.0
 11
253.569
 21
93.3496
 31
0.0
  0
LINE
  8
0
 62
     0
 10
253.569
 20
93.3496
 30
0.0
 11
255.193
 21
93.3496
 31
0.0
  0
LINE
  8
0
 62
     0
 10
255.193
 20
93.3496
 30
0.0
 11
255.193
 21
94.2689
 31
0.0
  0
LINE
  8
0
 62
     0
 10
255.193
 20
94.2689
 30
0.0
 11
258.494
 21
94.2689
 31
0.0
  0
LINE
  8
0
 62
     0
 10
258.494
 20
94.2689
 30
0.0
 11
258.494
 21
93.3496
 31
0.0
  0
LINE
  8
0
 62
     0
 10
258.494
 20
93.3496
 30
0.0
 11
260.219
 21
93.3496
 31
0.0
  0
LINE
  8
0
 62
     0
 10
260.219
 20
93.3496
 30
0.0
 11
260.219
 21
92.5491
 31
0.0
  0
LINE
  8
0
 62
     0
 10
260.219
 20
92.5491
 30
0.0
 11
260.993
 21
92.5491
 31
0.0
  0
LINE
  8
0
 62
     0
 10
260.993
 20
92.5491
 30
0.0
 11
260.993
 21
93.8195
 31
0.0
  0
LINE
  8
0
 62
     0
 10
260.993
 20
93.8195
 30
0.0
 11
261.794
 21
93.8195
 31
0.0
  0
LINE
  8
0
 62
     0
 10
261.794
 20
93.8195
 30
0.0
 11
261.794
 21
94.8186
 31
0.0
  0
LINE
  8
0
 62
     0
 10
261.794
 20
94.8186
 30
0.0
 11
275.794
 21
94.8186
 31
0.0
  0
LINE
  8
0
 62
     0
 10
275.794
 20
94.8186
 30
0.0
 11
275.794
 21
93.8195
 31
0.0
  0
LINE
  8
0
 62
     0
 10
275.794
 20
93.8195
 30
0.0
 11
276.594
 21
93.8195
 31
0.0
  0
LINE
  8
0
 62
     0
 10
276.594
 20
93.8195
 30
0.0
 11
276.594
 21
92.5491
 31
0.0
  0
LINE
  8
0
 62
     0
 10
276.594
 20
92.5491
 30
0.0
 11
277.369
 21
92.5491
 31
0.0
  0
LINE
  8
0
 62
     0
 10
277.369
 20
92.5491
 30
0.0
 11
277.369
 21
93.3496
 31
0.0
  0
LINE
  8
0
 62
     0
 10
277.369
 20
93.3496
 30
0.0
 11
279.094
 21
93.3496
 31
0.0
  0
LINE
  8
0
 62
     0
 10
279.094
 20
93.3496
 30
0.0
 11
279.094
 21
94.2689
 31
0.0
  0
LINE
  8
0
 62
     0
 10
279.094
 20
94.2689
 30
0.0
 11
282.393
 21
94.2689
 31
0.0
  0
LINE
  8
0
 62
     0
 10
282.393
 20
94.2689
 30
0.0
 11
282.393
 21
93.3496
 31
0.0
  0
LINE
  8
0
 62
     0
 10
282.393
 20
93.3496
 30
0.0
 11
284.019
 21
93.3496
 31
0.0
  0
LINE
  8
0
 62
     0
 10
284.019
 20
93.3496
 30
0.0
 11
284.019
 21
90.1196
 31
0.0
  0
LINE
  8
0
 62
     0
 10
284.019
 20
90.1196
 30
0.0
 11
284.894
 21
90.1196
 31
0.0
  0
LINE
  8
0
 62
     0
 10
284.894
 20
90.1196
 30
0.0
 11
284.894
 21
87.3196
 31
0.0
  0
LINE
  8
0
 62
     0
 10
284.894
 20
87.3196
 30
0.0
 11
284.019
 21
87.3196
 31
0.0
  0
LINE
  8
0
 62
     0
 10
285.319
 20
43.7198
 30
0.0
 11
285.319
 21
42.7193
 31
0.0
  0
LINE
  8
0
 62
     0
 10
285.319
 20
42.7193
 30
0.0
 11
271.319
 21
42.7193
 31
0.0
  0
LINE
  8
0
 62
     0
 10
271.319
 20
42.7193
 30
0.0
 11
271.319
 21
43.7198
 31
0.0
  0
LINE
  8
0
 62
     0
 10
271.319
 20
43.7198
 30
0.0
 11
270.518
 21
43.7198
 31
0.0
  0
LINE
  8
0
 62
     0
 10
270.518
 20
43.7198
 30
0.0
 11
270.518
 21
46.8189
 31
0.0
  0
LINE
  8
0
 62
     0
 10
270.518
 20
46.8189
 30
0.0
 11
271.319
 21
46.8189
 31
0.0
  0
LINE
  8
0
 62
     0
 10
271.319
 20
46.8189
 30
0.0
 11
271.319
 21
52.6189
 31
0.0
  0
LINE
  8
0
 62
     0
 10
271.319
 20
52.6189
 30
0.0
 11
270.518
 21
52.6189
 31
0.0
  0
LINE
  8
0
 62
     0
 10
270.518
 20
52.6189
 30
0.0
 11
270.518
 21
55.7195
 31
0.0
  0
LINE
  8
0
 62
     0
 10
270.518
 20
55.7195
 30
0.0
 11
271.319
 21
55.7195
 31
0.0
  0
LINE
  8
0
 62
     0
 10
271.319
 20
55.7195
 30
0.0
 11
271.319
 21
56.7186
 31
0.0
  0
LINE
  8
0
 62
     0
 10
271.319
 20
56.7186
 30
0.0
 11
285.319
 21
56.7186
 31
0.0
  0
LINE
  8
0
 62
     0
 10
285.319
 20
56.7186
 30
0.0
 11
285.319
 21
55.7195
 31
0.0
  0
LINE
  8
0
 62
     0
 10
285.319
 20
55.7195
 30
0.0
 11
286.119
 21
55.7195
 31
0.0
  0
LINE
  8
0
 62
     0
 10
286.119
 20
55.7195
 30
0.0
 11
286.119
 21
52.6189
 31
0.0
  0
LINE
  8
0
 62
     0
 10
286.119
 20
52.6189
 30
0.0
 11
285.319
 21
52.6189
 31
0.0
  0
LINE
  8
0
 62
     0
 10
285.319
 20
52.6189
 30
0.0
 11
285.319
 21
46.8189
 31
0.0
  0
LINE
  8
0
 62
     0
 10
285.319
 20
46.8189
 30
0.0
 11
286.119
 21
46.8189
 31
0.0
  0
LINE
  8
0
 62
     0
 10
286.119
 20
46.8189
 30
0.0
 11
286.119
 21
43.7198
 31
0.0
  0
LINE
  8
0
 62
     0
 10
286.119
 20
43.7198
 30
0.0
 11
285.319
 21
43.7198
 31
0.0
  0
LINE
  8
0
 62
     0
 10
285.319
 20
24.6696
 30
0.0
 11
285.319
 21
23.6692
 31
0.0
  0
LINE
  8
0
 62
     0
 10
285.319
 20
23.6692
 30
0.0
 11
271.319
 21
23.6692
 31
0.0
  0
LINE
  8
0
 62
     0
 10
271.319
 20
23.6692
 30
0.0
 11
271.319
 21
24.6696
 31
0.0
  0
LINE
  8
0
 62
     0
 10
271.319
 20
24.6696
 30
0.0
 11
270.518
 21
24.6696
 31
0.0
  0
LINE
  8
0
 62
     0
 10
270.518
 20
24.6696
 30
0.0
 11
270.518
 21
27.7688
 31
0.0
  0
LINE
  8
0
 62
     0
 10
270.518
 20
27.7688
 30
0.0
 11
271.319
 21
27.7688
 31
0.0
  0
LINE
  8
0
 62
     0
 10
271.319
 20
27.7688
 30
0.0
 11
271.319
 21
33.569
 31
0.0
  0
LINE
  8
0
 62
     0
 10
271.319
 20
33.569
 30
0.0
 11
270.518
 21
33.569
 31
0.0
  0
LINE
  8
0
 62
     0
 10
270.518
 20
33.569
 30
0.0
 11
270.518
 21
36.6695
 31
0.0
  0
LINE
  8
0
 62
     0
 10
270.518
 20
36.6695
 30
0.0
 11
271.319
 21
36.6695
 31
0.0
  0
LINE
  8
0
 62
     0
 10
271.319
 20
36.6695
 30
0.0
 11
271.319
 21
37.6686
 31
0.0
  0
LINE
  8
0
 62
     0
 10
271.319
 20
37.6686
 30
0.0
 11
285.319
 21
37.6686
 31
0.0
  0
LINE
  8
0
 62
     0
 10
285.319
 20
37.6686
 30
0.0
 11
285.319
 21
36.6695
 31
0.0
  0
LINE
  8
0
 62
     0
 10
285.319
 20
36.6695
 30
0.0
 11
286.119
 21
36.6695
 31
0.0
  0
LINE
  8
0
 62
     0
 10
286.119
 20
36.6695
 30
0.0
 11
286.119
 21
33.569
 31
0.0
  0
LINE
  8
0
 62
     0
 10
286.119
 20
33.569
 30
0.0
 11
285.319
 21
33.569
 31
0.0
  0
LINE
  8
0
 62
     0
 10
285.319
 20
33.569
 30
0.0
 11
285.319
 21
27.7688
 31
0.0
  0
LINE
  8
0
 62
     0
 10
285.319
 20
27.7688
 30
0.0
 11
286.119
 21
27.7688
 31
0.0
  0
LINE
  8
0
 62
     0
 10
286.119
 20
27.7688
 30
0.0
 11
286.119
 21
24.6696
 31
0.0
  0
LINE
  8
0
 62
     0
 10
286.119
 20
24.6696
 30
0.0
 11
285.319
 21
24.6696
 31
0.0
  0
LINE
  8
0
 62
     0
 10
285.319
 20
5.61964
 30
0.0
 11
285.319
 21
4.6192
 31
0.0
  0
LINE
  8
0
 62
     0
 10
285.319
 20
4.6192
 30
0.0
 11
271.319
 21
4.6192
 31
0.0
  0
LINE
  8
0
 62
     0
 10
271.319
 20
4.6192
 30
0.0
 11
271.319
 21
5.61964
 31
0.0
  0
LINE
  8
0
 62
     0
 10
271.319
 20
5.61964
 30
0.0
 11
270.518
 21
5.61964
 31
0.0
  0
LINE
  8
0
 62
     0
 10
270.518
 20
5.61964
 30
0.0
 11
270.518
 21
8.71883
 31
0.0
  0
LINE
  8
0
 62
     0
 10
270.518
 20
8.71883
 30
0.0
 11
271.319
 21
8.71883
 31
0.0
  0
LINE
  8
0
 62
     0
 10
271.319
 20
8.71883
 30
0.0
 11
271.319
 21
14.519
 31
0.0
  0
LINE
  8
0
 62
     0
 10
271.319
 20
14.519
 30
0.0
 11
270.518
 21
14.519
 31
0.0
  0
LINE
  8
0
 62
     0
 10
270.518
 20
14.519
 30
0.0
 11
270.518
 21
17.6196
 31
0.0
  0
LINE
  8
0
 62
     0
 10
270.518
 20
17.6196
 30
0.0
 11
271.319
 21
17.6196
 31
0.0
  0
LINE
  8
0
 62
     0
 10
271.319
 20
17.6196
 30
0.0
 11
271.319
 21
18.6187
 31
0.0
  0
LINE
  8
0
 62
     0
 10
271.319
 20
18.6187
 30
0.0
 11
285.319
 21
18.6187
 31
0.0
  0
LINE
  8
0
 62
     0
 10
285.319
 20
18.6187
 30
0.0
 11
285.319
 21
17.6196
 31
0.0
  0
LINE
  8
0
 62
     0
 10
285.319
 20
17.6196
 30
0.0
 11
286.119
 21
17.6196
 31
0.0
  0
LINE
  8
0
 62
     0
 10
286.119
 20
17.6196
 30
0.0
 11
286.119
 21
14.519
 31
0.0
  0
LINE
  8
0
 62
     0
 10
286.119
 20
14.519
 30
0.0
 11
285.319
 21
14.519
 31
0.0
  0
LINE
  8
0
 62
     0
 10
285.319
 20
14.519
 30
0.0
 11
285.319
 21
8.71883
 31
0.0
  0
LINE
  8
0
 62
     0
 10
285.319
 20
8.71883
 30
0.0
 11
286.119
 21
8.71883
 31
0.0
  0
LINE
  8
0
 62
     0
 10
286.119
 20
8.71883
 30
0.0
 11
286.119
 21
5.61964
 31
0.0
  0
LINE
  8
0
 62
     0
 10
286.119
 20
5.61964
 30
0.0
 11
285.319
 21
5.61964
 31
0.0
  0
LINE
  8
0
 62
     0
 10
285.319
 20
62.7697
 30
0.0
 11
285.319
 21
61.7693
 31
0.0
  0
LINE
  8
0
 62
     0
 10
285.319
 20
61.7693
 30
0.0
 11
271.319
 21
61.7693
 31
0.0
  0
LINE
  8
0
 62
     0
 10
271.319
 20
61.7693
 30
0.0
 11
271.319
 21
62.7697
 31
0.0
  0
LINE
  8
0
 62
     0
 10
271.319
 20
62.7697
 30
0.0
 11
270.518
 21
62.7697
 31
0.0
  0
LINE
  8
0
 62
     0
 10
270.518
 20
62.7697
 30
0.0
 11
270.518
 21
65.8689
 31
0.0
  0
LINE
  8
0
 62
     0
 10
270.518
 20
65.8689
 30
0.0
 11
271.319
 21
65.8689
 31
0.0
  0
LINE
  8
0
 62
     0
 10
271.319
 20
65.8689
 30
0.0
 11
271.319
 21
71.6689
 31
0.0
  0
LINE
  8
0
 62
     0
 10
271.319
 20
71.6689
 30
0.0
 11
270.518
 21
71.6689
 31
0.0
  0
LINE
  8
0
 62
     0
 10
270.518
 20
71.6689
 30
0.0
 11
270.518
 21
74.7695
 31
0.0
  0
LINE
  8
0
 62
     0
 10
270.518
 20
74.7695
 30
0.0
 11
271.319
 21
74.7695
 31
0.0
  0
LINE
  8
0
 62
     0
 10
271.319
 20
74.7695
 30
0.0
 11
271.319
 21
75.7686
 31
0.0
  0
LINE
  8
0
 62
     0
 10
271.319
 20
75.7686
 30
0.0
 11
285.319
 21
75.7686
 31
0.0
  0
LINE
  8
0
 62
     0
 10
285.319
 20
75.7686
 30
0.0
 11
285.319
 21
74.7695
 31
0.0
  0
LINE
  8
0
 62
     0
 10
285.319
 20
74.7695
 30
0.0
 11
286.119
 21
74.7695
 31
0.0
  0
LINE
  8
0
 62
     0
 10
286.119
 20
74.7695
 30
0.0
 11
286.119
 21
71.6689
 31
0.0
  0
LINE
  8
0
 62
     0
 10
286.119
 20
71.6689
 30
0.0
 11
285.319
 21
71.6689
 31
0.0
  0
LINE
  8
0
 62
     0
 10
285.319
 20
71.6689
 30
0.0
 11
285.319
 21
65.8689
 31
0.0
  0
LINE
  8
0
 62
     0
 10
285.319
 20
65.8689
 30
0.0
 11
286.119
 21
65.8689
 31
0.0
  0
LINE
  8
0
 62
     0
 10
286.119
 20
65.8689
 30
0.0
 11
286.119
 21
62.7697
 31
0.0
  0
LINE
  8
0
 62
     0
 10
286.119
 20
62.7697
 30
0.0
 11
285.319
 21
62.7697
 31
0.0
  0
ENDSEC
  0
EOF
